<svg id="Layer_1" data-name="Layer 1" xmlns="http://www.w3.org/2000/svg" viewBox="0 0 600 600"><defs><style>.cls-1{stroke:#fff;stroke-miterlimit:10;stroke-width:5px;}</style></defs><title>Artboard 1 copy 9</title><path class="cls-1" d="M70,102.61c3.76-10,9.31-18.21,20.6-20.48,17.72-3.55,31.66,8.15,32.21,27.49.44,15.3.1,30.62.1,45.93,0,3.28,0,6.57,0,10.55,19.3-7.14,38.15-3.43,56.7-4.2,9.85-.42,19.73-.08,29.59-.08,35,0,50.23,20.38,40.34,54,1.75,2.26,4.29,1.17,6.42,1.18q59.7.11,119.41.07c4.69,0,9.18,1,10-6.28.52-4.61,5.6-5.47,9.84-5.49q25-.12,50,0c4.22,0,9.56.78,10.1,5.15,1,7.87,5.91,6.63,10.85,6.62,8.5,0,17,.44,25.51-.1,19-1.19,32.18,6.18,38.37,24.67v182a19.93,19.93,0,0,1-14,4.4c-8.15-.38-16.34-.05-24.52-.11-11.93-.07-14.14-2.32-14.35-14.34-.22-13.2-.22-13.21-14-13.21q-115.5,0-231-.08c-6.76,0-16.47,2.24-16.7-8.19-.25-11.26,9.83-9.05,16.93-9.06q134.89-.15,269.81.11c8.38,0,11.76-2.05,10.75-10.7a78,78,0,0,1,0-17.35c.9-8.32-2.61-10.19-10.42-10.17q-110.89.39-221.78.08c-6.43,0-13.07-.19-19.24-1.76-15.48-3.94-25.17-18-25.43-36.48-.29-21.12-.32-42.24,0-63.36.12-6.88-1.61-9.51-9-9.42q-47.52.56-95,0c-6.9-.07-10.23,1.57-9.26,9,.44,3.35.07,6.8.07,10.21,0,6.21-1.06,12.57-8.56,12.71-8.32.17-9-6.67-9.1-13.16,0-2.38,0-4.77,0-7.15q0-64.9,0-129.8c0-2.72,0-5.45-.14-8.17-.26-5.15-3.06-8.44-8.11-8.84-5.78-.45-8.73,3.28-9.49,8.58a72.21,72.21,0,0,0-.3,10.2q0,106.8,0,213.6c0,2.73,0,5.45,0,8.18-.1,4.43.15,9.08-4.41,11.79-5.21,3.1-8.85-.7-12.76-3.16Zm309.4,131.52c-38.83,0-77.66.19-116.49-.17-7.63-.07-10,2.1-9.83,9.77.49,21.11-.06,42.24.28,63.35.22,14,7.06,20.57,21,20.59,76.64.09,153.27,0,229.91.19,6.66,0,8.83-1.84,8.72-8.57-.35-21.79-.08-43.59-.14-65.39-.05-16.1-3.73-19.74-20-19.76Q436.09,234.07,379.38,234.13ZM178.55,217.06c12.26,0,24.52.14,36.78-.05s20.09-7.35,20.49-18.12c.42-11.18-7.51-19.7-19.91-19.9q-36.78-.57-73.56,0c-11.93.2-19.44,8.33-19.35,19.3s7.85,18.49,19.79,18.7S166.63,217.05,178.55,217.06ZM503.69,411c4-.35,9.44,1.68,9.1-5.76-.31-6.78-5.44-4.84-9-4.75s-8.64-2.42-9,4.58C494.39,412.46,499.56,410.79,503.69,411Z"/><path class="cls-1" d="M70,382.72c3.66-4,8.17-5.48,13.62-5.36,11.23.26,22.46,0,33.69.12,5.19.07,8.36-.2,6.37-7.2-1.75-6.15-.68-12.81,1-19.06a6.22,6.22,0,0,0-2-1c-20-1.1-21.37-3.36-13.07-21.89,5.28-11.77,10.63-23.52,15.77-35.35,2.59-6,6.53-8.95,13.37-8.59a233.42,233.42,0,0,0,25.51,0c7.3-.42,11.29,2.85,14,9.19,5.8,13.4,12,26.62,17.9,40,4.92,11.1,2,16.3-10.1,16.28-6.7,0-8.57,1.64-6.09,8a12,12,0,0,1,.28,6.07c-1.5,8.5-2,15,10.51,14.42C198.49,378,198,386,198,391.76c.09,32.33,0,64.66.05,97,0,33.27,2.26,29.55-29.58,29.67-27.9.1-55.81-.06-83.72.08-5.62,0-10.74-.62-14.8-4.93Zm17.19,64.81c0,15.32.27,30.64-.13,46-.16,6.38,2,8,8.22,8,22.8-.34,45.6-.13,68.4-.13,17.28,0,17,0,17-17.29,0-6.16-1.67-8.49-8-8.13-8.14.46-16.33.24-24.5,0-5.51-.15-10.55-1.95-10.47-8.55s5-8.41,10.58-8.53c8.5-.19,17-.52,25.51,0,7.86.52,7.38-4.55,6.57-9.16s4.44-12.68-6.3-12.5q-12.75.19-25.52-.06c-5.5-.11-10.67-1.72-10.82-8.23-.16-7.08,5.23-8.85,11.14-9.08,5.09-.19,10.2-.06,15.31-.06,16.72,0,16.34,0,16.54-16.75.08-6.93-2.29-8.45-8.73-8.36q-37.77.48-75.54,0c-6.93-.1-9.62,1.64-9.36,9C87.54,418.25,87.17,432.9,87.17,447.53Zm64-114.7h1c24.95,0,24.68.11,14.72-22.69-2.89-6.61-6.54-8.59-13.64-8.9-9.48-.41-15.32,2.15-18,11.62-1.38,4.84-3.84,9.42-6.13,13.95-2.21,4.35-1.32,6.17,3.7,6C139,332.68,145.08,332.81,151.19,332.83Zm12.07,29.89c-.29-6.17-2.81-12.37-11.36-12.48s-11.63,5.78-11.7,13.45c-.06,7.28,3.13,12.52,10.82,13.46C157.77,378,163.05,372,163.26,362.72Z"/><path class="cls-1" d="M383.37,270.43c-5.55.09-9.36-2.34-9.58-8.09s3.13-8.55,8.88-8.68,9.43,2.27,9.62,8S389.14,270.33,383.37,270.43Z"/><path class="cls-1" d="M444.89,270.43c-6.91,0-10.64-2.86-10.7-8.35s3.67-8.37,9.3-8.41,9.24,2.45,9.26,8.29S449.18,270.32,444.89,270.43Z"/><path class="cls-1" d="M292.2,291.81c5,.43,9.07,2.32,9,8.46s-4,8.48-9.26,8.51-9.3-2.67-9.32-8.49S286.61,292.16,292.2,291.81Z"/><path class="cls-1" d="M422.68,300.51c-.7,5.7-4.29,8.4-9.67,8.29s-9.31-3.53-9.18-8.86,4.32-8.28,9.78-8.13S422.56,294.57,422.68,300.51Z"/><path class="cls-1" d="M483.28,300.48c-.22,5.44-3.75,8.24-9.12,8.3s-9.32-2.4-9.51-8.28,3.84-8.5,9.11-8.61S483,294,483.28,300.48Z"/><path class="cls-1" d="M352.56,291.81c5.38.24,9.45,2.62,9.5,8.32s-3.85,8.64-9.23,8.66-9.18-2.47-9.31-8.43S347.1,292.09,352.56,291.81Z"/><path class="cls-1" d="M321.49,270.45c-4.74-.22-8.41-2.65-8.35-8.53s3.72-8.26,9.31-8.26,9.21,2.83,9.16,8.46S327.86,270.46,321.49,270.45Z"/></svg>