<svg id="Layer_1" data-name="Layer 1" xmlns="http://www.w3.org/2000/svg" viewBox="0 0 600 600"><defs><style>.cls-1{stroke:#000;stroke-miterlimit:10;stroke-width:3.3px;}</style></defs><title>Artboard 1 copy 10</title><path class="cls-1" d="M77.11,394.5c0-35,.08-70.06-.1-105.08,0-4.86,1.54-6.94,6.24-8.48,55.76-18.28,107.29-44.31,150.93-84.26,30.1-27.56,52.3-60.18,62.14-100.36.55-2.24,1-4.43,3.95-4.38,2.41,0,2.78,1.9,3.23,3.74,13.95,56.25,50.21,95.87,96.08,128.1,35.94,25.25,75.28,43.79,117.06,57.14,4.64,1.48,6.36,3.45,6.35,8.39q-.22,105.65-.11,211.28c0,7.35-.09,7.56-7.35,7.42-14.15-.28-12.55,2.18-12.58-12.58q-.21-79.5.05-159c0-5.06-1.32-6.58-6.4-6.42-8.17.25-15.52-3.93-23.45-5.33-10.27-1.81-20.52-3.81-30.74-5.9-3.86-.79-5,.34-5,4.34.18,23.29.1,46.58.09,69.87,0,7.07-.16,7.29-6.93,7.25-15-.09-12.81,1.64-12.87-12.8-.1-22.37-.12-44.74.06-67.12,0-3.69-.89-4.9-4.72-5.28-18.92-1.92-37.86-3.32-56.86-4.36-16.27-.9-32.55-1.21-48.81-1.6-17.73-.42-35.5.65-53.25,1.21-12.25.4-24.51.78-36.73,1.66-10.72.76-21.38,2.36-32.09,3.25-4,.33-3,2.86-3.06,5q0,35.76,0,71.53c0,8.48,0,8.49-8.42,8.48-12.91,0-11.37,1-11.4-11.57,0-21.83-.1-43.65.08-65.48,0-3.86-.86-5.15-4.87-4.45-15,2.62-29.95,5.15-44.53,9.59-3.69,1.12-7.4,2.27-11.31,1.78-4.1-.53-4.79,1.51-4.78,5.1q.18,41,.06,82c0,28.42-.24,56.85-.13,85.27,0,4.54-1.65,5.57-5.8,5.56-16.22,0-14,1.63-14-13.39C77.05,461.26,77.11,427.88,77.11,394.5ZM415,282.16c-63.26-34.33-100.6-87-115-156.89-14.49,70-51.93,122.7-116.81,156.89Zm-275.89,6.66v0c-16.68,0-33.37.15-50.05-.1-4.23-.06-5.29,1.24-5.14,5.27.29,8.24.25,16.5,0,24.75-.1,3.59,1.09,4.36,4.6,4.7,13.68,1.32,26.39-2.89,39.4-5.82,38-8.53,76.69-11.23,115.42-13.45,21.2-1.21,42.42-.84,63.64-1q23.91-.17,47.75.89c16.07.74,32.08,2.48,48.12,3.6a473.17,473.17,0,0,1,70.05,10.14c12.5,2.77,24.67,6.61,37.78,5.66,4.44-.31,5.5-1.53,5.34-5.67-.29-7.88-.34-15.78,0-23.65.21-4.43-1.28-5.43-5.53-5.43-46.54,0-93.09-.23-139.64-.26-23.6,0-47.2.66-70.79.24-25.83-.47-51.64.27-77.47.16C194.8,288.73,167,288.82,139.12,288.82ZM310.44,135.1c-.36,1.12-.49,1.31-.45,1.46.35,1.6.68,3.21,1.12,4.78C327.8,202.21,363.53,247.62,420.29,276c8.51,4.26,17.12,6.65,26.83,6.27,14.63-.57,29.31-.15,44-.15h4.71c-.26-.78-.27-1.05-.37-1.09-7.08-2.91-14.23-5.7-21.26-8.73-40.78-17.57-78.79-39.61-111.79-69.66C341.21,183.41,323.54,161.41,310.44,135.1Zm-20-.66a29.28,29.28,0,0,0-2.12,2.87c-12.41,24.94-29.69,46.12-50.13,64.81-38.25,35-83,59.15-130.94,77.78-1.07.42-2.69.13-2.91,2.26,17.62,0,35.15-.17,52.68.1A38.32,38.32,0,0,0,174,278.65q70.92-32.46,103-103.52A202.78,202.78,0,0,0,290.45,134.44ZM90.34,416.05c0-26.92,0-53.84,0-80.77,0-2,1.32-5-2.82-5.19-4.37-.21-3.43,2.8-3.43,5.18q0,80.49,0,161c0,2-1.38,5,2.79,5.17,4.38.2,3.45-2.79,3.46-5.16Q90.37,456.16,90.34,416.05Zm419.31,0q0,40.11.05,80.22c0,2.05-1.2,5,2.91,5.12,4.47.17,3.33-2.93,3.33-5.22q.06-80.5,0-161c0-2,1.26-5-2.89-5.11-4.47-.17-3.36,2.9-3.36,5.21Q509.61,375.69,509.65,416.09ZM175.62,355c0-11.36,0-22.73-.05-34.1,0-1.66,1.22-4.38-2.44-4.19-2.87.15-4.08,1.17-4.06,4.35.13,22.92.08,45.84.05,68.76,0,2.2,0,3.81,3.06,3.89,3.26.09,3.48-1.53,3.47-4.05C175.57,378.07,175.61,366.52,175.62,355Zm248.75.17q0,17,0,34.1c0,2.12-.59,4.41,3,4.45,3.23,0,3.47-1.54,3.47-4.07-.06-22.91-.1-45.83,0-68.75,0-3.34-1.55-4.09-4.24-4.17-3.69-.12-2.23,2.75-2.25,4.33C424.31,332.39,424.37,343.76,424.37,355.13Z"/></svg>