<svg id="Layer_1" data-name="Layer 1" xmlns="http://www.w3.org/2000/svg" viewBox="0 0 600 600"><defs><style>.cls-1{stroke:#fff;stroke-miterlimit:10;stroke-width:2.88px;}</style></defs><title>Artboard 1 copy 18</title><path class="cls-1" d="M155.94,332c0-54.37,0-107.81,0-161.25,0-32.72,10.94-42.68,43.49-39,5.14.58,4.8-2.18,5.95-5.2,5.92-15.55,16.34-23.36,30.51-23.26,13.52.09,24.08,7.87,29.73,22.69,1.62,4.26,2,6.49,8.06,5.18,25.19-5.47,40.8,6.84,42.09,32.71.35,7.1,0,10.75,9.83,8.31,21-5.22,38.15,9.37,38.55,32,.53,29.55.17,59.13.18,88.69V476.3c0,2.84,0,5.67,0,8.51-.08,5.49-.46,11.49-7.76,11.2-6.38-.26-6.8-5.85-6.81-10.93q0-23.08,0-46.17,0-112.4,0-224.78a102.2,102.2,0,0,0-.44-13.34c-1.21-9.31-6.76-14.77-16.17-14.86-10-.1-16.36,5.44-16.77,15.42-.66,16.18-.36,32.39-.39,48.59,0,25.51,0,51,0,76.55,0,4.45.49,9.95-4.68,11.45-9.17,2.64-9.82-4.21-9.84-10.62-.09-27.54,0-55.08-.05-82.62q0-39.49,0-79c0-9.54-2.24-18-12.62-21.09-11.05-3.3-20.65,4.18-21,16.77-.47,15.38-.15,30.78-.16,46.17q0,57.72,0,115.43a46.91,46.91,0,0,1-1,10.8c-.84,3.48-3.66,5.37-7.37,4.88a6.09,6.09,0,0,1-5.67-5.44,90,90,0,0,1-.53-10.9q0-88.08,0-176.18c0-4.44.14-9-.68-13.3-1.81-9.54-7.67-15.5-17.67-14.74s-15.31,7-15.37,17c-.17,29.16-.11,58.32-.12,87.48q0,46.79,0,93.56c0,3.61.47,7.31-1.52,10.67-1.68,2.83-4.28,3.59-7.26,3.1s-5.18-2.4-5.44-5.63c-.28-3.63-.34-7.28-.34-10.92q0-72.9,0-145.8c0-6.54,0-13-4.8-18.28-4.58-5-10.35-6.25-16.63-4.72a15.19,15.19,0,0,0-11.8,12.53c-.84,4.32-.64,8.87-.64,13.31q-.06,86.28-.1,172.54c0,5.4,2.15,12.22-4.32,15.28-7.33,3.46-10.85-3.47-15-7.45-13.44-12.9-26.6-26.09-39.95-39.08-9.89-9.63-18.69-10.92-26.73-4.12-7.83,6.62-8.09,16.44-.21,27,24.7,33.09,50,65.77,74.15,99.24,12.3,17,8.4,38,10.43,57.42.36,3.44-3,5.64-6.71,5.45-4.41-.22-6.45-3.4-7-7.19-1.36-9.62-2.9-19.26-3.32-28.93-.4-9.37-3.75-16.91-9.4-24.29-23.36-30.55-46.33-61.41-69.36-92.21-12.68-17-12.21-34.88,1.05-46.91,13.9-12.61,31.76-11,47.58,4.26,10.18,9.86,20.27,19.82,30.45,29.67C152.62,331.55,153.61,331.46,155.94,332Z"/><path class="cls-1" d="M477.83,339c5.94-5.36,9.45-10.33,9-17.57-.28-4.81,2.53-7.64,7.47-7.43,4.37.18,6.48,3.21,6.77,7.2.45,6,1,12.09-3.51,17.3-3.15,3.67-5.75,7.81-8.66,11.69-4.51,6,.94,10.27,3.56,13.87,3.92,5.38,6.83-.67,9.49-2.89,5.27-4.4,10.09-9.33,15.21-13.93,3.32-3,7-4.31,10.71-.63,4.24,4.21,2.49,8.15-1.09,11.54-7.64,7.23-15.17,14.63-23.3,21.27-5.43,4.43-6.42,6.78,1,9.8,16.64,6.83,21.3,24.08,30.93,36.95,1.9,2.54-.12,6.3-3.63,7.88-4,1.8-7.16.31-9.52-2.91-6.39-8.71-12.64-17.51-18.93-26.25-2.69,1.67-3.77,4.16-2.9,5.61,10.05,16.7,10.27,36.22,15.8,54.2,1.53,5,3,11.16-4.41,12.8-7.3,1.61-8.51-4.57-9.79-9.66-3.21-12.82-6.22-25.68-9.41-38.92-30,19.53-40.2,19.48-68.39-.25-3.37,13.55-6.75,26.69-9.88,39.9-1.33,5.63-3.28,10.74-10.25,8.74-6.44-1.85-5.35-7.65-3.93-12.21,5.74-18.33,6.09-38.24,16.08-55.35.45-.78-.36-2.29-1.26-7-7.06,9.79-12.68,17.57-18.29,25.36-3.17,4.39-6.67,9.41-12.71,5.42-6.26-4.14-2.66-9,.55-13.46,5.92-8.19,11.72-16.47,17.63-24.68,1.17-1.62,2.37-4,3.95-4.42,21.94-5.12,5.46-11.59.47-17-5.2-5.64-11.18-10.54-16.7-15.9-3.64-3.53-4.87-7.66-.87-11.62,3.73-3.7,7.44-1.86,10.7,1.08,4.81,4.34,9.31,9,14.36,13.06,2.72,2.18,5.3,8.5,9.46,4.07,3.69-3.92,8.82-9.22,3.19-15.89-2.6-3.09-4.62-6.67-7.28-9.7-4.19-4.77-3.83-10.4-3.72-16.07.1-4.9,1.34-9.05,7.31-9,5.19,0,7.17,3.77,7,8.12-.23,7.67,3.58,12.77,9.18,17.55,2.9-17.46,9.05-26.31,18.82-25.78C472.89,314.67,474.73,326.89,477.83,339Zm-47.68,58.48c-.73,17.42,11.74,31.31,28.14,31.34,16.62,0,30.15-15,28.32-32.43C485.1,382.15,480,369,470.78,357.77c-8.68-10.48-16.41-10.6-24.85-.15A71.29,71.29,0,0,0,430.15,397.52Z"/><path class="cls-1" d="M294.17,421.6c-.63,22.28-12.48,37.45-30.68,48.5-4.08,2.48-8.75,3.56-11.55-1.48-3-5.44.19-8.73,5-11.51,20.17-11.61,27.13-31.22,19.08-53.38-1.82-5-4.73-10.45,2.24-13.27,6.66-2.71,9.29,2.66,11.4,7.66A60.75,60.75,0,0,1,294.17,421.6Z"/><path class="cls-1" d="M195.85,420.79c-.16,18,14.53,35.91,32.69,39.81,2.75.59,5.59.8,8.35,1.37,4.45.94,7.56,3.34,6.69,8.33-.74,4.26-4.14,5.41-8.08,5.76-22.35,2-50.46-22.21-52.37-45.1-.23-2.77-.38-5.55-.86-8.28-1.12-6.27-1.74-12.56,5.93-14.89C193.34,406.23,195.93,410.93,195.85,420.79Z"/><path class="cls-1" d="M273.75,380.94c-1.6,6.66-5.4,8.09-11.58,5.18C235,373.3,223.3,375.53,203,397.39c-3,3.19-5.85,5.89-10.29,3-4.84-3.11-4-7.14-1.61-11.52,11.78-21.27,45-31.54,66.68-20.27C263.66,371.72,272.76,371,273.75,380.94Z"/><path class="cls-1" d="M255.83,420.36c-.17,9.4-8.86,17.82-18.22,17.65s-17.79-8.75-17.62-18.22a18.18,18.18,0,0,1,18.18-17.51C247.8,402.44,256,410.83,255.83,420.36Z"/></svg>