<svg id="Layer_1" data-name="Layer 1" xmlns="http://www.w3.org/2000/svg" viewBox="0 0 600 600"><defs><style>.cls-1{stroke:#fff;stroke-miterlimit:10;stroke-width:3px;}</style></defs><title>Artboard 1 copy 2</title><path class="cls-1" d="M301.11,212.07c69,0,137.91.22,206.86-.25,9.88-.07,11.77,2.87,11.74,12.11q-.53,137.55,0,275.1c0,8.85-2.1,11.55-11.29,11.53q-207.94-.44-415.89,0c-9.16,0-12.26-1.79-12.22-11.75q.64-137,0-274c0-10.24,2.2-13.31,12.87-13.23,69.31.51,138.63.26,207.94.26Zm-80.36,149c0-40.06-.17-80.13.15-120.19.06-7.3-1.61-10-9.47-9.87q-51.44.63-102.87,0c-7.37-.08-8.88,2.49-8.87,9.3q.3,120.75,0,241.48c0,7.28,1.58,10,9.48,9.86,33.92-.44,67.86-.51,101.78,0,8.46.12,10.06-2.6,10-10.41C220.52,441.24,220.72,401.17,220.75,361.1Zm158.54-.51c0,40.43.17,80.85-.16,121.27-.07,7.42,1.76,9.92,9.52,9.83,33.93-.41,67.86-.36,101.78,0,7.2.08,10-1.45,10-9.38Q500,361,500.35,239.74c0-6.56-1.68-8.71-8.4-8.66q-52,.45-103.94,0c-7.42-.08-8.9,2.59-8.85,9.35C379.43,280.47,379.29,320.53,379.29,360.59ZM360,362.7c0-40.79-.14-81.59.14-122.37,0-6.88-1.7-9.34-9-9.27q-51.43.54-102.88,0c-7.39-.08-9,2.63-8.94,9.4q.27,120.75,0,241.49c0,7.46,2,9.82,9.66,9.73,33.56-.4,67.14-.49,100.7.08,9,.16,10.57-2.95,10.49-11C359.83,441.39,360,402,360,362.7Z"/><path class="cls-1" d="M316.7,152.39c-16.6,0-33.21.32-49.8-.15-7-.19-10.61,1.41-13.13,8.76-8.15,23.81-32.21,38.29-55.91,34.83-25.66-3.75-44.7-22.93-46.46-46.79-2-27.2,12.94-49.83,37.87-57.32,27.19-8.17,56.2,6.23,65.31,33.41,2.35,7,5.46,8.57,12.16,8.54q75.78-.37,151.57-.12c16.83,0,14.07-1.36,14.24,14.64.12,10.47-.33,20.95.13,31.39.37,8.58-5.48,6.63-10.18,6.84s-9.68,1-9.13-6.63c.44-6.1-.2-12.28.16-18.4s-.92-9.24-8.1-9.21-8.73,3-8.26,9.16c.35,4.66.1,9.38.06,14.07-.09,10.18-6.13,14.21-15.65,10.91-3.45-1.19-3-3.64-3-6-.13-6.5-.45-13,0-19.49.52-6.87-2.46-8.64-8.83-8.53C352.07,152.59,334.38,152.39,316.7,152.39Zm-78.5-9.09c.17-18.78-15.39-34.67-34.1-34.82-18.51-.16-34.71,16-34.56,34.48.14,18.26,15.44,33.8,33.72,34.26C221.86,177.7,238,162,238.2,143.3Z"/><path class="cls-1" d="M160,283.44c-11.91,0-23.85-.52-35.71.16-9.23.53-7.21-5.39-7.5-10.53-.31-5.53-.23-9.43,7.6-9.26,23.81.52,47.64.58,71.44,0,8.65-.22,8,4.33,8,10.05s.54,10.46-8.11,9.83C183.84,282.8,171.89,283.44,160,283.44Z"/><path class="cls-1" d="M159.77,318.32c-12.22,0-24.45-.32-36.66.11-9.07.31-6-6.09-6.19-10.37s-2-9.51,6.07-9.4q37.2.49,74.41,0c7.93-.12,6.55,5,6.24,9.29s2.92,10.74-6.13,10.48C184.94,318.06,172.35,318.33,159.77,318.32Z"/><path class="cls-1" d="M134,422.9a64.68,64.68,0,0,0-7.5,0c-7,.82-10.2-1.17-10-9.17.19-7.14,1.66-10.62,9.48-9.83a99.09,99.09,0,0,0,17.14.05c6.26-.48,8.68,1.33,8.84,8.17.18,8-1.53,12.3-10.47,10.73-2.43-.42-5-.06-7.5-.06Z"/><path class="cls-1" d="M439.36,283.44c-12.27,0-24.55-.32-36.8.1-9.18.33-5.75-6.21-6.16-10.42-.43-4.51-1.46-9.38,6.34-9.27,24.53.34,49.08.42,73.6,0,8.56-.16,6.79,5.2,6.91,9.93.12,5,1.22,10.2-7.09,9.83C463.91,283,451.63,283.44,439.36,283.44Z"/><path class="cls-1" d="M439.78,318.36c-12.22,0-24.46-.4-36.65.14-8.57.38-6.78-5.27-6.8-9.95s-1.76-10.08,6.79-9.92q36.64.64,73.32,0c8.59-.15,6.73,5.27,6.75,9.95s1.86,10.31-6.75,9.92C464.25,317.94,452,318.36,439.78,318.36Z"/><path class="cls-1" d="M414.69,404.09a43.86,43.86,0,0,0,6.49-.06c8.15-1.27,10.16,2.11,10.3,10.13.16,8.83-4.11,9.15-10.55,8.72a92.81,92.81,0,0,0-14.05,0c-7.13.58-11.54-.39-10.83-9.55.51-6.5,1.37-10.32,8.91-9.33C408.15,404.44,411.45,404.09,414.69,404.09Z"/><path class="cls-1" d="M300,264c11.86,0,23.74.48,35.56-.15,9-.48,7.37,5.19,7.6,10.44.25,5.57-.05,9.46-7.7,9.31q-36.09-.66-72.21,0c-8.35.14-7-5-7-9.91s-1.2-10.2,7.11-9.82C275.56,264.42,287.8,264,300,264Z"/><path class="cls-1" d="M299.74,318.33c-11.88,0-23.77-.4-35.61.15-7.37.35-8.47-3.17-7.89-9.09.49-5-2-10.95,7.31-10.77q36.13.7,72.31,0c9.23-.18,6.92,5.71,7.28,10.7.42,5.68-.16,9.59-7.8,9.17C323.51,317.85,311.61,318.32,299.74,318.33Z"/><path class="cls-1" d="M273.09,422.84c-2.52,0-5.1-.34-7.56.05-8.13,1.27-9.33-2.85-9.48-9.89-.15-7.39,2.49-9.6,9.4-9a89.56,89.56,0,0,0,16.21,0c8-.79,9.45,2.86,9.48,10s-2.59,9.67-9.4,8.91A83.12,83.12,0,0,0,273.09,422.84Z"/></svg>