<svg id="Layer_1" data-name="Layer 1" xmlns="http://www.w3.org/2000/svg" viewBox="0 0 600 600"><defs><style>.cls-1{stroke:#000;stroke-miterlimit:10;stroke-width:3px;}</style></defs><title>Artboard 1 copy 16</title><path class="cls-1" d="M149.63,420.64c.72-17.6-1.29-39.17,1.16-60.65,3.71-32.53,16.64-61,37.88-85.79,3-3.5,4.66-6.82,4.34-11.47a146.1,146.1,0,0,1,0-15.38c.1-3-.67-4.75-4.07-4.32a24.18,24.18,0,0,1-3.07,0c-8,0-8.11,0-8,8.24,0,3.52-.8,6.13-3.71,8.49-17.86,14.45-35.49,29.18-53.35,43.64-12.35,10-27.92,11-40.67,2.89-5.67-3.59-5.89-4.75-1.55-9.88,22.23-26.34,44.41-52.72,66.82-78.9,2.8-3.26,3.16-5.43.63-8.85-3.17-4.27-5.69-9-8.64-13.44-1.86-2.81-1.48-4.94,1.33-6.72.35-.22.65-.5,1-.74,13.07-9.88,13.07-9.88,24.89,1.44,6.37,6.1,12.71,12.23,19.14,18.28,4.81,4.53,7.56,4.07,10.4-1.65,1.13-2.27,2.52-4.73,4.88-5.29,5.75-1.36,6.06-5.13,6-10-.25-12.46-1.14-11.41,11-11.42,12.59,0,12.6,0,12.6-12.36,0-5.75.13-11.5,0-17.24-.2-6.93-3.74-11.33-10.6-12.16-5.44-.67-6.68-3.58-6.63-8.33.16-13.2-1.07-11.71,11.37-11.75,13.95,0,27.91.27,41.85-.14,6.11-.18,8.19,2,7.44,7.78a50.42,50.42,0,0,0-.06,6.15c0,3.66-1.89,5.47-5.49,6.16-8.66,1.64-11.56,5.14-11.65,13.72-.07,7.8.18,15.6-.08,23.39-.13,3.83,1.19,5.07,4.92,4.84,4.5-.27,9,.09,13.54-.1,4-.17,5.63,1.65,5.43,5.51-.08,1.64.11,3.29,0,4.92-.37,5-.26,9.15,5.85,11.52,4.72,1.83,5.67,7.07,5.65,12.08-.06,17,.05,34.06-.09,51.09a12.37,12.37,0,0,0,3.15,8.83c26.5,31.14,40.42,67,40.22,108.12-.15,31.8,0,63.61,0,95.41,0,28.06-23.16,47.74-50.71,43.15-5.29-.88-9.83-3.25-12.52-8-2.55-4.56-6.31-5.93-11.25-5.84-9.64.16-19.28.14-28.92,0-4.72-.06-8.26,1.38-10.7,5.7a15.65,15.65,0,0,1-13,8.15c-6.73.41-13.63.65-20.26-.31-22.17-3.21-36-19.51-36.18-41.9C149.54,459.85,149.63,442.2,149.63,420.64ZM156,421c0,21.43,0,39.07,0,56.7.06,19.48,13.32,33.95,32.73,35.54,5.1.42,10.25.22,15.37.13a11.11,11.11,0,0,0,10.09-5.91c3.26-5.69,8.38-8.1,14.86-8.06q15.39.11,30.77,0c6.43,0,11.6,2.19,15,7.89,1.62,2.75,3.71,5,7,5.58,24.26,4.11,41.09-9.54,44.3-27.77,2-11.59.29-23.34,1-35,.26-4.51-1.46-5.36-5.58-5.32-18.87.21-37.74.17-56.61.06-18.59-.1-32.24-13.38-32.82-31.95-.25-8-.18-16,0-24,.35-19.55,13.62-32.64,33.11-32.71,18.26-.06,36.52-.12,54.77.08,4.18,0,5.35-1.13,4.52-5.25-5.61-27.64-16.76-52.52-35.85-73.59-2.21-2.45-4.37-3.7-7.83-3.69q-38.76,0-77.52-.37A11.22,11.22,0,0,0,194,277.2a135.53,135.53,0,0,0-18.48,26.7c-9.83,18.26-16.31,37.48-18.48,58.15C154.82,382.93,156.69,403.87,156,421Zm170.92-20.2c-.35-10.1.57-22.2-.69-34.29-.34-3.19-1.43-4.12-4.51-4.1-19.69.12-39.39-.19-59.07.19-13.37.26-23.88,11.33-24.2,24.69-.19,8.2-.11,16.41,0,24.62.12,15.14,10.49,26.14,25.73,26.43,19.27.37,38.56,0,57.84.16,4.15,0,5.11-1.73,5-5.56C326.74,422.86,326.89,412.81,326.89,400.77ZM241.58,267.51c12.3,0,24.61-.11,36.91.07,3.6.05,5.08-.83,5-4.75-.18-16.61-.12-33.22-.06-49.83,0-5.66-2.52-8.07-8.26-8-22.76.12-45.52,0-68.28,0-1.67,0-3.26-.08-4.68,1-1.15.89-2.57,1.83-2.09,3.41.43,1.43,2.06.93,3.21.95,3.27.08,6.55.09,9.82.09,10.25,0,20.5,0,30.76,0,2.14,0,4.34.32,4.42,3.09s-1.94,3.33-4.16,3.44c-1.43.07-2.87,0-4.31,0-11.88,0-23.77.17-35.66-.08-4.13-.09-5.15,1.3-5.09,5.24q.33,20.29,0,40.6c-.06,3.82,1.18,4.93,4.9,4.87C216.56,267.39,229.07,267.51,241.58,267.51ZM173.75,217c-5.13,0-10.25.13-15.37,0a7.78,7.78,0,0,0-6.87,3Q118.89,258.71,86,297.32C83,300.9,84.54,302,87.78,303.1c10.47,3.69,20.18,2.44,28.87-4.64,14.44-11.79,28.61-23.92,43.31-35.38,7.26-5.65,13.34-11.1,11.25-21.49-.72-3.59,1.67-5.06,5.23-5,4.3.14,8.61-.06,12.91.06,2.62.07,3.41-1,3.63-3.58,1.41-16.18,1.48-16.18-14.32-16.16Zm61-55.59v9.23c0,8.84,0,8.58,9,8.65,4.09,0,4.72-1.57,4.64-5.07-.2-8.2-.16-16.41,0-24.62.14-9.32,4.64-15.67,13.65-18.1,3.31-.9,3.63-2.37,3.56-5.06-.1-3.89-3-2.67-4.92-2.69q-19.06-.14-38.16,0c-2,0-4.76-1.07-4.85,2.78-.07,2.81.51,4.12,3.68,5,9,2.52,13.37,8.81,13.47,18.18C234.82,153.56,234.78,157.46,234.78,161.36Zm6.57,37.25c8.61,0,17.23-.32,25.81.11,5.28.27,5.08-2.74,4.73-6.13-.31-3,1.93-7.26-4.33-7.17-17.4.23-34.82.18-52.22,0-6.37-.06-3.74,4.51-4.06,7.36s-.94,6.16,4.27,5.91C224.14,198.3,232.75,198.6,241.35,198.61Zm-66.93,11.73L154.2,188.2a2.48,2.48,0,0,0-3.22-.64c-6.31,2.58-7.38,5.45-3.86,11,1.85,2.93,3.75,5.84,5.51,8.83,1.12,1.92,2.47,3,4.86,3C163.38,210.26,169.26,210.34,174.42,210.34Z"/><path class="cls-1" d="M317,210.38c6.13,0,12.26,0,18.39,0,3.52,0,5.25,1.39,5.16,5.13q-.22,9.19,0,18.39c.1,3.85-1.35,5.59-5.36,5.55q-18.39-.19-36.79,0c-4,.05-5.57-1.59-5.5-5.46.11-5.92.17-11.86,0-17.78-.14-4.17,1.49-6,5.72-5.88,6.13.16,12.26,0,18.4,0ZM310.53,233c2.67,0,5.33,0,8,0,1.33,0,2.46.34,2.52-2.12.34-14,.47-14-13.33-14-1.44,0-2.88.12-4.31,0-2.94-.26-3.74,1-3.91,3.9C298.79,233.06,298.69,233.06,310.53,233Zm15.48-.47c6.51,1.68,9.13-.34,8.2-6.5a23.69,23.69,0,0,1,0-4.91c.16-2.58-.3-4.23-3.54-4.27s-3.72,1.35-3.7,4.05C327,224.78,327.59,228.7,326,232.57Z"/><path class="cls-1" d="M478.1,332.42c2.1.25,3.53,1.42,3.62,3.5a3.55,3.55,0,0,1-3.76,4c-2.28,0-3.73-1.63-3.54-4.1C474.58,333.59,476,332.61,478.1,332.42Z"/><path class="cls-1" d="M524.5,218.11c-.24,2.41-1.58,3.84-4,3.67a3.65,3.65,0,1,1,.62-7.28C523.36,214.63,524.35,216,524.5,218.11Z"/><path class="cls-1" d="M520.42,186.25c-.57,2.45-1.89,4-4.28,3.65A3.45,3.45,0,0,1,513,186c.15-2.54,1.81-3.59,4.16-3.38C519.29,182.85,520.21,184.37,520.42,186.25Z"/><path class="cls-1" d="M444.56,79.61c2,.41,3.45,1.42,3.5,3.6.06,2.45-1.25,3.8-3.72,3.79a3.35,3.35,0,0,1-3.57-3.42C440.69,81.25,442.27,80,444.56,79.61Z"/><path class="cls-1" d="M469.7,99.79c2.42.3,3.9,1.52,3.68,4a3.66,3.66,0,0,1-7.29-.71C466.26,100.85,467.68,99.93,469.7,99.79Z"/><path class="cls-1" d="M519.21,254c-2.53-.47-4-1.65-3.89-4.12a3.26,3.26,0,0,1,3.58-3.35,3.41,3.41,0,0,1,3.73,3.28C522.87,252.32,521.08,253.36,519.21,254Z"/><path class="cls-1" d="M500.72,309.41c.07,3.06-1.33,4.51-3.63,4.56a3.45,3.45,0,0,1-3.68-3.37c-.17-2.5,1.3-3.85,3.66-3.94A3.38,3.38,0,0,1,500.72,309.41Z"/><path class="cls-1" d="M439.84,96c-.14,2-1.16,3.59-3.21,3.79-2.39.23-3.82-1.15-3.85-3.6a3.09,3.09,0,0,1,3.35-3.44C438.36,92.69,439.38,94,439.84,96Z"/><path class="cls-1" d="M509.28,218.9c-.43,2-1.57,3.31-3.76,3.22s-3.52-1.35-3.47-3.47c.06-2.38,1.59-3.89,4-3.64C508,215.23,509.2,216.72,509.28,218.9Z"/><path class="cls-1" d="M490.44,124c2.22.4,3.88,1.52,3.83,3.94a3.37,3.37,0,0,1-3.52,3.45c-2.1.09-3.54-.93-3.77-3.12C486.72,125.78,488.23,124.6,490.44,124Z"/><path class="cls-1" d="M496.68,272.55c2.24.15,3.49,1.5,3.45,3.53-.05,2.31-1.55,3.9-4,3.62a3.34,3.34,0,0,1-3.06-3.87A3.23,3.23,0,0,1,496.68,272.55Z"/><path class="cls-1" d="M511.18,277.54c2.09.39,3.34,1.57,3.31,3.73,0,2.49-1.49,3.75-3.92,3.6a3.38,3.38,0,0,1-3.38-3.62C507.24,278.93,508.81,277.65,511.18,277.54Z"/><path class="cls-1" d="M466.58,322.21c2.23.41,3.57,1.45,3.57,3.65s-1.09,3.46-3.3,3.52c-2.5.07-3.81-1.37-3.7-3.74C463.25,323.54,464.78,322.53,466.58,322.21Z"/><path class="cls-1" d="M454.48,354.05c2.42.43,3.66,1.91,3.43,4.25a3.27,3.27,0,0,1-3.78,3.12,3.32,3.32,0,0,1-3.47-3.48C450.64,355.63,452.16,354.31,454.48,354.05Z"/><path class="cls-1" d="M506.34,152c2.63.38,4,1.92,3.74,4.18a3.39,3.39,0,0,1-3.78,3.23c-2.54-.13-3.63-1.73-3.45-4.08A3.48,3.48,0,0,1,506.34,152Z"/><path class="cls-1" d="M492,158.25c2.32.11,3.68,1.16,3.93,3.27s-.68,3.63-2.87,3.95a3.35,3.35,0,0,1-4.14-3.39C488.8,160,490.22,158.79,492,158.25Z"/><path class="cls-1" d="M427.88,105.38c2,.32,3.52,1.45,3.58,3.43a3.35,3.35,0,0,1-3.78,3.67,3.22,3.22,0,0,1-3.24-3.57C424.49,106.78,426,105.82,427.88,105.38Z"/><path class="cls-1" d="M475.1,216.14c2.2.57,3.57,1.65,3.39,3.89a3.17,3.17,0,0,1-3.18,3.14,3.26,3.26,0,0,1-3.53-3.44C471.72,217.59,473.29,216.55,475.1,216.14Z"/><path class="cls-1" d="M437.88,132.84c1.9.32,3.46,1.25,3.54,3.34s-1.27,3.32-3.34,3.44a3.2,3.2,0,0,1-3.61-3.19C434.33,134.35,435.88,133.3,437.88,132.84Z"/><path class="cls-1" d="M481.78,136.56c-.43,2.13-1.51,3.56-3.66,3.51-2.42-.06-3.73-1.46-3.5-3.93.21-2.19,1.69-3.19,3.76-3.07S481.45,134.72,481.78,136.56Z"/><path class="cls-1" d="M447.61,305.61c-.46,2-1.64,3.46-3.68,3.35a3.38,3.38,0,1,1,.18-6.75C446.23,302.27,447.24,303.69,447.61,305.61Z"/><path class="cls-1" d="M488.87,249c-2.14-.22-3.44-1.42-3.44-3.53s1.16-3.53,3.36-3.54a3.15,3.15,0,0,1,3.41,3.46C492.23,247.59,491,248.7,488.87,249Z"/><path class="cls-1" d="M503.85,251.51c-2.08-.32-3.39-1.45-3.43-3.59s.95-3.56,3.2-3.64A3.31,3.31,0,0,1,507.4,248C507.34,250.06,506,251.29,503.85,251.51Z"/><path class="cls-1" d="M484.85,305.93c-2.84.13-4.15-1.12-4.32-3.14a3.35,3.35,0,0,1,3.58-3.94,3.21,3.21,0,0,1,3.36,3.51C487.51,304.49,486.37,305.71,484.85,305.93Z"/><path class="cls-1" d="M505.45,189.41a3.47,3.47,0,0,1-3.29,3.76,3.31,3.31,0,0,1-3.9-3.6c0-2.24,1.4-3.32,3.49-3.37S505.08,187.38,505.45,189.41Z"/><path class="cls-1" d="M458.86,315.55c-.13,2.15-1.2,3.59-3.33,3.7a3.33,3.33,0,0,1-3.68-3.31,3.3,3.3,0,0,1,3.31-3.67C457.29,312.15,458.48,313.5,458.86,315.55Z"/><path class="cls-1" d="M471.1,298.33c-2.22-.6-3.73-1.64-3.61-3.84a3.49,3.49,0,0,1,7,.25C474.42,296.87,472.8,297.84,471.1,298.33Z"/><path class="cls-1" d="M445.2,342c2,.47,3.56,1.46,3.57,3.62,0,2.48-1.6,3.7-4,3.53a3.16,3.16,0,0,1-3.17-3.69C441.77,343.24,443.31,342.39,445.2,342Z"/><path class="cls-1" d="M474.92,168.21c.31-2.07,1.56-3.51,3.49-3.56a3.38,3.38,0,0,1,3.67,3.81,3.25,3.25,0,0,1-3.67,3.16C476.29,171.54,475.28,170.15,474.92,168.21Z"/><path class="cls-1" d="M462.59,113.81c0,2.78-1.31,4-3.38,4a3.3,3.3,0,0,1-3.75-3.17,3.38,3.38,0,0,1,3.73-3.84A3.19,3.19,0,0,1,462.59,113.81Z"/><path class="cls-1" d="M473.36,239.52c2.25.21,3.72,1.25,3.81,3.39a3.27,3.27,0,0,1-3.42,3.54,3.21,3.21,0,0,1-3.36-3C470.12,241.35,471.56,240.15,473.36,239.52Z"/><path class="cls-1" d="M472.08,193c2.19.41,3.6,1.69,3.39,3.75a3.2,3.2,0,0,1-3.78,3.12,3.12,3.12,0,0,1-3-3.3C468.7,194.34,470.24,193.47,472.08,193Z"/><path class="cls-1" d="M490.51,193.13c-.3,2.09-1.38,3.36-3.59,3.32s-3.45-1.19-3.44-3.38a3.19,3.19,0,0,1,3.49-3.38C489.09,189.68,490.23,191.05,490.51,193.13Z"/><path class="cls-1" d="M485.84,271.09a3.41,3.41,0,0,1-3.77,3.14,3.35,3.35,0,1,1,.37-6.68C484.59,267.66,485.71,268.91,485.84,271.09Z"/><path class="cls-1" d="M456.94,196.42c2.35.5,3.65,1.63,3.57,3.75a3.15,3.15,0,0,1-3,3.22,3.21,3.21,0,0,1-3.54-3.26C453.82,197.89,455.58,197.18,456.94,196.42Z"/><path class="cls-1" d="M430.31,321.33c-.35,2-1.42,3.37-3.61,3.32a3.27,3.27,0,0,1-.1-6.53C428.82,318,429.88,319.31,430.31,321.33Z"/><path class="cls-1" d="M452,125.58c-.38,2-1.51,3.29-3.68,3.15s-3.25-1.4-3.14-3.58,1.49-3.24,3.57-3.16S451.86,123.52,452,125.58Z"/><path class="cls-1" d="M464.64,170.88c2.19.4,3.52,1.66,3.35,3.76a3.08,3.08,0,0,1-3.15,3.11c-2.17,0-3.48-1.14-3.54-3.32S462.81,171.31,464.64,170.88Z"/><path class="cls-1" d="M468.93,145.4a3.05,3.05,0,0,1-3.57,3.27,3,3,0,0,1-3.11-3.13c-.07-2.24,1.12-3.55,3.28-3.6S468.9,143.17,468.93,145.4Z"/><path class="cls-1" d="M493.82,219.16c-.15,2.14-1.26,3.43-3.41,3.4a3.1,3.1,0,0,1-3.4-3.37c0-2.19,1.23-3.32,3.37-3.36S493.62,217.08,493.82,219.16Z"/><path class="cls-1" d="M444.82,282.42c-2.23-.61-3.49-1.8-3.19-4a3.06,3.06,0,0,1,3.42-2.81,3.13,3.13,0,0,1,3,3.86A3.38,3.38,0,0,1,444.82,282.42Z"/><path class="cls-1" d="M457,260.72c-.55,1.8-1.5,3.45-3.66,3.13a3.25,3.25,0,0,1-3-3.8,3.21,3.21,0,0,1,3.3-2.89C455.69,257.17,456.78,258.6,457,260.72Z"/><path class="cls-1" d="M456.43,153.81c0,2.43-1.26,3.56-3.39,3.56a3,3,0,0,1-3.2-3c-.13-2.1.88-3.54,3.1-3.65A3,3,0,0,1,456.43,153.81Z"/><path class="cls-1" d="M439.34,333.21c.05,2.26-1.07,3.58-3.21,3.68a3.07,3.07,0,0,1-3.47-3.35,3,3,0,0,1,2.91-3.28A3.13,3.13,0,0,1,439.34,333.21Z"/><path class="cls-1" d="M461.32,286.86c-.29,2.11-1.43,3.32-3.62,3.18a3,3,0,0,1-3.09-3.62,3,3,0,0,1,3.24-2.88C460.07,283.55,461.13,284.73,461.32,286.86Z"/><path class="cls-1" d="M439.46,252c1.86.53,3.32,1.61,3.07,3.73a3.09,3.09,0,0,1-3.34,2.8,3,3,0,0,1-3.07-3.61A3.29,3.29,0,0,1,439.46,252Z"/><path class="cls-1" d="M458.93,237.16c2,.65,3.36,1.92,3.05,4a3.19,3.19,0,0,1-3.32,2.93,3.27,3.27,0,0,1-3.29-3.56C455.5,238.45,457,237.43,458.93,237.16Z"/><path class="cls-1" d="M431.62,171.71c-.53,1.8-1.64,3.16-3.32,3.11a3.33,3.33,0,0,1-3.29-3.56,3,3,0,0,1,3.17-3A3.91,3.91,0,0,1,431.62,171.71Z"/><path class="cls-1" d="M416.86,154.92c1.9.45,3.18,1.46,3.13,3.29a3.12,3.12,0,0,1-3.45,3.33,3.17,3.17,0,0,1-3-3.22C413.54,156.21,415,155.24,416.86,154.92Z"/><path class="cls-1" d="M383,236c-1.31.21,0,2.89-1.67,2.19-2.18-.9-2.61-2.85-1.26-5C379.43,235.82,380.56,236.57,383,236Z"/><path class="cls-1" d="M383.75,233.33l-2.57-1.05c.41-.69.1-2,1.68-1.62C384.7,231.12,383.91,232.29,383.75,233.33Z"/><path class="cls-1" d="M187.85,320.45a3,3,0,0,1-2-4.64c5.21-10,10.91-19.67,18.45-28.13a3,3,0,0,1,4.37-.51,2.39,2.39,0,0,1,.43,3.76c-6.92,8.88-13.46,18-18.38,28.2A2.5,2.5,0,0,1,187.85,320.45Z"/><path class="cls-1" d="M174.77,348c1.11-4,2.68-9.69,4.33-15.39.63-2.16,1.88-3.88,4.44-2.86,2.07.82,2.24,2.71,1.7,4.69-1.5,5.53-3.05,11.05-4.44,16.61-.58,2.3-1.55,3.91-4.15,3.23C174.37,353.68,174.26,351.76,174.77,348Z"/><path class="cls-1" d="M178.33,380.31c-.13,1.7,1,5.32-3,5.35-3.78,0-3.21-3.48-3.32-6.08-.05-1,0-2.05,0-3.08-.05-2.26.49-4.28,3.17-4.35s3.16,2.06,3.16,4.27Z"/></svg>