<svg id="Layer_1" data-name="Layer 1" xmlns="http://www.w3.org/2000/svg" viewBox="0 0 600 600"><title>Artboard 1 copy 3</title><path d="M468.07,405.85c-4.09,18.29-6.42,35.93,2.52,53.89,4.45,8.94-2,17.31-11.19,21.44Q414.29,501.48,369,521.35c-11.54,5.1-20.13,1.22-25.71-9.5-4.66-9-11.21-15.8-20.72-19-28.57-9.75-52.1-26.94-74.14-47.19-19.22-17.66-40.1-33.57-63.86-44.92-10.7-5.12-17-12.32-13.54-24.27,3.48-12.17,12.65-17.43,25.19-16.58,17.54,1.19,33.23,8.08,48.51,16.08,4.26,2.23,8.21,5.11,12.59,7,7.15,3.11,14.81,11.71,22.23,4.42,6.82-6.7.74-15.88-2.38-23-18.1-41.55-36.8-82.85-55.21-124.28-2.49-5.62-5.29-11.32-6.46-17.28-2.53-12.9,1.52-23.53,14.61-28.14,12.43-4.38,23.75-1.14,30.18,10.67,6.86,12.63,12.1,26.15,17.9,39.35,3.11,7.07,6.49,12.68,14.82,5.58.51-.44,1.46-1.08,1.79-.9,24,13.42,57.23-16.36,77,16.43,3.15,5.22,6.5,2.71,10.31.84,19.36-9.5,31.35-1.25,39.08,16.66,14.15,32.76,28.57,65.42,42.17,98.41C466.47,389.1,466.59,397.73,468.07,405.85Zm-12.42,5c.43-16.3-2.51-27.53-7.28-38.33-11.95-27-23.75-54.1-36-81-4.12-9.06-7.62-21.68-21.51-16-12.43,5.1-7.95,15.47-4.08,24.66,1.61,3.81,3.51,8.39-2.05,10.26-5.22,1.75-6.82-2.87-8.52-6.65-5.09-11.27-10.12-22.56-15.39-33.75-3.66-7.75-9.67-12.43-18.17-8.4-8.09,3.82-9.62,11.15-6.14,19.28,3.78,8.84,7.69,17.62,11.62,26.4,1.95,4.37,5.45,9.76-.08,12.75-6.27,3.37-7.73-3.4-9.63-7.44-5.85-12.43-11.51-25-17.13-37.5-4.29-9.58-8.36-21.31-21.88-14.81-11.9,5.73-6.86,16-2.83,25.08,6.16,13.8,12.19,27.65,18.22,41.51,1.48,3.41,1.6,7-2,9-4.24,2.26-6.26-1.51-7.86-4.36-2.34-4.18-4.15-8.66-6.11-13.05Q275.73,266.76,252.62,215c-3.35-7.47-8.43-13.29-17.53-9.91-10.06,3.74-10.31,11.8-7,20.47,1.71,4.49,3.94,8.77,5.89,13.17,17.29,38.93,34.87,77.73,51.68,116.87,5.79,13.49,15.73,29.16.85,41.67-13.91,11.7-27.06-.59-39.45-7.16-15.83-8.39-31.55-16.93-49.75-18.88-6.56-.7-12.72.82-14.8,8.1s4.25,9,8.82,11.84c13.35,8.42,27.21,16.21,39.75,25.72,33.23,25.18,62.18,56.51,103.77,69.44,7.81,2.44,13.15,9.81,17,17.38,3.73,7.41,8.47,9.5,16.62,5.72,27.42-12.7,55.1-24.85,82.72-37.13,5.41-2.41,11.38-6.3,7.86-12.1C448.28,442.54,452.15,424.65,455.65,410.87Z"/><path d="M128,150.14c1-27.85,16.89-52.87,48.17-66.39,30.43-13.16,59.77-8.5,84.61,13.28s33.08,49.81,24.23,82c-1.6,5.83-1.61,16.63-11.1,13.54-9.2-3-.95-10.64.33-15.59C284,139,263.59,101.22,227,91c-36.22-10.18-74.17,10.22-85.24,45.83-11.34,36.49,8.75,74.06,46.2,86.91,4.95,1.7,15.31-.49,12.47,8.7-2.24,7.28-10.84,3.16-16.39,1.67C151.09,225.24,127.44,192.33,128,150.14Z"/><path d="M262.92,159a56.52,56.52,0,0,1-1.31,8.39c-2.08,7.49-2.54,20.58-11.9,17.84-10.3-3,.73-11.91,2-18a45.45,45.45,0,0,0-32-52.8c-21.57-6.35-45.42,5.77-53.46,27.17-8.32,22.11,2.48,46.7,24.11,56.93,5.57,2.64,19-.45,14.82,10.3-2.52,6.51-13.63,1.24-20.4-1.88-24.87-11.43-37.23-38.94-29.6-65.45,7.69-26.68,34-42.62,62.68-38C243.56,107.65,262.9,130.68,262.92,159Z"/><path d="M185.85,156.18c1.3-13.86,9.6-21.39,23-20.87s21.81,9.52,21.26,23-9.3,21.55-23.1,21S186.24,170.19,185.85,156.18Z"/></svg>