<svg id="Layer_1" data-name="Layer 1" xmlns="http://www.w3.org/2000/svg" viewBox="0 0 600 600"><title>Artboard 1 copy 12</title><path d="M304.56,231.09c21,9.17,42.35,17.17,62.64,27.66,11.49,5.95,22.93,12,32.49,20.88,15.93,14.8,13.42,29.47-6.91,37-21.16,7.89-43.72,10.4-65.6,15.57-40.25,9.52-80.88,18.37-117.43,38.36-42.74,23.37-76,56.79-97.37,101.14-1.65,3.42-4,5.58-7.81,4.12-3.48-1.32-5-4.39-4.21-8.05,1.49-7,5.25-13,9.1-18.84,35.27-53.78,82.38-91.78,144.71-110.37,38.6-11.51,77.82-20.18,117.1-28.74a135.84,135.84,0,0,0,19-5.72c8.34-3.13,8.53-8.07,2.33-14a95.74,95.74,0,0,0-18.8-13.57C350.36,263.12,325.33,253.24,300,244c-15.3-5.59-30.37-11.64-43-22.34-16.2-13.77-15-28.47,3.41-38.9,20.61-11.68,43.45-16.09,66.61-19,4.42-.56,8.82-.76,12.93-3.29-1.88-5.12-6.59-4.86-10.73-5.84-9-2.12-18-4.19-26.78-6.81-4-1.19-7.13-4.33-7.39-8.83s2.83-7.31,6.74-9.19a65.63,65.63,0,0,1,23.44-6c4.45-.37,8.47.5,8.77,5.89.26,4.82-3.53,5.9-7.38,6.55-2.8.46-5.59,1-8.74,1.51,3.12,3.64,7,3.29,10.57,3.85,5.87.93,11.67,2.2,16.74,5.43s9.68,7.16,9.14,14.05-5.66,10-11.42,12.08c-10.87,4-22.54,3.62-33.73,6-11.6,2.44-23,5.39-33.8,10.21-5.58,2.5-13.68,4.32-13.18,11.56.49,6.94,8.61,8.31,14.39,10.37,12.59,4.48,25.81,6,39,7.73,54.41,7.29,106,22.44,151.39,54.75A93,93,0,0,1,491.11,298c15.94,24.07,9.33,52.29-15.86,66.26-14.84,8.23-30.2,15.5-44,25.6-24.71,18.12-24.45,29.42,1.51,46.23,16.84,10.91,35.32,18.32,54.27,24.64,3.13,1,6.41,1.89,9.27,3.47,2.67,1.46,4.52,3.94,2.93,7.38-1.4,3-3.9,4.85-7.12,3.78-30.16-10-60.88-19.32-83.38-43.56-12.68-13.65-11.19-28.81,2.9-42a165.51,165.51,0,0,1,50-32.25c33.74-13.94,30.53-45,9.13-64.35-17-15.32-36.49-26.22-57.23-35.24C378.83,242.8,342.42,234.14,304.56,231.09Z"/></svg>