<svg id="Layer_1" data-name="Layer 1" xmlns="http://www.w3.org/2000/svg" viewBox="0 0 600 600"><defs><style>.cls-1{stroke:#fff;stroke-miterlimit:10;stroke-width:8px;}</style></defs><title>Artboard 1 copy 5</title><path class="cls-1" d="M187.16,257.83,143.57,213q-8.38-8.62-16.8-17.22c-6.46-6.6-9-14.27-5.35-23s10.94-12.25,20.15-12.21a10.46,10.46,0,0,0,1.12,0c21-2.33,39.06,3.88,56.86,15.29,38.3,24.56,77.63,47.51,116.48,71.19a16,16,0,0,0,8.93,2.5c48.32-.66,96.6,1,144.89,2.42,19.16.58,34.92,6.86,45,24.18,2.72,4.68,7.28,7.34,12.23,9.36a42.13,42.13,0,0,1,17.5,12.6,32,32,0,0,1-15.15,50.44,65.93,65.93,0,0,1-20.35,3.14q-92.05-.07-184.1-.1a21.16,21.16,0,0,0-11.54,3.24c-41.71,25.46-83.55,50.7-125.21,76.24-9.69,5.94-19.76,9.41-31.2,8.77-5.21-.29-10.45,0-15.67-.06-9,0-16.14-3.35-19.81-11.88-3.73-8.69-1.45-16.41,5-23.08l55.07-57.27c1-1.07,2-2.22,3.1-3.23,2.78-2.6,1.53-3.59-1.5-4.05-21-3.17-42-6.48-62.71-11.55-2.51-.62-4.3.52-6.22,1.7C104.73,336.28,95.11,342,85.69,348c-8.33,5.33-17.44,5.49-26.48,3.74-10.13-2-14.24-14.09-7.64-22.6,5.24-6.75,11.37-12.84,17.42-18.91,2.87-2.87,3.37-5.18,2-9.2-7.9-22.94-13.68-46.51-19.82-69.95-2.9-11.06,4.28-20.06,15.72-21.15,15.87-1.51,29.76,2.35,41.13,14.37,9.74,10.29,20.26,19.83,30.18,30,6.27,6.4,13.43,8.92,22.28,7.42C168.87,260.28,177.35,259.24,187.16,257.83Zm303.3,23.63c-6.22-5.4-9.5-6.57-20.11-7-103-3.86-205.88-5.52-308.27,9.49-15.07,2.2-27.93-2.16-38.72-13S101.6,249.5,90.72,238.75c-3.24-3.2-6.69-5.92-11.46-6.41-3-.32-4.7.12-3.65,3.86,4.56,16.35,9,32.73,13.43,49.11.7,2.57,1.69,4.17,4.95,3.9,4.75-.39,8.29,2,10.19,6.38,2,4.53,1.14,8.75-2.13,12.47q-2,2.31-4.1,4.61A49.44,49.44,0,0,0,109.68,307c9.11-5.48,18.13-11.13,27.37-16.36a10.66,10.66,0,0,1,14.41,3.15c3,4.27,2.35,10.06-1.56,14.33-.85.92-2.22,1.45-2.33,3.05a5.82,5.82,0,0,0,1.43.72c18.32,3.54,36.77,6.28,55.27,8.65,2.64.34,4.15-1,5.75-2.62,3.73-3.92,7.35-8,11.38-11.56,5.76-5.14,12.94-4.18,16.86,1.87,3.44,5.32,2.53,9.63-3.39,15.8q-42,43.8-84,87.64c-1.42,1.48-3.46,2.69-3.79,5.45,11.08.77,21,.33,30.81-5.87,29.15-18.44,58.84-36,88.32-54q42.56-25.86,85.13-51.68c7.18-4.34,14-2.87,17.47,3.31,3.14,5.51.84,11.69-5.84,16-1.6,1-3.74,1.53-4.89,4.36h13.81q67.42,0,134.85,0c5.58,0,11.23.19,16.46-2.35,7.21-3.52,8.46-11.18,2.41-16.34-4.88-4.16-10.37-7-17.2-6.83-10.81.25-21.64.07-32.45.07-1.31,0-2.62,0-3.92,0-7.69-.29-12.71-4.82-12.58-11.32.13-6.3,5-10.77,12.37-11C477.51,281.32,483.22,281.46,490.46,281.46ZM278.17,250.61c-2.14-1.6-2.82-2.2-3.58-2.66q-50.71-30.72-101.42-61.46c-8.3-5.06-17.11-3.23-26-3.41.33,3,2.29,4,3.64,5.43q24.33,25.13,48.77,50.12c5.34,5.44,9.63,13,16.47,15.59s15.05-.5,22.66-1C251.26,252.48,263.85,251.57,278.17,250.61Z"/></svg>