<svg id="Layer_1" data-name="Layer 1" xmlns="http://www.w3.org/2000/svg" viewBox="0 0 600 600"><defs><style>.cls-1{stroke:#000;stroke-miterlimit:10;stroke-width:4.52px;}</style></defs><title>Artboard 1 copy 11</title><path class="cls-1" d="M100.93,282.16V165.86c0-34.65,19.69-57.14,54.16-57.64,68.94-1,137.91-.75,206.86-.06,25.78.26,43,18.42,43.37,44.64.65,47.7.31,95.42.24,143.13,0,3.31,1.34,8.62-4.56,8.16-5.17-.4-4.25-5.33-4.26-8.87-.07-44.35,0-88.71-.1-133.07,0-5.94,0-12-1.24-17.78-3.64-16.56-16.6-27.32-34.88-27.41-68.21-.35-136.43-.69-204.63.15-29.95.37-46,18.72-46,48.58q0,117.41,0,234.83c0,34.13,21.49,55.5,55.94,55.55,35,.05,70.05,0,105.08.08,3.79,0,9.89-1.7,10.23,3.71.41,6.56-6.05,5.09-10.2,5.11-23.86.13-47.71.19-71.57,0-5.32-.05-8.62,1.1-11.45,6.27-8.26,15.1-22.19,18.9-38.18,16.77A34,34,0,0,1,121,460.42a52.69,52.69,0,0,0-10.64-23.76c-6.94-9.1-9.55-19.9-9.5-31.5C101,364.16,100.93,323.16,100.93,282.16ZM130.08,456c2.64,14,10.36,21.7,22,23.44,12.9,1.93,21.8-2.32,27.78-14.17C163,464.74,146,466.49,130.08,456Z"/><path class="cls-1" d="M400.72,315.78c11.54,0,23.08-.21,34.61.06,14.19.32,25.13,6.84,31.77,19.3,10,18.67,19.37,37.65,28.9,56.56a30.14,30.14,0,0,1,3.12,14c-.11,19.36-.16,38.72,0,58.08.07,7.86-2.18,13.36-11.16,13-4.36-.19-5.31,2.95-7.26,5.66-9.54,13.32-26,13.46-35.17-.21-3-4.51-6.08-5.47-10.8-5.44q-35.75.19-71.48,0c-4.87,0-7.74,1.25-10.73,5.68-9.13,13.54-25.86,13.26-35.16-.2-2.24-3.25-3.89-5.76-8.44-5.51-8.23.43-11-4.63-10.95-12.09.06-20.48,0-40.95.08-61.42,0-2.56.22-5.41,1.35-7.61,11.89-23.11,23.69-46.36,39.08-67.37,6.39-8.74,16.62-12.3,27.6-12.41C377.63,315.69,389.18,315.78,400.72,315.78Zm-2.39,152q41.93,0,83.85,0c4.19,0,8.13.63,8-5.87-.29-19.75,0-39.51-.27-59.25-.09-6.13-3.29-11.8-7.19-16-3.12-3.38-7,2.38-11,2.17-3-.14-6,.2-8.93.2q-65.4,0-130.81,0c-3,0-6.61.7-8.75-.72-8.41-5.59-10.72.77-13.63,6.24A24.34,24.34,0,0,0,307,406.46c.09,17.51.44,35-.15,52.54-.26,8,3.06,9,9.84,8.95C343.92,467.63,371.13,467.82,398.33,467.82ZM398,380.13c22.71,0,45.42.11,68.13,0,10.49-.07,11.85-2.55,7.25-12-4.25-8.67-8.55-17.32-12.78-26-5.6-11.52-14.75-17.28-27.58-17.28q-32.4,0-64.79-.09c-12.72-.06-22.09,5.38-28.19,16.56-5.17,9.45-10.29,18.93-15.68,28.25-4.62,8-1.81,10.69,6.62,10.63C353.36,380.05,375.7,380.14,398,380.13Zm-73.49,97.18c8.34,7.55,13.64,6.6,20.91,0Zm148.37.22H452.3C460.48,484.47,465.85,484.93,472.92,477.53Z"/><path class="cls-1" d="M258.05,197c-21.61,0-43.23-.09-64.84,0-34.78.19-51.5,16.87-51.5,51.16,0,8.94-.05,17.89,0,26.83.17,30.11,21.72,52.39,51.87,52.72,36.52.39,73,.09,109.56.12,3.35,0,6.72,0,10,.36,2.38.24,4.27,1.54,4.28,4.26s-2.2,3.74-4.46,4a80.41,80.41,0,0,1-8.92.32c-35.78,0-71.56.1-107.34,0-38.86-.11-64-25.54-64-64.61q0-14,0-28c0-32.36,20.32-55.1,52.6-55.76,48.8-1,97.64-.74,146.45-.08,23.21.32,40.65,17.91,41.74,41.51,1,22.31.37,44.71.37,67.07,0,3.27.4,7.49-4.54,7.27-4.7-.2-4.32-4.32-4.33-7.62-.05-18.63,0-37.27,0-55.9-.08-30.95-12.66-43.66-43.22-43.7Q289.92,197,258.05,197Z"/><path class="cls-1" d="M257.44,132.21c17.12,0,34.24-.11,51.37,0,15.32.13,25,9.06,24.8,22.59-.17,12.93-9.78,22-24.35,22q-51.93.28-103.86,0c-14.65-.08-24.05-9-24.14-22.15-.09-13.72,9.29-22.36,24.8-22.49C223.19,132.1,240.31,132.21,257.44,132.21Zm-.5,35.77c17.15,0,34.29,0,51.43,0,9,0,15.44-3.23,16.17-13,.64-8.57-5.54-13.74-16.39-13.77-33.91-.11-67.82,0-101.73-.08-9,0-15.44,3.09-16.12,12.95-.6,8.64,5.48,13.77,16.34,13.87C223.4,168.1,240.17,168,256.94,168Z"/><path class="cls-1" d="M208.77,384.33a35.16,35.16,0,1,1-70.32,1c-.24-20.05,15-35.86,34.66-36.09A35,35,0,0,1,208.77,384.33ZM173.6,358.19a26,26,0,0,0-26.18,26.05,26.2,26.2,0,1,0,26.18-26.05Z"/><path class="cls-1" d="M347,411.25a15.87,15.87,0,0,1,15.82,16.6c-.21,9.19-7.32,15.92-16.65,15.75a16.18,16.18,0,1,1,.83-32.35ZM353.83,427c-.42-3.52-2.27-6.36-6.76-6.59s-7.25,2.07-7.55,6.31c-.32,4.69,2.14,7.78,7.2,7.76C351.1,434.45,353.43,432,353.83,427Z"/><path class="cls-1" d="M474.77,427.9c-.23,9.21-7.36,15.93-16.67,15.72a16.19,16.19,0,1,1,16.67-15.72Zm-9.08,0c0-4.43-2.13-7-6.44-7.47s-7.21,1.76-7.64,6.06c-.46,4.72,1.8,7.83,6.86,7.95C462.84,434.57,465.22,432.18,465.69,427.92Z"/></svg>