<svg id="Layer_1" data-name="Layer 1" xmlns="http://www.w3.org/2000/svg" viewBox="0 0 600 600"><defs><style>.cls-1{stroke:#fff;stroke-miterlimit:10;stroke-width:4px;}</style></defs><title>Artboard 1 copy 17</title><path class="cls-1" d="M307.08,395.35q-104.4,0-208.79,0c-26.82,0-37.44-13.53-34.08-40.08,3.28-25.88,17.47-42.55,40-53.21,67-31.69,134.12-63,201-95,8.53-4.07,13.78-2.95,21,2.91,29.59,24.07,62.42,39.32,101.91,31.53,15.39-3,29.4-9.52,39.52-22.12,11.57-14.42,26.94-13.46,42.09-9.81,14.55,3.51,26.74,19.14,26.7,34.28-.13,47.17-1.19,94.34-1.7,141.52-.12,10.81-7.57,9.94-14.61,9.95q-57.45,0-114.91,0Zm127.51-53.73q37.85,0,75.69,0c5.16,0,10.64.73,10.72-7.23.29-29.89,1.33-59.8.83-89.68-.17-10.4-7.39-18.31-17.7-21.3-9.76-2.83-19.15-2.51-26.62,6.61-9.45,11.54-22.3,18.31-36.28,22.78-41.53,13.28-78.66,1.19-112-22.86-12.79-9.22-22.11-9.32-34.46-2.1-5.95,3.47-8.29,5.59-4.22,12.46q27.47,46.34,53.94,93.26c3.43,6,7.47,8.34,14.45,8.23C384.13,341.39,409.36,341.63,434.59,341.62ZM298.65,356.05q-103.69,0-207.39.09c-5.39,0-13.32-2.86-13.28,7.29,0,8.51,2.14,15.95,12.31,17.38a49.45,49.45,0,0,0,7,.18c136.85,0,273.7-.14,410.56.27,11.26,0,12.54-4.28,13-13.83.58-11.33-5-11.53-13.45-11.5C437.83,356.14,368.24,356.05,298.65,356.05ZM82.78,340.61H251c-13.39-23.22-26-44.83-38.3-66.61-2.86-5.06-5.84-4.49-10.26-2.37-32.26,15.48-64.75,30.51-96.88,46.27C96.12,322.51,87.54,328.91,82.78,340.61Zm237.37.72c10.36,2.18,12-1.15,6.4-10.61-16.62-28-33.15-56.13-48.84-84.69-5.67-10.34-10.71-4-16.77-1.87-8.63,3.06-4.08,7.5-1.65,11.7,14.88,25.82,30.08,51.46,44.59,77.48C307.67,340.14,312.24,342.82,320.15,341.33Zm-41.62.13c9.14,1,14.32.36,7.7-10.49-14-22.94-27.6-46.16-40.28-69.86-5.6-10.45-10.89-4.09-16.86-2.08-8.22,2.76-4.3,7.31-1.82,11.61,12,20.88,24.38,41.61,36.07,62.69C267,340,271.51,343,278.53,341.46Z"/><path class="cls-1" d="M464.81,263.79c16.24-.2,28.24,11.45,28.45,27.61s-11.78,28.53-27.57,28.79c-15.36.26-28.63-12.58-28.88-27.92A28.25,28.25,0,0,1,464.81,263.79Zm14.05,28.1c-.46-7.59-4.23-13-12.48-13.59-9-.68-14.36,4.62-14.69,13.08s5.16,14.2,13.8,14.16C473.4,305.51,478.08,300.46,478.86,291.89Z"/></svg>