<svg id="Layer_1" data-name="Layer 1" xmlns="http://www.w3.org/2000/svg" viewBox="0 0 600 600"><defs><style>.cls-1{stroke:#fff;stroke-miterlimit:10;stroke-width:5px;}</style></defs><title>Artboard 1 copy 2</title><path class="cls-1" d="M109.2,109.23c11.17,8.14,21.78,15.9,32.42,23.62,5,3.62,10,7.24,15,10.73,12.13,8.36,24.81,9.38,38.75,4.28,34-12.42,68.27-24.2,102.4-36.3,19.12-6.78,36.75-4.54,53.21,7.72Q415,166.89,479.14,214.17c11.71,8.67,15.66,20.62,12.64,34.37s-12.41,21.54-25.89,24.69c-9.17,2.14-17.25-.9-25-5.37-26.61-15.41-53.27-30.75-79.76-46.38-4.88-2.88-8.5-3.15-14-.68-34.55,15.46-69.17,30.77-104.21,45-29.72,12.1-59.52,10.38-88.46-3.67-13.11-6.36-26.14-12.85-39.19-19.32-6.2-3.07-9.94-13.58-7-19.48,2.07-4.15,4.5-.85,6.33,0q23.15,11.16,46.11,22.7c24.86,12.45,50.51,14.18,76.13,3.65,34.4-14.13,68.34-29.4,102.46-44.2a50.77,50.77,0,0,0,6.06-3.09c6.25-3.75,9.45-9,6.57-16.28-3-7.45-8.77-10.14-16.45-7.92q-38.67,11.2-77.27,22.64c-7,2-15.7,6.68-18.56-3.94-2.67-9.94,7.17-10.57,13.65-12.52,24.77-7.44,49.56-14.85,74.46-21.84,27.74-7.8,46.54,9.71,40.55,37.77-.91,4.27.47,5.72,3.58,7.51,26.36,15.2,52.61,30.6,79,45.72,8.88,5.09,17.26,3.15,22.13-4.46s3.16-15.51-5.43-21.92q-51-38.1-102.29-75.85c-8.34-6.17-16.72-12.28-25-18.48-10.92-8.14-22.52-10.22-35.62-5.5-34.07,12.28-68.46,23.67-102.36,36.4-21.07,7.91-39.92,5.21-57.85-7.53-8.44-6-16.28-13.06-25.27-18.07C107.23,131.52,106.3,122,109.2,109.23Z"/><path class="cls-1" d="M276,302.48c-4.61-2.29-8.7-2.31-12.69-3-4.28-.72-6.88-3.47-6.84-8.08.06-5.09,3-7.5,7.79-8.24,8.64-1.35,17.59,1.54,29.16,9.69,4-8.83,7.69-17.9,16-23.74,5.14-3.63,10.64-6.24,15.34-.05,4.55,6,.43,10-4.4,13.59a27.05,27.05,0,0,0-5.85,6.4c-6.25,9.14-5.42,10.94,5.09,13.39,38.16,8.89,62.42,32.47,73.29,69.93,1.63,5.65,3.33,9.91,9.28,13.34,16.73,9.66,16,30.44-1.07,39.94a23.72,23.72,0,0,0-10.16,10.79C372.1,472.85,341.8,491.9,301,492.2s-71.28-18.52-90.82-54.42c-2.83-5.2-5.46-9.32-11.08-12.43-17-9.39-16.94-30-.29-40.05,4-2.45,6.89-4.63,8.14-9.65,8.77-35.46,30.48-59.25,65.23-70.95A26.63,26.63,0,0,0,276,302.48Zm24,14.94a79.16,79.16,0,0,0-78.4,71.64c-.58,5.73-2.4,8-8.27,7.6s-9.29,3-9.22,8.83c.06,5.34,3.41,8.76,8.66,8.35,5.51-.42,7,2.5,8.58,6.73,11.78,32.63,44.74,55.5,79.31,55.19,34.87-.32,67-22.76,78.57-54.89,1.45-4,2.52-7.54,8.35-7s9.19-3.16,8.95-9c-.21-5.33-3.61-8.62-8.88-8.15-6.62.59-8.07-2.35-8.6-8.28C375.43,348.46,340.3,317.09,300,317.42Z"/><path class="cls-1" d="M300.08,457.32a47,47,0,0,1-28.52-8c-5.2-3.47-8.13-8.11-4.38-13.85,3.55-5.44,8.27-4.37,13.44-1,13.25,8.52,26.81,8.42,40-.37,4.8-3.2,9.3-3.76,12.72,1.11,3.63,5.16,1.68,9.89-3.15,13.38A46.5,46.5,0,0,1,300.08,457.32Z"/><path class="cls-1" d="M269.25,404.78a12.71,12.71,0,0,1-12.7-13c.18-6.62,6.8-12.91,13.37-12.71,7.31.22,12.5,5.82,12.37,13.34S276.85,405,269.25,404.78Z"/><path class="cls-1" d="M331,379c6.61,0,13.07,6.4,13.07,13,0,7.21-5.58,12.68-13,12.72-7.59.05-12.75-5.08-12.74-12.68S323.76,379.06,331,379Z"/></svg>