<svg id="Layer_1" data-name="Layer 1" xmlns="http://www.w3.org/2000/svg" viewBox="0 0 600 600"><title>Artboard 1 copy 50</title><path d="M314.41,54.31c7.54,2.2,14.84,4.85,20.54,10.61,9.89,10,13.24,21.92,10.79,35.63-.28,1.57-.62,3.13-.89,4.71a17.8,17.8,0,0,0,0,2c2.65-2.19,4.9-4.13,7.23-6,18.07-14.12,43.28-9.88,55.63,9.44,3.36,5.25,6.45,10.68,9.42,16.15,11.74,21.58,2.32,46.51-20.68,55-2.18.8-4.39,1.55-7,2.46,2.56,2,5.33,2.33,7.8,3.29,22,8.53,31.31,32.91,20.33,53.74-3,5.65-6.18,11.21-9.59,16.61-12.72,20.15-38.68,24.23-57,9.06-1.94-1.6-3.82-3.25-6.45-5.49,1,7.12,2.46,13.15,1.8,19.43-1.87,17.77-16.06,32.11-34,33.52-4.16.33-5.27,1.63-5.25,5.73.18,29.92.09,59.83.11,89.75a14.05,14.05,0,0,0,.65,4.47c5.66-8.19,12.42-15.27,19.28-22.28,1.7-1.74,1.23-4.55,1.54-6.89,6-44.35,46.31-81.94,90.81-84.52,7.26-.42,9.95,2.33,9.39,9.62-3.44,45.4-39.67,84.16-84.75,90.5a17.61,17.61,0,0,0-10.69,5.36c-17.59,17.69-26.37,38.87-26.26,63.82.09,21.43,0,42.87,0,64.31a28.66,28.66,0,0,1-.35,5.72,7,7,0,0,1-13.67.08,36.44,36.44,0,0,1-.37-6.2c-.38-13.89.95-27.83-1.27-41.67-3.25-20.26-13.35-36.7-28.06-50.62-1.44-1.37-3-1.5-4.77-1.75-43.42-6.44-76.53-36.75-85.85-78.73a101.69,101.69,0,0,1-1.76-12.81c-.59-6.68,2.22-9.64,8.9-9.16,26.86,1.93,49,13.53,66.93,33.32a95.16,95.16,0,0,1,24.49,52.63,13.25,13.25,0,0,0,4.35,8.64A104.2,104.2,0,0,1,291.7,453c1.74-1.15,1.07-2.72,1.07-4,0-43,0-86.06.1-129.1,0-3.56-.87-4.93-4.67-5.26-23.22-2.06-38.44-22.83-33.93-45.93.4-2,.76-4,1.2-6.35-2.87,1.07-4.44,3.17-6.37,4.77-18.34,15.14-44.4,11.09-57.07-9-3.4-5.4-6.6-11-9.59-16.6-11-20.83-1.87-45.57,20.3-53.65,19.79-7.21,39.85-13.73,59.88-20.28,3.89-1.28,4.79-2.83,3.85-6.76-2-8.39-3.51-16.89-5.11-25.37a11,11,0,0,0-3.89-6.82c-5.66-4.7-11-9.73-16.64-14.5-12.88-10.94-29-8.26-37.53,6.21-2.36,4-4.64,8-6.93,12.05-6.28,11-5.7,19.59,2.16,29.69,2.3,3,3.15,5.93,1.06,9.24-1.87,3-4.74,3.68-8,3-2.12-.49-3.5-2.14-4.85-3.74a38.16,38.16,0,0,1-4.59-42.22c3-5.65,6.19-11.19,9.55-16.62,12.6-20.33,38.31-24.71,57-9.78,2,1.59,3.86,3.31,6.76,5.8-.36-2.55-.51-4.15-.82-5.71-4.58-23.13,6.78-41,29.78-46.91a5.17,5.17,0,0,0,1.2-.72Zm61.35,207.45c8.64-.2,15.37-3.91,20-11.21,2.81-4.46,5.36-9.09,8-13.67,8.84-15.56,3-30.86-14.07-36.65-10.28-3.49-20.6-6.89-30.82-10.52-4.28-1.52-6.18-5.38-4.72-9.12,1.58-4,4.69-5.45,8.88-4.48,1.69.4,3.24.9,5.1.23,8.11-2.89,16.39-5.35,24.44-8.42,13.68-5.24,19.24-20.24,12.44-33.21-2.67-5.09-5.61-10.05-8.58-15-8.3-13.73-24.29-16.45-36.53-6.17-5.88,4.94-11.48,10.21-17.37,15.12a10.23,10.23,0,0,0-3.71,6.38c-1.73,9.1-3.48,18.2-5.39,27.26a8.16,8.16,0,0,0,.6,5.48c8.4,18.32,3.3,37.15-13.28,48.53-2.6,1.78-2.85,2.58-.4,4.7,13.42,11.62,26.68,23.42,40.06,35.08A22.12,22.12,0,0,0,375.76,261.76Zm-151.6,0A20.41,20.41,0,0,0,238.44,257c14.07-12.1,27.95-24.4,41.93-36.59,1.54-1.34,1.94-2.18-.14-3.5-11.31-7.21-17.38-17.56-18.13-31-.13-2.25-.52-3.11-3.08-2.23-17.35,6-34.88,11.49-52.11,17.82-13,4.77-18.45,19.91-12.2,32.25a199.64,199.64,0,0,0,10.09,17.4C209.27,258.19,215.93,261.53,224.16,261.76Zm76.73-193c-3.42,0-6.14,0-8.86,0-15.48.19-26.26,12.24-23.68,27.55,3,17.93,7,35.7,10.47,53.55.45,2.35,1.22,2.47,3.13,1.47,12.07-6.3,24.18-6.24,36.24.05,1.57.82,2.52,1.08,2.95-1.17,3.59-18.65,7.65-37.21,10.75-55.93,1.84-11.11-6.06-21.57-16.93-24.64C310.07,68.22,305.11,69,300.89,68.71Zm-1.24,232v-.15c2.39,0,4.79,0,7.19,0,17.93-.36,28.08-13.17,24.42-30.77-1.46-7-3-14.06-4.23-21.12a8.39,8.39,0,0,0-2.92-5.24c-7.13-6.17-14.24-12.36-21.22-18.69-2-1.84-3.43-2.13-5.61-.14-7.07,6.46-14.33,12.72-21.53,19-1.07,1-2.2,1.82-2.49,3.39-1.76,9.4-4,18.75-5.21,28.23-1.52,12.2,7.87,23.44,20.12,24.88C292,300.62,295.82,300.57,299.65,300.74Zm45.87,85.56,2.16-.56q51.18-13.53,65.08-64.62c1.37-5.07,1-5.38-4-4.22-18.83,4.39-34.33,14.23-46.77,28.93a82.74,82.74,0,0,0-18.26,37.43C343.43,384.65,342.28,386.65,345.52,386.3ZM188.3,354.73c-3.14.43-1.47,2.84-1.18,4.25,6.46,31.58,34.24,59,66,65.46,3.05.62,4,.39,3.16-3.09-6.41-27.39-22.47-47.09-47.35-59.79A77.74,77.74,0,0,0,188.3,354.73ZM300,208.08a23.44,23.44,0,0,0,23.55-23.36,23.56,23.56,0,1,0-47.12,0A23.42,23.42,0,0,0,300,208.08Z"/></svg>