<svg id="Layer_1" data-name="Layer 1" xmlns="http://www.w3.org/2000/svg" viewBox="0 0 600 600"><title>Artboard 1 copy 57</title><path d="M536.09,269.58c-3.13,4.8-7.38,6.75-13.25,6.41-7.65-.45-15.36,0-23-.14-15.33-.24-27-7-33.45-20.91-2.52-5.41-5.57-6.68-11-6.65q-54,.33-107.89,0a15.29,15.29,0,0,0-11.91,5q-40.92,41.29-82.21,82.22a15.27,15.27,0,0,0-5,11.9q.25,53.94,0,107.89c0,5.47,1.24,8.52,6.64,11,13.92,6.48,20.68,18.13,20.92,33.46.12,7.68-.32,15.38.13,23,.35,5.87-1.6,10.12-6.4,13.25H208.72c-3.91-3.1-8-6.34-5.72-12.11s7.6-6.36,13.11-6.3c11.52.11,23,.06,34.58,0,3,0,6,.61,7.07-4,4.87-20.41-4.69-33.2-25.43-33.23q-60.78-.09-121.57,0c-23.74,0-28.91,5.53-28.6,29,.08,6.27,1.61,8.67,8.22,8.38,11.5-.49,23.05-.07,34.58-.15,5.22,0,10,.92,12,6.38,2.07,5.73-1.61,9.12-5.86,12-20.64,0-41.27-.18-61.9.14-4.52.06-5.53-.86-5.39-5.39.39-12.93.14-25.88.14-38.82,4.11-10.52,9-20.73,20.19-25.24,6.32-2.55,7.68-6.25,7.65-12.59-.24-55.18.07-110.37-.35-165.55-.07-9.23,2.89-15.6,9.3-22q83.26-82.68,166-166c6.36-6.4,12.73-9.36,22-9.29,55.18.41,110.36.25,165.55.1,3.71,0,8.54,2.18,10.64-3.69C469.45,74.9,480,68.51,492,63.93c12.59,0,25.19.3,37.77-.14,5.27-.19,6.45,1.19,6.43,6.44C536,136.68,536.09,203.13,536.09,269.58ZM276.4,116.7c-24,24.18-46.57,47-69.33,69.59-3.57,3.55-2.39,5.49.53,8.4q38.25,38,76.24,76.34c3.28,3.32,5.33,3.14,8.44-.08,10-10.28,20.13-20.37,30.34-30.4,2.52-2.48,3.28-4.51,1.77-8.12C308.53,194.55,292.89,156.58,276.4,116.7Zm-1.93,171.22c-1.44-1.64-2.5-3-3.7-4.19-25.42-25.44-50.94-50.79-76.2-76.39-4-4.06-6.09-2.43-9.19.69q-31.35,31.6-63,63c-3.83,3.78-5.38,5.7,1.13,8.34C159.68,294,195.69,309,231.68,324.1c3.71,1.55,6.16,1.41,9.1-1.64,9.93-10.31,20.19-20.3,30.28-30.45C272.25,290.82,273.22,289.43,274.47,287.92Zm20.47-177.81c-.1,1.5-.38,2.28-.15,2.85q23,56.06,46.11,112.09c1.38,3.37,3.24,4.91,7,4.87q21-.21,41.9,0c4.34.06,6.3-1.21,6.28-5.9q-.18-53.94,0-107.89c0-4.43-1.46-6.12-6-6.1C358.3,110.17,326.6,110.11,294.94,110.11ZM110.11,294.59c0,32.07.12,63.81-.1,95.56,0,6.85,4.31,5.83,8.37,5.83,34.23,0,68.45-.14,102.68.14,6.6.06,9.31-1.48,9-8.63a317.87,317.87,0,0,1,.05-35.6c.47-7.44-2.71-10.28-9-12.81-31-12.47-61.88-25.41-92.82-38.09C122.55,298.65,117.23,295.08,110.11,294.59Zm407.59-124c0-26.55.07-53.09-.08-79.64,0-3.34,1.79-7.56-4.44-8.68-22-4-32.76,4.62-32.77,26.9q0,60.25,0,120.52c0,23,5.67,28.24,28.45,28.29,7.85,0,9.07-3,9-9.84C517.51,222.27,517.7,196.42,517.7,170.57Zm-103.32-1.72c0,17.81.22,35.63-.13,53.44-.11,5.92,1.64,7.94,7.64,7.71,11.16-.43,22.36-.35,33.53,0,5.31.15,7.29-1.35,7.26-7q-.35-52.93,0-105.86c0-5.48-1.58-7.31-7.1-7.12-10.82.38-21.67.47-32.48,0-6.67-.3-9.1,1.49-8.88,8.59C414.73,135.3,414.38,152.08,414.38,168.85ZM169.86,462.56c17.47,0,34.94-.22,52.4.13,5.88.11,8-1.58,7.73-7.61-.42-11.17-.34-22.36,0-33.53.15-5.29-1.29-7.32-7-7.28q-52.93.35-105.85,0c-5.43,0-7.37,1.49-7.17,7.07.4,10.82.47,21.67,0,32.48-.29,6.61,1.4,9.14,8.55,8.92C135.61,462.21,152.74,462.57,169.86,462.56Z"/><path d="M166.75,536.09c-3.28-3.44-7.62-6.43-5.12-12.31,1.5-3.55,4.19-5.65,7.94-5.81,4.23-.18,7.29,2.12,8.92,6,2.47,5.88-2.08,8.8-5.44,12.16Z"/></svg>