<svg id="Layer_1" data-name="Layer 1" xmlns="http://www.w3.org/2000/svg" viewBox="0 0 600 600"><title>Artboard 1 copy 54</title><path d="M86.1,516.84c-2.88-5.05-3.49-10.49-3.47-16.26q.23-50.9.06-101.78c0-16.58,5.46-30.33,21.25-37.33,7.52-3.34,7.87-8.47,7.85-14.9-.07-16.4-.35-32.81.12-49.19.54-18.8,7.24-26.59,25.36-26.72q97.54-.72,195.08,0c18.23.13,25.09,8.18,25.52,26.55.27,11.31,0,22.62.08,33.93.14,14.17-3.48,29.26,15.9,36,7.81,2.72,11.49,12.35,11.91,21.26,2,42.82,3.34,85.66-.77,128.45H347.63c-1.22-3.1-3.91-6.47-3.41-9.27,3.52-19.46-7.62-20.2-22.46-20-54.27.61-108.55.14-162.82.33-10.1,0-21.58-3.51-29.92,1.93-7,4.56.24,16.28-4.76,23.8-.58.87-.55,2.15-.8,3.24Zm147.62-87.16c40.66,0,81.32-.55,122,.31,13.46.28,18.67-3.76,16.7-17.05-.57-3.86,0-7.89-.1-11.84C371.85,379,365,372,342.57,371.76c-24.84-.28-49.68-.07-74.53-.07-46.86,0-93.72-.16-140.58.08-23,.11-30.08,7.6-30.49,30.73-.06,3.39.4,6.84-.08,10.15-1.89,13,2.85,17.64,16.58,17.34C153.54,429.11,193.64,429.68,233.72,429.68Zm.13,15h-93.4c-46,0-46,0-43.49,46.08,0,.57,0,1.13,0,1.7-.11,5.52.47,10.36,7.94,10,6.53-.31,7.28-5,6.69-9.55-2.32-17.82,7.38-20.19,22.28-20.06q101,.84,202.09,0c14.86-.12,24.76,2.09,22.08,20.12-.66,4.46-.39,9.19,6.39,9.52,7.8.37,7.75-4.84,7.78-10.08.07-11.33-.67-22.7.24-33.95.94-11.63-4-14.13-14.65-14C316.5,444.94,275.17,444.64,233.85,444.64Zm1.67-159.4c-31.06,0-62.13.32-93.18-.17-11.38-.18-16.84,3.25-16,15.43.73,10.68-.88,21.58.47,32.13,1.06,8.24-6.61,23,6.21,23.54,14.63.6,6.41-14.53,7.17-22.37,1.83-18.73,8.62-26.66,27.32-27.23,11.28-.34,22.6-.38,33.88,0,17.8.62,25.28,8.17,26.39,26.19.35,5.63.2,11.29.17,16.94,0,4.55,1.29,7.39,6.63,7.57,6.11.21,7.84-2.72,7.67-8.21-.2-6.2-.13-12.43.06-18.63.47-15,8.81-22.59,23.29-23.79,5.61-.46,11.28-.16,16.93-.16,42.18,0,42.22,0,46.64,41.56.5,4.64.17,9.05,6.89,9.22,7.54.19,7.82-4.48,7.8-10-.08-15.25-.56-30.52.15-45.74.59-12.69-4.68-16.78-17-16.54C296.52,285.64,266,285.23,235.52,285.24Zm-52.31,72.07c31.9,0,31.49,0,29.85-23.59-.67-9.62-5.13-12.81-13.83-12.68-7.89.11-15.85.68-23.65-.17-16.64-1.8-20.64,5.68-21.24,21.49-.7,18.15,10.14,14.86,20.42,14.95C177.58,357.34,180.4,357.31,183.21,357.31Zm101.24,0c6.78,0,13.56-.17,20.33.05,5.89.19,8.87-1.27,9.7-8.2,2.91-24.34.09-28.08-23.81-28.13-4.52,0-9.09.44-13.54-.08-16.36-1.93-20.92,5.09-21.45,21.3-.58,18.06,9.91,15.07,20.3,15.07C278.81,357.32,281.63,357.31,284.45,357.3Z"/><path d="M517.45,268.9c-10,3.54-14.68.75-14.38-10.62.51-19.22-.19-38.47.28-57.69.19-8.23-1.78-13.22-10.07-16.87q-92.23-40.66-184-82.38c-6.95-3.15-12.58-2.62-19.25.39Q199,142.91,107.59,183.45c-7.89,3.49-11.07,7.69-10.81,16.38.57,19.78.23,39.59.1,59.38,0,4.85,1.11,10.64-6.86,10.89s-7.29-5.24-7.29-10.33c0-23.19.3-46.39-.18-69.57-.18-8.87,3.85-13.19,11.39-16.55q98.26-43.77,196.35-87.95c5.91-2.65,11.29-3.71,17.74-.8q101.13,45.66,202.45,90.92c2.53,1.14,4.66,3.16,7,4.77Z"/><path d="M517.45,472.69c-11,2.35-14.58-1.75-14.52-13.19.13-29.79-.42-29.8-30.67-29.8-14.7,0-29.42.44-44.1-.13-9.59-.38-13.27,3.1-12.49,12.71.64,7.86,0,15.82.08,23.74,0,4.88-2.05,7-7.14,7-5.28,0-6.84-2.67-6.83-7.32q.06-49.18.07-98.38c0-5.14,2.54-9.56,7.71-9.45,36,.77,72.1-4.39,107.89,2.74Zm-58.26-57.51h15.24c30.57,0,30.11,0,29-31.54-.35-10.17-4.47-12.29-13.35-12.07-17.49.43-35,.11-52.5.12-21.8,0-20.66.1-22.17,21.65-1.21,17.3,3.61,24.9,21.76,22C444.36,414.24,451.85,415.18,459.19,415.18Z"/><path d="M459.64,343.22c-3.95,0-7.9,0-11.85,0-4.62-.05-9.34.12-9.62-6.51-.2-4.65,1.41-7.68,6.39-8,11-.8,7.72-9.13,7.77-15.26.07-9.25-7.42-7.08-12.39-6.72-16.79,1.21-17.9-7.07-13-19.84,2.22-5.79,4.76-11.61,5.8-17.65,3-17.38,13.07-22.1,29.92-21,11.93.75,19.23,3.38,21.64,15.82,1.27,6.58,4.19,12.84,6.31,19.26,6.86,20.86,6.77,21-14.75,23.29-3.77.4-8.79-.72-8.9,5-.1,5.31-3.2,12.12,2.59,15.57,4.86,2.91,13.73,1.64,10.91,11-2.87,9.48-11.57,3.43-17.45,5.12A11.94,11.94,0,0,1,459.64,343.22Zm-.12-49.74c5.15-4.35,17.58,5.06,15.94-7.43-1.1-8.42.19-23-15.93-23s-14.89,14.44-15.94,23C442,298.73,454.46,289,459.52,293.48Z"/><path d="M458.89,386.19c5.89,1.83,14.48-3,14.53,7.45.05,11.71-9.31,6.82-14.88,7.25s-13.53,2.77-13-7.55C446.1,382.83,454.92,388.78,458.89,386.19Z"/></svg>