<svg id="Layer_1" data-name="Layer 1" xmlns="http://www.w3.org/2000/svg" viewBox="0 0 600 600"><title>Artboard 1 copy</title><path d="M413.44,76.53c10,3.85,13,11.38,13,21.66q-.3,132.26-.13,264.51a34.24,34.24,0,0,1-.32,5.64c-.62,3.73-3.1,5.63-6.74,5.4-3.44-.23-5.6-2.3-5.9-5.88-.14-1.74-.12-3.49-.12-5.23q0-103.23.09-206.46c0-4.32-.89-5.72-5.43-5.53-9.44.39-18.91.15-28.37.1-5.2,0-8.08-2.4-8.11-6.47s2.89-6.56,8-6.59c10-.06,20.08-.12,30.11,0,2.84.05,3.76-.74,3.73-3.64-.14-12.94-.11-25.89,0-38.84,0-4.07-1.66-5.66-5.78-5.66q-107.59.11-215.19,0c-4.26,0-5.64,1.89-5.62,5.83.08,12.94.1,25.89,0,38.84,0,2.66.77,3.5,3.45,3.46,9.75-.14,19.5-.05,29.24-.05h127.9c1.31,0,2.62-.06,3.92,0,4.16.3,6.87,2.84,6.93,6.44.06,3.76-2.75,6.51-7.17,6.58-7.85.13-15.71,0-23.57,0-45.25,0-90.5.05-135.75-.1-4.06,0-5.14,1.11-5,5.06.3,7.7.15,15.42.06,23.13-.05,4.87-2.51,7.68-6.42,7.7s-6.59-2.73-6.6-7.61q-.1-42.78,0-85.56c0-8.65,5.3-13.67,12.79-16.85Z"/><path d="M173.58,349.72q0-69.62,0-139.22a28.55,28.55,0,0,1,.44-5.62,5.83,5.83,0,0,1,6.26-5,6,6,0,0,1,6.2,5.59,38.15,38.15,0,0,1,.17,4.79c0,20.07.09,40.15-.07,60.22,0,3.55.87,4.87,4.59,4.72a148.17,148.17,0,0,1,17,.27,23.47,23.47,0,0,1,21.91,23c.33,14.39.3,28.8.08,43.2-.22,14.2-10.3,24.07-24.72,24.55-5.09.17-10.18.15-15.27,0-2.57-.08-3.58.61-3.55,3.38q.17,22.26,0,44.51c0,2.92,1,3.66,3.77,3.65q109.54-.1,219.08,0c3.26,0,3.86-1.24,3.78-4.09-.16-6-.08-11.93,0-17.89,0-5.72,2.17-8.55,6.36-8.61,4.38-.07,6.71,2.88,6.72,8.8q0,32.73,0,65.46c0,9.45.05,18.91,0,28.36-.08,12.3-6.67,18.83-18.9,18.89h-1.31c-2.9.06-6.36-.84-8.56.43-2.62,1.5-.69,5.32-1.21,8.09-.71,3.8-3.28,6.46-6.65,6.17-3.66-.32-5.77-2.45-6.21-6.15,0-.15,0-.29-.06-.43-.43-2.55,1.13-6-.81-7.51-2.16-1.73-5.6-.57-8.48-.57-50.91,0-101.83,0-152.74-.12-3.76,0-5.06.82-4.89,4.76.28,6.77-2,9.93-6.31,10.05s-6.82-3.14-6.62-10.17c.11-3.58-.84-5-4.56-4.62a64.09,64.09,0,0,1-9.6,0A16.22,16.22,0,0,1,174.06,495a42.43,42.43,0,0,1-.46-6.95Q173.56,418.88,173.58,349.72Zm126.36,81.13c-36.22,0-72.44,0-108.65-.08-3.5,0-4.74.73-4.7,4.51.2,17.88.08,35.78.1,53.67,0,6,.69,6.69,6.8,6.69H406.42c6.09,0,6.78-.67,6.79-6.71,0-17.75-.15-35.5.11-53.24.07-4.23-1.39-4.93-5.17-4.92C372.08,430.9,336,430.85,299.94,430.85Zm-113.26-110c0,9.45.09,18.91-.05,28.36,0,2.83.45,4.27,3.76,4.09,4.93-.27,9.89,0,14.83-.1,7.23-.18,11.86-4.89,11.9-12.21q.12-20.28,0-40.58c0-7.18-4.4-11.75-11.55-12.06-5.08-.22-10.18.07-15.27-.12-2.93-.11-3.71,1-3.67,3.82C186.77,301.62,186.68,311.23,186.68,320.83Z"/><path d="M312.74,234.78c6.08,3.5,11.52,6.56,16.87,9.77a4.13,4.13,0,0,0,4.43.16,98.13,98.13,0,0,1,9.13-4.12c3.62-1.34,7,.13,8.29,3.42,1.4,3.51.25,6.32-2.92,8.17a44.4,44.4,0,0,1-7.06,3.38c-2.72,1-3.39,2.64-2.93,5.35a42.5,42.5,0,0,1,.62,7.81,6,6,0,0,1-5.9,6.36c-3.43.31-5.77-1.57-6.79-4.92a3.12,3.12,0,0,1-.26-1.28c2.17-14.13-9.84-16.33-18.18-21.62-1.68-1.06-2,0-2,1.43,0,6,.05,11.93,0,17.89,0,1.65,1.12,2.23,2.16,3,2.61,1.85,5.33,3.57,7.82,5.56,3.08,2.47,3.65,6,1.71,8.9-2.05,3-6.29,4.24-9.16,1.57-6.27-5.85-11.72-5.9-18,0-3,2.75-7.1,1.53-9.13-1.51-1.91-2.87-1.27-6.37,1.66-8.95a1.23,1.23,0,0,1,.34-.26c9.69-3.82,10.63-11.66,9.59-20.53a78,78,0,0,1,0-8.19c-6.16,3.56-11.62,6.74-17.12,9.86-1.26.72-1.22,1.83-1.32,3-.26,3-.48,6.09-.85,9.12-.53,4.38-3.4,7-7.14,6.62-3.59-.35-6.67-3.37-5.72-7.32,2.06-8.54-1-13-9.12-15.53-3.85-1.2-4.8-5.45-3.14-8.72,1.57-3.07,5.58-5,8.51-2.73,10.11,8,17.64,1,25.71-3.54.76-.43,1.5-.89,2.24-1.35.24-.15.44-.37,1.13-1-5.8-3.33-11.43-6.55-17.05-9.81-1.44-.83-2.49.19-3.63.68-3.06,1.3-6.05,2.81-9.17,4-3.37,1.26-6.11,0-7.69-3.08-1.69-3.3-.82-6.36,2.32-8.33a53.64,53.64,0,0,1,8.18-4c2-.81,2.54-2,2.28-4a66.65,66.65,0,0,1-.68-8.69c0-3.74,2.21-6.09,5.83-6.42s6,1.77,6.95,5.31a2.17,2.17,0,0,1,.16.85c-1.56,10.47,4.82,15.33,13.19,18.88a66.23,66.23,0,0,1,6.07,3.44c0-7.13.05-13.69,0-20.25,0-1.5-1.59-1.95-2.62-2.7-2.46-1.8-5.08-3.41-7.42-5.36a6.33,6.33,0,0,1-1.19-8.95c2.35-2.92,5.83-3.91,8.46-1.49,6.48,6,12.19,6.37,18.78.09,2.71-2.59,6.79-1.29,8.78,1.58s1.43,6.31-1.52,8.94a1.44,1.44,0,0,1-.34.27c-10,3.79-10.7,11.93-9.76,20.88.21,2,0,4.06,0,7.1l18.31-10.63c1.1-.64.83-1.76.93-2.73.31-3.18.47-6.39.92-9.55.58-4.09,3.5-6.47,7.14-6.13,3.46.33,6.5,3.19,5.68,6.93-1.87,8.46.58,13.43,9.16,15.94,3.82,1.12,4.74,5.44,3.08,8.74-1.54,3-5.42,4.9-8.53,2.64-9-6.52-16.36-2.92-23.85,2.46C317.19,232.34,315.24,233.3,312.74,234.78Z"/><path d="M300,457.23H222.74a24.22,24.22,0,0,1-4.35-.17,6.11,6.11,0,0,1-5.38-6,5.91,5.91,0,0,1,4.71-6.47,20.78,20.78,0,0,1,5.18-.44q77,0,154,0c6.73,0,9.95,2.07,10.06,6.44s-3.19,6.66-10.21,6.66Z"/><path d="M300.14,469.26H376.5a40.22,40.22,0,0,1,4.79.15,5.91,5.91,0,0,1,5.56,5.76,5.82,5.82,0,0,1-4.48,6.59,17.46,17.46,0,0,1-4.73.56q-77.67,0-155.34,0a13.47,13.47,0,0,1-5.16-.66,6,6,0,0,1-4.11-6.47,5.92,5.92,0,0,1,5.09-5.74,26.34,26.34,0,0,1,4.79-.22Z"/><path d="M208.43,320.55c0,5.09.1,10.19,0,15.27-.11,4.17-2.67,6.87-6.26,7a6.44,6.44,0,0,1-6.66-6.64q-.31-15.48,0-31a6.47,6.47,0,0,1,6.76-6.54c3.64.18,6,2.81,6.14,7.09C208.52,310.66,208.43,315.61,208.43,320.55Z"/></svg>