<svg id="Layer_1" data-name="Layer 1" xmlns="http://www.w3.org/2000/svg" viewBox="0 0 600 600"><title>Artboard 1 copy 13</title><path d="M225.09,484.44H94.71c14.43-7.49,26.49-7.9,38-10.06,19.11-3.58,21.45-5.91,21.47-25.62,0-32.18-1-64.39.32-96.51.67-16.75-6-26.35-19.19-35.38C94,288.67,70.09,249.79,67.85,199c-1.14-26.09,5.07-50.78,14.6-74.9,2.76-7,6.85-8.62,13.72-8.58,43.83.25,87.67.35,131.5-.05,7.91-.07,11.41,2.78,14.36,9.76,31.82,75.15,10.5,149.12-56.62,194-11.08,7.4-16.38,16-16,29.95,1,34,.23,68.07.23,102.11,0,16.05,3.57,19.92,19.81,22.82,12.11,2.15,24.16,4.67,36.23,7ZM162.81,322.77c6.74-6.88,12.69-12.64,19.67-17.45,55.35-38.12,75.08-103.68,50.77-166.67-2.55-6.62-5.75-9.28-13.1-9.21q-57.3.54-114.61,0c-7.5-.08-10.4,3-12.9,9.48-24.36,63.34-4.92,127.66,50.9,166.54A107.46,107.46,0,0,1,162.81,322.77Z"/><path d="M500.68,484.54H370.79c14-7.91,26.61-7.93,38.42-10.23C427,470.84,430,467.78,430,449.44c0-32.63-1-65.29.26-97.88.61-16.23-6-25.53-18.63-34.22-45.93-31.53-70.13-74.94-68.08-131.46.79-21.65,6.83-42.18,14.85-62.24,2.48-6.2,6-8.15,12.55-8.11q66.43.39,132.86,0c7,0,10.5,2.14,13.45,8.84,32.76,74.53,11.22,150-56.51,195.09C450,326.57,445,335,445.23,348.27c.69,35,.42,69.93-.09,104.89C445,466,451.06,471.8,462.88,473.8,475.64,476,488.32,478.56,501,481Zm18.68-289c-.44-20.39-4.38-38.94-10.66-57.13-2.09-6-4.79-9-11.77-8.94q-58,.45-116,0c-6.59-.05-9.79,2.17-12.3,8.31-24.74,60.65-5.83,127.17,47.16,165.49,7.84,5.67,15,16.87,22.57,17,7.39.14,14.86-10.83,22.52-16.61C497.25,276.23,517.82,240.46,519.36,195.52Z"/><path d="M109.16,260.59H216.44C204.83,279,190.12,291,174.8,303c-9.25,7.25-14.46,7.31-23.75,0C135.7,291,121.09,278.74,109.16,260.59Z"/></svg>