<svg id="Layer_1" data-name="Layer 1" xmlns="http://www.w3.org/2000/svg" viewBox="0 0 600 600"><defs><style>.cls-1{stroke:#fff;stroke-miterlimit:10;stroke-width:2px;}</style></defs><title>Artboard 1 copy 43</title><path class="cls-1" d="M422,87.24h7.57c3.59,3.41,7.12,6.88,10.77,10.22C479.3,133,491,186.5,470,233.25A122.08,122.08,0,0,1,438.21,276c-6.59,5.69-5.47,13.14-3.61,19.06,1.64,5.21,8.22,1.52,12.49.94,17.45-2.37,35-3.74,52.54-4.43,5.46-.21,9.86,1.08,13.13,5.55v5.68c-3.32,4.38-7.75,5.69-13.17,5.65a313.94,313.94,0,0,0-60,5.65Q292.66,341.68,202.51,460.86c-12.54,16.52-22.48,34.7-33.95,51.9H161c-5.48-5.2-5.24-10.58-1.21-16.68,7.76-11.76,15-23.91,22.84-35.58,3.1-4.59,3-6.33-2.58-8.31-25.59-9.1-51.84-14.55-79-14.88-5.66-.06-10.55-.71-13.79-5.87v-5.68c3.88-4.28,8.67-5.28,14.37-5.06,30.36,1.21,59.8,6.61,88.15,17.76,2.59,1,5.65,4.07,8.52.57,10.43-12.7,21.53-24.83,33.33-36.73-32.94-18.18-84.4-30.87-127.15-31.66-6.32-.11-12.62.07-17.22-5.39v-5.68c2.67-3.8,5.93-5.88,11-5.86a312,312,0,0,1,38.53,2.91,329.22,329.22,0,0,1,103.33,31c2,1,4.11,3,6.88.79,12.06-9.74,24.23-19.33,36.86-29.38C227.64,327.21,168.55,310.09,105,308.64c-6.51-.14-13.44,1-17.8-5.8v-5.68c3.66-4.64,8.5-5.87,14.22-5.38,8.16.71,16.34,1.1,24.53,1.42,2.26.09,5,1.17,6.33-2.27,2.75-7-1.08-25.86-6.6-31.4-40.26-40.4-37.51-100.71,6-137.54,6.17-5.23,10.85-5.63,17.2-.31,43.51,36.54,46.54,97.36,6.59,137.52-5.85,5.88-10.07,26.83-7,34.09.71,1.66,2,2.19,3.47,2.79,10.85,4.34,14.49,2,14.49-9.58,0-4.1.38-8.24-.08-12.28-.89-7.86,1.81-13.65,7.62-19.14,12.81-12.11,25.08-24.81,37.33-37.51a18,18,0,0,1,14.13-6q43,.33,86,0a18,18,0,0,1,14.13,6c12.95,13.34,26,26.59,39.3,39.58a18.8,18.8,0,0,1,6,15.09c-.33,12,0,24-.16,35.92-.07,4.69.46,7.15,6.23,5.26,11.64-3.8,23.46-7,35.23-10.43,2.45-.71,5.45-.95,5.37-4.22-.23-9.06,1.71-17.61-7.07-25.67-39.7-36.45-50-90-27.92-137.06C391.82,116.52,406.64,101.69,422,87.24Zm11.86,168.51c2.21-1.21,2.88-1.39,3.26-1.82,38.13-42.65,35.67-103-7.29-144-3.66-3.49-5.64-2.21-8.43.6-27.77,27.86-40,60.62-30.58,99.7,4.13,17.21,12.71,32.24,27,46.8V244.53q0-25,.07-50.1c0-5.24,2.66-8.61,7.84-8.7s7.89,3.28,8,8.5c.08,3.15.1,6.3.1,9.45C433.85,220.59,433.84,237.5,433.84,255.75ZM275.8,305v9.44c0,22.33.07,22.2,19.63,32.46,3.61,1.88,6.13,1.68,9.43-.31a338,338,0,0,1,43.63-22.18c4-1.69,5.88-3.79,5.77-8.35-.29-11.64-.37-23.29,0-34.92.2-5.77-2.35-6.64-7.29-6.59-21.39.2-42.78.23-64.17,0-5.26-.06-7.34,1.44-7.09,6.88C276.07,289.26,275.81,297.14,275.8,305ZM148.31,240.23c2-.83,2.69-.91,3-1.31,23.77-27.92,20-75.46-7.4-99.45-4.3-3.76-5.84-1.11-8.16,1.37-16.12,17.18-24.36,37.33-21.76,61,1.56,14.31,6.94,27.2,18.07,39.7.21-4,.36-5.52.36-7,0-15.42.06-30.85,0-46.28,0-5.21,2.19-8.7,7.5-9,5.91-.29,8.39,3.33,8.34,9,0,3.78,0,7.56,0,11.34Zm191.54,17.94,1.41-2.85q-12.93-12.3-25.87-24.61c-1.62-1.54-3.19-3-5.63-3q-33.27,0-66.53,0c8,10.91,16.83,19.67,25.68,28.45a6.91,6.91,0,0,0,5.12,2Q306.94,258.18,339.85,258.17Zm-80.52,68.55c0-15.81-.08-31.19.06-46.57,0-3.93-1.16-5.6-5.35-5.58-22,.15-44,.09-66,.06-3.13,0-5.65.43-5.61,4.42.06,6.29-.09,12.57.05,18.85s5.7,5.17,9.16,5.81c5.12,1,3.13-3.81,3-5.86-.47-8.86,4.29-11.73,12.15-11.68,4.71,0,9.43,0,14.14,0,29.14-.32,27-.62,26.45,26.53C247.23,321.09,249.57,325.79,259.33,326.72ZM245,257.65l1-2.13L225,235.4c-2-1.87-3.52-4.59-6.82-1.44-7.58,7.23-15.37,14.23-23.07,21.33l1.92,2.36Zm-14.71,58c1.21-12.86,1.21-12.86-11-12.76-1.25,0-2.51,0-3.76,0-2.12.11-4.62-.31-4.82,3-.16,2.62,1.25,3.89,3.67,4.62C219.75,312.07,225,313.88,230.33,315.64Z"/><path class="cls-1" d="M512.76,431.44c-3.18,4.56-7.59,5.65-13,5.8-67.31,1.86-124.41,27.49-172.14,74.6-.18.18-.12.61-.17.92h-7.56c-6.19-6.29-5.06-11.72,1.15-17.55q75.26-70.75,178.4-74.65c5.4-.19,9.84,1.06,13.35,5.2Z"/><path class="cls-1" d="M234.75,512.76c-6.44-4.51-6.71-9.47-2.23-15.93a333.06,333.06,0,0,1,84.15-84.16c4.76-3.31,9.95-5.65,13.93.27,3.83,5.68.32,9.93-4.56,13.31a311.06,311.06,0,0,0-80.13,80.19,72.51,72.51,0,0,1-5.48,6.32Z"/><path class="cls-1" d="M512.76,365.25c-3.75,3.72-8.28,5.12-13.54,5.13-32.67.08-64.33,6.07-95.22,16.46-5.56,1.87-11.12,2.72-13.5-3.87-2.65-7.39,3.09-9.91,8.75-11.8A331.79,331.79,0,0,1,500,353.69c5.42-.08,10,.75,12.76,5.88Z"/><path class="cls-1" d="M359.65,404.82c-4.55-.66-7.62-2.83-7.84-7.79s2.6-8,7.19-8.22c5.05-.27,8.37,2.61,8.35,8C367.33,401.76,364.25,404.06,359.65,404.82Z"/><path class="cls-1" d="M433.62,161.91c-.19,5.21-3.15,8.29-8.11,8.17-4.46-.11-7.43-3.05-7.48-7.85,0-5.31,3.15-8.19,8.1-8.12C430.68,154.18,433.45,157.06,433.62,161.91Z"/></svg>