<svg id="Layer_1" data-name="Layer 1" xmlns="http://www.w3.org/2000/svg" viewBox="0 0 600 600"><title>Artboard 1 copy 17</title><path d="M66.33,368.28c1.73,5.67,3.36,11,5,16.23Q86.14,433.07,101,481.63c3,9.82,11,15.66,21.21,15.66H477.32c10.38,0,18.7-6.05,21.73-15.94q17.61-57.51,35.15-115c.18-.57.34-1.15.59-2-.86-.31-1.65-.65-2.48-.88L273,293.21q-105.31-28.5-210.63-57c-6.11-1.65-10.3-5.13-11.46-11.46a13.54,13.54,0,0,1,5.52-14.12c3.83-2.85,8.1-3.22,12.65-2,7.2,1.9,7.22,1.87,11.19-4.53l59.94-96.6a32.28,32.28,0,0,1,35.42-14.13q101.82,27.53,203.63,55.11Q450,167.6,520.7,186.8a31.93,31.93,0,0,1,23.21,29.88q2.1,59.25,4.18,118.5c.09,2.49.84,3.65,3.26,4a38.74,38.74,0,0,1,5.26,1.37,14.12,14.12,0,0,1,9.77,16.82,14.54,14.54,0,0,1-16.93,10.64c-1.46-.31-2.89-.73-4.56-1.16l-5.62,18.37Q524,435,508.82,484.68a32.31,32.31,0,0,1-30.74,22.92q-177.57,0-355.14.13a34.32,34.32,0,0,1-32.36-24.17c-11.13-37.58-22.81-75-34.2-112.49-.62-2-1.39-3.11-3.7-2.84a38,38,0,0,1-5.44,0,14,14,0,0,1-14-13.45A14.21,14.21,0,0,1,46.49,340c1.1-.08,2.21-.05,3.32-.05h389c5,0,7.42,1.59,7.52,5,.1,3.63-2.27,5.34-7.45,5.34H50.49a21.58,21.58,0,0,0-3.32.07,3.84,3.84,0,0,0-3.6,3.84c0,2.26,1.46,3.45,3.59,3.78a20.28,20.28,0,0,0,3,.07H500.62a23.43,23.43,0,0,1,3,.07,5.12,5.12,0,0,1,.09,10.15,35.06,35.06,0,0,1-4.23.07H66.33ZM86.67,213.33l450.9,121.95c0-3.33.09-6.14,0-8.95q-1.95-54.25-3.93-108.51c-.37-10.47-6.64-18.61-16.79-21.39q-10.49-2.88-21-5.72L173.78,103.52c-10.07-2.72-19.57,1-25.06,9.82q-23.22,37.36-46.4,74.75C97.17,196.38,92,204.68,86.67,213.33Zm-22.5,4.73c-.8.68-2.48,1.44-2.78,2.56a5.76,5.76,0,0,0,1,4.28c.64.89,2.27,1.16,3.51,1.49Q182.59,258,299.26,289.62l233.37,63.19c6.22,1.68,12.44,3.39,18.68,5a3.78,3.78,0,0,0,5-2.78c.7-2.35-.71-3.8-2.86-4.55-.86-.3-1.73-.55-2.6-.79L364.7,299.36,68.34,219.13C67.18,218.82,66,218.53,64.17,218.06Z"/><path d="M150,468.47c.07,3.4-1.62,5.47-4.32,5.87s-5-1-5.83-4.07c-1.88-6.8-3.64-13.62-5.44-20.44l-14.19-53.76c-.08-.29-.19-.57-.27-.86-1.26-4.79-.26-7.49,3.1-8.44s5.67,1,6.91,5.73l19.47,73.6C149.68,467.06,149.89,468,150,468.47Z"/><path d="M498.13,396.76c-.7,2.7-1.46,5.72-2.26,8.73q-9.08,34-18.17,67.94c-.15.59-.29,1.17-.49,1.74a5.21,5.21,0,0,1-6.37,3.65,5.12,5.12,0,0,1-3.57-6.4c1.49-6,3.12-11.88,4.71-17.81q7.8-29.16,15.63-58.31a11.31,11.31,0,0,1,.76-2.28,4.81,4.81,0,0,1,5.81-2.67C496.75,391.94,498,393.8,498.13,396.76Z"/><path d="M170.37,387c2.85,0,4.63,1.75,5.36,5.44q4.07,20.43,8.09,40.87,3.41,17.18,6.81,34.35c.75,3.8-.69,6.41-3.78,7.05s-5.55-1.17-6.3-4.91q-7.63-38.19-15.18-76.4A5.12,5.12,0,0,1,170.37,387Z"/><path d="M426.31,472.2l4.42-22.29q5.4-27.12,10.77-54.26c.51-2.6,1.65-4.58,4.48-5,4-.6,6.53,2.58,5.66,7-1.56,8-3.16,16-4.75,24q-5.1,25.65-10.21,51.29a15.05,15.05,0,0,1-.43,1.76,5.11,5.11,0,0,1-5.89,3.55C427.77,477.78,426.13,475.55,426.31,472.2Z"/><path d="M405.85,395.88,402.14,424q-3.24,24.42-6.49,48.83c-.49,3.58-2.77,5.44-5.87,5s-4.79-2.88-4.32-6.46q5-38.21,10.12-76.39c.46-3.4,2.62-5.31,5.59-5.09S405.94,392.45,405.85,395.88Z"/><path d="M232,470a5.21,5.21,0,0,1-4.47,5.4,4.88,4.88,0,0,1-5.78-4.42c-1.23-8.16-2.31-16.35-3.39-24.53Q215.16,422,212,397.62c-.19-1.5-.43-3-.47-4.51a5,5,0,0,1,4.51-5.45,5.12,5.12,0,0,1,5.69,4.63c.72,4.78,1.25,9.59,1.89,14.38q4.13,31.14,8.28,62.28C231.94,469.35,232,469.75,232,470Z"/><path d="M270.39,432.91c.79,12.26,1.57,24.53,2.41,36.79.17,2.53-.39,4.63-2.78,5.86-3.55,1.81-7.21-.63-7.52-5-.6-8.64-1.15-17.29-1.71-25.93q-1.62-24.74-3.22-49.47a9.51,9.51,0,0,1,.17-3.29,4.73,4.73,0,0,1,5-3.56,5.2,5.2,0,0,1,5,5.11c.52,6.73.9,13.47,1.34,20.2l1.29,19.31Z"/><path d="M345,463q2.29-33.78,4.56-67.56c.19-2.94,1.26-5.11,4.26-5.81,3.45-.81,6.3,1.91,6.06,5.93-.59,10-1.32,19.91-2,29.86q-1.49,22.63-2.94,45.26c0,.6,0,1.21-.11,1.81-.44,3.11-2.62,5-5.54,4.82s-4.82-2.36-4.74-5.55c.07-2.92.31-5.84.47-8.75Z"/><path d="M303.44,432.42q0-18,0-36a21.47,21.47,0,0,1,.13-3.31,4.71,4.71,0,0,1,4.49-4.19,4.64,4.64,0,0,1,5.23,3.19,10.35,10.35,0,0,1,.47,3.56q0,37.19,0,74.38a12.94,12.94,0,0,1-.13,2.41,5.06,5.06,0,0,1-5.12,4.23,4.92,4.92,0,0,1-5-4.68c-.16-2.1-.08-4.23-.08-6.35Q303.43,449.06,303.44,432.42Z"/><path d="M193.61,137a19.13,19.13,0,0,1-1.14,2.79q-19.42,34-38.91,67.92c-1.86,3.24-4.84,4.21-7.59,2.57-2.59-1.55-3.23-4.5-1.44-7.64q19.59-34.23,39.25-68.42c1.35-2.36,3.33-3.46,6.07-2.72C192.3,132.21,193.44,134,193.61,137Z"/><path d="M500.77,257.27q0-19.2,0-38.4c0-4.18,1.83-6.48,5.07-6.5s5.22,2.38,5.22,6.39q0,39,0,78c0,4.87-3.93,7.64-7.7,5.49-2.08-1.19-2.61-3.11-2.61-5.39C500.78,283.67,500.76,270.47,500.77,257.27Z"/><path d="M227.87,141.46c4.32.09,6.49,3.92,4.61,7.87-2.69,5.64-5.53,11.21-8.29,16.81q-12.42,25.2-24.83,50.42c-.35.72-.72,1.44-1.09,2.15-1.78,3.39-4.57,4.62-7.35,3.25s-3.59-4.39-1.94-7.77q5-10.19,10-20.34,11.9-24.12,23.78-48.25C223.9,143.29,225.32,141.48,227.87,141.46Z"/><path d="M468.78,246.65q-1.23,19.59-2.46,39.18c-.22,3.45-2.51,5.68-5.51,5.51s-5-2.59-4.76-6.15q2.4-38.88,4.86-77.77c.21-3.28,2.5-5.34,5.48-5.2s5,2.51,4.77,5.84C470.42,220.93,469.58,233.79,468.78,246.65Z"/><path d="M272.89,156.91c-.24.77-.49,1.84-.9,2.86q-14.42,35.05-28.86,70.11c-1.49,3.61-4.39,5.08-7.33,3.76s-3.67-4.17-2.2-7.75q14.46-35.2,29-70.4c1.32-3.21,3.44-4.51,6.28-3.89C271.46,152.18,272.66,154,272.89,156.91Z"/><path d="M431.49,198.3c-1.25,9.85-2.56,20.25-3.89,30.65q-2.91,22.8-5.85,45.59c-.49,3.82-2.77,5.8-5.92,5.34s-4.75-3.08-4.28-6.81l9.54-75a15.84,15.84,0,0,1,.32-1.78c.76-3,2.9-4.5,5.74-4.14S431.59,194.69,431.49,198.3Z"/><path d="M391.89,187.89c-1.42,7.31-2.9,15-4.41,22.73q-5.07,25.78-10.16,51.57c-.14.69-.27,1.38-.45,2.06-.81,3.07-3.17,4.7-6,4.16s-4.66-3.15-4.06-6.36c1.32-7,2.73-14,4.11-21.05l10.32-52.46a26.24,26.24,0,0,1,.65-2.95,5.12,5.12,0,0,1,5.89-3.59C390.38,182.49,392,184.68,391.89,187.89Z"/><path d="M282.6,245.48c-3.62.07-6-3.18-4.93-6.87,1-3.46,2.32-6.85,3.48-10.28q10.41-30.9,20.8-61.79l.09-.29c1.32-3.86,3.87-5.46,6.95-4.36s4.13,3.78,2.83,7.72q-3.82,11.61-7.74,23.19c-5.38,15.92-10.81,31.82-16.17,47.74C287,243.2,285.78,245.34,282.6,245.48Z"/><path d="M327.2,256.91c-3.5-.06-5.7-3-4.82-6.76,1.11-4.71,2.4-9.36,3.65-14q7.88-29.62,15.84-59.24c.42-1.55,1.33-3.58,2.57-4.13a7.55,7.55,0,0,1,5.57,0c2.23,1,2.69,3.37,2.06,5.75-1.64,6.23-3.31,12.45-5,18.68l-14.49,54.59C331.68,255.26,329.86,257,327.2,256.91Z"/></svg>