<svg id="Layer_1" data-name="Layer 1" xmlns="http://www.w3.org/2000/svg" viewBox="0 0 600 600"><title>Artboard 1 copy 24</title><path d="M286,537.44c-8.85-1.19-17.76-2.1-26.56-3.63q-75.66-13.12-129.37-68.11C93.74,428.49,71.56,384,64.83,332.43c-9.09-69.5,8.8-131.82,53.89-185.62,35.92-42.85,81.73-70.23,136.8-79.95,83-14.65,155.14,8.18,214.73,67.94,36.62,36.73,57.58,81.66,65,132.92.88,6.08,1.46,12.19,2.19,18.29v27.84c-.73,6.09-1.31,12.21-2.19,18.28-7.55,52.09-29.46,97.18-66.5,134.62-35.59,36-78.42,58.44-128.36,67.06-8.79,1.52-17.69,2.44-26.55,3.63Zm13.6-14c122.91.31,223.34-99.73,223.87-223,.53-123-99.88-223.79-223.24-224.1-122.91-.31-223.33,99.73-223.86,223C75.87,422.37,176.29,523.17,299.64,523.48Z"/><path d="M414.74,444.85l-40.6-40.61c-.09,1.6-.22,3-.23,4.41,0,13.3,0,26.59,0,39.89,0,13-6.35,19.33-19.35,19.36-5.88,0-11.76,0-17.63,0-11.86-.08-18.4-6.57-18.41-18.34q0-48.48.05-96.94a10.24,10.24,0,0,0-3.24-8.11c-14.51-14.34-28.83-28.87-44.13-44.25-.19,2.52-.38,3.9-.38,5.29,0,10.67,0,21.34,0,32,0,1.84.34,4.21-.63,5.4-1.67,2.06-4.28,4.68-6.45,4.64s-4.68-2.75-6.29-4.86c-.94-1.23-.51-3.58-.51-5.43,0-15.77.08-31.54-.14-47.31a11,11,0,0,0-2.65-6.39A152,152,0,0,0,243,272.42c-1.19-1.12-2.89-1.72-5-2.92V423.36h18.86V410.64q0-16.69,0-33.4a26.8,26.8,0,0,1,.35-5.07,6.24,6.24,0,0,1,6.53-5.41,6.16,6.16,0,0,1,6.59,5.31,27.48,27.48,0,0,1,.42,5.52c0,22.88-.3,45.77.14,68.65.27,14.49-8.8,21.64-21.94,22-19.31.47-25.45-8.84-25.29-25.18.53-55.5.2-111,.2-166.51V270.6c-1.76-.1-3.25-.21-4.73-.26-11.69-.39-19.48-8.85-18.93-20.57.23-4.79.19-9.6.67-14.36a9.56,9.56,0,0,0-3.24-8.53c-14.09-13.87-28-27.92-42.83-42.75-6,9.48-12.29,18.25-17.44,27.63A178.37,178.37,0,0,0,115,299.23c.11,43.55,13.87,82.48,41.21,116.45,24.25,30.12,55,50.8,92,61.74,9.87,2.91,20.22,4.2,30.35,6.19,2,.39,4,.51,5.95.92,4,.86,6.46,4,6,7.53a7.06,7.06,0,0,1-8,6.12c-19-1.92-37.51-5.93-55.27-13a198.09,198.09,0,0,1-82-60.23,194.69,194.69,0,0,1-42-95.48c-5.75-38.75-.47-76,15.52-111.77a201.69,201.69,0,0,1,30-47.17c3.51-4.2,6.93-4.32,11-.41,9.27,8.87,18.55,17.74,27.62,26.81q120.2,120.22,240.31,240.52c6.7,6.71,6.43,9.63-.86,15.66a198.46,198.46,0,0,1-94.07,43.12c-5.17.89-10.4,1.49-15.63,1.95a7,7,0,0,1-7.86-6.25c-.36-3.58,2.09-6.62,6.16-7.42,12.56-2.47,25.27-4.32,37.66-7.43C373.68,471.92,399.46,458,414.74,444.85ZM332.8,362.13v58.49H360c0-10.24,0-20.22,0-30.2a3.27,3.27,0,0,0-.91-2C350.46,379.78,341.88,371.21,332.8,362.13Zm-.38,73c0,5.21.05,10.13,0,15.05,0,2.83,1.47,3.83,4,3.82,6.49,0,13,.19,19.46-.16,1.4-.08,3.73-2,3.84-3.29.44-5,.18-10.08.18-15.42ZM256.52,438H237.8c0,3.92,0,7.45,0,11s1.76,4.87,5.16,5c14.22.7,14.52.44,13.88-13.89A19.53,19.53,0,0,0,256.52,438ZM226.24,256.17,214.92,245.3C212.54,255,214.52,257,226.24,256.17Z"/><path d="M306.77,101.05c25.63-.18,56.83,7.45,86.05,22.91a198.18,198.18,0,0,1,72.58,65.46A190.68,190.68,0,0,1,497,272.67q10.41,81.46-38.65,147.61c-3.62,4.89-7.19,5.22-11.56,1.19-4.2-3.88-8.4-7.77-12.44-11.81Q307.75,283.07,181.18,156.44c-.66-.66-1.32-1.3-2-2-5.05-5.23-4.72-9.11,1-13.4a198.74,198.74,0,0,1,44.16-25.17C248.35,106.09,273.34,101,306.77,101.05ZM450.66,406.92C501.5,337,498.25,229,424.39,163.14c-73-65-171.41-59.36-230.22-14.45l9.46,9.95c3.45-1.17,6.41-3.11,9.06-2.75,2,.27,3.94,3.27,5.34,5.43.7,1.1.48,3.09.11,4.54-2,8.1,3.54,11.77,9.3,16.53,0-2.34,0-3.83,0-5.33,0-4.95-.06-9.9.08-14.84.12-4,2.5-6.44,6.32-6.74s6.42,1.94,7.19,5.8a22.87,22.87,0,0,1,.31,4.61c0,9.12,0,18.24,0,27.37,0,1.48,0,3.33.85,4.36,3,3.8,6.42,7.32,9.67,10.95l1.53-1V196.22c0-11-.05-21.95,0-32.93,0-4.78,2.74-7.81,6.69-7.92s6.77,2.93,7.15,7.59c.1,1.23,0,2.47,0,3.71,0,16.08.75,32.21-.27,48.23-.66,10.3,6.92,13.53,12.22,20.13,0-4.89.14-8.59,0-12.29-.85-19-1.79-38-2.68-57a25.44,25.44,0,0,1,.09-4.62c.52-3.6,3.11-5.93,6.3-5.51a10.29,10.29,0,0,1,6.56,4.6c1.27,2.19.91,5.38,1,8.15q1.83,38.91,3.59,77.84c.06,1.36-.09,3.16.68,4,4.43,4.77,9.1,9.3,14.49,14.72,0-3.88,0-6.34,0-8.81.26-28.83,6.55-56,22.06-80.69,4.91-7.81,9.57-16,18.76-19.88,8.1-3.46,15.64-.79,18.23,7.64a57.11,57.11,0,0,1,2.13,16.39q.24,71,0,142a10.3,10.3,0,0,0,3.39,8.07q34.24,34,68.26,68.19C445,400.64,447.65,403.67,450.66,406.92Zm-94.54-239.3c-2.6,2.15-4.51,3.23-5.74,4.84a125.73,125.73,0,0,0-19.85,37.4c-7.16,21.95-8.52,44.44-6.19,67.24a10.14,10.14,0,0,0,2.8,5.49c8.72,9,17.62,17.75,26.48,26.58a26.9,26.9,0,0,0,2.5,2Z"/></svg>