<svg id="Layer_1" data-name="Layer 1" xmlns="http://www.w3.org/2000/svg" viewBox="0 0 600 600"><title>Artboard 1 copy 26</title><path d="M324.82,287.62l249.86,3.74c-2,2.19-3.15,3.64-4.47,4.95q-88.67,88-177.45,176a11.51,11.51,0,0,1-7.33,3q-124.46.3-248.92.24C67.57,475.4,17.07,417,26.44,348.79c3.2-23.37,13-43,30.07-59.47,47.67-46,95-92.43,142.56-138.55a92.1,92.1,0,0,1,136.54,8.57c29,36.06,26.31,88.36-6.34,122.07a60.55,60.55,0,0,1-5.37,4.44Zm217,17c-1.76-.13-2.7-.25-3.65-.26-73-1.08-145.9-2.07-218.85-3.36-6.48-.11-11.41,1-15.56,6.36-3.57,4.58-8.07,8.43-12.16,12.61-27.9,28.53-56.48,56.42-83.47,85.78-21.21,23.1-46.54,34.06-77.35,32.55-26-1.28-47-12.24-60.29-35.34C57,379.47,55.17,355.36,69.8,331.76c13.76-22.2,34-33.39,60.49-31.76,35.23,2.17,58.73,31.2,52.73,65-4.34,24.46-29,41.44-52.35,35.12-19.46-5.27-29.42-19.64-33.21-38.78-.92-4.6,1.13-7.94,5.1-8.88,3.78-.89,7,1.59,8.23,6.13.95,3.53,1.64,7.22,3.18,10.49,5.29,11.21,13.72,19,26.63,18.69,12.51-.3,21.81-7,26.91-18.54,6.41-14.55,2.31-33.77-9.87-44-14.89-12.54-32.23-15.74-50.17-8.49C69.85,331.91,60.14,380.18,95,411.15c14.52,12.91,32.7,15.44,51.36,13.1,25.5-3.2,46.23-14.57,57.54-38.67C214.16,363.66,210,342,199,321.65c-16.82-31.33-52.55-48.55-87.68-43.45-27,3.92-47.08,18.45-61,41-11.41,18.43-13.64,39.41-10,60.5C48.86,430,87,461.88,137.85,461.9q121,0,241.93-.4a12.15,12.15,0,0,0,7.73-3.26q57.76-57,115.24-114.22C515.64,331.21,528.34,318.22,541.84,304.6ZM223,370.28c.88-.73,1.38-1.09,1.8-1.52,32-32.68,64.23-65.1,95.84-98.13,26.88-28.09,28.69-71.89,5.1-101.86C296.05,131,242.46,127.46,208,161.11Q164.58,203.4,121.54,246c-6.49,6.4-12.78,13-19.79,20.13,32.82-6.4,61.81.38,86.78,21.51C213.76,309,224.38,336.93,223,370.28Z"/></svg>