<svg id="Layer_1" data-name="Layer 1" xmlns="http://www.w3.org/2000/svg" viewBox="0 0 600 600"><title>Artboard 1 copy 52</title><path d="M174.53,470c3.31-11.23,5.63-19.43,8.15-27.57,3.76-12.19,8.62-24.14.35-36.67a17.32,17.32,0,0,1-1.09-16c4.85-10.37,1.8-17.09-5.36-25.26-10.92-12.46-10.15-24.63.72-38.12,3.68-4.57,3.82-6.76,0-11.35-12.46-14.92-10.78-26.12,5.25-37.17,3.76-2.59,3.56-5.52,3.51-9-.21-13.53,5.7-23.21,18.33-28.44,2.13-.88,5.34-1.1,4.63-4s-2.28-5.92-6.22-6-7.84,0-11.64-.68c-26.53-4.74-41.89-29.33-34.35-55.08a46.5,46.5,0,0,0,1.92-13.71c-.09-18,7.79-31.86,24-39.67,5.72-2.75,7.71-6.17,9.24-11.75,9.53-34.7,44-51,76.48-35.83,6,2.82,9.49,1.67,14.57-1.62,31.67-20.5,80.63-17.38,104,8.73,10.3,11.53,19.44,20.67,35.32,24.12,13,2.83,21.34,14.23,25.43,27.14,1.78,5.63,4.64,8.07,10.12,9.37,19.91,4.73,32.17,17.72,35.52,37.54C497,200.23,489,217.34,470,228.38c-4.51,2.63-5.5,6-7.28,10.56a223.88,223.88,0,0,1-50.25,76.56c-5.76,5.81-14.14,8.54-22.37,9.34-7.33.72-12.81,4.11-19,7.74-10.24,6-16.51,16.52-25.25,22.58-15.87,11-21.09,25-25.85,42.25-5.09,18.45-20.82,27.43-40.11,29-3.05.24-6.59-.9-9,1.54-10.73,10.82-24,12-38,10.39-5.67-.63-10.6,1.57-15.37,4.64C204.12,451.56,190.57,459.92,174.53,470ZM394,176c3.53-55.08-19.51-74.62-80-65.32,11-9.45,22.15-13.52,35.16-14,13.42-.48,24.73,4.62,35.93,12.37-2.17-10.71-4-13.87-11.55-20.39-24-20.79-68.14-19.34-90.45,3.18-3.72,3.76-5.92,7.81-11.87,2.23C259,82.53,244.31,79.63,228.94,86.66c-15.68,7.17-23.43,20.27-23.25,37.51.06,6.23-2.53,7.54-8.15,8.5-15.2,2.58-23.55,13.6-23.2,29,.09,4.22,1.51,8.45-.73,12.65-6.06,11.33-4.47,22,3.95,31.38s19.35,11.4,31,7.05c6.33-2.36,8.07.22,9.39,5.7a24.82,24.82,0,0,0,15.42,18c7.3,2.89,7.09,5.94,2.57,11.71-3.83,4.89-7.24,6.63-13.64,6-12.5-1.3-22.08,6.93-21.51,19,.37,8-2.17,11.76-9,15.16-9,4.54-9.33,9.67-2.37,17.45,3.78,4.21,8.82,6.17,13.9,8.33,5.6,2.37,12.3,2.34,17,7.23-8.54,3.4-17.26,5.92-25,10.19-12.52,6.9-13.71,15.91-4.39,26.61,3.59,4.11,7.76,7.71,11.56,11.65s5,8.83.93,12.54c-10.72,9.84-7.29,19.66-.35,29.06,3.09,4.18,2.75,7.61,1.58,11.86-.83,3-3.86,6-.1,10.07,10.17-9.76,22.52-11.52,35.84-9.92,8.39,1,15.31-2.3,20.9-8.45,2.63-2.9,4.7-4.92,9.69-4.4,27.83,2.92,44.3-18.4,34.72-44.79-2.31-6.36-1.79-8.64,5.39-9.57,14.16-1.81,24.68-9.18,30.05-22.89,1.33-3.38,3.27-5.28,7.07-6.75,15.88-6.16,28.84-19.42,47.36-19.35,1.43,0,2.89-1.11,4.29-1.8,22.23-10.87,21.71-39.31,41-53,6.36-4.5,7-14.48,7.69-22.78a3.83,3.83,0,0,0,0-1.17c-1.59-6.92,2.27-9.27,8.17-11.37,15.91-5.68,24.58-19.77,22-34.33-3-16.67-15.55-27.4-33.05-26.84-7.67.24-10.75-.82-10.93-9.61-.41-19.09-15.35-31.46-34.14-30.46-7.08.38-7.72,2.15-4.46,8.23C405.49,141.58,404.64,159,394,176Z"/><path d="M154.07,541.41c-29.12-.1-49.92-22.81-48.23-52.67,1.53-27,26.87-47.52,54.37-44.23,6,.71,8.71,2.39,5.86,8.88-1.85,4.24-2.67,8.93-4,13.41-1.77,5.93-2.31,11.8,3.29,15.95,5.23,3.87,11.11,2.81,16.76.64a32.37,32.37,0,0,0,5.1-2.84c13.11-7.94,14.72-7.06,15.57,8.61C204.37,518.81,183.21,541.5,154.07,541.41Zm-16.8-79.86C124.35,475,121.09,488.84,122,503.93c.36,5.92,4.94,9.42,10.68,8.11s10.31-5.92,7.61-12.17C135.31,488.27,135.14,476.48,137.27,461.55Z"/><path d="M217.38,202.37c-16.13-11.1-19.13-33.54-6.87-51.47,11.71-17.13,32.26-22.1,47.72-10.47,5.2,3.92,10,3.25,15.25,3.33,16.51.26,26.82,9.29,29,25.43C283,152,270.25,150.37,247.84,162.07c1.17-7.26,1.17-7.26,9.4-16.14-12.18-4.41-22.24-1.91-31.3,5.76C211.92,163.56,209.2,180.2,217.38,202.37Z"/><path d="M321.93,341.1c6.32-20.42,3-33.07-10.31-43.6-15.14-12-31.91-11.68-54.64,1,4.18-12.49,15.6-20.06,31.09-20.61,19.62-.69,36.77,9.28,43.62,25.37C337.5,316.89,334.69,329,321.93,341.1Z"/></svg>