<svg id="Layer_1" data-name="Layer 1" xmlns="http://www.w3.org/2000/svg" viewBox="0 0 600 600"><defs><style>.cls-1{fill:#fff;}</style></defs><title>Artboard 1 copy 32</title><path d="M143,169.1c-17-20.17-20.72-41.83-8.22-64.53,9.67-17.57,25.58-25.74,45.87-25.7q120,.18,240-.07c11.32,0,21.56,1,27,12.52,5.36,11.29,1.11,20.6-7.54,28.86,12,15.52,13.39,31.62,2.54,48.08,36.47,14.25,36.41,48.52,16.92,66.4,4.22,8.65,10.34,16.66,11.77,25.43s-1.79,18.45-3.07,28.46c5.42,0,12.41-.13,19.39,0,16.66.39,30.31,10.44,35.39,25.89,4.8,14.59,2.36,18.2-14.33,19.44-4.36,22.18-8.82,44.69-13.2,67.22-6.5,33.44-12.84,66.9-19.47,100.31-2.54,12.81-10.85,19.68-24,19.69q-152,.15-304,0c-13.53,0-21.44-7-24.14-20.8q-15-76.77-29.87-153.59c-.81-4.14-1.79-8.25-2.65-12.19-17.69-2.9-20.26-7.81-12.73-24.06,6.45-13.92,17.87-20.67,32.78-21.87,5.23-.41,10.53-.06,14.87-.06,1.91-7.39,3.75-13.67,5.06-20.06.43-2.08-.78-4.44-.82-6.68-.12-7.15,0-14.31,0-21.46,0-.32.43-.63.43-1,0-12.23,2.18-25-.56-36.55C126.52,186.41,127.58,179.06,143,169.1ZM107.26,333.71a28.26,28.26,0,0,0,0,4.13c10.08,52.27,20.31,104.52,30.19,156.83,1.73,9.16,6.29,11.79,15.39,11.76q147.24-.44,294.5.06c10.82,0,14.06-4.61,15.79-13.91,6.67-35.94,13.82-71.8,20.73-107.69,3.25-16.86,6.37-33.74,9.66-51.18ZM404.34,153.26H223.77c-14.22,0-28.45.28-42.66-.1-15.08-.4-24.28-10.47-23.11-24.5,1-12.24,10.14-19.72,24.51-19.73q120-.06,240,0c6,0,12.81-.65,12.15-8-.26-3-7.34-7.54-11.34-7.56q-121.06-.66-242.13-.22c-15.78,0-28.25,6.92-35.19,21.6-12.47,26.37,6.26,54,36.78,54.07,74,.16,147.91.05,221.87.05,19.54,0,30.93-8.56,30.78-23.07s-11.18-22.66-31.17-22.66q-107.74,0-215.47,0c-2.84,0-6.17-.78-8.41.42-3,1.6-7.11,4.78-7.11,7.28s3.86,6.13,6.84,7.65c2.56,1.31,6.26.42,9.46.42H404.34Zm7.76,120.35H158.62c-2.85,0-6.18-.89-8.41.29-3,1.56-5.09,4.74-7.58,7.23,2.55,2.45,4.76,5.59,7.77,7.13,2.26,1.16,5.57.29,8.42.29H428.59a78.52,78.52,0,0,0,9.59-.2,22.52,22.52,0,0,0,19.47-20.82c.69-10.13-5.84-20.17-15.5-22.9-3.67-1-7.72-1-11.6-1q-137-.09-274,0c-2.13,0-4.79-.73-6.29.26-2.88,1.9-5.1,4.8-7.59,7.28,2.52,2.5,4.66,5.83,7.7,7.25,2.63,1.23,6.28.34,9.47.34H412.1ZM412,213.46H159.31c-3.2,0-6.77-.77-9.5.39s-6.88,4.62-6.6,6.51c.44,3,3.62,6.21,6.48,7.95,2.1,1.28,5.54.41,8.38.41h271a57.61,57.61,0,0,0,9.58-.37,22.78,22.78,0,0,0,19-23.47,22.42,22.42,0,0,0-20.22-21.21,85.13,85.13,0,0,0-9.59-.29H159c-2.49,0-5.42-.8-7.37.23-3.29,1.75-6,4.67-8.9,7.1,3.08,2.69,5.84,6,9.36,7.85,2.22,1.18,5.57.24,8.42.24H412ZM508.85,318c-6.05-11.52-14.4-14.67-25.29-14.64-72.86.2-145.71.1-218.57.1-49.76,0-99.51.07-149.27-.05-10.76,0-19,3.27-23.72,14.59Z"/><path class="cls-1" d="M107.26,333.71H493.54c-3.29,17.44-6.41,34.32-9.66,51.18-6.91,35.89-14.06,71.75-20.73,107.69-1.73,9.3-5,13.95-15.79,13.91q-147.25-.62-294.5-.06c-9.1,0-13.66-2.6-15.39-11.76-9.88-52.31-20.11-104.56-30.19-156.83A28.26,28.26,0,0,1,107.26,333.71Zm215.26,86.78c0-16,.15-32,0-47.95-.18-13.78-9.47-23.71-22-24-12.83-.28-22.68,9.94-22.76,24.24q-.24,46.89,0,93.78c.06,14.39,9.68,24.64,22.49,24.55s22.11-10.33,22.25-24.82C322.63,451,322.52,435.77,322.52,420.49Zm59.85-1.1c0-15.62.12-31.25,0-46.88-.15-13.79-9.35-23.7-21.87-23.95s-22.65,9.6-22.8,23.21q-.51,47.94,0,95.89c.14,13.63,10.23,23.53,22.6,23.46s21.92-10.08,22.07-23.78C382.51,451.36,382.37,435.38,382.37,419.39Zm-164.52-.66c0,16-.1,32,0,47.94.11,14,8.93,23.89,21.41,24.44,12.71.55,23.16-9.66,23.29-23.84q.42-47.41,0-94.83c-.12-13.8-9.75-23.7-22.17-23.89-12.85-.2-22.41,10-22.54,24.36C217.74,388.18,217.85,403.45,217.85,418.73Zm224.41,1.65c0-16,.1-32,0-47.94-.11-13.75-9.31-23.7-21.77-23.89s-22.48,9.63-22.62,23.31q-.49,47.92,0,95.87c.13,13.68,10.2,23.54,22.56,23.39s21.71-10.18,21.83-23.87C442.37,451.63,442.26,436,442.26,420.38Zm-284.3-1c0,16-.11,32,0,47.94.12,13.65,9.49,23.7,21.87,23.83s22.38-9.66,22.52-23.43q.5-47.94,0-95.87c-.14-13.67-10.29-23.49-22.65-23.27S158.1,358.68,158,372.48C157.86,388.11,158,403.73,158,419.35Z"/><path class="cls-1" d="M404.34,153.26V138.89H189.57c-3.2,0-6.9.89-9.46-.42-3-1.52-6.83-5-6.84-7.65s4.12-5.68,7.11-7.28c2.24-1.2,5.57-.42,8.41-.42q107.73,0,215.47,0c20,0,31,8.06,31.17,22.66s-11.24,23.07-30.78,23.07c-74,0-147.91.11-221.87-.05-30.52-.07-49.25-27.7-36.78-54.07,6.94-14.68,19.41-21.56,35.19-21.6q121.07-.3,242.13.22c4,0,11.08,4.61,11.34,7.56.66,7.37-6.13,8-12.15,8q-120,0-240,0c-14.37,0-23.49,7.49-24.51,19.73-1.17,14,8,24.1,23.11,24.5,14.21.38,28.44.1,42.66.1H404.34Z"/><path class="cls-1" d="M412.1,273.61V258.67H159.8c-3.19,0-6.84.89-9.47-.34-3-1.42-5.18-4.75-7.7-7.25,2.49-2.48,4.71-5.38,7.59-7.28,1.5-1,4.16-.26,6.29-.26q137,0,274,0c3.88,0,7.93,0,11.6,1,9.66,2.73,16.19,12.77,15.5,22.9a22.52,22.52,0,0,1-19.47,20.82,78.52,78.52,0,0,1-9.59.2H158.82c-2.85,0-6.16.87-8.42-.29-3-1.54-5.22-4.68-7.77-7.13,2.49-2.49,4.61-5.67,7.58-7.23,2.23-1.18,5.56-.28,8.41-.29H412.1Z"/><path class="cls-1" d="M412,213.46V198.79H160.51c-2.85,0-6.2.94-8.42-.24-3.52-1.87-6.28-5.16-9.36-7.85,2.93-2.43,5.61-5.35,8.9-7.1,2-1,4.88-.23,7.37-.23H427.89a85.13,85.13,0,0,1,9.59.29,22.42,22.42,0,0,1,20.22,21.21,22.78,22.78,0,0,1-19,23.47,57.61,57.61,0,0,1-9.58.37h-271c-2.84,0-6.28.87-8.38-.41-2.86-1.74-6-5-6.48-7.95-.28-1.89,3.81-5.33,6.6-6.51s6.3-.39,9.5-.39H412Z"/><path class="cls-1" d="M508.85,318H92c4.7-11.32,13-14.62,23.72-14.59,49.76.12,99.51.05,149.27.05,72.86,0,145.71.1,218.57-.1C494.45,303.36,502.8,306.51,508.85,318Z"/><path d="M322.52,420.49c0,15.28.11,30.55,0,45.82-.14,14.49-9.44,24.73-22.25,24.82S277.81,481,277.75,466.58q-.22-46.89,0-93.78c.08-14.3,9.93-24.52,22.76-24.24,12.49.27,21.78,10.2,22,24C322.67,388.52,322.52,404.51,322.52,420.49Zm-14.94-.78c0-14.91-.08-29.82,0-44.73.05-5.82-.87-11.9-7.81-10.94-2.83.4-6.78,6.87-6.85,10.63q-.85,45.25,0,90.52c.08,3.7,4.56,7.32,7,11,2.55-3.55,7.08-7,7.28-10.67C308.06,450.27,307.58,435,307.58,419.71Z"/><path d="M382.37,419.39c0,16,.14,32-.05,47.95-.15,13.7-9.62,23.71-22.07,23.78s-22.46-9.83-22.6-23.46q-.47-47.94,0-95.89c.15-13.61,10.41-23.46,22.8-23.21s21.72,10.16,21.87,23.95C382.49,388.14,382.37,403.77,382.37,419.39Zm-14.75.57c0-15.27.49-30.57-.34-45.79-.21-3.69-4.76-7.14-7.31-10.71-2.51,3.65-7.13,7.25-7.2,11q-.88,45.25,0,90.55c.07,3.77,4.52,7.45,6.94,11.17,2.64-3.45,7.36-6.78,7.56-10.37C368.11,450.54,367.62,435.24,367.62,420Z"/><path d="M217.85,418.73c0-15.28-.11-30.55,0-45.82.13-14.36,9.69-24.56,22.54-24.36,12.42.19,22.05,10.09,22.17,23.89q.39,47.42,0,94.83c-.13,14.18-10.58,24.39-23.29,23.84-12.48-.55-21.3-10.47-21.41-24.44C217.75,450.69,217.85,434.71,217.85,418.73Zm14.74.07c0,15.27,0,30.54,0,45.81,0,5.74.75,12,7.77,11,2.92-.42,7-6.82,7.12-10.57q.87-45.27,0-90.56c-.07-3.71-4.28-10.08-7.2-10.46-7-.91-7.71,5.38-7.68,11.09C232.64,389.67,232.59,404.23,232.59,418.8Z"/><path d="M442.26,420.38c0,15.62.11,31.25,0,46.87-.12,13.69-9.43,23.72-21.83,23.87s-22.43-9.71-22.56-23.39q-.49-47.94,0-95.87c.14-13.68,10.25-23.5,22.62-23.31s21.66,10.14,21.77,23.89C442.36,388.42,442.26,404.4,442.26,420.38Zm-14.46-.58q0-21.85,0-43.71c0-5.87-.11-12.95-7.88-12-3,.36-7.18,7.44-7.27,11.54q-.94,44.22,0,88.47c.09,4.07,4.22,10.94,7.35,11.48,6.94,1.19,7.8-5.33,7.8-11Q427.79,442.19,427.8,419.8Z"/><path d="M158,419.35c0-15.62-.1-31.24,0-46.87.11-13.8,9.24-23.71,21.73-23.93s22.51,9.6,22.65,23.27q.51,47.93,0,95.87c-.14,13.77-10.11,23.55-22.52,23.43S158.11,480.94,158,467.29C157.85,451.31,158,435.33,158,419.35Zm14.47-.1c0,15.28-.48,30.59.33,45.83.21,3.79,4.21,10.11,7.09,10.49,6.67.87,8.1-5,8.08-10.93-.07-29.85.27-59.71-.38-89.54-.09-3.92-4.69-10.66-7.76-11-7-.79-7.37,5.9-7.37,11.45Q172.42,397.39,172.43,419.25Z"/><path class="cls-1" d="M307.58,419.71c0,15.27.48,30.56-.35,45.78-.2,3.68-4.73,7.12-7.28,10.67-2.43-3.65-6.91-7.27-7-11q-.85-45.24,0-90.52c.07-3.76,4-10.23,6.85-10.63,6.94-1,7.86,5.12,7.81,10.94C307.5,389.89,307.58,404.8,307.58,419.71Z"/><path class="cls-1" d="M367.62,420c0,15.28.49,30.58-.36,45.8-.2,3.59-4.92,6.92-7.56,10.37-2.42-3.72-6.87-7.4-6.94-11.17q-.87-45.27,0-90.55c.07-3.7,4.69-7.3,7.2-11,2.55,3.57,7.1,7,7.31,10.71C368.11,389.39,367.62,404.69,367.62,420Z"/><path class="cls-1" d="M232.59,418.8c0-14.57,0-29.13,0-43.69,0-5.71.64-12,7.68-11.09,2.92.38,7.13,6.75,7.2,10.46q.88,45.27,0,90.56c-.08,3.75-4.2,10.15-7.12,10.57-7,1-7.8-5.26-7.77-11C232.64,449.34,232.59,434.07,232.59,418.8Z"/><path class="cls-1" d="M427.8,419.8q0,22.38,0,44.77c0,5.67-.86,12.19-7.8,11-3.13-.54-7.26-7.41-7.35-11.48q-.94-44.22,0-88.47c.09-4.1,4.31-11.18,7.27-11.54,7.77-.94,7.88,6.14,7.88,12Q427.82,397.95,427.8,419.8Z"/><path class="cls-1" d="M172.42,419.25v-43.7c0-5.55.37-12.24,7.37-11.45,3.07.34,7.67,7.08,7.76,11,.65,29.83.31,59.69.38,89.54,0,5.91-1.41,11.8-8.08,10.93-2.88-.38-6.88-6.7-7.09-10.49C172,449.84,172.43,434.53,172.42,419.25Z"/></svg>