<svg id="Layer_1" data-name="Layer 1" xmlns="http://www.w3.org/2000/svg" viewBox="0 0 600 600"><defs><style>.cls-1{stroke:#fff;stroke-miterlimit:10;stroke-width:7px;}</style></defs><title>Artboard 1 copy 4</title><path class="cls-1" d="M542.48,443.93v10.42a24.83,24.83,0,0,0-.91,3.13,68.14,68.14,0,0,1-21.39,40.12c-14.36,13.37-31.55,18.77-51,18.75q-168.75-.21-337.51-.08c-2.68,0-5.36-.11-8-.23-34.75-1.53-63.74-30.56-65.27-65.35-.47-10.87,3.44-15,14.29-15,17.83,0,35.66,0,53.49,0,1.65,0,3.4.49,5.36-.72-4.67-6-9.3-12-12.53-18.81a22.42,22.42,0,0,0-6.42-8c-24.66-19.92-41.43-45.07-50-75.65-2.48-8.8-3.33-17.88-5-26.82V282.91c.87-.87.79-2,.9-3.1a147.27,147.27,0,0,1,23.84-66.05c13-19.84,30.16-33.25,54.26-36.48a80.83,80.83,0,0,1,27.73,1.48c1,.22,3.28,1.65,2.8-1.23-1-5.68-1.66-11.16-7.68-14.76-13.23-7.89-19.07-25.82-13.88-40.24,5.76-16,21.12-25.75,37.27-23.68,11.14,1.43,20.13,7.18,28.09,14.55,17.3,16,24.36,36.77,26.4,59.53.44,4.9,1.73,5.48,6.17,4.42,17.24-4.12,33.76-1.85,49.47,6.42,15.09,7.94,25.11,20.8,33.84,34.87,3.19,5.14,5.94,10.54,9.13,16.24,1.08-1.86,2-3.3,2.78-4.8,6.84-13,13.52-26,20.54-38.89,8.9-16.31,22.74-24.34,41.41-23.77,5.71.17,11,2.44,16.67,4.29,0-2.3,0-4,0-5.74q-.37-31.72-.77-63.44c-.05-4.11.71-7.88,4.09-10.62a10.41,10.41,0,0,1,11.12-1.59c4.73,2,6.63,6,6.69,11q.3,23.43.69,46.87c0,1.24-.56,2.74.89,4l14.31-25.84c6.65-12,13.19-24,20-36,3.65-6.43,10.05-8.4,15.6-5.2s6.81,9.21,3.6,15.73c-.56,1.13-1.21,2.22-1.82,3.32q-14.4,26.08-28.79,52.17c-.68,1.23-2,2.33-1.36,4.32,12.32-7.84,24.4-15.58,36.54-23.22,6.89-4.34,13.54-3.37,17,2.3s1.6,11.79-5.39,16.29-13.83,8.82-20.75,13.22l-36.11,23c.94.87,1.58,1.53,2.29,2.11,16.58,13.63,21.4,33.8,11.9,53-4,8.16-9.53,15.59-14.35,23.35l-5.18,8.32c15.92-.44,29.91,3,42.25,12,1.78,1.3,2.73.52,3.93-.73,6.9-7.18,12-15.3,14.18-25.2,1.05-4.8,3.91-8.27,9.15-9,8.42-1.11,13.93,5.58,12,14.64-2.9,13.91-10.22,25.33-20.17,35.17-2.15,2.14-2.49,3.75-1,6.46A52.1,52.1,0,0,1,514,335.1c1.22,26.53-9.82,47.3-30.27,63.51-5.09,4-11,4.32-16.68.6-2.38-1.56-3.7-1.19-5.61.53a426.1,426.1,0,0,1-43.06,34c-.45.31-1.21.55-.93,1.5,1.57.85,3.31.39,5,.39q52.56.06,105.11,0C534.3,435.58,539.56,437.48,542.48,443.93Zm-273.83-8.28h99.4c2.19,0,4.29,0,6.4-1.13,26.08-13.8,49.59-31.23,71.78-50.54a3.23,3.23,0,0,0,1.12-4c-5.56-17.76-14.18-33.26-30.39-43.66-2.53-1.62-4-1.88-6.47-.17C379.07,357.75,344.57,362,307.9,354.29c-23.44-4.91-43.3-16.44-61.59-31.54-24-19.77-56.74-21.31-82.95-4.64-25.07,15.94-37.54,46.66-30,75.2,4.25,16.15,14.4,28.47,27,39a14.1,14.1,0,0,0,9.85,3.39C203,435.6,235.84,435.65,268.65,435.65Zm31.83,22.07H90.23c-9.82,0-10.06.32-5.45,9.3,9.52,18.52,24.87,27.27,45.58,27.26q170-.06,340,0a57.81,57.81,0,0,0,7.09-.27c19.21-2.44,32.56-12.64,39.83-30.58,2.26-5.58,2-5.68-4.18-5.68ZM449.75,228.36a20,20,0,0,0-10.23-18c-10.4-6.25-20.87-12.41-31.53-18.2-11.13-6.05-22.95-2.35-29.09,8.74-3,5.38-5.66,10.93-8.69,16.27-1.39,2.44-1.2,3.76,1.4,5.15,5.84,3.13,11.57,6.45,17.22,9.89,6.38,3.89,8.22,10,5,15.68-3.05,5.47-9.62,6.87-16.07,3.28-5.51-3.07-11-6.14-16.36-9.51-2.6-1.64-3.63-1-4.89,1.52q-4.35,8.93-9.27,17.56a11.85,11.85,0,0,0-1.33,8.55,140.71,140.71,0,0,1-1.27,58.22c-1.39,5.87,1.13,8.33,7.46,7.75A81.69,81.69,0,0,0,372,331c12-4.27,24.21-8.44,30-21.65,1-2.39,1.2-3.36-1.19-4.66-7.75-4.23-15.39-8.66-23.07-13-3.26-1.85-5.95-4.2-6.68-8.09-.83-4.4.37-8.21,4-10.95,4.12-3.13,8.56-2.84,12.87-.41,8.1,4.57,16.19,9.17,24.15,14,2.51,1.51,3.82,1.58,5.55-1.18,9.45-15.1,19.14-30,28.73-45.07A19.93,19.93,0,0,0,449.75,228.36ZM160,200.9c-17.6-6.65-40.95.61-53,16.41-27.6,36.15-34.6,75.88-20,119.09a112.42,112.42,0,0,0,21.33,37c.45-.53.78-.74.83-1a26.15,26.15,0,0,0,.37-2.8A87.92,87.92,0,0,1,124.82,326a10.4,10.4,0,0,0,1.82-8.34,153.66,153.66,0,0,1-1.93-42.87c2.25-21.76,9-41.79,22.37-59.37A168.29,168.29,0,0,1,160,200.9Zm84.09-.7a68.47,68.47,0,0,1,5.42,4.39A106.09,106.09,0,0,1,273.66,242c9.18,24.1,10.08,48.88,6,74-.48,2.93.33,4.14,2.74,5.47a119.14,119.14,0,0,0,33.65,12.08c3.34.69,4.34-.19,5.18-3.24q17.7-64.53-24.86-116.07A47.22,47.22,0,0,0,244.07,200.2Zm-30.14,4.87c0,26.72,0,52.53,0,78.34,0,2.31,1.5,2.45,3,2.72a92.22,92.22,0,0,1,39.24,16.52c1.93,1.41,2.87,1.38,3.09-1.43,1.55-19.78-.11-39.11-8.7-57.25C242.76,227.47,231.15,214.31,213.93,205.07Zm-67,96.85a4.75,4.75,0,0,0,1.32-.13,18.11,18.11,0,0,0,2-1.21A87.73,87.73,0,0,1,187.81,286c3.47-.48,4.29-1.7,4.27-5-.14-24-.06-47.94-.11-71.9,0-1.12.66-2.52-.72-3.38C160.32,220.52,142.25,259.66,146.93,301.92ZM451.06,301a53,53,0,0,0-18,3.41c-7.17,2.74-8.51,9.83-2.75,14.58,4.62,3.81,9.46,7.38,13.84,11.45,10.66,9.92,17,22.48,21.45,36.17,1.18,3.64,2.77,7,5.91,9.46,1.93,1.51,3.22,1.63,5.1-.34a60.8,60.8,0,0,0,12.19-18.4C500.79,329.3,481.55,300.56,451.06,301ZM199.38,183.44c4.41-.27,8.81-.73,13.22-.76,2.81,0,3.36-1.12,3.22-3.7-.62-11.45-2.75-22.57-7.75-32.92S195.83,126.91,185,122c-7.16-3.23-14.61-.74-17.89,5.7-3.41,6.69-.92,14.07,6.26,18a24.44,24.44,0,0,1,9.82,9.95c3.19,5.74,4.62,12,5.7,18.42C190.35,183,190.35,183,199.38,183.44Z"/><path class="cls-1" d="M306,409c7.24,0,11.8,3.62,12.82,8.64a10.38,10.38,0,0,1-6.71,12.14,73.33,73.33,0,0,1-20.39,3.63c-5.5.29-10-4.22-10.63-9.53a10.35,10.35,0,0,1,7.72-11.48C295.08,410.78,301.48,409.84,306,409Z"/><path class="cls-1" d="M384.38,392.22c.12,4.42-2.22,7.49-5.73,9.68-4.41,2.74-8.9,5.38-13.49,7.82-5.69,3-11.94,1.45-15-3.52-3.15-5.17-2-11.25,3.43-14.92,5.2-3.53,10.53-7,16.45-9.24A10.49,10.49,0,0,1,384.38,392.22Z"/><path class="cls-1" d="M224,407.82c4,.73,9.92,1.52,15.7,3a10.57,10.57,0,0,1,8,13A11,11,0,0,1,235.1,432c-5.45-.79-10.93-1.57-16.27-2.88-6.16-1.51-9.55-6.65-8.7-12.23S215.7,407.61,224,407.82Z"/><path class="cls-1" d="M157.61,378.46c-.12-6.45,3.73-11,9.83-11.71,5.49-.61,10.22,2.92,11.49,8.81a42.38,42.38,0,0,0,4,11c3.39,6.39,1.83,12.52-3.59,15.63s-11.64,1.18-15.59-5.16C160.22,391.35,157.75,385.29,157.61,378.46Z"/></svg>