<svg id="Layer_1" data-name="Layer 1" xmlns="http://www.w3.org/2000/svg" viewBox="0 0 600 600"><title>Artboard 1 copy 45</title><path d="M521.15,518.11c-15.69,0-31.38-.18-47.07,0-3.57,0-5.05-.53-4.87-4.62.35-8.41.08-8.42,8.71-8.42,4.76,0,9.51,0,14.26,0,1,0,2.75.55,2.86-1,.25-3.58.13-7.18.09-10.78,0-.9-.81-1.06-1.56-1.08-1.15,0-2.3,0-3.45,0q-190,0-380.08-.11c-4.36,0-5.61,1-5.38,5.39.39,7.66.1,7.67,7.77,7.67q156.34,0,312.7-.09c4.26,0,5.68.85,5.44,5.34-.43,7.69-.12,7.71-7.74,7.71q-169.09,0-338.18,0c-6.66,0-5.73.84-5.79-5.65,0-7.29,0-7.53,7.55-7.2,4.17.18,5.9-.68,5.51-5.3-.47-5.72,0-11.51-.16-17.27-.06-2.49.45-3.49,3.27-3.52,9.74-.11,9.74-.23,9.74-9.84q0-113.16-.1-226.32c0-4.2.76-5.76,5.33-5.5,7.71.43,7.73.11,7.73,7.74q0,114.45-.1,228.91c0,4.15,1,5.26,5.16,5.2,16.56-.27,33.12-.23,49.67,0,3.71.05,4.56-1.17,4.51-4.65-.19-12.38-.16-24.76,0-37.14,0-2.76-.7-4-3.52-4.7-20.82-5.11-34.13-21.17-35.25-42.51-.31-5.89,0-11.81-.21-17.7-.1-2.81,1.15-3.25,3.6-3.32,13.1-.39,24.59,3.59,35.21,13.44,0-7,.08-12.93,0-18.84,0-1.69-1.81-1.59-3-1.89-21.7-5.55-34.84-21.71-35.67-44-.2-5.47,0-11-.1-16.41-.06-2.39.72-3.18,3.18-3.3,20.85-1,38.86,10.72,46,30.34,1.4,3.85,2.26,3,4.58.85,9.6-8.84,21.1-12.52,34.07-11.94,1.51.07,3,0,2.92,2.16-.2,8.9,1,17.91-1.1,26.68-4.35,18.32-15.8,29.94-34,34.59-3,.77-3.91,2-3.77,4.94.24,5,.07,9.95.07,15.71,3-2.24,5.15-4,7.49-5.61,8.69-5.8,18.36-7.92,28.72-7.47,1.72.08,2.72.43,2.66,2.4-.27,8.9.94,17.9-1.19,26.68C223.2,435.41,212,447,194.15,451.63c-3.56.93-4.51,2.35-4.36,5.78.27,6,.14,12.09.05,18.14,0,2.41.43,3.64,3.29,3.63q48.59-.14,97.18,0c2.47,0,3.25-.85,3.24-3.24-.08-13.11-.15-26.21.05-39.31,0-3.16-1.77-3.35-3.9-3.92-18.75-5-30.28-17.09-34.25-36-1.72-8.19-.65-16.66-.81-25,0-2.71,1.74-2.42,3.49-2.48,12.29-.41,23.3,3,32.68,11.11.53.45,1.1.86,2.62,2,0-6.72.06-12.62,0-18.52,0-1.73-1.76-1.64-2.94-1.95-22.13-5.74-35.2-22.08-35.77-44.86-.13-5.18,0-10.36-.07-15.54-.05-2.31.57-3.24,3.11-3.37,20.74-1.06,38.9,10.69,46,30.27,1.31,3.59,2.05,3.3,4.56,1,9.56-8.88,21.07-12.56,34-12,1.79.08,3.09.25,3,2.53-.28,8.9.95,17.9-1.21,26.68-4.44,18.11-15.84,29.58-33.89,34.22-2.93.75-4,1.83-3.84,4.88.26,5,.07,10,.07,15,2,.15,2.64-1.22,3.58-2,9.52-7.69,20.43-10.86,32.56-10.29,1.65.07,2.79.29,2.73,2.32-.26,8.9.94,17.9-1.17,26.68-4.32,18-15.5,29.51-33.35,34.22-3.5.92-4.6,2.2-4.43,5.72.29,6.18.15,12.38,0,18.57,0,2.38.73,3.26,3.22,3.26q48.58-.1,97.18,0c2.39,0,3.33-.69,3.31-3.17q-.12-19.87,0-39.74c0-2.27-1.07-2.85-2.95-3.36-23.43-6.41-35.86-22.63-36-46.86,0-4.47.12-8.93,0-13.39-.1-2.64.82-3.41,3.46-3.48,13.12-.35,24.65,3.52,35.32,13.45,0-7.06.09-13.09-.07-19.11,0-1.34-1.72-1.31-2.79-1.59-22.57-5.93-35.53-22.4-35.86-45.66-.07-4.89.06-9.79,0-14.68-.05-2.23.42-3.3,3-3.44a45.63,45.63,0,0,1,46.08,30.2c1.2,3.28,1.81,3.66,4.53,1.11,9.52-8.93,21-12.61,34-12.06,1.73.07,3.16.11,3.09,2.45-.27,8.9.95,17.9-1.19,26.68-4.41,18.12-15.8,29.6-33.84,34.28-2.85.75-4.09,1.7-3.91,4.82.28,5,.07,10,.07,15,1.84.38,2.38-.89,3.2-1.57,9.56-7.9,20.58-11.18,32.87-10.61,1.59.07,2.85.16,2.8,2.25-.22,8.76.94,17.63-1.06,26.26-4.23,18.32-15.56,30.08-33.8,34.82-3.06.8-4.22,1.89-4.08,5.11.25,6.18.17,12.38,0,18.57-.06,2.68.63,3.8,3.6,3.78,17.41-.13,34.84-.17,52.26,0,3.67,0,3.37-1.88,3.37-4.29q0-41.48,0-82.93,0-94.15.1-188.31c0-4.25-1.13-5.15-5.23-5.14q-82.5.21-165,.09c-5.66,0-5.66,0-5.67,5.52,0,7.44,0,7.44,7.54,7.44,34.84,0,69.69,0,104.53-.07,3.49,0,4.82.77,4.63,4.48-.3,5.89,0,11.81-.12,17.71-.06,2.52.52,3.75,3.32,4.32,10.28,2.1,16.06,9.4,16.14,19.89,0,5.18-.09,10.37.05,15.54.07,2.27-.68,3-2.94,3q-23.1-.12-46.21,0c-2,0-2.8-.58-2.76-2.69.13-6-.15-12.1.14-18.14a18.54,18.54,0,0,1,14.95-17.3c3.71-.67,4.56-2.12,4.46-5.61-.22-8.12-.05-8.12-8.33-8.12-30.23,0-60.46.07-90.7-.09-3.87,0-5.28,1.1-4.72,4.85a11.66,11.66,0,0,1,0,3c-.41,3.46.44,5.28,4.48,6,8.32,1.46,14.47,8.9,14.87,17.36.29,6,0,12.1.14,18.14.05,2.23-.94,2.6-2.85,2.6-15.41-.05-30.81-.08-46.22,0-2.38,0-2.89-.9-2.84-3.05.12-5.61-.07-11.23.08-16.84a18.75,18.75,0,0,1,15.34-18.32c3.61-.66,4.18-2.26,4.12-5.45-.17-8.21,0-8.21-8.23-8.21-30.09,0-60.18.08-90.27-.09-4.09,0-5.93,1-5.24,5.19a8,8,0,0,1,0,2.59c-.65,3.86.82,5.38,4.83,6.13,8.05,1.51,14.11,8.95,14.52,17.22.3,6,0,12.09.14,18.14,0,2.11-.76,2.69-2.76,2.68q-23.1-.09-46.21,0c-2.26,0-3-.7-2.94-3,.14-5.76-.09-11.52.1-17.27a18.75,18.75,0,0,1,15.25-18c3.47-.65,4.36-2.06,4.2-5.37-.27-5.75.11-11.52-.14-17.27-.15-3.32,1-4.06,4.19-4q53.13.16,106.25,0c7,0,6.15,1.06,6.25-6.13a25.33,25.33,0,0,1,0-3c.38-3.09-1.05-3.84-4-3.84q-84,.1-168,0c-3,0-4,.72-3.9,3.81.23,6.33,0,12.67.11,19,.06,2.4-.64,3.16-3.12,3.22-9.88.26-9.88.35-9.88-9.38,0-7.64.1-15.27-.06-22.89-.06-2.73.61-4.32,3.19-5.74Q202.51,134.82,297,82.78a5.76,5.76,0,0,1,6.32.11q94.49,52,189.07,103.8c2.75,1.5,2.91,3.36,2.91,5.89q0,140.16,0,280.31c0,6.24,0,6.24,6.08,6.24,6.88,0,6.88,0,6.88,6.69,0,4.9.32,9.82-.1,14.68-.36,4.09,1.25,4.94,4.85,4.6a77.38,77.38,0,0,1,8.2,0ZM306.88,99.73a24,24,0,0,0-.37,2.73c0,26.63.05,53.26-.09,79.89,0,3.67,2,3.34,4.39,3.34q73.85,0,147.69,0c1,0,2.23.45,3.29-.85ZM138.17,184.86c1.29,1.15,2.33.8,3.27.8q74,0,148.07.09c3.29,0,4.09-1,4.07-4.15-.11-26-.06-52.09-.09-78.13,0-1.06.41-2.29-.95-3.38Zm51.73,177.6c-.26,6.38.22,6.69,6.26,4.06,12.51-5.45,19.8-17.31,19.67-31.6,0-3.23-.85-3.95-4-2.9C199.05,336.29,190.48,348.05,189.9,362.46Zm142.45-25.15c.32-6.64-.27-7.13-6.45-4.2C313,339.25,306.61,349.67,306.49,364c0,4.66.17,4.81,4.47,3.27C323.6,362.69,331.68,351.4,332.35,337.31Zm116.63,0c.32-6.66-.26-7.14-6.46-4.21-12.95,6.14-19.29,16.56-19.41,30.84,0,4.67.17,4.82,4.46,3.28C440.23,362.69,448.3,351.41,449,337.31Zm-259.07,96c-.29,6.63.15,6.92,6.41,4.18,12.55-5.49,20.12-18.17,19.51-32.24-.14-3.2-1.36-3-3.76-2.27C199.23,407,190.54,418.85,189.91,433.28Zm116.62,0c-.29,6.58.06,6.83,6,4.32,12.75-5.37,20.53-18.21,19.89-32.42-.14-3.23-1.41-3-3.77-2.24C315.83,407.06,307.16,418.86,306.53,433.3Zm116.61.21c-.25,6.43,0,6.6,5.84,4.19,12.66-5.22,20.22-17.35,20.09-31.84,0-3.24-.79-3.95-4-2.87C432.24,407.34,423.71,419,423.14,433.51ZM176.88,414.79c-.47-14.8-9.36-27.16-22.29-31-2.05-.62-3.44-1-3.65,2.06a33.1,33.1,0,0,0,20.38,32.86C176.64,420.82,177.06,420.52,176.88,414.79Zm116.62.08c-.44-14.83-9.25-27.09-22.21-31.1-2.46-.76-3.61-.68-3.74,2.41-.59,14.35,7.37,27.23,20.32,32.47C293.26,420.84,293.67,420.56,293.5,414.87Zm116.6-.71c-.65-14.42-9.3-26.27-22.06-30.32-2.24-.71-3.69-1.12-3.86,2.19A33,33,0,0,0,404,418.42C410,421,410.39,420.68,410.1,414.16ZM176.85,343c0-.69-.09-2-.27-3.26-1.87-13.31-9.28-22.17-21.75-26.9-1.92-.73-3.73-1.55-3.91,2-.71,14.28,7.15,27.25,20.07,32.63C176.58,349.87,177.07,349.54,176.85,343Zm116.64.41c-.55-14.54-9.41-26.79-22.2-30.64-1.75-.53-3.49-1.5-3.74,1.86a33.17,33.17,0,0,0,20.23,33C293.22,349.85,293.72,349.49,293.49,343.45ZM410.1,343c-.06-.69-.1-2-.28-3.27-1.87-13.31-9.28-22.16-21.75-26.89-1.92-.74-3.73-1.54-3.9,2-.71,14.29,7.14,27.25,20.07,32.63C409.83,349.87,410.32,349.54,410.1,343ZM183,263.42c3.59,0,7.18,0,10.77,0,.93,0,2,.27,2.53-1,1.93-4.27-.77-10.91-5.18-11.59a50.53,50.53,0,0,0-15.43,0c-4.26.66-5.91,4.3-5.21,10.31.53,4.53,4,1.71,6.08,2.2S180.81,263.42,183,263.42Zm117.14,0c3.31,0,6.61,0,9.91,0,1,0,2.08.31,2.77-.7,2.25-3.28-.65-11.08-4.75-11.79a44.39,44.39,0,0,0-16.25.05c-4,.79-5.45,4.47-4.72,10.24.53,4.19,3.77,1.79,5.73,2.12A44.53,44.53,0,0,0,300.1,263.42Zm116.42,0c3.44,0,6.89,0,10.34,0,.93,0,2,.3,2.62-.89,2.51-4.78-1.25-11.62-6.72-12-3.15-.21-6.32-.07-9.48-.06-7.85,0-10.23,2.71-9.67,10.54.14,1.9.78,2.48,2.57,2.43C409.62,263.36,413.07,263.42,416.52,263.42Z"/><path d="M462.89,211.6c6.43,0,6.43,0,6.43,7.19,0,5.77,0,5.77-7.39,5.77-5.57,0-5.62,0-5.55-7.59C456.44,210.74,455.39,211.7,462.89,211.6Z"/><path d="M462.89,237.51c6.43,0,6.43,0,6.43,7.2,0,5.77,0,5.77-7.39,5.77-5.57,0-5.62,0-5.55-7.59C456.44,236.66,455.39,237.62,462.89,237.51Z"/><path d="M449.82,505c6.54,0,6.54,0,6.54,6.93,0,6,0,6-7.49,6-5.47,0-5.53,0-5.45-7.62C443.49,504.18,442.32,505.13,449.82,505Z"/></svg>