<svg id="Layer_1" data-name="Layer 1" xmlns="http://www.w3.org/2000/svg" viewBox="0 0 600 600"><title>Artboard 1 copy 51</title><path d="M89.37,512.38c-7-12.58-7.48-24.11,5.78-32.24,22.79-14,29.9-35.16,27.86-60-1.54-18.71,7.28-26.24,24.43-29.18,12.36-2.13,30.38,2.59,35.7-7.34,5-9.29-6.82-23.07-11.58-34.69-3.33-8.12-2.48-16.15-2.33-24.35.13-7.52,0-15,1.58-23.06,5.17,27.12,3,56.5,22.74,80.08,14.42-15.63,35.64-26.32,33.7-53.31-.4-5.67,6.32-11.86,10.75-19.52,5.19,12.66-6.22,19.66-5.68,34.64,22.47-23.06,46.9-36.48,72-48.9,7-3.45,4.27-8,.84-12.28-8.55-10.66-9.35-22.86-8.83-36,.91-22.9-8.55-43.47-18-63.48-13.8-29.33-18.56-59.93-18.12-95.11,8.27,10.52,9.47,20.79,9.22,29.34-.79,27.1,10.33,49.85,21.29,73.37,8.88,19.07,8.69,40.83,13.21,61.25,5.58,25.2,19.35,30.85,39.32,15.67,4.55-3.46,8.67-7.69,13.64-10.37,22.24-12,32.05-29.62,30.12-55.48-1.56-21,16.77-36.55,19.34-57,2.23,28.5-24.36,52.09-12.22,82.7,39-16.8,59.52-70.42,114.39-61.08-3.42,1.65-5.94,3.48-8.74,4.12-61.16,14-90.12,72.67-142.12,100.15,30.68-2.07,58.17,7.7,86.37,12.11,11,1.72,21.31-2.31,31.68-5.29,13.08-3.76,26.44-1.27,39.77-1.09-31.16,13.44-63.88,17.43-96.81,10.91-20.08-4-40.32-4.65-60.37-7.7-4.18-.64-10-.68-12.86,1.68-22.88,19-47,36-74.08,49.36,30.95,3.73,53-22.48,82.94-22.17-29.8,11.79-53.57,36.16-87,40.17A20.48,20.48,0,0,0,251.64,358c-15.81,26.15-44.14,31.85-68.92,43.41a43.44,43.44,0,0,0-4.67,2.95c18.08,20.4,45,5.81,68.27,18.35-27.83-.66-51.73-.38-75-12s-34-4.32-37.75,20.47c-2.86,18.68-9.55,36-25.06,47.72C97.1,487.5,87.26,496.05,89.37,512.38Z"/></svg>