<svg id="Layer_1" data-name="Layer 1" xmlns="http://www.w3.org/2000/svg" viewBox="0 0 600 600"><title>Artboard 1 copy 40</title><path d="M76.28,232.62l13.45,3.56c-21.79,94.42.59,174.61,76.73,236.26,53.45,43.27,122.54,53.39,178.31,40.74V484.57c-62.68,13.29-118.63.05-168.63-40.53,2.08-2.19,3.69-4,5.38-5.65q69.06-69.09,138.22-138.07c3.5-3.49,5-6.8,4.37-11.71-1.18-9.63-1.82-19.33-2.76-29.9L156,424.2c-43.35-54.58-56.84-114.27-37.42-180.34,12.17-41.39,36.85-74.43,72.08-99.35,35-24.76,74.36-35.58,116.93-34.66V81.67C279.8,80,253.56,85,227.12,93.45l-4.38-14.1C250.1,69.27,278.21,66,307,65.81c.38-2.45.68-4.38,1-6.74H518c0,15.37.83,30.48-.18,45.46-2,29.58-5.1,59.08-7.51,88.63-.23,2.89.8,6.1,2,8.86C548.09,287.2,539.47,367.34,485,442.18A20,20,0,0,0,480.69,455c.17,20.07.12,40.14.1,60.21,0,16.93-8.65,25.68-25.39,25.7-28.54,0-57.09-.08-85.63.06-8.41,0-15-2.85-20.49-9.32-1.33-1.57-4.93-2.17-7.27-1.81-85,12.94-158.39-10.25-215.84-74.5-56.44-63.13-72.09-137.49-51-219.51C75.34,235,75.72,234.14,76.28,232.62ZM347.72,387.49c23-2.37,43.6-9.63,64-17.36,20.09-7.6,40.61-13.52,62.06-15.44,5.77-.52,7.74-2.34,8.22-8.3,3.61-45.1,7.68-90.17,11.56-135.24,1.1-12.78,2.06-25.58,3.17-39.42l-33.5,3.3c8,21-6.4,36.35-25.08,34.31-23.62-2.58-48.07,5.69-71-5.53l-34.8,5.34C337.49,268.8,342.58,327.82,347.72,387.49ZM316.5,201.93c-16.48.44-25.55-8.7-31.42-22.21-.71-1.63-1.67-3.15-2.49-4.73-4.66-9-12.64-11-21.95-10.76-8.49.22-13.93,4.58-16.69,12.07-4.16,11.28-11.4,17.2-23.67,19.5-13.47,2.53-24.41,11-25.34,25.72-.89,13.9-7.46,21.4-19.36,26.68a20.05,20.05,0,0,0-9.41,9.59c-5.41,12.54-.61,27.68,10.36,35.87,12.39,9.26,14.64,18.57,7.61,32.34-3.33,6.54-7.25,12.81-10.28,19.48-4.57,10.07-.45,22.83,9.72,29.79,5.39-5.66,11.13-11.27,16.33-17.35,2.39-2.79,3.71-6.48,5.52-9.77l-9.86-3.43c-.19-.07-.33-.27-.86-.71V330.36c9.77-1.64,17.88.43,23.46,8.6a10.52,10.52,0,0,0,1.72-.95q48.72-48.64,97.36-97.38a7.64,7.64,0,0,0,2.12-5.18C318.64,224.59,317.55,213.74,316.5,201.93Zm-1.37-15.81c-1.63-19.36-3.11-38.21-5-57-.16-1.5-3.52-3.9-5.3-3.82-12,.53-24.18.48-35.92,2.7C173.91,146,113,232.15,127.43,327.8c4,26.42,14.08,50.48,29.5,72.35l14.34-13.93c-17.59-20.75-18.87-34.65-5.64-58,2.08-3.69,4.14-7.39,6-11.2,2-4.09,1.62-7.51-2.71-10.26-27.46-17.45-27-66.48,4.79-75,2.36-.63,5.36-4.76,5.37-7.27.05-19.64,15.43-39.06,39.21-43.89,6.05-1.24,9.21-3.93,11.41-9.42,5.59-13.93,15.83-21.8,31.17-22.16,15.77-.36,28.28,5.24,35.67,20,1.8,3.58,3.59,7.18,5.63,10.62C304.82,184.06,308.51,187,315.13,186.12Zm44.68,3.93c1.72-18.75,9.59-26.55,27.46-25.7,37.12,1.77,73.67-3,111-8.64,1.42-16.65,2.89-33.83,4.37-51.17H323.34c2.58,29.86,5.1,59.07,7.7,89.07ZM326.3,316.17c-9.6,5.76-13.28,13-11.72,23.35.8,5.35,0,11.19-1.22,16.52-1.66,7,0,12.84,2.74,19.25,3.09,7.21,5.93,15.15,6.14,22.85.48,18.34-10.11,30.53-25.18,39.63-13.63,8.22-25.55,4.52-38-3.26-5.92-3.7-13.63-4.61-20.6-6.5-5.35-1.44-10.78-2.6-16.23-3.56-1.86-.33-4.52-.42-5.73.63-6,5.25-11.71,10.91-17.36,16.29.86,1.26,1,1.73,1.37,2,43.12,29.33,90.18,37.6,140.86,26.15,1.34-.3,3.6-1.66,3.52-2.31-.93-8.46,3.63-17.49-3.58-25.43-2.88-3.18-4.55-8.3-5-12.72-2.24-21.94-3.84-43.95-5.74-65.93C329.2,347.63,327.75,332.18,326.3,316.17Zm153.5,53.07c-21.55,1.71-40.89,7.33-60.07,13.95-17,5.86-34.23,11.14-51.48,16.28-6.07,1.8-12.49,2.42-19.13,3.64.72,8.73,1.23,16.93,2.13,25.08.51,4.57,3.34,7.08,8.16,7.08q53.43,0,106.86,0c5.5,0,8.14-2.95,8.69-8.09.43-4,.64-8,1-12C477.19,400.19,478.46,385.16,479.8,369.24Zm-14.22,81.95H360.67V495H465.58Zm37.49-377H322.93v14H503.07ZM293.3,395.72c-10.77,14-22.2,14.8-34.11,2.47-2.56-2.66-4.78-5.65-6.3-7.47L231.8,411.33a5.77,5.77,0,0,0,2,.78c15,0,28.17,5.19,40.58,13.37,2.7,1.79,7.71,2.2,10.76,1,17.54-7,29.33-24.39,17.55-44.6-5.33-9.13-6.95-18.59-4.11-28.87.87-3.13.91-6.49,1.34-9.85L263,380c10.66,13,10.66,13,20.1,6.3Zm213.43-161.9Q499.56,317,492.4,400.09l1.74.15C520.89,346.71,525.4,291.27,506.73,233.82ZM465.46,511.47H360.53c-.71,12.5,1,14.38,12.72,14.38h79.59C464.47,525.85,466.25,523.89,465.46,511.47ZM413.25,179.25c-9.58,0-19.17.06-28.75,0-5.29-.05-9,2.19-8.95,7.59s3.91,7.44,9.13,7.42q28.43-.1,56.84,0c5.27,0,9.05-2.2,9-7.58s-3.93-7.48-9.17-7.42C432,179.32,422.61,179.25,413.25,179.25Z"/><path d="M178.24,133.47l-30.85-30.69,30.82-31,30.43,31.39Zm-.74-21,10.27-9-9.28-10.8-10.67,10Z"/><path d="M102.41,208.49c-9.9-9.94-20.25-20.31-30.49-30.58,10.22-10,20.76-20.43,31.14-30.63,9.85,10,20.14,20.4,30,30.39Zm-.07-21.27,10-9.22L103,167.65,93,177.78Z"/><path d="M79,144.44,69,133.55l11-8.22,9,8.86Z"/><path d="M114.7,110.47l10-9.17,9.1,10.25-9.63,9.08Z"/><path d="M412.62,337.42c-29-.15-52.75-24.17-52.45-53.05a53.17,53.17,0,0,1,53.16-52.52c28.85.11,52.58,24.2,52.4,53.2A52.8,52.8,0,0,1,412.62,337.42Zm.44-90.27c-20.93,0-38.08,17.09-37.85,37.76s17.19,37.43,37.62,37.47c20.78,0,38-17.23,37.82-37.89A37.67,37.67,0,0,0,413.06,247.15Z"/><path d="M205.4,254.88v14.75c-8.28-1.15-13.21,1.36-10.74,10.89H180.3C176.39,263.53,186,253.41,205.4,254.88Z"/><path d="M235.55,210V224.4c-7.59-.78-13.61.57-10.42,10.76H210.48C205.72,219.15,217.36,207.09,235.55,210Z"/><path d="M202.43,292.77c18.32-2.48,28.38,7.82,25.09,25.5H213.09c1.63-8.49-1.35-12.88-10.66-10.66Z"/><path d="M250.63,232.1H265c4.27,16.68-5.71,27.19-24.84,25.91V243.18C249.06,245.17,252.43,241.12,250.63,232.1Z"/><path d="M280.73,237.49c7.85-9.22,6.91-6.08-.05-15.17l10.2-9.61c14.12,9,14.38,23.87-.13,35Z"/><path d="M260.72,217.84l-10.22-10c6-7.75,6-7.75-.32-16.35,3.23-3.21,6.51-6.47,9.74-9.7C274.7,192.75,274.88,204.83,260.72,217.84Z"/><path d="M219.4,275l10-10c8.59,6.63,8.59,6.63,16.44.05l9.46,10.27C249.42,286.83,232.05,292.45,219.4,275Z"/><path d="M368.15,133.55V119.46h89.56v14.09Z"/><path d="M436,405.5h29.27v14.29H436Z"/></svg>