<svg id="Layer_1" data-name="Layer 1" xmlns="http://www.w3.org/2000/svg" viewBox="0 0 600 600"><title>Artboard 1 copy 49</title><path d="M236.08,478.26c0,8.77,0,17.54,0,26.31a5.38,5.38,0,0,0,1.83,4.31c4.44,4.29,8.77,8.71,13.14,13.08,2.23,2.23,2.5,4.9.71,6.66s-4.49,1.48-6.69-.71c-5.09-5.08-10.14-10.19-15.26-15.24a6.72,6.72,0,0,1-2.1-5.18c0-16.75,0-33.5.07-50.24,0-2.09-.38-3-2.7-2.81a93.59,93.59,0,0,1-9.91,0c-1.77-.07-2.21.6-2.16,2.24A91.15,91.15,0,0,1,211.4,476a84.5,84.5,0,0,1-14.57,34A104.21,104.21,0,0,1,163,540.22a5.51,5.51,0,0,1-6-.05c-18.22-10.5-32.52-24.77-41.69-43.82a83.09,83.09,0,0,1-8.12-35.22c0-1.58-.06-3.16,0-4.74.06-1.34-.32-1.95-1.8-1.92q-5.61.12-11.22,0c-1.46,0-1.81.55-1.81,1.91,0,16.74,0,33.49.09,50.23,0,3-.43,5.44-3.73,6.44a5,5,0,0,0-1.63,1.38c-4.73,4.71-9.45,9.45-14.19,14.17-2.24,2.23-4.84,2.5-6.64.71s-1.5-4.4.73-6.64c5.08-5.09,10.1-10.23,15.23-15.26A5.49,5.49,0,0,0,84,503.08c-.06-17.17,0-34.35,0-51.53,0-4,1.45-5.44,5.45-5.44,5.25,0,10.5-.05,15.74,0,1.47,0,2-.41,2-1.94q-.1-10.35,0-20.7c0-1.56-.6-1.93-2-1.92q-14.86.06-29.75,0c-1.47,0-2,.42-2,1.94.08,4.38,0,8.77,0,13.15,0,3.22-1.63,5.14-4.26,5.1s-4.11-1.88-4.12-5q0-9.27,0-18.54c0-3.41,1.61-5,5.05-5,11.57,0,23.15-.05,34.72,0,1.94,0,2.41-.56,2.38-2.43-.1-7.4-.09-14.8,0-22.2,0-1.64-.52-2.1-2.1-2.08-5.39.08-10.78.05-16.17,0-3.62,0-5.07-1.49-5.08-5.13,0-10.64-.13-21.28.08-31.91a8.89,8.89,0,0,0-3.16-7.47c-3.41-3.07-6.56-6.44-9.79-9.71-2.07-2.1-2.29-4.78-.58-6.51s4.42-1.54,6.51.53c4.49,4.46,8.93,9,13.43,13.4a6,6,0,0,1,1.84,4.64c0,10.49,0,21-.07,31.48,0,1.95.58,2.46,2.44,2.39,3.52-.14,7-.12,10.57,0,1.63.05,2-.55,2.09-2.11q1.48-28.45,25.66-43.59a2.73,2.73,0,0,0,1.51-2.78,27.68,27.68,0,0,1,1.9-12.67c.52-1.21-.22-1.72-.87-2.36l-24.69-24.7a13.69,13.69,0,0,1-1.47-1.58,4.42,4.42,0,0,1,.21-5.39,4.35,4.35,0,0,1,5.52-.54,12.77,12.77,0,0,1,1.59,1.45q11.74,11.73,23.46,23.49c1.1,1.11,1.76,1.34,3.11.21,10.46-8.71,23.67-8.67,34,.1,1.22,1,1.8.73,2.76-.23q11.77-11.87,23.62-23.65a10,10,0,0,1,1.8-1.52,4.14,4.14,0,0,1,5.41,6.13,22.38,22.38,0,0,1-1.77,1.88c-8.08,8.08-16.14,16.19-24.26,24.22a2.43,2.43,0,0,0-.68,3.16,26.44,26.44,0,0,1,1.69,11.85,3.06,3.06,0,0,0,1.72,3.09c15.69,9.9,24.13,24.16,25.43,42.65.2,2.85.16,2.85,3.07,2.86,3.1,0,6.2-.16,9.27.05,2.29.15,2.73-.71,2.71-2.81-.1-10.2,0-20.41-.08-30.62a7.1,7.1,0,0,1,2.28-5.54c4.49-4.35,8.84-8.84,13.3-13.23a4.36,4.36,0,0,1,5.52-.78,4,4,0,0,1,1.75,4.51,4.88,4.88,0,0,1-1.59,2.5c-3.87,3.85-7.7,7.75-11.61,11.56a4.08,4.08,0,0,0-1.33,3.21c.05,11.36,0,22.72,0,34.07,0,4.05-1.36,5.4-5.44,5.41-5.25,0-10.49.06-15.74,0-1.63,0-2.09.54-2.07,2.12.06,7.47.08,14.94,0,22.41,0,1.72.51,2.18,2.2,2.17,11.5-.07,23,0,34.5,0,4,0,5.44,1.5,5.44,5.48q0,8.94,0,17.89c0,3.26-1.58,5.15-4.22,5.14s-4.16-1.9-4.17-5.18c0-4.38-.05-8.76,0-13.15,0-1.41-.46-1.86-1.86-1.86q-15,.07-30,0c-1.56,0-1.94.58-1.93,2,.06,6.83.07,13.66,0,20.49,0,1.63.53,2.08,2.11,2.05,5.25-.08,10.5,0,15.74,0,3.75,0,5.26,1.49,5.27,5.2Q236.1,464.78,236.08,478.26Zm-76-85.58h23.07c6.54,0,13.08,0,19.62,0,1.14,0,1.94-.1,1.89-1.58-.22-6.81.31-13.64-.72-20.44-3.38-22.27-24.82-39.16-47.26-37.11-21,1.93-37.07,16.78-40.59,37.58-1.08,6.36-.39,12.77-.66,19.15-.08,1.89.46,2.44,2.39,2.43C131.92,392.65,146,392.68,160.1,392.68Zm-4.18,72.5c0-20.48,0-41,.06-61.43,0-2.27-.67-2.73-2.8-2.71q-17.67.15-35.35,0c-1.93,0-2.4.56-2.39,2.44.07,19.18-.07,38.37.08,57.55a73.93,73.93,0,0,0,4.86,25.7c6.62,17.46,18.29,30.86,33.4,41.48.55.39,1.11,1.24,1.82.83s.31-1.31.31-2Q155.92,496.11,155.92,465.18Zm8.3,0q0,30.94,0,61.88c0,.68-.38,1.62.36,2s1.27-.48,1.83-.88A98.23,98.23,0,0,0,184.55,512c12.88-14.76,19.76-31.93,20.06-51.5.28-19,0-38.08.1-57.13,0-1.84-.6-2.28-2.34-2.27-11.86.07-23.72.09-35.58,0-2.14,0-2.61.66-2.61,2.69Q164.29,434.44,164.22,465.17Zm-3.91-155.5a17.63,17.63,0,0,0-17.58,16.42c-.06,1.05-.11,1.87,1.45,1.39a52.77,52.77,0,0,1,31.8,0c1.25.39,1.47,0,1.43-1.15A17.53,17.53,0,0,0,160.31,309.67Z"/><path d="M336.68,360.47q-1.43,44.59-2.86,89.19c-.52,15.3-14.39,24.93-28.82,20.13a21.29,21.29,0,0,1-14.13-19.13c-.53-13.13-.88-26.28-1.3-39.42q-1.31-40.83-2.61-81.65c-.16-5-.43-9.91-.5-14.86,0-1.59-.65-1.9-2.06-1.89-12,.05-24,.45-36,1.43-.78.07-1.57.16-2.36.17a4.33,4.33,0,0,1-4.58-3.69,4.19,4.19,0,0,1,3.86-4.61c5-.47,10-.78,15.05-1.08,7.89-.47,15.8-.61,23.7-.59,1.65,0,2-.53,2-2.13-.41-10.41-.84-20.83-1-31.24a27.21,27.21,0,0,1,47.95-17.87c5.08,5.94,6.77,12.92,6.5,20.64-1,26.85-1.78,53.71-2.64,80.57-.06,2,0,4,0,6Zm-8.37-.88h.46c0-4.6-.12-9.2,0-13.79.66-21.9,1.4-43.8,2.09-65.71.13-4.09.66-8.2,0-12.26-1.57-9.55-10.39-16.55-19.66-15.76-10.35.88-18,9-17.73,19.21.26,12.21.78,24.41,1.18,36.62l2.49,78.63q1,31.46,2,62.91c.27,8.27,7.26,14.34,15.07,13.08,6.53-1,11-6.25,11.2-13.31.45-12.71.83-25.43,1.24-38.14Q327.49,385.33,328.31,359.59Z"/><path d="M369.2,68.72C368.52,82.05,365,94.38,356,104.59c-6.84,7.75-15.61,12.81-24.92,17a114,114,0,0,1-12.49,4.73c-2.64.83-4.6.16-5.63-2.14-4.61-10.33-6.44-21-3.29-32.11,2.9-10.27,9.84-17.15,18.91-22.16C339.3,64,351,60.7,363,58.85a5.82,5.82,0,0,1,6.14,4.92C369.31,65.41,369.2,67.07,369.2,68.72Zm-52.72,34.36a43.42,43.42,0,0,0,2,12.48c.41,1.4,1,1.59,2.32,1.09A97.58,97.58,0,0,0,341,106.53c13.19-8.86,18.72-21.8,19.81-37.12.08-1.18-.13-1.71-1.54-1.42-9.47,1.94-18.63,4.76-27.11,9.51C322.19,83.1,316.48,91.34,316.48,103.08Z"/><path d="M458,331.44c-11.5-.13-22-2.71-32.22-6.49-6.47-2.39-6.95-3.43-4.64-10,3.31-9.44,8.45-17.54,16.88-23.29,8.83-6,18.54-6.88,28.69-5,12,2.24,23,7.08,33.46,13.25,2.28,1.34,3.31,5.59,1.7,7.66-9.76,12.62-22,21.36-38.16,23.52C461.69,331.35,459.6,331.35,458,331.44Zm-.69-8.46c1.08,0,2.16.06,3.23,0a36.55,36.55,0,0,0,4.06-.47c11-2,19.72-7.9,27.23-15.88,1.17-1.24.41-1.59-.59-2.12a96.07,96.07,0,0,0-22.81-8.91c-6.56-1.54-13.21-2.38-19.75,0-9.68,3.56-15.24,11.07-19,20.27-.43,1.05-.18,1.53.88,1.89C439.3,320.74,448.13,322.88,457.35,323Z"/><path d="M521.05,392.27a81.06,81.06,0,0,1-23.16-3.47c-10.47-3.24-18.69-9.62-25.39-18.12a86.69,86.69,0,0,1-12.43-21.84c-1.24-3.1-.21-5.5,3-6.39,14.9-4.14,29.55-4.07,43.62,3.15a48,48,0,0,1,17.63,16.14,68.69,68.69,0,0,1,10.37,23.76c.86,3.75-.64,5.88-4.41,6.19C527.22,392,524.14,392.08,521.05,392.27Zm-2.23-8.5H524c1.18,0,1.48-.53,1.1-1.65-3.59-10.39-8.85-19.7-17.92-26.28-10.95-7.95-23.32-8.92-36.23-6.69-1.57.27-1.14,1-.69,2a74.77,74.77,0,0,0,8.67,14.11c4.56,5.74,9.83,10.64,16.64,13.68C503,382.19,510.79,383.44,518.82,383.77Z"/><path d="M399.32,132.56c-13.19-.16-25.24-4.31-36.64-10.63-2.65-1.47-3.25-4.06-1.46-6.63,14-20.1,36.63-32.58,63.69-22.63a69.92,69.92,0,0,1,19,10.45c3.11,2.42,3.28,5,.47,7.78-9.33,9.1-19.76,16.43-32.49,20A42.37,42.37,0,0,1,399.32,132.56Zm-1.3-8.33h1.3c14.05-.22,25.12-7.1,35.39-15.81,1-.86.43-1.3-.33-1.73-2.06-1.17-4.08-2.43-6.2-3.46-9.23-4.49-18.87-7-29.17-5-11.3,2.2-20,8.68-27.38,17.17-.94,1.07-.56,1.5.54,2C380.4,121.17,388.91,123.81,398,124.23Z"/><path d="M237.14,151.72c.13,9.79-3.66,18.2-9.21,25.95-6.09,8.49-13.68,15.49-22,21.71-2.09,1.56-4.29,1.42-6-.51-8.7-9.84-14-21-12.84-34.5.71-8,4.19-14.88,9-21.12a85.8,85.8,0,0,1,24.47-21.17,5.72,5.72,0,0,1,7.68,1.72A50.78,50.78,0,0,1,237.14,151.72Zm-8.38,0a42.6,42.6,0,0,0-5.3-19.56c-.62-1.18-1.13-1.36-2.27-.57a100.2,100.2,0,0,0-9.06,6.95c-6.36,5.62-12.1,11.78-15.08,19.9-4.19,11.45-.73,21.56,6,31,.8,1.13,1.4.49,2.08-.07a88.34,88.34,0,0,0,15.72-16.2C225.46,166.74,228.82,159.85,228.76,151.69Z"/><path d="M298.41,110.78c.27,11.67-5.64,21.91-14.77,30.65a103.13,103.13,0,0,1-24.16,16.77c-2.4,1.24-4.59.89-5.92-1.18-7.08-11.05-10.74-22.84-7.43-36,2.34-9.35,8.23-16.31,15.44-22.27a88.41,88.41,0,0,1,24.55-14.11,5.7,5.7,0,0,1,7.44,3.06A53.48,53.48,0,0,1,298.41,110.78ZM253.3,128.52a41.44,41.44,0,0,0,4.48,19.17c.61,1.25,1.21,1.25,2.32.61a93.09,93.09,0,0,0,16-11.34c13.62-12.31,17.2-25.35,11.53-41.65-.44-1.26-.75-2-2.36-1.26-7.53,3.52-14.64,7.68-20.77,13.35C257.71,113.63,253.18,121,253.3,128.52Z"/><path d="M378.13,313.67a103.48,103.48,0,0,1-20.7-2.53c-3.35-.71-4.42-2.23-4-5.69,1.38-10.75,5.07-20.46,13-28.22s17.48-10.38,28.07-10.7a88.86,88.86,0,0,1,30.09,4.61,5.66,5.66,0,0,1,3.78,6.57c-3.69,13.41-10.56,24.54-23.34,31.06C397.15,312.77,388.57,313.7,378.13,313.67Zm1.16-8.36a60.05,60.05,0,0,0,16.43-2c12.28-3.54,19-12.47,23.33-23.81.49-1.28-.39-1.44-1.25-1.67a81.54,81.54,0,0,0-21.28-3c-7.35,0-14.49,1.14-20.7,5.51-7.56,5.3-11.3,13-13.33,21.7-.3,1.28.24,1.59,1.37,1.78A106.58,106.58,0,0,0,379.29,305.31Z"/><path d="M458,379.69c-.09,6.25-2.86,14.85-7.4,22.92a3.88,3.88,0,0,1-5.16,1.91c-12.17-5.29-23.16-12.24-30.45-23.72-6.21-9.76-6.72-20.54-4.75-31.6a62.79,62.79,0,0,1,2.87-10.59,6,6,0,0,1,1.76-2.35c2-1.84,4-1.91,6.49-1,10.66,3.91,20.44,9.15,28.05,17.83C455.27,359.81,458,367.7,458,379.69Zm-8.32-3a26.36,26.36,0,0,0-5-16c-6-8-14.27-12.73-23.29-16.43-1.07-.45-1.38.15-1.63,1a52.16,52.16,0,0,0-1.86,9.5c-.89,9,.54,17.48,6.47,24.75,5.29,6.47,12,11.07,19.32,14.91,1,.54,1.51.33,2-.7A45.3,45.3,0,0,0,449.65,376.69Z"/><path d="M364.39,177.82c-18.89.63-32.15-8.85-40.8-25.75a61.58,61.58,0,0,1-3.44-8.12,5.9,5.9,0,0,1-.15-2.74c.35-2.75,1.9-4.16,4.49-5.05,8.48-2.93,17.1-4.8,26.14-4.61q21.27.45,32.09,18.71A56.5,56.5,0,0,1,389.6,169c.63,3.33-.44,5-3.74,5.87A76.81,76.81,0,0,1,364.39,177.82Zm1.49-8.29a87.74,87.74,0,0,0,13-1.62c1.35-.28,1.8-.7,1.35-2.15a51.76,51.76,0,0,0-4.48-10.7c-4.06-7-9.56-12.17-17.63-14.1-9.54-2.27-18.8-.66-28,2.19-1.12.34-1,.94-.64,1.79a46.89,46.89,0,0,0,12.19,17.25C348.7,168.18,357.07,169.59,365.88,169.53Z"/><path d="M348.36,339.55a58.17,58.17,0,0,1,1.25-12.42,5.91,5.91,0,0,1,6.79-4.62,69.57,69.57,0,0,1,25.27,8.8c13.95,8.37,19.43,20.93,18.16,36.8a59.36,59.36,0,0,1-3.31,15.11c-1.09,3.06-2.88,4-6,3.26a77.84,77.84,0,0,1-22.19-9.23c-13.37-8.28-19.66-20.47-20-36C348.35,340.7,348.36,340.12,348.36,339.55ZM391.61,364c0-7.58-1.86-14.51-7.37-20-7.11-7.15-16.17-10.4-25.73-12.57-1.28-.29-1.2.65-1.31,1.4a49,49,0,0,0-.28,11c.67,8,3.14,15.27,9.13,21,6.33,6.06,14,9.65,22.19,12.33,1.24.4,1.5-.24,1.74-1.17A48.84,48.84,0,0,0,391.61,364Z"/><path d="M297.3,157.83c11.1-.25,20.05,4.26,27.36,12.35a56,56,0,0,1,11.11,19.3c.88,2.52.14,4.49-2.18,5.59-8.91,4.23-18.19,7.08-28.11,7.55-13.67.64-24.48-5-33.31-15.06a60.67,60.67,0,0,1-8.31-12,5.9,5.9,0,0,1,2.3-8.07C275.8,161.87,286,158.11,297.3,157.83Zm4.17,36.43a63,63,0,0,0,23.44-4.55c1.29-.49,1.65-1,1-2.35a60.55,60.55,0,0,0-4.27-7.47c-4.64-6.61-10.41-11.82-18.63-13.2-10.63-1.79-20.26,1.69-29.58,6.34-.93.47-.79,1-.3,1.72,1.25,1.75,2.39,3.59,3.74,5.25C283.79,188.57,292.16,194.49,301.47,194.26Z"/><path d="M250.59,236.68a38.86,38.86,0,0,1-21.54-6.24,59.59,59.59,0,0,1-15.89-14.72,6,6,0,0,1,.91-8.35c7.82-6.51,16.42-11.58,26.39-14.07,12.63-3.16,23.57.15,33.14,8.63a56.75,56.75,0,0,1,12.06,15.36c1.69,3.07,1.22,5-1.7,7-8.6,5.8-17.76,10.32-28.15,11.9C254,236.42,252.1,236.53,250.59,236.68Zm-1.05-8.4c9.61-.27,18-3.88,26.11-8.67,1.06-.63.93-1.21.34-2.07a50.59,50.59,0,0,0-6.39-7.83c-5.71-5.52-12.19-9.4-20.46-9.12-10.3.35-18.81,5.16-26.89,11-.94.68-.73,1.22-.07,1.89,1.3,1.34,2.51,2.77,3.88,4C232.73,223.64,240.16,228.14,249.54,228.28Z"/><path d="M312.4,485.24a28,28,0,1,1-28.09,27.81A28,28,0,0,1,312.4,485.24Zm0,47.54a19.61,19.61,0,1,0-19.69-19.59A19.74,19.74,0,0,0,312.37,532.78Z"/><path d="M155.56,269c0-5.6.05-11.2,0-16.8a6.65,6.65,0,0,1,1.87-4.85q15.94-17.55,33.44-33.55c2.2-2,4.83-2.09,6.51-.3s1.37,4.49-.94,6.6c-10.72,9.79-20.91,20.1-30.82,30.7a5.9,5.9,0,0,0-1.73,4.4c.07,10.34,0,20.69,0,31,0,2.16-.73,3.79-2.81,4.61-2.67,1.06-5.48-1-5.52-4.17-.06-5.89,0-11.78,0-17.67Z"/></svg>