<svg id="Layer_1" data-name="Layer 1" xmlns="http://www.w3.org/2000/svg" viewBox="0 0 600 600"><title>Artboard 1 copy 38</title><path d="M165,282c-17.92,4.65-31.74,8.58-36.79,27.24-4.2,15.5-13.09,29.38-23.26,42.06-3.85,4.8-8,9.47-13.86,11.95-3.76,1.58-7.59,2.12-9.86-2.16-1.77-3.33-.77-6.43,2.39-8.68C102.45,339,110.71,318.85,118,298.21c6.88-19.52,24.38-24.2,41-29,11.95-3.41,21.44-8.22,28.38-18.93,3.5-5.42,6.18-10.23,5.95-16.8-.48-13.7,0-27.34,7.26-42.18-24.81,5.19-34-9.46-41-27.34-1.36-3.51-3.89-6.59-5.09-10.14-5.43-16.05-15.89-24.48-33.37-24.09-5.65.12-14.61.74-12.94-8.46,1.59-8.76,9.68-4,15.42-4.33,22.87-1.44,35.86,10,42.69,30.74,1.46,4.44,4.24,8.45,6.43,12.66,11,21.16,26.58,25,46.27,11.46.39-.27.73-.75,1.14-.83,22.78-4.24,33.55-23.07,47.53-38.29,4.45-4.86,4.39-7.28,1.79-13-10.88-23.87-34-33.23-53.27-47.36-6.26-4.59-21.83-6.66-14.74-17.6,6-9.29,14.77,2.68,21.22,6.62,23.33,14.23,47.87,27.2,60.09,54.2,3.14,6.94,31.23,6.62,34.46-.35,14.23-30.75,44-43.06,69.64-60.4,4.09-2.77,9-5.56,12.4-.3s-.77,8.59-5.08,11.35q-20.37,13-40.61,26.23c-3.94,2.57-8.26,4.65-10.92,8.89-4.77,7.63-11.59,14.6-14.06,22.89-2.94,9.83,11.07,11.23,13.48,19.06,7.3,23.75,33,22.25,48.47,35,9.19,7.56,27.62-1.83,33.61-13.33q7.55-14.49,15.07-29c6.67-12.81,33.61-24,46.94-19.49,3,1,4.83,2.93,5,6.13a6,6,0,0,1-3.32,5.82,7.31,7.31,0,0,1-4,1.2C456.69,126,447.33,144.9,439,165.15c-.18.43-.46.82-.68,1.25-12,22.94-12,22.94-37.7,26.6,6.33,14.13,6.14,29,6.4,43.89.17,10.15,14.54,26.65,24.62,30.09,8.94,3.06,17.88,6.2,26.54,10,10.93,4.74,17.63,12.74,21.71,24.58,6.62,19.21,14.88,38.05,32.52,50.44,3.59,2.52,5.47,5.69,2.85,9.58s-6.5,3.31-10.17,1.48c-7.47-3.72-12.42-10.15-17.16-16.68-8.11-11.18-15.84-23-19.17-36.27-4.34-17.25-16.9-22.39-31.09-27.09-3.07,4.77.56,7.71,1.83,10.87,19.59,48.72,23.61,97.39-.62,145.81-3.17,6.35-2.35,9,4.37,11.06a171.51,171.51,0,0,1,21.05,8.39c9.9,4.58,16,12,19.75,22.75,6.85,19.71,15.3,38.87,33.19,51.7,2.92,2.09,4.91,4.61,3.08,8.35-2.16,4.41-6.11,4.27-9.79,2.85-5.44-2.1-9.41-6.34-13.05-10.74-11.92-14.41-20.36-30.74-26.53-48.33-3.75-10.66-30.73-26.8-41.58-24.89-4.91.87-6.22,5.55-8.67,8.81a238.08,238.08,0,0,1-79.17,68c-27.31,14.57-54.06,14.76-81.47.45-31.68-16.53-58.57-38.73-79.44-67.58-6.62-9.16-12.42-10.25-22.29-6.72-15.81,5.67-28.34,12.6-33.15,31.08-3.89,15-12.93,28.45-23.61,40.14a50.11,50.11,0,0,1-12.08,9.67c-3.34,1.9-7.55,1.64-9.77-2.7-1.92-3.73,0-6.38,3-8.34,15.51-10.2,24.61-25.93,29.38-42.46,6.69-23.16,21.78-34.35,43.2-40.12,6.19-1.66,10-3.12,5.87-11.28-24.67-48.28-20.68-97-.85-145.66C161.58,291.06,162.7,288,165,282ZM293.62,440.18c0-26-.3-52.09.17-78.13.17-9.14-2.22-15.92-9-22.48-25.17-24.36-50.18-48.94-74.3-74.34-8.93-9.4-12.95-7.65-19.85,1.88-68.2,94.14-20.69,232.32,91.42,265.52,9,2.67,11.82.77,11.69-8.64C293.37,496.06,293.62,468.12,293.62,440.18Zm12.89-.35c0,27,0,54,0,81,0,15.23.93,16,15,10.65,38.42-14.74,67.94-40.87,91.31-74,41.27-58.53,38.47-137-5.82-193.28-5.37-6.83-8.51-8-15.11-1.23q-38.61,39.75-78.31,78.42c-5.67,5.55-7.33,11.36-7.24,18.9C306.71,386.79,306.51,413.31,306.51,439.83ZM290,327.38l3.61-2.35V215.69c0-43.57,0-43.57-44-40.71-.95.06-1.9.06-2.84.17-30.94,3.61-55.84,49.15-37,70.36C235.15,274.05,263.16,300.2,290,327.38Zm16.49-.63c3-1.4,4.45-1.68,5.31-2.54q38.35-38,76.57-76.16c2-2,4.53-4.31,4.84-6.73,4.3-33-7-64.74-46.77-66.39-9.45-.4-19,.58-28.4-.25-9.93-.89-11.85,3.51-11.7,12.3.44,26.05.15,52.11.15,78.16ZM337,160.35c-9.27-15.93-20.16-27.7-37.88-27.32-17,.36-27.33,12.07-36.49,27.32Z"/></svg>