<svg id="Layer_1" data-name="Layer 1" xmlns="http://www.w3.org/2000/svg" viewBox="0 0 600 600"><title>Artboard 1 copy 59</title><path d="M52.44,299.32C52.82,162.21,164.37,51.9,302.08,52.44,437.61,53,548,164.85,547.56,301.17s-112.5,247-249.13,246.39C162.56,546.93,52.07,435.43,52.44,299.32Zm13.92-.09c0,128.82,104.2,234.26,231.71,234.41,129.83.15,235.51-103.79,235.57-231.7.07-130.62-104.27-235.66-234-235.62C171.48,66.36,66.39,171.31,66.36,299.23Z"/><path d="M185,230.77c-27.24-1.32-27.76-1.9-26.89-21.75,1.78-40.39,26.48-70,65.18-78.24,39.34-8.34,76.46,9.31,94.17,44.88,10.44,21,13.31,43.53,13.44,66.57.09,15.49,18.23,30.27,32.66,26,27.38-8.13,50.8-21.24,60.87-50.37,1.85-5.35,5.23-7.1,10.82-5.33,37.58,11.87,64.61,64.87,51.66,101.51-14.81,41.9-63.43,66.67-110.15,56.12-10.22-2.31-20.79-4.66-29.42-10.37-13.69-9-27.33-9.33-42.49-5.21-5.71,1.55-7.38,5-9.12,9.12-12,28.28-5.39,54.6,8.95,79.9,7.37,13,7.39,13.71-5.08,21.5-34.07,21.28-75.44,16.73-103.34-11.38-28.15-28.35-33.15-71.15-12.28-104.64,12.43-19.94,29.8-34.73,50.21-45.55,8.74-4.62,9.79-12,13.47-19.4,7.82-15.81-.58-24.56-10.92-33.24A87.45,87.45,0,0,0,185,230.77ZM242,142.61c-37.45-.2-64.78,24.29-70.08,62.3-1.24,8.9,1,12,10.63,12.45,30.22,1.32,56.8,11.44,75.79,36.41,3.4,4.48,5.53,3.63,9.16.73,9.05-7.24,19.89-9.67,31.12-11.6,6.2-1.06,14,6.19,17.78-.92,3-5.72.56-13.66-.74-20.55-.43-2.27-.42-4.63-.72-6.93C309.2,170.91,280.69,142.81,242,142.61Zm14.73,321.92c8.28.16,18.12-3,27.91-7,7.2-2.94,9-5.82,5-13.52-14-27.21-19.12-55.62-6.89-85,2.2-5.3.29-6.68-3.74-8.4a54.14,54.14,0,0,1-30.43-31.78c-1.67-4.44-2.81-6.6-7.84-3.48-19,11.78-36.28,25.37-47.22,45.4C168.6,406.34,202.8,464.57,256.68,464.53Zm145-105.21c31.77-1.1,56-17.7,70.77-47.28,13.18-26.36-6.17-71-33.81-81.39-3.09-1.16-3.86-.28-5.13,2.13C418,262.1,391.84,276.21,360.74,283c-4.07.89-5.61,2.67-4.78,7.29,3.07,17.06-1.73,32.22-12.83,45.24-4,4.66-1.92,6.11,2.27,8.25C362.47,352.5,380.29,358.36,401.66,359.32ZM300.82,341A41.68,41.68,0,0,0,343,299.27a42.38,42.38,0,0,0-42-42.17,41.73,41.73,0,0,0-41.82,42.06C259.16,323.05,277,340.9,300.82,341Z"/></svg>