<svg id="Layer_1" data-name="Layer 1" xmlns="http://www.w3.org/2000/svg" viewBox="0 0 600 600"><title>Artboard 1 copy 35</title><path d="M571.09,261.05c-6,4-11.67.39-17.33-.22-13.09-1.43-26-4-39.09-5.89-3.1-.46-7.8-1.81-9,1-2,4.65.63,9.67,2.65,14.2,1.39,3.12,3.6,5.4,7.54,4.24,2-.59,4.09-1.21,6.11-1.9,6.32-2.15,13.6-6.5,18.07,1.61s3.48,16.65-3.26,23.65c-2.7,2.81-6.07,5-9,7.52-2.69,2.31-5.26,4.59-6.42,8.28-3.42,10.86-14.75,18-26,16.73-7.3-.83-9.46-6.05-5.68-13.44,3.23-6.33,10.05-9,14.34-14.19,2-2.42,5-5.13,3.19-8.41-1.58-2.83-5.2-1.31-7.92-1.16-13.46.79-14.35.09-16.16-13.38-3.7-27.53-3.67-27.92-31.43-30.46-15.24-1.4-30.59-1.76-45.87,1.2-6.84,1.32-9.84,4.86-10.42,11.37-.5,5.69-2,11.41-1.57,17,.36,5.2-4.71,13.67,3.22,15.11,9.2,1.66,18.48-8.14,19.3-16.57.59-6.09-.94-15,6.88-16s9.12,8,10.44,13.86c2.11,9.42,6.71,17,12.9,24.18q32.84,38.06,65.24,76.5c3.44,4.06,7,8.28,9.34,13,3.07,6.06,7,10.12,13.68,12.24,6.34,2,10.17,6.61,8.64,13.94-1.58,7.58-7.8,9.84-13.8,8.79-8.3-1.45-12.2,2.62-16.5,8.29-17.24,22.76-34.37,45.63-57.17,63.45-6.84,5.34-8.44,13.89-10.79,21.67-1.77,5.83-3.86,11.81-10.67,11.32s-8.45-6.8-9.16-12.69c-.77-6.33-3.82-11.06-8.38-15.53-15.48-15.19-29.38-31.87-45-50.52-2.36,13.8-4.41,25.15-6.22,36.54-1.67,10.55-3.36,21.11-4.48,31.73-.62,5.91-2.54,6.44-8.19,5.21a232,232,0,0,0-57.36-5.55c-7,.24-11.87,2.62-15.65,8.91-5.61,9.32-14.16,15.54-25.38,15.45-34.6-.29-69.26,2-103.8-2-2-.23-4.29.23-6.27-2.65,5.7-3.54,11.54-1.42,17.05-1,31.72,2.26,63.4,3.61,95.12-.47,6.3-.8,11.25-3,14.12-8.21,7.07-12.73,18.78-15.14,31.75-15.76,15.5-.75,30.67,1.53,45.51,5.38,6.89,1.79,8.59,0,9.45-6.49,2.42-18,5.3-36,8.42-53.86.7-4-.3-5.74-3.86-7.25a377.27,377.27,0,0,0-89-25.45c-5.58-.88-11.68-1-16.81,1.91-12.35,7-24.67,4.56-37.19.87-7.84-2.32-15.71-4.67-23.71-6.29-16.7-3.4-27.75,3-33.44,18.9-1.17,3.29-1.33,6.39-6.2,7.33-33.22,6.43-65.34,17.2-98.16,25.24-3.72.92-10.17,5-11.12,1-1.55-6.55,6.64-4.63,10.16-5.62,30.13-8.53,60.49-16.28,90.74-24.4,4.26-1.14,8.22-1.89,10.72-7.29,8.72-18.9,21.06-26.24,40.62-19,23.22,8.58,43.9,4.57,65.73-3.05,19.75-6.89,40.13-11.95,60.85-18-7.77-5.28-20.65-3.09-20.28-16.86.05-1.71-1.95-1.36-3.37-1-2.06.56-4.18.89-6.24,1.44-17.93,4.74-18,4.75-18-14.27-.08-22.1-.07-44.19-.11-66.29,0-5.95.35-10-8.66-6.52-7.24,2.8-16.24,1.91-24.38,1.36-20-1.36-39.84,1.08-59.83.25-14.49-.6-29.16.94-43.82.31v3.49q21.36,0,42.71,0c27.46.06,54.92.26,82.38.13,5.57,0,7.87,2,7.7,7.44-.1,3.56.1,7.13.1,10.7,0,10.14,2.34,21.52-14.57,23.6,13.05.55,12.33,7.94,12.24,15.86-.3,27.08-.12,27.05-27.56,27.18-13.57.07-27.14.56-40.71.29-7-.14-10.37,1.64-7.83,9,3.1,9,1.16,14.24-9.57,13.88-3.88-.14-7.79.79-11.69,1.21-7.41.79-16.6,5.2-21.75,1s.56-13.07,1.54-19.83c1.07-7.3-2.84-7.16-7.95-7.17-27.86,0-55.71-.53-83.56-.28-7.62.07-10.4-2.45-9.43-9.78a47.42,47.42,0,0,0,0-6.42c-.07-17.34-.06-17.51-17.35-19.31-4.4-.45-6.31-1.62-6.17-6.32.26-8.92.33-17.87-.16-26.77-.3-5.46,3.17-7,7-7.61C54,301.53,63,293,60.51,272.7c-1.19-9.89-.82-20.54-.78-30.85.22-56.43.08-112.85.16-169.28,0-3.42-1.14-7.1,3.84-10.31V295.17l4.18,0c0-11.63.58-23.29-.2-34.86C67.18,252.5,69,250,77.3,250.14c23.91.32,47.85-.86,71.76-.5,9.3.15,10.9-3.14,10.84-11.63-.38-54.28-.2-108.56-.14-162.85,0-3.48-.86-7.11,1.27-11,5.05,3.17,3,8.26,3.17,12.18.37,7.06,2.84,9.72,10.37,9.55,22.84-.5,45.72-.61,68.56,0,8.47.25,12.51-1.7,12.27-10.66-.09-3.33-.5-7.12,2-10.32C262,68.11,260,72.84,260,76.7c.3,53.93.69,107.85.27,161.78-.08,10.21,3.32,12,12.32,10.84,18.38-2.4,36.83-4.32,55.3-5.92,7.61-.66,9.76-3.63,9.74-11.35-.17-54.63.19-109.27.48-163.91,0-3.61-1.06-7.59,3.87-10.66,0,16.11-.32,32.22.15,48.32.19,6.7-3.15,14.43,4,19.89a2.19,2.19,0,0,1,.47,2c-10.26,27.6-2,56.19-4.43,84.21-.75,8.51-.41,17.15,0,25.7.28,6-1,8.66-7.89,9.25-15.25,1.28-30.37,4.18-45.6,5.81-5.5.58-7.31,2.52-7.29,7.9.16,36.73.09,73.46.14,110.19,0,3-.53,7.82,4.43,6.11,5.71-2,15.5.29,15.65-9.21.35-23.18,2.49-46.32,1.35-69.55-.7-14.26-.13-28.59-.13-42.89l3.7,0V375.15c13.37-5.32,24.29-8.71,31.25-21.66,11.11-20.66,24.48-40.35,46.31-51.91,4.4-2.33,5.05-6.3,5.39-10.73.68-9.23-.65-18.47,1.23-27.74,2.89-14.19,6.43-18.13,21-18.78,11.4-.5,22.85-.11,34.27.06A39.7,39.7,0,0,0,471.8,236c11.58-8.87,24.46-6,29.85,7.12,2.39,5.79,5.43,7,11,7.57C532.27,252.87,552,255.11,571.09,261.05ZM309.31,382.26c5.11,3.68,9.44,6.76,13.89,6,9.25-1.55,13.23,4,17.29,10.36,5.79,9,12.69,15.43,24.74,15.75,8,.21,15.73,4.31,22.1,9.84,3.16,2.76,5.34,6.17,3.48,10.34-1.61,3.63-5.36,3.88-9,4.67-6.67,1.45-9.86-4.3-15-6.28,16.73,23.15,35.27,44.55,54.88,65,4.54,4.75,8.62,9.12,8.51,16.41,0,3.07.55,8.06,5.09,8.12,3.73,0,4.26-4.23,5.13-7.26,2.55-8.94,4.57-18.55,12.32-24.38,23.2-17.47,40.15-40.43,56.8-63.6,5.27-7.34,8.92-14.43,19.78-8.81,3.82,2,7.95-.62,9.24-4.89,1.14-3.81-2-6.54-5.06-7-10.44-1.44-13.95-9.52-18.41-17.21-2.84-4.88-6.95-9-10.41-13.52-27-35.25-62.82-64-79.74-106.77-.11-.28-.56-.41-3.42-2.39,6.12,26.35-15.67,27.71-29.3,36.55-.9.58-1.84,1.09-2.76,1.63-19.78,11.53-36.09,26.21-45.54,47.74-5.42,12.34-12.43,23.45-28,25C313.89,377.81,312,380.29,309.31,382.26Zm-34.9-113.58c3.31-14.23,3.31-14.14-9.91-14.1q-85.09.24-170.2.37c-22.7.06-22,.11-22.71,22.77-.3,10.14,3.3,11.43,12.12,11.41,55.6-.14,111.19.25,166.79.58,18.21.11,18.21.27,19.85-18.19.28-3.18.49-6.37.84-9.55,0-.34.8-.59,1.68-1.2C273.43,263.63,273.92,266.15,274.41,268.68ZM105.28,375v-.21c14.25,0,28.5.06,42.75-.05,2.6,0,6.31,1.21,6.94-2.93,1.08-7,1.73-14.11,2.48-21.17.2-2-.61-3.58-2.89-3.51-7.39.24-15.92-3.36-21.92,1.38-8.54,6.74-15.91,4.61-23.54.17-6.35-3.7-9.74-4.14-12.94,4.16-4.51,11.71-15.15,12.61-23.39,3a25.88,25.88,0,0,1-3.5-5.34c-1.66-3.36-4.23-4.68-7.81-4-4.1.8-3.06,4.25-3.17,6.87-.19,4.62.3,9.29-.13,13.88-.55,5.91,1.29,8.11,7.58,7.88C78.9,374.7,92.1,375,105.28,375Zm-.66-64.85v.35c-6,0-12.11.41-18.11-.12-6.37-.57-10.14,2.24-12.43,7.68-4.88,11.61-4.63,22.87,3.11,33.25,5.27,7.07,10.75,6.35,14.11-1.57,5.46-12.83,5.45-12.82,18.22-7.19a77.92,77.92,0,0,0,7.89,3.19c8.13,2.57,13.18-.55,14.76-8.8,4.15-21.62.05-26.74-21.14-26.79Zm124.24,66.9H243.8c22.79,0,22.6,0,21.7-22.75-.22-5.47-1.73-7.33-7.33-7.3-15.25.08-30.52-1-45.74-.39a21.93,21.93,0,0,0-14.22,6.83c-3.16,3.65-3.5,9.84-4.77,15-1.58,6.38.85,9.06,7.69,8.72C210.35,376.72,219.62,377.07,228.86,377.08Zm137.82,67.74c-11.58-16-21.66-29.27-31-43.07-3.25-4.8-6.36-4.24-10.62-2.74-16.06,5.62-32.16,11.12-48.23,16.7-1.79.62-4.38.57-3.86,3.75C304.62,422.77,334.24,433.78,366.68,444.82ZM163.46,311.75c1.61,29.51-1.31,56.67-5.74,83.71-.34,2.07-.77,5.81-.07,6.1,8.71,3.54,17.31-.73,26-1,2.2-.05,6.13.87,5.82-2.72-1-11.18,3.13-24.8-5.42-32.78-9.27-8.66-10.5-17.23-9.65-28.34C175.1,328,173.93,319.08,163.46,311.75Zm69-194.84c.2-3.28-1.61-3.12-2.69-3.88-2.43-1.7-7.26-1.58-6.62-5.65.62-3.87,4.83-1.4,7.27-2.29,6.66-2.41,13.29-4.91,19.84-7.61,1.8-.74,4.72-1.14,4.43-3.87C254.25,90,251,91,248.74,91q-38.48-.1-76.94,0c-3.68,0-7.26-.37-6.38,5.51.66,4.45,1.2,6.93,6.94,6.16,16.52-2.22,19.09-.38,25.11,15.6,2.13-4,3.95-7.87,6.09-11.5,4.23-7.14,10.32-11.71,18.78-12.41,2.73-.22,6.79-.76,7,2.89s-3.63,3.25-6.5,3.29c-10.64.15-14,8.38-17.42,16.22-1.42,3.2.64,4.47,3.62,4.78C217.59,122.35,225.7,121.46,232.42,116.91Zm234.1,128.3c12.71,1.31,17.25,4.7,20,15.5A61.55,61.55,0,0,1,488,275.52c.09,12.4,1.75,14.3,14.12,12.77,7.73-1,12.26.85,10.37,9.53-2.1,9.68,4.56,7.16,8.74,5.88,3.54-1.09,6.38-4.37,9.59-6.59,5.5-3.82,5.84-5.91-1.33-8.54-7.66-2.8-12.5-11-21.81-11.74-2.6-.21-4.17-4.58-4.8-7.83-.8-4.19-1.5-8.4-2.27-12.6C496.72,235.33,485.4,231.16,466.52,245.21ZM70.23,311c-8.07-.79-15.47-1.43-22.84-2.26-13.2-1.49-13.51-1.24-13.42,12.48.14,18.93.15,18.54,18.72,19.41,9.44.44,15.33-.9,13-12.34C64.48,322.41,68.38,317.47,70.23,311ZM216.45,137.65c-16.37,0-31.17.12-46-.07-4.84-.06-5.8,2.21-6,6.49-.46,8.3,5.23,6.15,9.29,5.49,7.33-1.18,14.37-4.26,17.8,6.59,1.48,4.7,14.34,4,14.71-.34C206.87,148.57,211.3,143.83,216.45,137.65Zm28.07,35.45c9.12.1,13.66-5.26,8.86-9.65-7.77-7.12-14-16.3-24.11-20.68-5.55-2.39-9.71.48-13.34,4-2.59,2.54-4.66,6.58-3.35,9.65,2.11,5,7.48,1.74,11.34,2.56,4.31.91,11.6-2.66,11.34,5.45C235,172.75,238.42,174.47,244.52,173.1ZM223.74,311.32c3.39,5.62,5.71,10.64,1.45,16.17-3.28,4.26-8.85,6.86-10.36,12.95,36.3.47,30.38,3.35,30.25-20,0-7.87-2.82-10.06-10-9.18C232,311.64,228.77,311.32,223.74,311.32Zm-44.57-97.81c1.69-.23,6.37-.36,10.72-1.61,4.13-1.19,8.16-4.07,8.26-8.68.16-8-6.81-10.18-12.46-9.85-7.11.4-17.53-5.59-20.81,5.49C161.46,210.41,164.44,213.19,179.17,213.51Zm1.75,35.54v-.24c3.19,0,6.42-.37,9.54.07,7.43,1.06,10.08-2.69,10.48-9.39.46-7.77-4.58-8.5-10.37-8.34-6.35.18-12.72.26-19.06.69-8.33.56-7.27,6.84-7.37,12.48-.13,6.83,5,4.26,8.31,4.66A72.48,72.48,0,0,0,180.92,249.05Zm-23.3,78.18c0-16.22-.13-15.45-10-16.94-14-2.13-8.1,8.36-9.8,14.07a15.13,15.13,0,0,0-.43,3.16c-1,13.31-.18,13.69,12.82,13.49C163,340.81,155.23,331.26,157.62,327.23Zm97.44-147.52c-10.46,0-20,.67-29.41-.18-10.76-1-7,10.1-6.45,10.24,8.65,2.31,17.66,5.06,26.37,4.46C249.18,194,253.19,186.62,255.06,179.71Zm-90.12-60c-2.48,9,.64,12.55,9.4,11.46a84.81,84.81,0,0,1,11.72-.14c3,0,4.47-.7,3.88-4.26s-.08-7.1-.4-10.63c-.74-8.23-6.83-9-13.16-8.91-8.54.18-4.33,5.85-4.11,9.9.21,3.65,0,7.31,0,11.32C166.41,127.25,167.49,122.54,164.94,119.7ZM267.86,319c-1.25-4.37,1.73-10.56-2.43-12.64-3.67-1.84-9.21.82-12.49,4-3.82,3.68-2.45,9.29-2.55,14-.09,4-1.75,9.82,2.19,11.68s8.53-2.06,12.57-3.93C271.72,329,266.07,323.17,267.86,319ZM177.64,173.19c2.46-3.39,11,4.47,11.37-3.54.23-5.21-.83-15.28-9.87-14.53-5.3.44-15.11-2.54-14.94,9.89C164.34,175.3,170.48,173.1,177.64,173.19Zm52.41,75.44v0c5,0,10,.55,14.92-.18,3.44-.52,9.4,3.61,10-3.82.57-6.85-5.8-4.6-9.14-6.22-1.2-.58-2.86-.12-4.21-.51-12.48-3.55-22.24,9.45-34.77,5.77-.33-.1-1.56,1.46-1.66,2.33-.31,2.58,1.72,2.57,3.48,2.57C215.82,248.64,222.93,248.63,230.05,248.63ZM197,126.7c16.63,8.56,34.48,4.7,51.91,5.22,2.32.07,3-1.52,2.95-3.46-.12-3.81-9.95-10.82-12.84-8.56C226.11,130,211.68,127.79,197,126.7ZM236.47,219c-4.27,0-8.55,0-12.83,0-2.09,0-4.41-.36-3.88,3.12.51,3.3,2.14,2.92,4.45,1.85,2.89-1.34,8.25-3,8.33.19.31,11.21,8.8,7.2,14.1,8.5,3.11.77,8.43,3.07,8-4.2-.28-5,.49-10.48-7.5-9.55C243.65,219.28,240,218.94,236.47,219Zm-38.68-29.78c6,5.59,9.08,11.26,5.05,19-.79,1.52-3.15,4.24.54,4.75,3.12.43,8.46,2.18,9.1-2.21,1-6.49,1.2-13.83-1-19.8C209.51,185.47,202.75,189.66,197.79,189.17ZM509.51,308.26c-6.48.11-15.64,8.21-15.31,13.27.26,4.05,3.63,4,6.31,4.09,6.78.34,17.2-7.48,16.7-12.7C516.75,308.12,512.59,308.46,509.51,308.26ZM202.33,218.93H170.42c-3,0-5.73.3-5.82,4.32-.1,4.65,3.25,3.81,5.92,3.65,6.69-.37,13.42-1.7,20-1.23C196,226.05,199.1,224.07,202.33,218.93ZM215.82,311c-.9-3.37-.38-8.6-4.57-8.42-4.81.21-1.81,5.14-1.89,7.78-.19,6.45-2.13,12.48-3.52,18.64-.6,2.65-1.05,5.35,2.33,5.7s7.26-1.09,6.24-5.09C212.74,323.06,214.65,317.1,215.82,311Zm37.45-156.25c4.6-17.31,1.37-20.17-16.48-15.45Zm-42.26,25q-20.59,0-41.19,0c-2.45,0-5.17-.31-5.17,3.48,0,4.12,2.48,4.41,5.69,3.92,1.38-.21,3,.42,4.2-.13C186.23,181.37,198.89,182,211,179.76ZM197.35,337.12c1.74-6.43,3.49-12.09,4.76-17.85.61-2.8,2-6.56-3.35-6.82-4-.2-6.95.31-6.79,5.39C192.18,324.52,193,330.93,197.35,337.12Zm-11.45-32,0-2.43H140.15l0,2.43Zm68.75-185c.67-6.19,2.81-13.64-.58-15.87-4.65-3-9.86,3-15.72,5.42ZM132.88,304.29c-5.51-7-17.27-10.07-23.07-6.19-1.32.88-2.83,2.58-2.89,4-.11,2.3,2.35,2.15,4,2.17C118.12,304.34,125.36,304.29,132.88,304.29ZM237,208.88c5.24,4.1,11.6,6.75,16,3.07,4.2-3.51,1.32-10.22.66-17.4C248.51,201.35,243.07,205.21,237,208.88Zm-10.14,21.64c-6.86.7-14.07,7.72-14.7-4-.11-2.05-4.37-1.11-6.71-.29-3.3,1.15-1.37,3.23-.81,5.09C207.2,239.73,215.77,240.12,226.87,230.52Zm4.94-31.59c-4.26,1.94-11.65-5.19-12.3,4.28-.22,3.16-3.09,9.12,4,9.9C236.76,214.59,227.13,202.8,231.81,198.93Zm126,222.18c9.84,1.28,15.72,12,28.16,11.53C377.86,422.18,368.14,420.6,357.83,421.11ZM62.06,303.1h37C87.69,299.11,76.42,299.74,62.06,303.1Z"/><path d="M475.05,125c.68,8.86,1.18,15.41,1.7,22.07-5.37.14-6.52-5.34-11.21-5.73-6,19.15-16.22,34.5-37.36,39.43a53.82,53.82,0,0,1-28.49-1.12c-9.27-2.83-14.11.38-15,10.41a84.35,84.35,0,0,0,.09,8.56c0,2.44,0,4.88,0,8.57l-24.16-11.07c6.09-6.84,15-8.2,20.11-15,3.79-5.12,5.6-8.56.12-14.46a49.89,49.89,0,0,1-6.8-59.39c10.14-17.48,30.62-26.57,52.58-21.54,8.57,2,13.26-.64,18-6.65s8.06-12.53,11.84-19.56c5.5,4.88,7.68,11.28,11.72,17.05-7.31,3.61-15,4.37-21.24,8.73-4.44,3.08-6.29,5.13-.82,9.14,9.32,6.82,14.35,16.72,17.32,27.55C465.32,128.7,465.15,137.74,475.05,125ZM417.93,89.61c-18,.73-31.44,8.41-39.9,23.5-8.2,14.63-6.86,29.53,2.17,43.41,2.38,3.66,4.91,11.49,9.88,8.54,7.38-4.37-1.24-8.56-2.88-12.85a27.45,27.45,0,0,0-1.59-2.77c-9.53-18-2.94-38.34,15.13-46.83,17-8,37.37.34,45.06,18.56a43.72,43.72,0,0,1,2.64,8.09c.85,4.09,3.79,3.58,6.59,3.35,4.06-.32,2.92-3.44,2.57-5.64a47.32,47.32,0,0,0-13.91-27c-3-3-5.85-8-11.11-2.65-1.55,1.57-4.33.78-4.1-1C430,84.73,420.62,92.69,417.93,89.61Zm-2.84,87.69c20-.18,39.37-14.9,42.44-30.41.49-2.46,2.5-6.07-1.74-7.12-2.94-.73-6.66-1.28-8.24,2.76-8.26,21.11-22.34,30.54-45.13,22.7-3.71-1.28-5.29,1.16-6.35,3.92-1.43,3.73,1.75,4.08,4,4.66C405.93,175.28,411.82,176.55,415.09,177.3Zm-28.28-43.81c-.36,6.36,2,11.88,5.77,16.72,1.52,1.94,3,5.74,6.6,3.12,3.83-2.81.07-4.66-1.32-6.71-5.28-7.79-6.12-15.74-.79-23.85,5-7.59,12.14-10.9,21-9.34,8.36,1.46,13.75,6.76,16.73,14.67.87,2.28,1.88,5.15,5.19,3.91,3.78-1.42,1.19-4.24.74-6.32-2.74-12.72-16-21.13-30.21-19.35C397.39,108,386.7,120.2,386.81,133.49Zm43,.15c.1-8.24-6.12-14.14-15-14.24-8.67-.09-15,5.94-15,14.31A15.08,15.08,0,0,0,414.23,149,15.31,15.31,0,0,0,429.81,133.64Zm-17.95,20.74c-2.53,1-7.42-4-8,2.54-.53,5.78,5.06,4.06,7.81,4.67,10.9,2.4,23.63-4.57,27.95-14.92.91-2.19,3.49-5.36-.18-7.14-3.26-1.58-4.65,1-6.18,3.82C428.77,151.64,421.66,155.59,411.86,154.38Z"/><path d="M88,401.49c-9.46,4.1-16.21,6.66-22.6,9.95-2.9,1.49-7.41,3.73-5.59,7.83,2.1,4.73,6.57,2.71,10.28,1.25a32.69,32.69,0,0,0,16.29-13.28c3.65-5.9,9.63-5.08,14.63-5.05,3.7,0,6.58,4.08,7.21,8.3.7,4.67-2.23,7.31-6,9-2.64,1.17-6.33,2.24-5,5.58s5.37,1.72,7.59.75c13.5-5.94,28.2-2.73,42-5.9,5-1.15,9.54.43,10.8,6.06,1.19,5.36-2.5,8.86-7,8.71-24.18-.85-47.54,10.95-72,4.52-3.08-.81-6.49-1-9.2-2.45-7.3-4-14.73-8.75-14.64-18.11.09-9.55,8.32-12.59,15.76-15.16C75,402,79.31,398.86,88,401.49ZM66.51,427.65c7.79,7.11,14.94,7.48,22,2.22,4.88-3.61,4.25-9.66,1.66-13.49-2.38-3.52-5.37,1.32-7.64,2.92A62.19,62.19,0,0,1,66.51,427.65Zm85-.16c-18.72-2.39-36.64-.22-53.76,7.55C115.68,432.51,133.66,430.07,151.47,427.49Z"/><path d="M192.5,450.64c2.19,5.74,4,11.72,6.68,17.26,8.42,17.26,20.61,30.68,39.48,36.83,3.44,1.12,8,2.5,10.16,0,2.82-3.25-1.53-6.19-3.29-9.06-.94-1.51-2.06-2.91-3.08-4.37-7.55-10.78-6.44-14.63,6.17-19.43,7.31-2.78,15-4.78,21.27-9.64,2.52-1.94,5.42-4.55,5.05-7.76-.45-3.88-4.63-2.17-7.12-2.8-22.57-5.75-45.47-8.26-68.64-6-.84-5,2.46-4.29,4.64-4.62,25.35-3.94,49.51,2.8,73.85,8.15,4.81,1.06,4.29,3.41,2.88,6.91-4.62,11.47-13.94,16.73-25.23,19.2-15.61,3.43-16.35,5.21-6.79,18.2.85,1.15,1.81,2.22,2.57,3.42,2.24,3.57,5.63,7.27,2.36,11.59s-8,3.93-12.75,2.73c-22.9-5.75-47.12-32.49-50.66-56.08C189.8,453.61,189.46,451.63,192.5,450.64Z"/><path d="M182.84,524.39c-13.66-.57-24.81-3-34.09-11.56a108.46,108.46,0,0,0-24.5-17c-14-7.09-28.38-8.29-43.35-3.17-2.11.72-5.76,4.34-7.06-.14-.92-3.14,3.28-3.56,5.73-4.55,11.78-4.76,23.64-4,35.53-.52,13.16,3.88,25.48,10.1,35.21,19.39,14.63,14,31,13.56,48.67,9.87,2.45-.51,6.69-4.75,8,.24,1.14,4.43-4.26,3.72-6.87,4.35C193.88,522.84,187.51,523.6,182.84,524.39Z"/><path d="M478.76,133.09c13.46-.82,27.33-.63,36.13-15.11,1.24,4.13,1.94,5.77,2.2,7.47,2.4,15.24,2.17,14.88-12.48,12.11-8.12-1.53-16.76-.27-25.17-.27C479.21,135.89,479,134.49,478.76,133.09Z"/><path d="M452.93,392.63c14.26.95,19.21,7.18,14.52,19-3,7.63-2.23,12.25,6.94,13.52,4.36.6,10.54,1.13,9.32,7.64-1.33,7.18-7.47,6.51-12.87,5.1a121.18,121.18,0,0,1-16.18-5.13c-15.69-6.53-17.43-13.82-6.22-29.36,1.79,8.48-7.12,18.4,4.24,23.66,8,3.7,16.16,6.78,25,6.56.81-2.74-.73-2.65-2-3-15.59-3.8-17.1-6.14-12.19-21.24,1.92-5.9,1.19-9.46-5.15-11.4C456,397.26,452.55,396.59,452.93,392.63Z"/><path d="M383.14,365.2c-1.34,10-10.68,18.69,2.14,23.81,4.36,1.75,8,.18,9.8-3.85,3.6-7.84-4.13-8.89-8.1-12.7,6.39-2.76,10.56.12,12.72,5.55,2.55,6.39.82,12.25-5.86,15.05-7.47,3.13-14.63,1.38-18.28-6C371.73,379.4,374.76,372.67,383.14,365.2Z"/><path d="M413.7,126.31c5.33.54,8.84,2.82,8.8,7.89,0,4.58-2.37,8.76-7.43,8.67-4.39-.08-8.29-2.69-8.41-7.84C406.54,130.16,409.38,127.26,413.7,126.31Z"/></svg>