<svg id="Layer_1" data-name="Layer 1" xmlns="http://www.w3.org/2000/svg" viewBox="0 0 600 600"><defs><style>.cls-1{stroke:#000;stroke-miterlimit:10;stroke-width:1.19px;}</style></defs><title>Artboard 1 copy 53</title><path class="cls-1" d="M345.61,555.86c-22.27,0-44.54.26-66.81-.11a61.62,61.62,0,0,1-29.3-7.5c-1.54-.86-2.68-.25-4,.25-18.54,7.27-37.73,9.79-57.27,6-44.27-8.59-73.6-34.74-85.6-78.1C87.8,422.76,117,367.83,169.27,348.58c20.82-7.67,42.13-8.47,63.61-2.95,2.4.61,3.34-.06,4.49-1.95q25.33-42.06,50.79-84.05a42.14,42.14,0,0,0,6.27-22.11c0-15.32-.1-30.64.1-46,0-3.21-1-3.95-3.92-3.73a23.41,23.41,0,0,1-11.27-1.53c-6.26-2.75-10.51-7.38-11.44-14.15a91.48,91.48,0,0,1,0-25,18.54,18.54,0,0,1,18.27-15.83q15.42-.3,30.84,0c2.78.05,3.37-.83,3.3-3.4-.18-6.35-.13-12.7,0-19,0-1.94-.48-2.61-2.52-2.59-11.09.1-22.18,0-33.26.1a47.11,47.11,0,0,0-18.78,4c-4.43,1.94-8.84,3.92-13.27,5.86-1.06.47-1.79.93-1.78,2.38.13,17.53-7.17,32.15-18.88,44.48C210,186,183.22,197.69,151.4,197.14a65.13,65.13,0,0,1-23.82-5c-23.54-9.69-34-32.45-26.15-56.65,5.63-17.29,16.91-30.32,31.35-40.75C149.91,82.37,169,75.09,190.26,74.11c15.14-.7,29.73,1.67,42.13,11,4.16,3.12,7,3.05,11.34,1,8.68-4.19,17.31-8.72,27.07-10.11a68.89,68.89,0,0,1,9.62-.84h36c3.94,0,4,0,3.86-3.9-.27-6.66,1.05-12.83,5.32-18.13a24.54,24.54,0,0,1,43.78,15c.11,19.76,0,39.51,0,59.27,0,3.86,0,3.87,3.9,3.86,9,0,17.94,0,26.91,0,13.12.06,21.09,8.06,21.1,21.13,0,5,0,10.07,0,15.11-.05,12-8.27,20.3-20.33,20.41-5.73,0-5.72,0-5.72,5.7,0,13.61.15,27.21-.08,40.82a50.85,50.85,0,0,0,7,26.77q33.54,58.62,66.73,117.42c7.11,12.52,14.46,24.92,21.23,37.63,29.12,54.64-2,123.18-62.21,137.34a98.33,98.33,0,0,1-22.47,2.54q-29.93,0-59.87,0ZM460.15,381.12c-.76-1.46-1.15-2.26-1.59-3L393.37,263.26a51.27,51.27,0,0,1-6.88-26c.06-15.52,0-31,0-46.56,0-1.56.23-2.91-2.2-2.89-11,.11-22,.07-32.95,0-1.74,0-2.37.62-2.23,2.31.1,1.1,0,2.21,0,3.32V368.24c0,1.21.06,2.42,0,3.63a4,4,0,0,1-3.92,4.18,4.2,4.2,0,0,1-4.66-3.77,16.14,16.14,0,0,1-.07-2.41q0-36,0-72,0-53.37.05-106.73c0-2.64-.67-3.41-3.36-3.37-10,.16-19.95.06-29.93.07-4.11,0-4.11,0-4.11,4,0,14.71-.14,29.43.05,44.14a54.28,54.28,0,0,1-8.24,29.53c-16.39,26.93-32.61,54-49,80.87-1.52,2.48-1,3.07,1.42,4.09,24.44,10.39,43,27.35,54.26,51.35,3.41,7.28,7.69,9,14.47,8.48.5,0,1-.06,1.51-.07,11.7-.29,22.62-3.72,33.13-8.52,11.63-5.31,23.07-11.07,34.74-16.28,16.44-7.33,33.56-11.28,51.72-9.41A118.09,118.09,0,0,1,460.15,381.12ZM258,542.66a75.48,75.48,0,0,0,26.4,4.68q60.76,0,121.55,0a83.43,83.43,0,0,0,9.35-.5c63.58-7.15,95.18-76.27,66.09-128.47-4.26-7.65-8.65-15.24-12.91-22.9a6.44,6.44,0,0,0-3.24-3c-22.36-9.61-45-10.88-68-2.33-13.16,4.89-25.48,11.57-38.16,17.5-15.12,7.07-30.68,12.35-47.7,11.25-2.74-.17-2.6.68-2.12,2.82,10,43.66-1.72,80.38-35.42,110C269.16,535.82,263.86,539.12,258,542.66ZM107.72,447.1c-1.92,52,41.12,98.18,93.31,100.14,55.14,2.07,101-39.86,103-94.32a98.22,98.22,0,1,0-196.35-5.82Zm47.14-258.51c18.16.06,36.27-5.66,52.77-16.45,13.6-8.88,24.51-20.21,30.88-35.45,8-19.17,2-37.68-15.42-47.31a55.45,55.45,0,0,0-25.52-6.56c-21.85-.64-41.46,6.14-59.13,18.68-12.56,8.92-22.54,20.08-28,34.76-7.87,21.08,1,40.47,22.09,48.37C139.19,187.14,146.12,188.2,154.86,188.59Zm189.56-9.52q28.4,0,56.81,0c6.75,0,11.19-4.43,11.25-11.12.06-5.24,0-10.48,0-15.72,0-8.11-4.1-12.24-12.3-12.25q-55.9-.06-111.81,0c-8,0-12.21,4.32-12.24,12.4q0,7.26,0,14.5c.06,8.12,4.18,12.21,12.34,12.22Q316.47,179.09,344.42,179.07ZM329,98.23h0c0,10,.05,19.94,0,29.9,0,2.21.35,3.2,2.93,3.15,8.65-.18,17.32-.16,26,0,2.38,0,2.79-.8,2.79-3-.08-19.73,0-39.46-.05-59.19,0-9.61-6.74-16.63-15.82-16.61-8.83,0-15.69,7.11-15.76,16.43C329,78.7,329,88.47,329,98.23ZM297.12,83.92v.23c-7.35,0-14.72-.37-22,.09-11.14.7-20.51,6.79-30.52,10.9-1.34.55-.81,1.29-.3,2.11a29,29,0,0,1,3.77,7.86c.69,2.77,1.81,2.82,4.14,1.63,11.62-5.91,23.71-9.82,37-9.28,9.44.38,18.92,0,28.38.12,2.15,0,2.82-.69,2.72-2.76a63.33,63.33,0,0,1,0-8.15c.17-2.39-.81-2.84-3-2.8C310.61,84,303.86,83.92,297.12,83.92Z"/><path class="cls-1" d="M416.93,68.11c-2.62-.3-4.22-1.33-4.72-3.6s.33-4.05,2.33-4.69q10.05-3.23,20.26-6c2.2-.59,4,.72,4.64,2.92s.09,4.35-2.08,5.08C430.49,64.15,423.52,66.12,416.93,68.11Z"/><path class="cls-1" d="M416.92,106.9c.86.23,1.93.49,3,.8,5.3,1.56,10.61,3.09,15.9,4.7,3.09.94,4.38,3,3.69,5.57s-3,3.7-6.06,2.83q-9.13-2.56-18.21-5.39a4,4,0,0,1-3.05-4.87C412.62,108.14,414.28,107,416.92,106.9Z"/><path class="cls-1" d="M431.69,83.12c3.12,0,6.24-.05,9.35,0,2.77.06,4.55,1.7,4.66,4.1a4.29,4.29,0,0,1-4.52,4.58c-6.43.11-12.87.1-19.3,0a4.26,4.26,0,0,1-4.51-4.27c0-2.54,1.79-4.35,4.67-4.42C425.26,83.05,428.47,83.11,431.69,83.12Z"/><path class="cls-1" d="M455.12,56.93c-3,0-4.63-1-5.15-3.3s.18-4.23,2.39-5q7.58-2.51,15.31-4.5c2.19-.56,3.95.6,4.75,2.78s.19,4.39-1.87,5.14C465.28,54,459.84,55.48,455.12,56.93Z"/><path class="cls-1" d="M402,105.81a4.27,4.27,0,0,1-5.41,4.14c-4.86-1.24-9.68-2.69-14.46-4.21a4,4,0,0,1-2.87-5.25,3.88,3.88,0,0,1,5.05-3.09c5.06,1.29,10.06,2.84,15,4.39C401.21,102.37,401.84,104,402,105.81Z"/><path class="cls-1" d="M383.76,77.76c-2.37-.27-4-1.1-4.5-3.29s.12-4.26,2.32-5c5.14-1.72,10.34-3.3,15.61-4.59,2.13-.53,3.89.77,4.58,3,.63,2.09.06,4-1.89,4.87C394.61,75,389,76.19,383.76,77.76Z"/><path class="cls-1" d="M472.72,126.4c0,2.63-2,4.79-4.65,4.31a95.53,95.53,0,0,1-15.89-4.58c-2.14-.8-2.75-2.9-2.14-5.07s2.4-3.54,4.57-3c5.25,1.3,10.43,2.93,15.6,4.57A3.67,3.67,0,0,1,472.72,126.4Z"/><path class="cls-1" d="M468.66,83.12c2.31,0,4.62-.06,6.93,0,2.76.09,4.48,1.75,4.54,4.22s-1.72,4.42-4.6,4.47c-4.73.08-9.46.09-14.18,0-2.91,0-4.75-1.89-4.72-4.4s1.86-4.22,4.79-4.29C463.83,83.07,466.24,83.12,468.66,83.12Z"/><path class="cls-1" d="M394.62,91.85c-2.42,0-4.83.09-7.24,0-2.73-.13-4.43-1.87-4.45-4.34s1.66-4.24,4.42-4.3q7.38-.17,14.78,0a4,4,0,0,1,4.27,4.13,4.17,4.17,0,0,1-4.25,4.51c-2.5.13-5,0-7.53,0Z"/><path class="cls-1" d="M419.81,489.09a33.72,33.72,0,1,1,.24-67.44c18.06-.07,33.38,15.4,33.38,33.72A33.79,33.79,0,0,1,419.81,489.09Zm-.31-8.83a24.91,24.91,0,1,0,.1-49.82,24.91,24.91,0,0,0-.1,49.82Z"/><path class="cls-1" d="M205.71,519.56a72.07,72.07,0,0,1-32-7.94c-4.86-2.51-5.35-5.32-1.56-9.12q43.68-43.69,87.38-87.37c3.37-3.37,6.42-2.9,8.62,1.29,23,43.85-5.33,97.08-54.65,102.52C210.93,519.23,208.32,519.36,205.71,519.56ZM262,424.42a41.81,41.81,0,0,1-2.74,3.43q-37.59,37.62-75.2,75.19c-2.64,2.64-2.67,2.73,1.09,4,22.47,7.37,43.19,3.94,61-11.6s24.13-35.59,19.92-58.86A39.34,39.34,0,0,0,262,424.42Z"/><path class="cls-1" d="M203.31,378.83c14.14,0,24.89,2.67,35,7.84,4.61,2.36,5,5.31,1.3,9q-43.56,43.59-87.15,87.14c-3.85,3.85-6.61,3.34-9.11-1.55C119.35,434.24,152.84,379.5,203.31,378.83Zm27,13.95a54.27,54.27,0,0,0-19.93-5.09c-44-3.39-77.35,40.36-62.49,81.91,1.41,3.95,1.39,3.92,4.27,1Q182.8,440,213.47,409.36C219,403.9,224.49,398.5,230.3,392.78Z"/></svg>