<svg id="Layer_1" data-name="Layer 1" xmlns="http://www.w3.org/2000/svg" viewBox="0 0 600 600"><title>Artboard 1 copy 36</title><path d="M278.83,499.9c17.86-3.36,36.23-5.06,53.46-10.44,37-11.56,55.14-44.9,47.22-83-4.89-23.49-16.3-43.95-30.44-62.77-18-24-37.85-46.56-55.5-70.76-39.48-54.15-70.4-113.37-100-173.27-2.84-5.73-3.62-11.44,3.17-14.64S207,86.46,210,92c26.76,48.38,52.69,97.26,81,144.74,13.29,22.32,31.59,41.62,46.89,62.81,15.92,22,32.14,44,46,67.35,13.1,22,18.13,46.75,13.63,72.51-6.6,37.82-30.47,59.64-66.31,69.76-21.18,6-42.88,7.58-64.81,6.55-6.35-.3-11.92-2.3-11.68-9.62s5.72-9,12.26-8.49c3.8.3,7.63.06,11.45.06Z"/><path d="M295.23,472.61c-21.28-.41-39,5-54.93,16-8.07,5.57-15.85,11.56-23.91,17.15-17.57,12.17-35.27,12.41-53.44.91-30.14-19.06-41-47.35-29.22-80.9,4.19-11.92,11.37-22.82,17.49-34,2.9-5.3,7.88-7.2,13.14-3.9,5.82,3.65,4.72,8.59,1.76,14.19-6.07,11.49-13,22.87-16.74,35.17a46.62,46.62,0,0,0,33.42,58.6c6.07,1.53,14.2-.35,20-3.36,9.57-5,17.93-12.3,26.91-18.47q33.29-22.94,73.56-18.94c6.57.65,11.68,2.89,11,10.12s-6.24,8.81-12.72,8C298.81,472.83,296.08,472.69,295.23,472.61Z"/><path d="M419.67,217.63c-4.4,10.8-7.19,21.46-12.73,30.41-9.53,15.38-10.74,29.85-.36,44.88,3.56,5.14,4.63,10.41-1.12,14.22-6,4-10.54.79-14.27-4.63-13.2-19.21-14-42-.88-61.23,10.12-14.84,11.86-29.39,1.94-44.82-3.09-4.81-2.88-9.56,2.06-12.87,5.31-3.55,10.56-2,13.08,3.43C411.9,196.68,415.4,206.81,419.67,217.63Z"/><path d="M434.24,165.26c4.28-10.39,8.07-20.69,12.77-30.55,2.72-5.71,8.3-7.51,13.73-3.82,5.21,3.54,4.67,8.68,1.26,13.6-10,14.45-9.58,28.83.09,43.29a51.73,51.73,0,0,1,8.7,33.3c-.42,6-3.06,10.29-9.38,10s-9.06-4.66-8.62-10.65c.71-9.74-3.22-17.72-7.62-26.1C440.61,185.66,438.12,175.88,434.24,165.26Z"/><path d="M362.93,214.88c.25,14.66-3.92,25.66-11.23,35.61-3.37,4.57-7.71,6.53-12.67,3.27-5.19-3.41-5.79-8.43-2.19-13.48,11.26-15.79,10.56-31.25-.46-46.9-2.45-3.46-4.72-7.86-4.84-11.89-.09-3.27,2.43-8,5.19-9.53,2.29-1.23,8.65.29,9.74,2.39C353.55,187.92,364.34,200.23,362.93,214.88Z"/><path d="M453.27,308.75c-6.27-.8-16-15.68-13.5-21.52,1.11-2.58,4.16-5.46,6.77-6s6.59,1,8.43,3.08a47.24,47.24,0,0,1,7.59,12.34A8.67,8.67,0,0,1,453.27,308.75Z"/><path d="M457.32,256.26c-3.23,2.49-6.2,6.45-9.77,7.12-5.6,1.05-9.28-3.15-9.28-8.73,0-5.18,3.43-9.3,8.72-8.45,3.66.6,6.84,4.11,10.23,6.32C457.25,253.77,457.29,255,457.32,256.26Z"/><path d="M332.78,143.21c3.3-2.36,6.32-6,10-6.78,5.37-1.22,8.79,2.82,9.1,8,.35,5.71-3.31,9.91-8.83,9.22-3.61-.44-6.8-4.32-10.17-6.67Z"/><path d="M193.08,369.63c-3.4,2.36-6.59,6.23-10.24,6.73-5.54.74-9.1-3.3-8.83-9.17.26-5.48,3.93-9.09,9.08-8,3.68.78,6.73,4.51,10.07,6.93C193.13,367.29,193.1,368.46,193.08,369.63Z"/></svg>