<svg id="Layer_1" data-name="Layer 1" xmlns="http://www.w3.org/2000/svg" viewBox="0 0 600 600"><title>Artboard 1 copy 15</title><path d="M328.94,156c11.08-27.76,21.38-55.44,33.15-82.47,10.62-24.37,30.69-27,49.7-6.93,10.09-9,22-12.84,35.2-8.27s19.55,14.81,21.27,28.91c3.05-.17,5.6-.39,8.16-.44,19.58-.37,31.73,14.86,26.86,34-2.21,8.68-5.11,17.19-7.76,26,29.66.52,39.67,14.74,30.46,42Q474.61,341.21,423.51,493.61c-1.15,3.43,1,9,3.29,12.33,6.81,9.8,8.08,20.58,1.64,29.66S413,548.94,401.71,545.67c-59.37-17.19-118.12-36.18-173.06-65-6.86-3.6-13.47-11.54-15.86-18.89-4.2-12.88,4.51-25.66,17.94-28,6.68-1.17,8.6-4.25,10.18-9.75,9-31.3,18-62.59,27.44-93.76a61.25,61.25,0,0,0-4.55-47.48c-8.48-16.2-12.4-33-8.06-50.48,5.43-21.92,10.71-44.25,19.65-64.84C286.78,141.25,307.32,138.06,328.94,156ZM248.22,435.43c28.62,10.83,55.94,21,83,31.67,3.36,1.32,5.58,5.53,8.33,8.4-4,.32-8.39,2-11.79.74-27.78-10-55.41-20.53-83-31.07-8.91-3.4-16.72-3.07-21.29,6.29-4.79,9.85,1.06,16,9.12,20.12,54.13,28,111.9,46.33,169.93,63.91,8.28,2.51,15.67,0,18.62-8.54,3.08-8.86-.73-15.51-9.65-18.91-8.49-3.25-17.11-6.22-25.38-10-2.15-1-3.24-4.29-4.82-6.53,2.86-1,6.07-3.26,8.5-2.61,7.07,1.88,13.83,4.95,20.92,7.63,1.72-4.23,3-6.95,4-9.79q51.33-152.31,102.59-304.65c3.93-11.68.8-20.61-8-23.82-9.56-3.5-17.59,1.3-21.76,14C481.42,191,476,210,469.78,228.66c-.94,2.81-4.52,4.75-6.88,7.09-.93-3.17-3.17-6.62-2.56-9.45,2.18-10,5.12-19.79,8.15-29.55,8.1-26,16.56-51.93,24.52-78,3-9.91-1.31-18.3-10.19-20.81-9.77-2.76-16.05,1.79-19.77,10.58-1.62,3.84-3,7.78-4.31,11.74-9.84,30.24-19.49,60.53-29.62,90.67-1.05,3.13-4.8,5.34-7.3,8-.71-3.64-1.61-7.25-2-10.92-.17-1.39.7-2.92,1.18-4.36,11.56-35.25,23.27-70.46,34.64-105.77,4.63-14.36-.22-25.41-12.28-29.87-11.89-4.39-23,1.14-28.15,15.53-8,22.45-15.24,45.2-22.63,67.88-4.7,14.4-8.91,29-13.83,43.29-.73,2.13-4.12,3.35-6.28,5-1.05-2.53-2.67-5-3-7.6-.23-2.07,1.15-4.32,1.83-6.49q14.91-47.09,29.84-94.17c4.45-14,2.26-22.66-6.89-26.48-9.74-4.08-17.7.38-23.95,14.65-6.68,15.25-13.39,30.58-18.66,46.36-10.91,32.68-20.71,65.73-31.44,98.48-1.38,4.24-6.9,11.22-8.17,10.74-8.58-3.24-2.26-9.5-1.09-14.14,3.16-12.46,7.51-24.62,10.95-37,3.89-14,.08-23.59-10.34-27.57-10-3.83-20.57,0-25.54,12.78-7.88,20.31-14.15,41.33-19.74,62.42-4,15-1.88,29.88,5.57,44.1q15.14,28.89,5.45,60.59C267.3,368.83,258.1,401.59,248.22,435.43Z"/><path d="M144.77,82.78c15.81-28.91,37.4-31.69,60.36-7.75,23.45-17.44,45.51-3.49,47.52,20.81.52,6.39,2.23,12.67,3.28,18.4,7.71-1.64,15.1-4.31,22.56-4.53,10-.29,17,5.89,20.79,14.93,1,2.31-.77,5.73-1.27,8.64-2.42-1-6-1.38-7.07-3.2-4.92-8.68-11.24-13.73-21.32-9.31-10.58,4.65-9.68,13.78-8.71,23.34.53,5.2-1.49,10.65-2.35,16-2.51-4.79-6.23-9.32-7.31-14.41-3.78-17.77-6.45-35.77-9.95-53.61-2-10.21-9.69-15.84-18.78-14-9.88,2-14,9-12.48,18.5,5.43,34.82,11.22,69.57,16.89,104.35.06.37.39.77.31,1.08-1,3.78-2.13,7.55-3.21,11.33-2.34-2.92-6.11-5.55-6.79-8.82-3.64-17.42-6.72-35-9.58-52.54-3.34-20.57-6.13-41.23-9.43-61.8-2.09-13-11.93-21.63-23.06-20.75-12.26,1-21.39,10.85-19.54,24.57,4.1,30.38,9.62,60.57,14.65,90.83,1.36,8.22,3.49,16.35,4.26,24.62.3,3.14-2.25,6.54-3.5,9.83-2.11-2.58-5.6-4.91-6.14-7.78-5.78-30.91-11.1-61.9-16.54-92.87-.85-4.86-1.4-9.78-2.56-14.56-2.23-9.19-7.92-15.24-17.74-14C118.5,91.38,113,98,114.12,107.77c4,34.6,8.36,69.17,12.91,103.7,1.29,9.76,4,19.31,5.49,29.05,1.88,12.24,8.37,19.51,20.45,22.91,28.41,8,50,24.91,63.24,51.55,1.44,2.89.14,7.15.11,10.78-3-2-7.24-3.25-8.74-6-12.76-23.6-31.43-39.5-57.57-46.4-15.42-4.07-24.89-13.63-27.2-29.88a136.74,136.74,0,0,0-4.14-18.86c-3.11-10.77-10.92-16.22-21.07-14.93-10.72,1.37-16.92,8.49-16.66,18.44.42,15.81,1.69,31.83,4.89,47.28,5.23,25.25,14.88,47.82,38.13,63.35,19.92,13.31,25.25,35.74,29.27,58.28,5.24,29.4,11.49,58.63,17.51,88.93,10.85-1.29,20.89-3,31-3.45,4-.19,8.17,2.28,12.26,3.54-3.83,2.21-7.44,5.61-11.54,6.38-10.78,2-21.78,2.9-32.68,4.31-8.84,1.14-14.23,6.32-13.65,15.13S163,525.5,171.75,525c29.88-1.86,59.73-4.17,89.59-6.37,4.16-.3,8.34-1.52,12.41-1.17,2.35.2,4.51,2.7,6.75,4.17-2,1.8-3.78,4.87-6,5.21-15.35,2.37-30.75,4.74-46.22,6-18.52,1.51-37.12,2.12-55.7,2.72-11.71.38-20.85-4.49-25-15.88-4.11-11.18-.86-20.55,7.9-28.69,2.42-2.25,4.28-7.13,3.69-10.29-6-32-12.84-63.87-19-95.85-3.18-16.45-10.68-30.7-24.41-39.68-21.33-13.95-31.85-34.25-37.26-57.65-3.83-16.52-7-33.49-7.66-50.36-1.2-30.31,12.5-41.33,43.14-36.21-2.31-17-4.78-33.73-6.78-50.49-1.35-11.29-2.21-22.65-3-34C102,86.5,115.81,75.14,144.77,82.78Z"/><path d="M393.08,442.33c-10.88-3.34-19.65-5.6-28.1-8.72-16.67-6.14-33.3-12.42-49.68-19.28-11.9-5-15.65-13.2-12-25.67,11.06-37.5,18.19-39.07,49.2-27.44,17.69,6.64,35.45,13.14,52.93,20.28,13.83,5.65,17.34,14,12.25,28.14-2.68,7.44-5.37,15.23-9.92,21.51C404.21,436.07,397.78,438.91,393.08,442.33Zm-2.9-10c3.41-2.58,7.45-4.28,9.25-7.3,3.63-6.11,6-13,9-19.49,3.23-7.15.46-11.66-6.36-14.2-22.64-8.43-45.33-16.73-68-25.19-7.38-2.76-12.22.32-14.07,7C317.3,383,306.8,392,316.26,403.33a2.46,2.46,0,0,0,1,.53Z"/></svg>