<svg id="Layer_1" data-name="Layer 1" xmlns="http://www.w3.org/2000/svg" viewBox="0 0 600 600"><title>Artboard 1 copy 27</title><path d="M299,63.07c35.89,0,71.78-.12,107.67,0,28.38.12,43.26,14.67,43.56,43.16.37,34.8-.18,69.61.37,104.4.09,5.82,3.66,11.61,5.8,17.35,1.66,4.45,5,8.72,5.16,13.17.65,15.2,4.36,31.89-.43,45.42-23.41,66.06-5.65,133.76-10.35,200.46-2.6,36.85-13.39,49.87-50.44,49.88q-102.76,0-205.54,0c-31.57,0-46-14.17-46.06-45.62-.17-56.55.24-113.11-.4-169.65-.08-7.78-4.93-15.46-7.32-23.26-1.56-5.07-4.18-10.44-3.68-15.4,2.06-20.76-7.89-43.57,10.47-61.87,2.26-2.26.84-8.38.85-12.71.05-33.17-.1-66.34.07-99.51.15-31.6,14.39-45.75,45.87-45.82C229.4,63,264.2,63.07,299,63.07ZM160.23,305.74c-.36,6-.9,10.74-.91,15.51q-.09,84.74,0,169.47c.06,26.82,9.56,36.19,36.31,36.21q103.47.11,206.94,0c27.84,0,37.08-9.15,37.13-37q.17-83.91,0-167.83c0-5.23-.66-10.45-1.05-16.34Zm-.95-83.38H438.8c0-43,1-85.17-.57-127.25-.54-14.47-13.09-21.92-27.92-22q-110.78-.18-221.55.06c-17.65.07-28.36,10.68-29.21,28.28-.71,14.63-.25,29.32-.27,44C159.26,170.83,159.28,196.17,159.28,222.36Zm140.13,72.71H408.57c43.83,0,43.25,0,43.63-43.87.13-14.76-5.15-18.32-19-18.23-80.38.53-160.76.26-241.14.26-46,0-45.52,0-45.21,45.46.09,13.15,4.91,16.73,17.32,16.59C209.25,294.74,254.33,295.07,299.41,295.07Z"/><path d="M220.29,204.05c-14.34.09-18.3-7.37-13-22.26,7.92-22.13,7.69-45,.19-67.15-5.54-16.33-.63-23.25,17-22.46Q289.23,95.09,354,96.53c7.91.18,15.83-3.79,23.85-4.26,14.42-.87,19,7.11,14.26,20.83-8,23.24-8.37,46.84.08,70.14,4.94,13.64.08,21.3-14.41,20.86-42.08-1.28-84.15-3.08-126.25-3.95C241.5,200,231.37,202.59,220.29,204.05Zm-.76-12.68h163c-9.42-28.66-7.75-58.23-.76-86.61H219.53Z"/></svg>