<svg id="Layer_1" data-name="Layer 1" xmlns="http://www.w3.org/2000/svg" viewBox="0 0 600 600"><title>Artboard 1 copy 44</title><path d="M161.94,478.71q0-12.46,0-24.92a1.89,1.89,0,0,0-.69-1.68c-4.53-3.56-5.67-8.73-6.52-14-.14-.86.16-1.85-.74-2.65a52.8,52.8,0,0,1-6.47,4.48,24.45,24.45,0,0,1-6.4,2.33c-2.16.44-3.17.05-3.12-2.52.09-4.76-.52-5.22-5.11-4.7-1.78.2-1.22-1-1.13-1.71.48-4.22,2.54-7.76,4.92-11.15.58-.81,1.23-1.57,1.87-2.38-.83-1-1.91-.66-2.83-.8-3.83-.6-7.52-1.51-10.78-3.73-5.49-3.76-5.61-10-.2-13.83a24.25,24.25,0,0,1,10.74-3.83c1-.15,2,0,3-.67-1.66-2.51-3.59-4.81-4.86-7.52a17.64,17.64,0,0,1-1.95-7.08c-.12-5.36,3.67-8.77,9-8.07,4.21.55,7.71,2.67,11,5.14.78.57,1.37,1.45,2.59,1.66.35-2.09.61-4.14,1-6.16a20.31,20.31,0,0,1,3.38-8c3.77-5.08,9.54-5,13.24.14,2.46,3.45,3.36,7.45,3.94,11.55.12.81.17,1.62.29,2.76,1.85-1.32,3.49-2.59,5.21-3.71a20.65,20.65,0,0,1,8.32-3.34c5.72-.82,9.87,3.19,9.14,8.93-.67,5.28-3.54,9.49-7,13.82,2.05.36,3.87.66,5.68,1a20.62,20.62,0,0,1,8.75,3.7c4.81,3.69,4.75,9.58-.15,13.17a24.08,24.08,0,0,1-10.94,4c-1,.15-2,.26-3.07.4.05,1.1.84,1.63,1.35,2.31,2.6,3.48,4.78,7.15,5.37,11.54.79,5.91-3.4,10-9.25,9.05a23,23,0,0,1-9.89-4.46l-3.48-2.59a43.18,43.18,0,0,1-1.83,9.39c-1,2.79-2.26,5.41-4.67,7.27a2.38,2.38,0,0,0-1,2.06q0,12.45,0,24.91c.9.23,1-.5,1.23-.88,7.64-11.6,18.81-15.57,32.12-14.87a58.28,58.28,0,0,1,12.15,2A3.62,3.62,0,0,1,217.3,469c-.21,12.48-11.2,28.66-22.77,33.3-7.33,2.94-15,3.14-22.65,1.82-2.6-.45-3.24.14-3.19,2.76.15,9.13.12,18.27,0,27.41,0,2.18.48,3,2.84,3q61.28-.1,122.53,0c2,0,2.66-.48,2.64-2.58q-.15-18.49,0-37c0-2.46-.72-2.88-3-2.43a58.08,58.08,0,0,1-19.9.53c-11.87-1.72-20.85-7.84-27.22-17.9a67.53,67.53,0,0,1-9-23.11c-.46-2.3-.18-4.35,2.42-5.05,13.57-3.64,27-4.53,40,2.22,6.35,3.3,10.89,8.51,14.63,14.47a8.09,8.09,0,0,0,1.93,2.31V466q0-7.68,0-15.35c0-3.6.87-4.3,4.52-3.48,1.33.3,1.39-.52,1.39-1.37,0-2.65,0-5.3-.06-7.95a3.26,3.26,0,0,0-2.3-3.06c-1.17-.55-2.76.73-3.31-.15-2.13-3.41-5.86-5.63-7-9.82-.6-2.29-1.41-4.54-1.81-6.87s-.56-4.48-.87-7c-1.83,1.46-3.42,2.78-5.07,4a26.7,26.7,0,0,1-12.09,5.5c-6,.89-10.44-2.95-10.24-9.05s3.39-10.87,6.9-15.5c.76-1,1.62-1.92,2.65-3.14-2.89-.4-5.47-.68-8-1.13a26.61,26.61,0,0,1-9.68-3.62c-6.79-4.3-6.88-11.83-.15-16.24a29.47,29.47,0,0,1,12.88-4.25c1.51-.19,3-.32,5.05-.53A46.65,46.65,0,0,1,261.91,356a19.31,19.31,0,0,1-2.08-7.88c-.12-6.09,4.23-10,10.28-9.05,5,.75,9.25,3.25,13.2,6.31,1.27,1,2.49,2,4,3.26.5-4.58.86-8.84,2.3-12.89a22.16,22.16,0,0,1,2.92-5.86c4.27-5.88,11.11-5.74,15.2.34a29.24,29.24,0,0,1,4.36,12.85c.23,1.71.38,3.43.61,5.49,1.94-1.52,3.66-2.94,5.46-4.26a27,27,0,0,1,11.36-5.19c6.3-1.09,10.89,2.81,10.62,9.18s-3.79,11.3-7.49,16.11c-.56.71-1.18,1.38-2,2.32,2.9.42,5.57.72,8.2,1.22a24.14,24.14,0,0,1,10.31,4.18c5.85,4.44,5.76,11-.23,15.3-4.05,2.91-8.76,4-13.6,4.62-1.43.19-2.88.27-4.61.43,1.79,2.42,3.55,4.57,5.06,6.89,2.37,3.61,4.3,7.44,4.38,11.92.11,6.11-4.23,9.92-10.28,9a27,27,0,0,1-12.09-5.5c-1.61-1.19-3.13-2.5-5-4.06-.24,2.06-.37,3.9-.68,5.7-1.06,6.18-2.34,12.28-8,16.21-.82.58-.77,1.38-.77,2.2v33.68c.89.15.94-.53,1.19-1,9-15.75,23-21.62,40.53-20.53a68,68,0,0,1,14.28,2.41c2.46.69,3.57,2.18,3.09,4.65-2.15,10.91-6,21-13.48,29.55-7.23,8.26-16.63,11.9-27.36,12.55a57.84,57.84,0,0,1-15.81-1.08c-1.91-.41-2.49,0-2.48,2.06q.15,18.63,0,37.28c0,2.21.65,2.74,2.77,2.73,16.81-.07,33.63,0,50.44,0,23.85,0,47.7,0,71.54,0,2.4,0,3.33-.47,3.28-3.11-.16-9.13-.14-18.27,0-27.41,0-2.48-.54-3-3.05-2.63-8.82,1.45-17.54,1.12-25.66-3.12-9.25-4.83-14.15-13.17-17.51-22.6a78.46,78.46,0,0,1-2.26-8.45c-.59-2.57.46-4.22,3.06-4.9,8.25-2.17,16.56-2.9,24.93-.92,8.75,2.07,15.17,7.33,19.84,14.87.94-.34.58-1.1.58-1.64q0-11.38,0-22.75c0-.88.19-1.79-.7-2.5-4.71-3.72-5.72-9.12-6.54-14.59-.09-.62-.15-1.24-.21-1.84-1-.35-1.37.47-1.91.88-3.43,2.64-7,4.94-11.39,5.68-6,1-10.23-3.14-9.38-9.16.59-4.19,2.62-7.74,5.08-11.09.54-.73,1.11-1.43,1.78-2.31-2-1-4.17-.67-6.13-1.24-3-.87-5.95-1.77-8.42-3.8-4.49-3.68-4.44-9.26.18-12.83,3.28-2.55,7.16-3.54,11.16-4.18,1-.16,1.95-.27,3.18-.44-1.53-2.32-3-4.36-4.26-6.51a16.69,16.69,0,0,1-2.65-8.82c.06-5,4-8.26,8.92-7.58,4.33.59,7.89,2.74,11.3,5.26.71.52,1.41,1.06,2.3,1.72.51-2.65.9-5,1.45-7.39a18.74,18.74,0,0,1,3.08-7c3.71-5,9.63-5,13.25.15,2.37,3.38,3.32,7.28,3.91,11.29.12.87.2,1.75.34,3,1.57-1.15,2.85-2.11,4.16-3a20.86,20.86,0,0,1,10-4.11c4.93-.45,8.5,2.82,8.51,7.78,0,3.81-1.59,7.08-3.52,10.21-1,1.61-2.17,3.11-3.39,4.86,2.65.67,5.22.7,7.64,1.48a20.77,20.77,0,0,1,6.84,3.35c4.48,3.57,4.54,9,.12,12.65-3.29,2.7-7.25,3.75-11.35,4.38-1.06.16-2.12.29-3.43.47,2.48,3.26,4.76,6.24,6,9.81a6.73,6.73,0,0,1,.48,2.37c0,.62-.23,1.09-1.21.46-2.75-1.78-4.05-1.07-4,2.06.06,2.26-.34,4.53.26,6.77.3,1.12-.65,1.4-1.4,1.45-1,.07-1.28-.32-1-1.5.46-2-.4-4.21,1.11-6.21.61-.79-.22-2.28-.73-3.35-3.4-7.15-8.59-12.38-16.19-15-.7-.25-1.44-.49-2.06.1s-.29,1.23,0,1.78c1,2,1.45,4.12,2.66,6,.64,1,2.75,2.19,0,3.34-.26.11-.15,1.2-.16,1.83,0,3.29,0,6.58-.1,9.86a13.81,13.81,0,0,1-1.66,6.45c-.59-2.93-.22-5.42-.32-7.89-.1-2.64-.38-5.16-3.25-6.35-.85-.36-.91-1.08-.93-1.81-.11-3.1-1.56-5.79-2.64-8.59-.27-.71-.68-1.47-1.47-1.42s-1.08.83-1.42,1.51c-3,6-3.34,12.26-2,18.69.46,2.22,1.14,4.37,1.4,6.66.36,3.36,2.27,4.21,5.2,2.54,1.16-.66,1.36.16,1.94.7s.86,1.26,0,1.7c-1.88.94-1.66,2.6-1.65,4.24q0,10.28,0,20.56v2.63c1,.05,1.13-.61,1.4-1,7.69-11.59,18.93-15.43,32.21-14.7a54,54,0,0,1,11.87,2c2.26.65,3.49,2,3.05,4.42-1.85,9.88-5.45,19-12.66,26.24s-16.45,9.41-26.39,9.06a65.26,65.26,0,0,1-7.35-.8c-1.41-.21-2.17-.1-2.15,1.68q.09,14.79,0,29.6c0,1.4.42,2,1.86,2,.72-.05,1.46,0,2.19,0h96.22c4.07,0,5.72,1,5.7,3.43S542.36,544,538.2,544H61.25a10.79,10.79,0,0,1-2.73-.16A3.11,3.11,0,0,1,56,540.37a3,3,0,0,1,2.66-3,26.15,26.15,0,0,1,3.55-.14h96.22c3.49,0,3.49,0,3.49-3.54,0-9.14-.07-18.28,0-27.41,0-2.22-.62-2.53-2.66-2.21-10.78,1.7-21.24,1.15-30.32-5.77-7.66-5.83-11.68-14.1-14.32-23.13s-2.1-9.65,7-11.27a46.93,46.93,0,0,1,21.44.71,30.41,30.41,0,0,1,16.54,12c.56.79,1.14,1.56,1.72,2.35Zm96.52-24.85A66.61,66.61,0,0,0,246.79,455c-1.79.33-2,1.13-1.55,2.64a66.1,66.1,0,0,0,4.79,12.5c3.63,6.93,8.32,12.9,15.69,16.19,9.42,4.2,19.16,3.81,29,1.81,1.45-.29,1.17-1.08.93-2a69.78,69.78,0,0,0-3.72-10.57C285.48,461.1,274.65,453.38,258.46,453.86Zm59.21,35.74c9.61-.14,18.13-2.21,24.88-9,6.49-6.56,9.95-14.73,12.33-23.47.43-1.61-.44-1.78-1.67-2a57.91,57.91,0,0,0-17.17-1c-6.29.61-12.16,2.49-17.09,6.62-8.07,6.75-12,15.88-14.68,25.73-.34,1.25.19,1.52,1.28,1.76A69,69,0,0,0,317.67,489.6Zm151.61-19.75c-11.89-.07-19.34,3.8-24.94,12.76a38.94,38.94,0,0,0-4.16,8.92c-2,6.23-2.6,5.22,3.69,6.12,15.09,2.14,25.54-3.24,31.82-16.16a74.72,74.72,0,0,0,3.13-8.17c.71-2,0-2.57-1.85-2.79A55.57,55.57,0,0,0,469.28,469.85Zm-338.47,0a42.59,42.59,0,0,0-8.57.87c-1,.19-1.67.42-1.27,1.77,1.78,6.1,4.2,11.88,8.38,16.77,6.75,7.92,15.76,9.53,25.38,8.51,8.07-.86,7.36.21,4.69-7.23C154.27,476.16,145.36,469.78,130.81,469.84ZM179.56,498c13.17,0,21.31-5.07,26.78-16.54.79-1.65,1.48-3.34,2.11-5.05,2-5.47,2-5.61-3.78-6.24-11.22-1.21-21.38.61-28.41,10.65a48.5,48.5,0,0,0-6.51,14.1c-.52,1.74.24,2.06,1.58,2.28A45.15,45.15,0,0,0,179.56,498ZM400,469.85a45.38,45.38,0,0,0-8.42.85c-.94.16-1.7.32-1.29,1.74,2.08,7.31,5.05,14.16,10.84,19.31,7.16,6.37,15.85,6.94,24.79,5.84,6.07-.75,5-.46,3.41-5.5C424.32,476.77,415.12,469.76,400,469.85ZM305.8,409c.31-5.1-1.42-9.69-3.42-14.21-.46-1.07-1-2.29-2.48-2.19s-1.92,1.26-2.38,2.37-1,2.36-1.39,3.56a33.61,33.61,0,0,0,1.11,25.76c.55,1.22,1.28,2.66,2.86,2.61,1.42,0,2-1.43,2.63-2.54C305.32,419.56,305.73,414.3,305.8,409Zm0-59.12a34.65,34.65,0,0,0-1.88-12.07c-.81-2.1-1.45-5.13-3.86-5.14-2.6,0-3.31,3.07-4,5.28-3,9.24-2.6,18.31,1.74,27.09.44.91,1,1.82,2.15,1.87a2.42,2.42,0,0,0,2.22-1.76C304.28,360.29,306.24,355.38,305.8,349.88Zm-39.23-1.35a2.66,2.66,0,0,0,.09.68,19.1,19.1,0,0,0,.84,2.59A34.37,34.37,0,0,0,288.32,371c1,.34,2,.48,2.77-.41a2.84,2.84,0,0,0,.22-2.85c-2.85-8.85-8.65-15.25-16.55-19.87a13.39,13.39,0,0,0-5.9-2C267.29,345.78,266.44,346.47,266.57,348.53Zm66.89-.44c.07-1.67-.82-2.38-2.37-2.18a11.92,11.92,0,0,0-3.42.85c-9.37,4.37-15.87,11.36-19.07,21.28a2.42,2.42,0,0,0,.32,2.57,2.44,2.44,0,0,0,2.8.41c9.16-3.13,15.72-9.25,20.15-17.75A12.73,12.73,0,0,0,333.46,348.09ZM291.51,391c.06-2.38-1.12-3.24-3.11-2.57-9.81,3.32-16.67,9.89-20.9,19.25-.77,1.69-1.95,3.85-.35,5.36s3.7.35,5.41-.42a35.65,35.65,0,0,0,16-14.48C290,395.85,290.66,393.13,291.51,391Zm19.5-2.73c-2.29,0-3,1.2-2.29,3.47,3.22,9.8,9.72,16.69,19,21,1.61.75,3.67,1.71,5.14.3s.4-3.5-.26-5.12a35.5,35.5,0,0,0-14.67-16.77C315.74,389.8,313.12,389.13,311,388.28Zm17.32-14.43c-4.19-.48-9,1.51-13.79,3.6a2.72,2.72,0,0,0-1.89,2.18c-.06,1.25.91,1.95,1.92,2.42,1.24.58,2.53,1,3.81,1.52a31.67,31.67,0,0,0,25.75-1.16c3.4-1.63,3.31-3.53,0-5.4C339.59,374.48,334.62,373.91,328.33,373.85Zm-56.74,11.76c4.4.52,9.17-1.58,14-3.61a2.67,2.67,0,0,0,1.82-2.23c.06-1.14-.87-1.79-1.77-2.23-1.22-.59-2.53-1-3.8-1.5-8.69-3.52-17.25-2.83-25.69.84-1.21.53-2.67,1.28-2.68,2.83s1.43,2.22,2.63,2.85C260.6,385,265.53,385.63,271.59,385.61ZM409.83,435.4a8.09,8.09,0,0,0,1.34-.4,27.61,27.61,0,0,0,15.77-17.08c.2-.6.39-1.27-.25-1.74s-1.4-.11-2.08.12c-7.21,2.43-12.11,7.46-15.65,14a10.43,10.43,0,0,0-1.15,3.62C407.66,435.13,408.12,435.65,409.83,435.4Zm-269.73.07a4.9,4.9,0,0,0,.68-.11,8.22,8.22,0,0,0,1.3-.42,27.75,27.75,0,0,0,15.54-17c.21-.61.42-1.27-.22-1.74s-1.39-.17-2.08.06a26.32,26.32,0,0,0-12.92,9.61,19.51,19.51,0,0,0-3.88,7.74C138.25,434.92,138.56,435.6,140.1,435.47ZM409.71,381.1c-1.65-.14-2,.13-1.84,1.64a7.15,7.15,0,0,0,.61,2.36c3.38,7.26,8.63,12.54,16.29,15.23.69.24,1.45.5,2-.16s.14-1.37-.08-2.05c-2.12-6.56-6.47-11.3-12.15-14.95A16.41,16.41,0,0,0,409.71,381.1Zm29.1,3.56c0-4.8-.41-8.67-2.21-12.27-.45-.88-.76-2.1-1.86-2.16-1.31-.07-1.54,1.33-2.1,2.22a6,6,0,0,0-.55,1.24c-2.49,7.48-2.32,14.83,1.16,22,.29.6.63,1.22,1.29,1.28.85.07,1.22-.67,1.53-1.34C437.79,391.88,439.11,388,438.81,384.66Zm-246.7,49c0,.07,0-.3-.1-.65-1.23-6.39-11.06-16-17.34-16.93-1.8-.26-2,.61-1.53,2.11,2.47,7.41,7.38,12.66,14.22,16.22a9.27,9.27,0,0,0,3.36,1.08C191.78,435.59,192.27,435.15,192.11,433.65Zm-30.94-49.33c-.39,3.56,1,7.49,2.77,11.33.3.65.64,1.43,1.52,1.35.7-.07,1-.71,1.28-1.31a39.94,39.94,0,0,0,1.52-3.79,26.82,26.82,0,0,0-1.34-20.19c-1.07-2.2-2-2.16-3.16,0C161.69,375.35,161.18,379.4,161.17,384.32Zm.05,48.16a25.47,25.47,0,0,0,1.87,11.1c.48,1.13.91,2.76,2.32,2.74,1.24,0,1.69-1.54,2.11-2.62a27.69,27.69,0,0,0-.88-23c-.26-.55-.62-1.23-1.36-1.16s-1,.7-1.29,1.29C162.21,424.65,160.82,428.58,161.22,432.48ZM140.09,381c-2.68-.07-1.7,1.95-1.22,3.16a26.93,26.93,0,0,0,16.74,16.17,1.73,1.73,0,0,0,1.82-.12c.72-.63.23-1.35,0-2-2.11-6.68-6.54-11.48-12.34-15.15A14.81,14.81,0,0,0,140.09,381Zm318.33,31.42a25.13,25.13,0,0,0,11.12-1.93c1-.46,2.54-.83,2.63-2.12.1-1.52-1.51-2-2.62-2.39-7.59-2.89-15.1-2.8-22.46.83-.59.29-1.22.6-1.29,1.3-.08.86.62,1.24,1.29,1.55C450.84,411.4,454.66,412.85,458.42,412.46Zm-269.57,0c4.44.06,8.21-.41,11.74-2.12,1-.47,2.32-.83,2.32-2.05s-1.29-1.66-2.29-2.08a26.8,26.8,0,0,0-23,.67c-.61.29-1.22.71-1.21,1.36s.72,1.15,1.42,1.47C181.54,411.4,185.27,412.83,188.85,412.48Zm3.32-29.68c0-2.47-1.53-1.88-2.62-1.46-8.29,3.14-13.71,9.07-16.5,17.41-.63,1.88.7,2.06,2,1.61,8-2.74,13.38-8.22,16.7-15.87A10.5,10.5,0,0,0,192.17,382.8Zm269.35.21c.08-2.7-1.58-2.09-2.76-1.64a26.84,26.84,0,0,0-16.35,17.22c-.2.61-.43,1.32.24,1.74a2.36,2.36,0,0,0,2.1-.1c7.11-2.45,12-7.36,15.49-13.87A26.93,26.93,0,0,0,461.52,383Zm-50.41,29.51c3.32.39,7.23-1.07,11.07-2.82.69-.31,1.4-.68,1.34-1.52,0-.68-.69-1-1.28-1.31a34.51,34.51,0,0,0-3.77-1.58,26.23,26.23,0,0,0-19.9,1.36c-2.17,1.07-2.13,2-.06,3.21C402.07,412,406,412.43,411.11,412.52ZM141.8,404.06c-4.55,0-8.23.44-11.66,2.13-.95.47-2.34.82-2.35,2,0,1.35,1.42,1.78,2.48,2.21a26.71,26.71,0,0,0,22.69-.75c.59-.29,1.2-.64,1.23-1.34.05-.87-.7-1.19-1.36-1.5C149.08,405.09,145.25,403.72,141.8,404.06Zm152.35-24.42c0,4.17,2.68,6.35,7.55,6.18,1.93-.06,2.28-2.13,3.61-3,1.64-1.11.28-3.05.61-4.61.43-2.11-2.1-2.42-3-3.89-1-1.71-3-.1-4.56-.52-1.94-.51-2.15,2.11-3.63,2.79S294.32,378.67,294.15,379.64ZM165.4,412.5a3.9,3.9,0,0,0,4.13-4.07c0-2.74-1.51-4.35-4.12-4.36-2.82,0-4.25,1.5-4.25,4.49A3.89,3.89,0,0,0,165.4,412.5Zm273.43-4.28c0-2.66-1.63-4.19-4.39-4.16-2.46,0-4,1.68-4,4.31s1.63,4.16,4.39,4.13C437.29,412.48,438.84,410.81,438.83,408.22Z"/><path d="M213.09,82.64A58.35,58.35,0,0,0,178.47,63.7c-26.91-4.43-52.44,8.66-65,33a63.07,63.07,0,0,0,11,72.33c1.38,1.41,2,1.27,2.87-.36,1.08-2,3.17-3.83,3.34-5.86s-2.44-3.36-3.75-5.08a53.14,53.14,0,0,1,30.47-84.39c27.81-6.31,56.38,12.4,61.7,40.86.81,4.33,3.46,5.54,6.34,7.24,1.23.72,2.78,2.36,3.74,1.72,1.23-.82.26-2.84.13-4.33A60.82,60.82,0,0,0,221,93a5,5,0,0,1-.69-3.06c.16-2.78,0-5.57,0-9a25.42,25.42,0,0,1,5.11,6.42,68.62,68.62,0,0,1,11,37.87,3.74,3.74,0,0,0,2.27,3.82c4.72,2.59,9.36,5.33,14,8,5.38,3.12,6.83,8,4.08,13.52-1.49,3-3,6.07-4.5,9.08-.6,1.18-.86,2,1,2.11q18,1.5,36,3.14a2.29,2.29,0,0,0,2.43-1.29c1.11-1.85,2.29-3.65,3.66-5.81.72,2.67.56,5.55,4.34,3.54,1-.52.75,1,.33,1.68-1.24,2-2.48,4.05-3.82,6a7,7,0,0,0-1.27,4.35c.11,5.11.1,10.23.09,15.34a5.36,5.36,0,0,0,.81,3.11c3.91,6,7.78,11.93,11.67,17.9a1.7,1.7,0,0,0,1.53,1.06,173.4,173.4,0,0,0-.43-60.44c-2.66,2.33-3.45,5.41-5.73,7.64a15.79,15.79,0,0,1-.36-4.5c0-.72.17-1.78-.22-2.1-2.29-1.91-.65-3.37.28-5.08a4.71,4.71,0,0,1,5-2.58,17,17,0,0,0,2.47,0c2.74-.2,4.18,1.05,4.78,3.75,2.7,12.21,3.43,24.58,3.32,37a148.74,148.74,0,0,1-2.8,28.86c-.77,3.74-1.52,4.06-5.37,4.39s-6.26-.87-8.2-4.31c-2.83-5-6.25-9.65-9.3-14.53a2.7,2.7,0,0,0-3.57-1.4q-31,8.7-62,17.23a4.39,4.39,0,0,0-3.36,2.77c-.74,1.85-1.76,3.6-2.76,5.59-1.6-2-3.42-3.15-5.87-2-.55-1,.13-1.52.42-2.12q17.43-35.22,34.87-70.43c1.82-3.66,1.65-4.15-2-6.23l-66.93-38.56c-3.36-1.93-3.8-1.83-5.87,1.44q-29.26,46.32-58.57,92.61c-1.07,1.69-.76,2.32.85,3.24q40.16,23,80.22,46.22c2,1.16,2.88,1.25,4-1.11,3.17-6.88,6.67-13.61,10-20.4.46-.93.75-2,2.25-1.26a1.17,1.17,0,0,0,1.74-.78.91.91,0,0,1,1.5-.57,1.24,1.24,0,0,1,.17,1.93,8.82,8.82,0,0,1-1.89,1.52c-2.56,1.8-3.07,4.14-1,6.45.92,1,.36,1.61,0,2.35-2.45,5-4.89,10-7.42,15a3.62,3.62,0,0,0,0,3.73c2.95,6,1.55,12-1.07,17.66-1.06,2.3-3.3,1.75-5.23.64q-13.41-7.73-26.83-15.45L96.3,212.18C92,209.7,91.66,208,95,204.33c3.67-4.05,7.62-7.72,13.66-7.52,1.32,0,1.62-1,2.13-1.83,3.53-5.55,7-11.15,10.57-16.66.91-1.4.79-2.18-.42-3.39-14.2-14.14-21.08-31.34-20.93-51.3.2-27.32,17.6-52.6,43-62.72a67.62,67.62,0,0,1,74,15.75c.31.32.6.66,1.17,1.29-3.26.15-4.53,2.1-5.07,4.75Zm-.81,31.21c-.22-.95-.29-1.28-.38-1.61A45.48,45.48,0,0,0,166.9,79c-20.17.39-38.36,15.23-42.91,35.27-3.3,14.54-.31,27.84,8.72,39.73a1.48,1.48,0,0,1-.21,2.31c-1.56,1.58-1.83,3.51-.51,5.14,1.51,1.85,3.81-1,5.67.44.19.15.41-.86.41-1.39a33.15,33.15,0,0,0,0-4.11c-.37-3.26.72-5.94,2.47-8.67,9.76-15.22,19.36-30.54,29-45.83,4.27-6.77,8.62-7.78,15.62-3.71C194,103.34,202.85,108.41,212.28,113.85Zm16.68,93a7.75,7.75,0,0,0,1.52,0q28.22-7.81,56.43-15.63c1.26-.35,1.49-1.07,1.48-2.19-.07-5.12-.15-10.23-.11-15.34,0-1.53-.51-2-2-2.13q-18-1.5-36-3.16a2.69,2.69,0,0,0-3.16,1.78c-2.1,4.46-4.36,8.83-6.55,13.24C236.74,191,233,198.72,229,206.8Zm-127.5.38c1.16.74,1.91,1.25,2.69,1.7Q148.52,234.44,192.9,260c2.38,1.37,4.74,2.76,7.13,4.08.53.29,1.18,1.08,1.76-.1a6.73,6.73,0,0,0-2.53-8q-44.49-25.64-89-51.28c-2.15-1.25-3.9-1.19-5.77.2C103.59,205.53,102.66,206.26,101.46,207.18Z"/><path d="M395.16,259.69c-.2-11.78.62-26.68-.3-41.54-1.42-23.11-21-41.81-44.08-42.59-.55,0-1.1,0-1.65-.05a3.16,3.16,0,0,1-3.27-3.33,3.13,3.13,0,0,1,3.45-3.41,49.47,49.47,0,0,1,16.15,2.58,53.4,53.4,0,0,1,36.39,50.3q.07,42.6,0,85.2a20.16,20.16,0,0,1-.05,2.46c-.24,2-1.43,3.23-3.44,3.17a3.08,3.08,0,0,1-3.17-3.12c-.06-.73-.06-1.46-.06-2.19Z"/><path d="M425.17,256.93q0,22.05,0,44.1a16.54,16.54,0,0,1-.1,2.73,3.06,3.06,0,0,1-3.22,2.76,3.15,3.15,0,0,1-3.28-2.74,13.76,13.76,0,0,1-.09-2.73c0-28.3.07-56.61,0-84.92a46.39,46.39,0,0,0-35.28-45.26,49.85,49.85,0,0,0-10-1.31c-2.56-.1-4.05-1.44-4-3.5s1.52-3.22,4.2-3.24c23.55-.2,45.5,17.87,50.56,41.61a58.51,58.51,0,0,1,1.27,12.23Q425.16,236.79,425.17,256.93Z"/><path d="M371.81,271c0-13.79,0-27.58,0-41.37a46.43,46.43,0,0,0-38-46.09,58.54,58.54,0,0,0-7.62-.77c-2.29-.14-3.72-1.18-3.65-3.5s1.61-3.3,3.88-3.25c16.2.38,29.51,6.86,39.86,19.24,6.64,8,10.87,17.1,11.62,27.55,1.09,15.2.51,30.42.58,45.64.07,15.43,0,30.86,0,46.3,0,1.17.19,2.38-.52,3.46a3.14,3.14,0,0,1-3.28,1.48A3.05,3.05,0,0,1,372,317.3a11.16,11.16,0,0,1-.16-2.72Q371.81,292.8,371.81,271Z"/><path d="M448.91,429.16c2.37,1.33,3.48,2.45,1.67,4.64-.44.54-1.33,2.26.07,2.83,1,.4,2.76,1.18,3.31-1,.22-.89,1-1.07,1.74-.78s.86,1.19.66,1.86a3.78,3.78,0,0,1-3.81,2.93c-1.59-.17-3.63-.95-3.64-3.35Z"/><path d="M213.06,82.7c.92-.85,2.55-.46,3.19-1.88.17-.38.84-.36,1.24-.08s.48,1,.33,1.49c-.65,2.32-2.46,2.46-4.72.39Z"/><path d="M438.39,440.59a9.63,9.63,0,0,1,.47,4.63,1.22,1.22,0,1,1-2.36-.4C437,443.57,437.58,442.38,438.39,440.59Z"/><path d="M299,436.87c.95,0,1.19.45,1.17,1.06-.08,1.69-1.44,2.21-2.68,2.71-.83.34-.88-.49-.78-1C297,438.29,298.21,437.65,299,436.87Z"/></svg>