<svg id="Layer_1" data-name="Layer 1" xmlns="http://www.w3.org/2000/svg" viewBox="0 0 600 600"><defs><style>.cls-1{stroke:#fff;stroke-miterlimit:10;stroke-width:3px;}</style></defs><title>Artboard 1 copy 5</title><path class="cls-1" d="M541.36,305.77V319c-5.27,12.68-14.61,19.68-28.51,19.52-5.08-.06-6.37,2.09-7,6.63-1.69,13.34-3.43,26.69-5.92,39.89-3,15.92-6.83,31.68-15,45.95-4.08,7.13-9.35,11.34-18.5,10.9a373.33,373.33,0,0,0-42.05.26c-11.37.74-17.91-4.67-23.1-13.66a234.09,234.09,0,0,1-18.57-42.08c-1.77-5.22-5.08-6.2-9.4-5.44-4.53.8-10.39-2.41-12.7,5.49a212.38,212.38,0,0,1-13.78,36c-5.85,11.66-12.92,21.24-28,19.62-1.28-.14-2.66.57-4,.89H285.12c-18.58.69-25.79-12.82-32.79-26.43a192.37,192.37,0,0,1-12.11-29.69c-1.25-3.89-2.63-7.4-7.84-6.11s-12.35-2.57-14.7,6.37c-3.07,11.67-7.77,22.8-12.61,33.87-5.81,13.29-13.32,23.56-30,21.35a6.57,6.57,0,0,0-2.36.64H146.25c-2.15-.33-4.37-1.18-6.43-.9-13.66,1.82-20.73-6-25.58-17.13-1.52-3.51-3.11-7-4.4-10.61-7.79-21.76-12.1-44.32-15-67.18-.68-5.45-1.7-8.92-8.61-8.79-13.57.25-22.47-7.13-27.62-19.38V305.77c5.4-9.59,11.8-18.49,24.12-18.14,8.7.25,10.09-3.52,10.7-11.13,2-24.89,10.08-47.72,26.64-66.83,14.32-16.53,30.79-20.54,50.15-12.41,5.08,2.13,6.86.75,9.26-3.67,9.27-17.06,21.39-31.19,41.14-36.6h9.92c9.58,2.68,18.61,6.35,26,13.41a84.22,84.22,0,0,1,17.11,24.08c2,4,3.57,5.86,8.58,3.18,11.32-6,23.2-6.28,34.86-.54,4.12,2,6.51,2,8.86-2.81a85.85,85.85,0,0,1,17.55-23.82c17.07-16.41,39.31-17.28,57.33-2.26a73.63,73.63,0,0,1,19.48,25.35c2.58,5.48,4.26,6.58,10,3.63,12.35-6.35,24.92-5.54,36.9,1.79,11.65,7.13,19.73,17.46,25.86,29.36A121.67,121.67,0,0,1,507,278.82c.18,4.07-.33,8.75,6.11,8.38C527.07,286.41,535.36,294.36,541.36,305.77Zm-241,33V339q-85.93,0-171.86,0c-17.46,0-17.76.15-15.13,17,3.35,21.46,7.49,42.75,16.74,62.69,2.21,4.77,4.86,7.06,10.56,6.81,11.82-.52,23.69-.47,35.52,0,5.51.21,8.33-1.8,10.86-6.52,8-14.9,12.5-31.06,17.71-46.95,2.07-6.3,5.81-8.71,12.21-8.44,7.15.29,14.39.71,21.46-.1,9.26-1.05,13.09,3.29,15.66,11.47a207.94,207.94,0,0,0,19.36,44.49c2,3.4,4,6.17,8.83,6q18.15-.62,36.34-.29c5.79.09,9.15-2.6,11.69-7.38a176.14,176.14,0,0,0,11.24-27.41c8.93-26.79,8.94-26.78,37-26.73,13.37,0,14.81,1.05,19,13.48,5,14.85,10.72,29.4,18.55,43.06,2.19,3.81,4.71,5.38,9.18,5.27,12.39-.29,24.79-.32,37.17,0,5.11.14,7.72-1.44,9.84-6.32,9.68-22.25,13-45.89,16-69.62,1.33-10.66.95-10.71-9.51-10.71Zm-18.4-17.18c58.81,0,100.38.12,142,0,30.56-.12,61.11-.68,91.67-.88,5.51,0,9-1.55,9.25-7.75s-3.54-8.08-8.84-8.35c-2.47-.12-5-.22-7.43-.22q-208.56,0-417.12,0a60.91,60.91,0,0,0-9.07.45c-6.36,1-9.15,6.51-6.39,12.14,2.23,4.53,6.38,3.56,10.11,3.65C157.1,322.48,228.14,321.12,281.94,321.62ZM153.18,287.1c12.38,0,24.76-.18,37.13.09,4.83.1,6.23-1.73,5.92-6.29-1.43-20.39-6.59-39.52-18.95-56.16-14.33-19.3-33.87-19.51-48.5-.4-12.84,16.76-17.25,36.43-18.93,57-.42,5.1,1.87,5.9,6.21,5.83C128.43,287,140.81,287.1,153.18,287.1Zm295.46-.7v.7c11.81,0,23.63-.16,35.44.09,4.57.09,6.23-1.27,6.12-6-.48-21.84-6.93-41.66-20.46-58.75-13.11-16.58-31.22-16.49-44.67-.17-13.79,16.73-19,36.69-21.06,57.81-.46,4.77,1.43,6.41,5.92,6.38C422.83,286.34,435.74,286.4,448.64,286.4Zm-146.91,0v.69c11.83,0,23.67-.17,35.49.09,4.73.1,6.3-1.51,6-6.21-1.51-21.27-7.05-41.1-20.43-58.14-13.2-16.81-30.88-17.12-44.58-.65C264.26,238.91,259.23,259,257,280.06c-.51,4.72,1.46,6.42,6,6.39C275.89,286.35,288.81,286.41,301.73,286.41Zm-74.21.7c3.42-2.41,11.92,5,12.24-5.91.69-23.7,8.54-45.08,21.13-64.93,1.23-2,3.28-3.55,1.65-6.58-4.79-8.92-8.57-18.43-15.91-25.8C234,171.25,218.69,171.26,206,184c-6.56,6.57-9.81,15.13-14.18,23-2,3.66-1.62,6.28.66,9.61,12.22,17.82,18.64,37.63,20.52,59.14,1.22,13.92-.4,10.94,12.19,11.34C225.73,287.12,226.28,287.11,227.52,287.11Zm146.38,0c11.81,0,12,0,13-11.17,2-21.53,9.16-41.18,20.76-59.33,1.23-1.93,3.43-3.59,2-6.59-5.07-10.37-9.56-21.14-18.74-28.78-11.1-9.23-24.3-9-35.3.46-7.5,6.44-12,14.83-16.12,23.65-2.17,4.67-2.12,8.11.93,12.66a115.86,115.86,0,0,1,19.47,57.89c.72,11.2.73,11.2,11.59,11.21Z"/></svg>