<svg id="Layer_1" data-name="Layer 1" xmlns="http://www.w3.org/2000/svg" viewBox="0 0 600 600"><title>Artboard 1 copy 7</title><path d="M337.11,262.28c-59.11,20.68-117.69,20.65-176.83,0,0,8.71,0,18.29,0,27.87,0,1.68.84,2.1,2.29,2,.61,0,1.22,0,1.84,0,11.56.12,12.19.91,10.64,12.59-.2,1.52-.61,2.26-2.19,2.15-.76-.06-1.53,0-2.3,0-10.28.06-10.28.06-10.28,10.14,0,12.43-.09,24.86.06,37.29,0,3-.47,4.26-3.91,4.24-10.88-.08-10.89.08-10.89-11,0-12.28-.08-24.55.07-36.83,0-2.91-.65-4-3.77-3.91-4.42.15-8.87.42-13.28-.67a25.75,25.75,0,0,1,5-50.81,3.53,3.53,0,0,0,.46,0c3.75-.37,8.77,1.69,10.92-1,1.82-2.26.78-7.07.53-10.71-.67-9.79,4.36-16.32,11.93-21.34,10.53-7,22.5-10.28,34.65-13A216.61,216.61,0,0,1,223,204.89c2.64-.2,3.46-.87,3.82-3.64a21.93,21.93,0,0,1,21.94-19.55c11.18,0,20.36,8.08,21.81,19.68.37,3,1.5,3.28,4,3.5,17.13,1.53,34.09,4.1,50.36,10a64.39,64.39,0,0,1,17.42,9.16c6.82,5.24,10,11.9,9.65,20.7-.45,10.51-.11,10.53,10.15,10.62,15.14.15,26.62,11.35,26.57,25.91-.06,14.36-11.49,25.49-26.37,25.67-1.38,0-2.77.1-4.14,0-4-.35-7.54-.39-6.36,5.37.26,1.26-.37,2.06-1.78,2-.3,0-.61,0-.92,0-12,.84-12,.84-12-11.19Zm-88.39.49a261.09,261.09,0,0,0,41.25-3c13.93-2.2,27.82-4.89,40.23-12.12,8.88-5.17,8.81-8.86-.06-14.1-9.1-5.36-19.24-7.83-29.4-10.15-2.37-.55-5.14-1.61-7.15-.87s-.31,3.83-.88,5.86a18.61,18.61,0,0,1-6.46,9.8,33.63,33.63,0,0,1-9.64,5.26c-12.05,4.35-24.5,5.3-37.15,4.09-8.59-.82-17-2.51-24.6-6.85-6.18-3.54-10.74-8.31-10.27-16.07.17-2.84-1.32-2.54-3.09-2.2-9.78,1.91-19.47,4.19-28.62,8.25a49.34,49.34,0,0,0-8,4.48c-5.89,4.08-5.84,6.83.05,11a55.12,55.12,0,0,0,15.31,7.24C202.5,260.7,225.51,262.48,248.72,262.77Zm0-29.61c1.53,0,3.07.11,4.6,0,7.5-.61,14.95-1.57,21.72-5.21,1-.55,3.05-.87,1.78-2.88-2.11-3.35-12.33-5.16-15.85-2.94-7.34,4.63-15.37,5.76-22.55.92-5.79-3.91-10.27-1.94-15.26.37-1.16.54-3,.91-2.94,2.52s1.79,2,3,2.51C231.29,232.19,239.94,233.13,248.73,233.16ZM145.53,281c0-12.37,0-12.39-12.25-10.75a10.7,10.7,0,0,0-8.83,6.49,10.29,10.29,0,0,0,2,11.9c5,5.43,11.83,4.13,17.72,3.17,3.21-.52.67-5.59,1.34-8.52A10.93,10.93,0,0,0,145.53,281Zm206.31.36c0,12.39,0,12.41,12.21,10.8a10.75,10.75,0,0,0,8.85-6.46A10.31,10.31,0,0,0,371,273.74c-5-5.45-11.82-4.15-17.7-3.2-3.3.53-.69,5.57-1.38,8.49A10.29,10.29,0,0,0,351.84,281.32ZM248.58,196.46a7.34,7.34,0,1,0,7.44,7.11A7.39,7.39,0,0,0,248.58,196.46Z"/><path d="M217,456.6c11,21,27.24,32.17,49.56,34.32,3.34.32,4.76,1,4.23,4.45a27.21,27.21,0,0,0,0,4.14c0,6.89,0,6.89-6.67,6.12C232,501.9,207.82,481.17,199.27,450c-.45-1.65-.77-3.12-2.41-4.19-12.34-8-24.38-16.54-37-24.11-13.41-8.06-28.32-11.31-44-11.61a22.07,22.07,0,1,1,.38-44.13,126.69,126.69,0,0,1,69.21,20.3c9.95,6.36,19.71,13,29.51,19.61,1.77,1.19,3.19,1.69,5.42.79,25.28-10.27,51.76-12.24,78.64-10.81,16.77.9,33.23,3.55,49,9.7,6.61,2.58,12.86,5.79,18.12,10.68s8.15,10.94,7.77,18.4a82.08,82.08,0,0,1-6.51,28.06c-1.25,3-2.84,3.46-5.1,1.55-2.92-2.48-8.18-1.73-9.25-6.82-.12-.58-1.35,0-2.06.31-38.36,14.38-77.34,14.45-116.71,4.92-2.82-.68-5.58-1.67-8.33-2.62C223.4,459.1,220.87,458.06,217,456.6Zm68.34-46.5a160.26,160.26,0,0,0-21.58,1.12A164.11,164.11,0,0,0,247,413.84c-10.53,2.18-20.91,5-29.83,11.36-6.9,4.92-6.88,8.95-.13,13.93a51.52,51.52,0,0,0,16.07,7.75c32.18,9.61,64.61,9.75,97.18,2.22,8.09-1.87,15.91-4.58,22.83-9.35,7.9-5.46,7.9-9.52.13-15a48.29,48.29,0,0,0-10.57-5.5C324.23,412.13,304.93,410.35,285.38,410.1ZM120.46,380.65h-2.31c-5.87,0-9.25,2.52-9.42,7.09s3.27,7.51,9.37,7.65a103.47,103.47,0,0,1,54.67,16.7c7.35,4.73,14.6,9.62,21.83,14.52,1.9,1.28,3.05,1.75,3.84-1.1a13.87,13.87,0,0,1,3.68-6.3c2.15-2.07,1.78-3.23-.69-4.81-8.4-5.36-16.55-11.1-25-16.43C159.38,387.15,140.6,381.65,120.46,380.65Z"/><path d="M302.24,370.47c-.5,4.57.12,8.81.65,13,.36,2.81-.3,4.06-3.42,4.36-11.23,1.07-11.19,1.18-12-10-.51-7.19-.72-14.43-1.72-21.55-1.34-9.46,2.4-16.06,10.23-20.8,10-6.07,21.17-8.89,32.54-10.72,29.37-4.74,58.65-4.42,87.71,2.46a63.71,63.71,0,0,1,18,6.71,8.08,8.08,0,0,0,7.73.51,207.49,207.49,0,0,1,70.22-12.75c13.47-.13,23.55,9,23.8,21.55.25,12.81-9.59,22.57-23.21,22.61-22.61.05-43.92,5.81-64.74,14.07-2.54,1-3,2.64-3.11,4.91-.56,8.1-.71,16.25-2.62,24.21a59,59,0,0,1-57.15,45.3c-2.82,0-4.24-.46-3.94-3.69s-1-7.33.46-10,5.84-.95,8.9-1.45c22.3-3.66,37.17-20,38.7-42.61q.78-11.47,1.8-22.93c.23-2.64-.1-3.45-3.13-2.45-37.15,12.25-74.73,12-112.52,3.36C311.05,373.62,306.78,371.92,302.24,370.47Zm64.38-4.55a196.51,196.51,0,0,0,35.27-2.87c9.81-1.75,19.54-3.92,28.23-9.2,2.9-1.76,3.15-3.42.11-5.34a47.67,47.67,0,0,0-13-5.63c-30.78-8.39-61.79-8.41-92.92-2.18-7.52,1.5-14.85,3.73-21.45,7.88-2.65,1.66-2.92,3.27-.1,5.08a46.91,46.91,0,0,0,10.81,5C330.79,364.37,348.63,365.69,366.62,365.92Zm142.74-29.49A200.7,200.7,0,0,0,451,346.85c-1.6.55-3.58.63-3.51,3.39a74.71,74.71,0,0,1-.72,10.55c-.38,3.17.23,4,3.55,2.71a170.09,170.09,0,0,1,35.79-10,191.44,191.44,0,0,1,27.48-2.36c4.7-.08,7.74-3.27,7.66-7.46s-3.23-7-7.93-7.21C511.67,336.39,510,336.43,509.36,336.43Z"/><path d="M437.35,494.94c-7.11-.11-12.33-2.16-16.46-6.38-1.91-1.95-3.51-2.21-6-1.45-10.41,3.13-20.88,6.05-31.37,8.9a5.21,5.21,0,0,0-4.32,4.52c-1.48,6.88-3.49,13.65-5.09,20.51a9,9,0,0,1-6.45,7c-21.38,7.06-42.72,14.22-64.1,21.27-5.44,1.79-9-.05-10.58-5.54q-7.23-24.91-14.25-49.91c-1.45-5.17.59-8.72,5.87-10.06,19.14-4.87,38.32-9.6,57.47-14.44a9.74,9.74,0,0,1,7.07,1.1c7.52,3.79,15.09,7.49,22.59,11.33a7.74,7.74,0,0,0,6.14.64c10.87-3.22,21.74-6.39,32.67-9.38,2.43-.67,3.47-1.71,3.9-4.23,1.64-9.54,7.35-15.67,16.62-18.25q25.44-7.1,51-13.88c12.52-3.29,24.47,3.41,27.9,15.33s-3.41,24.44-15.94,28C477,484.87,460,489.35,443,494A21.76,21.76,0,0,1,437.35,494.94Zm-94.5-10.4c-.46.07-.92.1-1.37.21-14.71,3.68-29.41,7.43-44.15,11-2.92.7-2.21,2.21-1.68,4,2.86,10,5.81,20,8.48,30.07.86,3.23,2.3,3.17,4.95,2.25,12-4.14,24.11-8.05,36.15-12.14,5-1.72,11.62-1.82,14.7-5.7s3-10.1,4.55-15.22c.85-2.82.37-4.46-2.51-5.72-4.77-2.08-9.35-4.59-14-6.88C346.31,485.62,344.82,484.41,342.85,484.54ZM496,458.29a7.67,7.67,0,0,0-9.79-7.48q-25.93,6.84-51.74,14.16a7.75,7.75,0,0,0,4.09,14.95c17.28-4.59,34.52-9.35,51.75-14.14C493.94,464.77,495.76,462.06,496,458.29Z"/><path d="M469.73,252.75c0,16.73-.08,33.46.08,50.19,0,3.22-.82,4.12-4.07,4.09-10.74-.09-10.74.05-10.74-10.68q0-45.12,0-90.25c0-15.37-9-24.37-24.23-24.41-4,0-8,.09-12,0-5.13-.15-7.81-2.9-8-8.09-.16-4.43.22-8.87-.82-13.29a29.44,29.44,0,0,0-58.1,5.52c-.1,2.76.06,5.53-.08,8.29-.23,4.62-2.94,7.39-7.56,7.55s-9.21,0-13.82.06c-9.87.11-17,4.57-21,13.65-1,2.31-2,3-4.37,2.09a36.23,36.23,0,0,0-4.45-1.13c-7.26-1.84-7.41-1.93-4-8.52,7.24-14,18.92-20.93,34.63-20.75,4.07,0,5.74-.46,6.37-5.35,3-23.26,22-39.4,44.92-38.91,22.41.48,40.63,17.68,42.75,40.85.37,4.08,2.54,3.31,4.85,3.32,18.13.09,31.47,8.67,37.2,24a39.09,39.09,0,0,1,2.41,14Q469.69,228.81,469.73,252.75Z"/><path d="M447.63,261.15c0,18.71-.07,37.42.06,56.13,0,3.13-.34,4.58-4.11,4.51-10.68-.18-10.69,0-10.69-10.75,0-34.2-.07-68.4.1-102.6,0-3.9-1.07-4.75-4.83-4.73-36.19.15-72.39.09-108.59.08-5,0-5.58-.78-3.46-5.49,2.53-5.64,6.93-9.15,13.19-9.17q52-.18,104,0c8.37,0,14.28,6.63,14.31,15.42C447.68,223.42,447.63,242.28,447.63,261.15Z"/><path d="M380.92,181.69c-4.6,0-9.21.09-13.8,0-4.92-.14-7.76-2.87-7.85-7.72-.08-4.27-.44-8.56.75-12.8A22.26,22.26,0,0,1,383.78,145c10.55,1.2,19.14,10,19.53,20.57.45,12.46,1.53,17.07-15,16.18C385.83,181.58,383.37,181.69,380.92,181.69Zm.23-14.73a13.33,13.33,0,0,0,2.28,0c1.68-.28,4.39,1,4.85-.86.61-2.48-1.4-4.48-3.75-5.64-3.31-1.63-6.24-.86-8.69,1.72-1,1.09-2.16,2.58-1.55,4.06s2.41.57,3.67.72A30.83,30.83,0,0,0,381.15,167Z"/></svg>