<svg id="Layer_1" data-name="Layer 1" xmlns="http://www.w3.org/2000/svg" viewBox="0 0 600 600"><title>Artboard 1 copy 48</title><path d="M358.48,526.87c0-16.25,0-32.49.07-48.73,0-2.47-.41-3.61-3.24-3.85-5.73-.48-11.43-1.35-17.09-2.34-2.85-.49-3.93.49-4.41,3.18-1.18,6.68-2.65,13.3-3.81,20-.5,2.84-1.46,3.94-4.61,3.33-10.54-2-10.58-1.93-8.54-12.65.91-4.78,1.67-9.6,2.9-14.3.68-2.6-.25-3.37-2.48-3.91A195.94,195.94,0,0,1,294,460.47c-2.44-.92-3.22-.14-4,2.17-3.62,11.22-7.55,22.34-11.12,33.57-.93,2.93-1.91,3.59-4.95,2.56-10.17-3.47-10.22-3.33-6.83-13.55,3-9.09,5.87-18.24,9.15-27.24,1.21-3.32.31-4.57-2.65-5.93-6-2.76-12-5.76-17.71-9.06-3.13-1.79-4.65-1.79-6.72,1.64-9.3,15.4-19,30.55-28.46,45.88-1.69,2.75-3,3.86-5.9,1.53-2.63-2.11-7.17-3.28-8-5.79-.86-2.66,2.85-5.76,4.62-8.62,8.54-13.8,17.1-27.59,25.84-41.26,1.66-2.59,1.48-3.84-1.09-5.52-4.45-2.9-8.7-6.11-12.86-9.4-2-1.56-3-1.35-4.56.56-9.09,11.08-18.38,22-27.43,33.07-2.1,2.57-3.43,3.06-6.18.69-7.86-6.77-8-6.63-1.44-14.49,7.83-9.41,15.58-18.91,23.57-28.19,2-2.38,1.83-3.6-.4-5.57A131.75,131.75,0,0,1,196.25,397c-2.05-2.27-3.54-2.15-5.88-.46-4.9,3.54-10.14,6.6-15,10.17-2.49,1.82-3.54,1.19-5.09-1.12-6.09-9.12-6.17-9.06,3-15.15,2.7-1.8,5.34-3.7,8.13-5.36,2.1-1.25,2-2.31.6-4.13-4.44-5.71-8.83-11.46-13-17.39-1.62-2.33-2.71-2.21-4.85-.75-10.61,7.22-21.39,14.2-32,21.46-2.69,1.85-4.1,2.11-6.11-1-5.6-8.8-5.77-8.7,3.06-14.59,9.21-6.14,18.38-12.33,27.66-18.36,2-1.33,2.33-2.37,1.13-4.52-3.09-5.54-6-11.16-8.76-16.88-1.21-2.55-2.35-2.63-4.69-1.43-13.92,7.09-28,13.95-41.87,21.09-3,1.57-4.57,1.7-6.24-1.86-4.37-9.3-4.56-9.21,4.59-13.79,12.4-6.19,24.73-12.52,37.23-18.51,3.15-1.51,3.68-3,2.35-6.07a84.5,84.5,0,0,1-3.77-10.86c-.78-2.83-2.15-3.25-4.79-2.48-12.58,3.71-25.25,7.14-37.78,11-3.54,1.09-4.78.4-5.73-3.14C85.85,293,85.7,293,95.38,290.27c10.91-3.1,21.8-6.33,32.74-9.31,2.61-.71,3.62-1.42,2.86-4.45a163.58,163.58,0,0,1-4.07-22.63c-.31-3-1.33-3.91-4.52-3.15-7.31,1.74-14.75,2.91-22.09,4.55-2.65.59-4.32.56-4.4-2.7a17.3,17.3,0,0,0-.54-2.59c-1.61-8.47-1.61-8.46,7-10.12,6.37-1.23,12.72-2.56,19.11-3.69,2.46-.44,3.46-1.41,3.3-4.08-.32-5.31-.45-10.64-.27-15.94.11-3.12-.87-4-4-3.95-15.8.16-31.6.1-47.4.11V197.26q25,.12,50,.28c2,0,2.8-.89,3.15-2.81a73.77,73.77,0,0,1,6.16-18.86c.9-1.85.54-2.82-1.16-3.91-5.23-3.33-10.28-6.94-15.53-10.22-2.2-1.38-2.86-2.45-1-4.69,2.3-2.85,3.8-7.67,6.56-8.47s6,3.36,9.13,5.29c3.38,2.11,6.59,5.91,10,6.1,3.72.21,5.22-5.23,8-7.94,4.79-4.71,5.06-3.06.26-8.88-9.12-11-18.25-22.07-27.54-33-2-2.33-2-3.5.44-5.5,8.4-6.92,8.3-7,15.1,1.17,8.4,10.11,16.9,20.13,25.17,30.33,1.81,2.24,3,1.8,5.4.93,7.26-2.64,8.92-7.42,8.59-14.84-.68-15-.12-30.11-.27-45.17,0-3.07.82-4,3.94-4,10.63.05,10.63-.08,10.63,10.44v43.82a93,93,0,0,1,28.48-2.69c2,.12,2.32-1.08,2.64-2.69,1.63-8.39,3.5-16.74,5-25.16.47-2.59,1.39-2.91,3.8-2.52,11.35,1.84,11.34,1.76,9,13-1.17,5.63-2.08,11.32-3.42,16.91-.62,2.57-.12,3.76,2.46,4.46a55.08,55.08,0,0,1,13.88,5.67c2.54,1.51,3.88.61,5.46-1.4,6.46-8.25,13.17-16.31,19.53-24.64,2.07-2.71,3.48-2.84,5.84-.53s6.76,4.06,7.29,6.66-3.51,5.34-5.57,8c-4.9,6.28-9.8,12.58-15,18.63-2.08,2.43-1.77,3.8.53,5.63a48.2,48.2,0,0,1,5.76,5.49c5.67,6.2,5.63,6.23,13,2.56,13.71-6.85,27.47-13.64,41.12-20.61,2.49-1.27,3.82-1.28,4.87,1.55,1.26,3.4,5.16,6.87,4,9.75-1,2.49-5.77,3.53-8.92,5.11-12.39,6.22-24.76,12.46-37.22,18.54-2.54,1.24-3.11,2.34-1.73,5a63.41,63.41,0,0,1,6.51,18.72c.57,3.25,1.87,3.78,5.05,3.18,9.84-1.89,19.79-3.24,29.65-5,2.59-.47,3.22.41,3.71,2.67,2.35,10.95,2.42,11-8.22,12.89-8.13,1.44-16.27,2.86-24.44,4-2.61.38-3.43,1.32-3.33,3.95.57,14.39,5.11,27.39,13.76,40.06,5.18-5.37,10.24-10.42,15.06-15.68,1.93-2.1,3.21-2.34,5.13,0,2.28,2.7,6.7,5,6.89,7.68.22,3.17-4.45,5.36-6.94,8-2.72,2.91-5.49,5.8-8.48,8.42-2.18,1.91-1.86,2.93.23,4.69a76.19,76.19,0,0,0,33.44,16.31c3,.66,3.84-.88,5-2.94,9.91-17.94,20-35.79,29.76-53.81,1.82-3.35,3.19-3.5,6.29-1.68,8.68,5.09,8.75,4.94,3.88,13.7-7.82,14.05-15.56,28.14-23.48,42.12-1.64,2.89-2.05,4.29,2.09,4.32A87.07,87.07,0,0,1,417,293c2.59,1.13,3.32-.23,4.35-2,5.58-9.38,11.29-18.69,16.79-28.11,1.37-2.35,2.49-3.39,5-1.4,2.85,2.27,8.06,3,8.62,6.18.46,2.67-3,6.06-4.81,9.09-4.15,7-8.22,14-12.57,20.84-1.6,2.52-1.52,3.86,1.06,5.6a83.33,83.33,0,0,1,21.14,20.61c1.62,2.27,3,2.45,5.43,1.37,12.15-5.34,24.43-10.35,36.54-15.78,3-1.33,3.94-.65,5.09,2.06,4.25,10,4.33,9.92-5.58,14.16-9.49,4.06-18.92,8.26-28.49,12.11-3,1.22-3.23,2.53-2,5.22a85.39,85.39,0,0,1,7.84,34.25c0,3.24,1.55,3.45,4.09,3.44,15.79,0,31.59,0,47.39.05v14.18c-1.62.09-3.23.25-4.85.25-14.61,0-29.22.08-43.83-.05-2.92,0-4.18.82-4.65,3.8a70.56,70.56,0,0,1-5.3,17.74c-1.06,2.4-.52,3.62,1.6,5C479.93,428.2,490,435,500,441.69c9.07,6.05,9,6,2.83,15.25-1.67,2.5-2.79,2.45-5.08.89-11.59-7.88-23.34-15.52-34.92-23.42-2.23-1.52-3.32-1.41-4.87.83a105.1,105.1,0,0,1-7.75,9.64c-1.34,1.52-1.4,2.55-.15,4.14,3.46,4.4,6.76,8.94,10.13,13.42,6.76,9,6.67,8.88-2.27,15.61-2.49,1.88-3.53,1.22-5.09-.93-4.4-6.1-9.08-12-13.45-18.13-1.46-2-2.57-2.27-4.54-.76a59.22,59.22,0,0,1-11.36,6.82c-2.27,1-2.54,2.2-1.38,4.43,4,7.58,7.7,15.27,11.52,22.91,4.66,9.32,4.58,9.17-4.75,14.08-3.21,1.68-4.34.82-5.75-2.12-4.78-10-9.82-19.8-14.8-29.67-.61-1.21-.78-3.1-2.95-2.48a96,96,0,0,1-30.22,3.31c-1.63-.06-2,.91-1.95,2.25.17,16.37-.45,32.74.32,49.11ZM139,220.59a259.11,259.11,0,0,0,4,42.55q15.33,81.11,76.66,136.27c37.63,33.79,81.83,53.71,132,59.81,16.53,2,33.18,3.39,49.69-1.05,34.84-9.37,59.83-41.91,59.56-77.81-.27-36.58-25.29-68.67-60.31-77.71-10.6-2.73-21.35-2.31-32.09-2.8-44.38-2-80.78-38.38-83-82.65-.42-8.53-.59-17.11-3.27-25.37-8.86-27.43-27.22-45.19-55.35-51-28.9-6-53.34,3.37-72.15,26.19C141.8,182.87,137.92,201.68,139,220.59Z"/><path d="M526.83,176c-.73-.08-1.46-.18-2.19-.25-7.88-.82-15.33-.89-16.79,9.57,0,.13-.15.25-.23.38-1.44,2.33-4.43,5.07-3.95,6.91.68,2.61,3.88,4.6,6.06,6.79,7.76,7.79,7.7,7.71-.07,15.48-2,2-3.19,2.34-5.22.1-3.47-3.82-7.33-7.29-10.89-11-1.69-1.78-3.2-2.69-5.72-1.46a23.3,23.3,0,0,1-9.41,2.24c-2.28.07-3,1.08-2.92,3.32.12,7.53-.1,15.06.11,22.59.08,3-1,3.69-3.79,3.71-10.79.1-10.79.19-10.79-10.43,0-6.2-.14-12.41.06-18.6.08-2.59-.72-4.21-3.08-5.15a4.06,4.06,0,0,1-1.54-.85c-5.08-5.86-9.65-3.71-14.8.3-5.64,4.4-5.89,4.08-9.8-1.77-4.2-6.3-4.39-6.63,2.14-10.39,5.49-3.17,9-6.43,5.74-13.26-1.24-2.62-.19-5.89-1.44-8.67-.63-1.38-1.45-2.85-3-3-1.24-.12-1.65,1.49-2.28,2.42-2.83,4.15-5.65,8.3-8.34,12.53-1.1,1.73-1.95,1.95-3.81.82-10.17-6.17-10.33-6.19-3.62-16,2-2.86,1.42-3.48-1.42-5.31-4.43-2.85-8.33-2.84-12.7-.66a19,19,0,0,1-2.51.85c-11.11,3.7-11,3.68-14.3-7.67-.69-2.39,0-3.15,2.11-3.74,3-.84,5.9-1.88,8.81-2.93.75-.27,2.2-.37,1.92-1.4-.93-3.4-2.12-6.72-3.29-10-.76-2.13-2.95-1.73-4.52-2.17q-7.89-2.16-15.89-3.9c-2.9-.63-4.17-1.4-3.2-5,2.85-10.37,2.64-10.42,13.14-7.73,11.37,2.92,11.3,2.89,15.84-8,.9-2.15-.4-3.38-1.11-4.85-4.23-8.66-4.14-8.42,4.21-13,3.81-2.1,5.75-1.61,6.95,2.45,1,3.27,2.49,3,5.74,2.2,6.93-1.71,7.86-5.75,7.36-11.83-.51-6.3-.11-6.33,6.21-6.33,8.43,0,8.36,0,8.46,8.59.08,6.37-1.36,5.09,6.07,6.57,8.4,1.68,13.27-.63,15.48-8.84.46-1.74,1.61-2.34,3.32-1.18a23.77,23.77,0,0,0,2.37,1.18c2.61,1.37,6.29,2.13,7.51,4.29,1.37,2.41-1.79,5.19-3,7.77-.92,2-.64,2.94,1.29,3.71a10.7,10.7,0,0,1,3.52,1.82c4.94,4.77,9,3,13.49-1,5.1-4.46,10.85-8.16,16.16-12.38,2-1.6,3-1.23,4.44.7,7,9.14,7.07,9.09-2.14,16-3.9,2.92-7.76,5.9-11.72,8.73-1.72,1.23-2.49,2.19-.76,4.13a59,59,0,0,1,9.68,14.75c1,2.09,2,1.84,3.79,1,7.77-3.57,7.8-3.51,11.58,4,2.6,5.19,2.6,5.19-2.6,7.78a17.38,17.38,0,0,1-2.77,1.37c-3.78,1.11-4.72,3.47-3.4,7a10.37,10.37,0,0,1,.36,2.63c.69,9.05.68,9.06,9.74,9.05,1.78,0,3.55,0,5.32,0ZM438,102.62a69.19,69.19,0,0,0-8.4,0c-9,1.1-15.4,5.88-18.48,14.41-3,8.37-1.16,16,4.83,22.54,4.83,5.28,11.31,6.4,18,7.11,9.27,1,15.29,6.21,18.46,14.91,1.09,3,1,6.09,1.45,9.14,1.59,11.36,10.45,19.39,21.61,19.42a21.62,21.62,0,0,0,21.73-19.31,72,72,0,0,0-1.11-23.77C489.79,119.71,467.35,102.5,438,102.62Z"/><path d="M219.39,248.73A44,44,0,0,1,175.73,205c0-24.07,19.93-44.09,43.92-44,23.69.08,43.72,20.11,43.82,43.82C263.57,228.71,243.45,248.76,219.39,248.73Zm.23-72.93a29.34,29.34,0,0,0-29.39,29.12c0,15.89,13.58,29.41,29.39,29.27a29.42,29.42,0,0,0,29-29.05A29.09,29.09,0,0,0,219.62,175.8Z"/><path d="M307.19,387.72A29.19,29.19,0,0,1,278.06,417c-16,0-29.4-13.37-29.29-29.29a29.62,29.62,0,0,1,29-29.15A29.32,29.32,0,0,1,307.19,387.72Zm-43.64.26a14.57,14.57,0,0,0,14.75,14.48,14.86,14.86,0,0,0,14.4-14.52A14.59,14.59,0,0,0,278,373.35,14.32,14.32,0,0,0,263.55,388Z"/><path d="M424.24,380.64c-.08,16.12-13.43,29.39-29.35,29.16a29.66,29.66,0,0,1-29-29.17c-.13-15.91,13.22-29.26,29.27-29.27A29.12,29.12,0,0,1,424.24,380.64ZM395,395a14.56,14.56,0,0,0,14.8-14.44,14.92,14.92,0,0,0-14.69-14.7,14.69,14.69,0,0,0-14.48,14.37A14.39,14.39,0,0,0,395,395Z"/><path d="M226.68,307.27a21.84,21.84,0,1,1-22-21.79A21.86,21.86,0,0,1,226.68,307.27Zm-14.54-.07a7.54,7.54,0,0,0-7.53-7.09,7.37,7.37,0,0,0-6.92,7.61,7.18,7.18,0,0,0,7.23,6.8A7.33,7.33,0,0,0,212.14,307.2Z"/><path d="M300,322.1a21.91,21.91,0,1,1,22.14,21.77A22.13,22.13,0,0,1,300,322.1Zm29.16-.2a7.19,7.19,0,0,0-7.44-7,7,7,0,0,0-6.9,7.46,7.14,7.14,0,0,0,7.1,6.91A7.46,7.46,0,0,0,329.19,321.9Z"/></svg>