<svg id="Layer_1" data-name="Layer 1" xmlns="http://www.w3.org/2000/svg" viewBox="0 0 600 600"><title>Artboard 1 copy 9</title><path d="M492,303.71q0,92.63.08,185.25c0,2.57-.51,3.08-3.08,3.08q-190.5-.14-381-.08V308.72c0-5.25,0-5.25,5.44-5.25,10.87,0,21.74-.13,32.6.07,3.25.06,4.23-.74,4.2-4.11q-.27-25.31-.06-50.59a53.31,53.31,0,0,1,41.09-52c7.31-1.77,14.76-1.21,23.06-1.43-2.51-.77-4.16-1.25-5.8-1.77-16.68-5.28-27.33-16.43-30.67-33.54-3.44-17.62,2.59-32.14,16.64-43.33,6.11-4.87,13.38-6.94,20.75-8.8h10.5a8.82,8.82,0,0,0,1.69.66c20.84,3.54,35.93,20.5,36.75,41.32a43.66,43.66,0,0,1-33.24,44.24c-1.16.3-2.3.7-4.38,1.33,4.5,0,8-.07,11.5,0,30.4.75,52.84,23.71,52.91,54.13,0,16.75.07,33.5-.05,50.25,0,2.72.57,3.65,3.48,3.62q21.56-.22,43.12,0c3,0,3.75-.88,3.73-3.79-.14-17.63,0-35.25-.14-52.87,0-2.84.8-3.55,3.58-3.54q58.68.13,117.36,0c2.86,0,3.79.68,3.77,3.7-.15,17.37,0,34.75-.15,52.12,0,3.29.63,4.53,4.23,4.41C477.23,303.32,484.6,303.63,492,303.71ZM299.64,469.44q82.85,0,165.69.06c3.05,0,4.25-.4,4.23-4q-.26-45.36,0-90.71c0-3.12-.78-3.94-3.91-3.93q-165.69.12-331.38,0c-3.22,0-3.86,1-3.85,4q.18,45.18,0,90.34c0,3.44.89,4.29,4.3,4.29Q217.17,469.36,299.64,469.44Zm.33-121h151.1c4.75,0,9.52-.25,14.24.09,3.63.26,4.42-1.13,4.22-4.41-.26-4.24-.07-8.5-.07-12.75,0-5.42,0-5.42-5.27-5.42Q300,326,135.74,326a22.87,22.87,0,0,1-2.62,0c-2.21-.26-2.75.77-2.69,2.82.12,4.62,0,9.25,0,13.87,0,5.82,0,5.82,5.64,5.82Zm-79.53-45c14.74,0,29.48-.09,44.21.08,3.22,0,3.89-1,3.87-4-.15-16.36,0-32.72-.08-49.08,0-19.63-13.05-32.44-32.76-32.49-3,0-4,.68-4,3.88.18,13.48,0,27,.13,40.46,0,2.38-.55,3.29-3.09,3.19-5.11-.19-10.25-.24-15.36,0-3.16.15-4.26-.55-4.2-4,.24-13.48.05-27,.14-40.46,0-2.2-.48-3-2.87-3.05-20.07-.58-33.77,12.53-33.82,32.59,0,16.24.11,32.48-.1,48.71-.05,3.62,1.18,4.3,4.45,4.26C191.46,303.38,206,303.46,220.44,303.46Zm183.4-37.57c-12.36,0-24.72.06-37.08-.05-2.45,0-3.19.72-3.16,3.17q.18,15.54,0,31.09c0,2.55.62,3.43,3.3,3.42q36.53-.15,73,0c2.64,0,3.37-.78,3.33-3.37-.14-10.12-.17-20.23,0-30.34,0-3.05-.66-4.05-3.87-4C427.56,266,415.7,265.89,403.84,265.89ZM241.68,151.66A21.14,21.14,0,1,0,220.61,173,21.18,21.18,0,0,0,241.68,151.66Z"/></svg>