<svg id="Layer_1" data-name="Layer 1" xmlns="http://www.w3.org/2000/svg" viewBox="0 0 600 600"><title>Artboard 1 copy 30</title><path d="M291.75,535c-4.9-2-6.46-5.83-6.46-11q.1-143.36.06-286.72c0-8,2.82-10.84,10.73-10.84q80.52,0,161,0c9,0,11.49,2.63,11.5,11.95V431.55c0,30.59,0,61.17,0,91.76,0,5.1-1.14,9.35-6.15,11.69H393.65c-2.88-2.31-5.36-4.71-5.56-8.87-.78-15.73-1.77-31.44-2.64-47.17q-3.4-61.81-6.77-123.65c-.43-7.67-1-15.33-1.5-23-4.13,63.24-7.65,126.44-11.07,189.64-.3,5.38-.73,10.44-6.43,13Zm10.51-256.78v240h47.33c.42-7.7.83-15.16,1.25-22.61q3.48-62.08,7-124.15c1-17.87,1.9-35.74,2.92-53.61.4-7,3.36-9.68,10.52-9.78,3.52,0,7,0,10.56,0,8.25.05,10.78,2.15,11.29,10.34,1.49,24.28,2.81,48.56,4.15,72.84Q400.64,452.6,404,514c.08,1.45.42,2.88.64,4.31h47V278.22Zm42.79-35.05v18H409v-18Zm-17.24.2H302.26v17.87h25.55Zm123.9,17.93v-18h-25.6v18Z"/><path d="M400.23,186.75c0,6.69,0,13.08,0,19.46-.05,6.79-3,10.41-8.26,10.38s-8.29-3.77-8.29-10.49q0-59.19,0-118.4V81.89h-31c-7,27.51-24.35,43.6-53.32,44.21-21,.45-45.26-13.49-51.88-44.34H216.65V309.3c1.7.08,3.32.22,4.94.22,13.77,0,27.53,0,41.3,0a29.29,29.29,0,0,1,5.92.5,8,8,0,0,1-.08,15.68,24,24,0,0,1-5,.42q-26.16,0-52.31,0c-9.13,0-11.59-2.56-11.59-11.82q0-61,0-122.07v-5.61a33.13,33.13,0,0,0-3.49,1.24c-4.53,2.2-9,4.59-13.56,6.68-5.24,2.38-8.68,1.52-12-3.11q-19.26-27.1-38.35-54.34c-3.6-5.15-3-9.11,1.92-13.22,22.29-18.65,44.58-37.3,67.05-55.72a14.94,14.94,0,0,1,8.74-3.06q89.94-.25,179.89,0a14.94,14.94,0,0,1,8.71,3.14c22.35,18.32,44.51,36.88,66.69,55.42,5.29,4.42,5.8,8.27,1.84,13.92q-18.72,26.65-37.55,53.22c-3.78,5.32-7.48,6.2-13.44,3.31-4.81-2.33-9.58-4.75-14.37-7.12A9.65,9.65,0,0,0,400.23,186.75ZM199.8,90.93l-50.2,41.85L180.85,177c5.48-2.72,10.47-5.37,15.62-7.69,2.62-1.18,3.43-2.76,3.4-5.6-.14-15-.07-30-.07-45Zm250.63,41.82c-16.67-13.87-33-27.48-50.19-41.79,0,25.82,0,50.39.09,75a3.88,3.88,0,0,0,2,2.62c5.5,2.89,11.1,5.59,16.89,8.47Zm-115.65-51H265.25c1.46,14.78,18.41,28.26,35,28C317,109.52,333.38,96.35,334.78,81.76Z"/></svg>