<svg id="Layer_1" data-name="Layer 1" xmlns="http://www.w3.org/2000/svg" viewBox="0 0 600 600"><title>Artboard 1 copy 21</title><path d="M330.4,273.31c2.22-4.34,4.06-8.6,6.45-12.54,17.76-29.31,43.78-44.12,78-41.18,35.32,3,58.74,22.86,70.71,56,2.18,6,3.12,11.1,11.46,8.67,4.41-1.28,4.8,2.8,4.94,6,.12,2.88,1.66,7.39-3.11,7.21-10.41-.4-9.21,7.1-10,13.37-4.6,34.51-28.85,61.43-62.35,69.15a81.38,81.38,0,0,1-100-78.54c-.27-16.08-11.53-26.88-27.44-26.76-15.46.12-25.29,10.4-25.71,26.87-1.09,43.52-35.32,78-79.06,79.71-41.38,1.59-78.13-30-83.17-71.6-.68-5.64.32-12.31-8.77-11.94-5.41.22-4.82-3.72-4.46-7.33s1-7.54,6.08-6.08c7.27,2.09,8.22-2.62,9.83-7.79,10.14-32.65,37.93-55.54,70.3-58.22,34.83-2.88,65.78,14.31,81.24,45.78,3.13,6.37,4.47,8.32,11.85,3.71C295.58,256.22,313.61,259.9,330.4,273.31ZM192.1,231.57c-37.78,0-68.55,30.73-68.35,68.34.2,37,30.89,67.48,68,67.64a67.94,67.94,0,0,0,68-67.33C260.11,262.08,230.06,231.61,192.1,231.57ZM408.45,368.45c37.31-.2,67.66-30.54,67.72-67.7.06-37.49-31.15-68.63-68.52-68.35a68.1,68.1,0,0,0-67.47,68C340.19,338.53,370.4,368.66,408.45,368.45Z"/></svg>