<svg id="Layer_1" data-name="Layer 1" xmlns="http://www.w3.org/2000/svg" viewBox="0 0 600 600"><defs><style>.cls-1{stroke:#fff;stroke-miterlimit:10;stroke-width:8px;}</style></defs><title>Artboard 1 copy 4</title><path class="cls-1" d="M216.08,319.1a6,6,0,0,0,.23-2.78q.52-83.61,1-167.23c0-6.34.47-12.69.65-19a21.62,21.62,0,0,1,3.85-11.19c11.05-17.18,29.76-23.26,49-17,1,.33,2.06.75,3.09,1.11,3.12,1.1,3.14,1,4-2.27,3.44-13.29,10.73-23.82,23.9-28.55,18.23-6.54,39-1.87,50,17.54.93,1.63,1.52,3.85,2.92,4.69s3.1-1.26,4.77-1.82c10.1-3.42,20.33-4.9,30.68-1.55,14.52,4.69,22.18,15.39,25.06,29.9a113.22,113.22,0,0,1,2.49,20.27c0,2.1.85,2.41,2.6,1.73a46.24,46.24,0,0,1,13.86-3.4c20.38-1.26,38.65,10.13,41.87,33.66,1.32,9.65,1.3,19.39,1.32,29.11.14,62.33.17,124.66-.48,187-.12,11.28.05,22.64-2.31,33.74-7.23,33.95-22.25,63.26-51,84.2-15.07,10.95-32,17.42-50.2,20.59-21.24,3.69-42.6,3.42-64,1.56a159.89,159.89,0,0,1-47.15-11.13c-18.6-7.64-33.82-19.84-47-34.84-12.92-14.73-23.86-30.88-33.88-47.65-19.17-32.09-37-64.91-53.85-98.29-6.75-13.4-6.81-26.76.49-39.81,9.38-16.78,27.75-23.62,46.69-18a42.78,42.78,0,0,1,20,13c7,7.84,13.13,16.39,19.6,24.66C214.82,317.94,215.12,318.81,216.08,319.1Zm241.7-24.59c0-5.25,0-10.51,0-15.76q.21-42.93-.15-85.85c-.07-6.82-.22-13.64-2.2-20.27-2.45-8.21-6.51-11.67-15-12.59-1-.11-2.05,0-3.05-.14-11.24-1.4-18.75,7.72-19,18.83-.69,33.86-.42,67.74-1.62,101.6-.18,5-2.59,7.85-7.56,8.84-6.18,1.23-10.55-2.09-10.82-8.29-.21-4.62-.41-9.24-.48-13.87-.74-45.16-.94-90.32-1-135.48,0-6-1.93-10.8-4.93-15.53a12.79,12.79,0,0,0-9.6-6,36.83,36.83,0,0,0-11.24.17c-7.38,1.26-12.2,6.37-12.88,13.77s-.76,14.87-.82,22.32q-.48,63.27-.94,126.55c0,.75.26,1.6-.39,2.24-2.94,2.92-6.21,5.06-10.64,4.34-2.87-.46-5-2.21-7-4.14-1.35-1.32-.66-3.14-.67-4.71q-.37-54.57-.66-109.14c-.12-18.12-.3-36.22-.89-54.33a15.71,15.71,0,0,0-4.17-10.87C322.53,85.84,307.45,87.1,299.8,99c-1.08,1.68-2.14,3.27-2.15,5.54-.25,54.88-.62,109.76-.79,164.65a9.48,9.48,0,0,1-3.8,8c-3.51,2.92-7.49,3.18-11.25.57-1.15-.8-2.13-1.85-3.27-2.67a3.77,3.77,0,0,1-1.53-3.43c-.27-45.08-.64-90.16-.82-135.24a12.89,12.89,0,0,0-3.34-9c-8-9.17-20.92-10.41-29.82-2.64a14.84,14.84,0,0,0-5.49,11c-.14,3.92-.44,7.83-.47,11.75q-.51,77-1,154.06c-.1,16.94,0,33.87-.91,50.79a7.2,7.2,0,0,1-1.09,4.26c-2.42,3.13-11.06,4.64-13.76.7-1.45-2.13-3.34-3.94-5-5.94-11.87-14.4-22.78-29.55-34.53-44-5.66-7-12.71-9.84-21.49-9.05a17.63,17.63,0,0,0-15.93,14.34c-1.28,6.54.18,12.64,3.13,18.42q26.17,51.18,55.9,100.39a280.93,280.93,0,0,0,27.22,38c14.82,17.24,32.81,29.38,55,35.14a200.41,200.41,0,0,0,35.45,5.62c20.14,1.54,40.08.72,59.73-4.44,26.39-6.93,46.38-22.41,59.94-45.86,12.18-21.07,17.44-44.05,17.54-68.4C457.4,359.12,457.68,326.81,457.78,294.51Z"/></svg>