<svg id="Layer_1" data-name="Layer 1" xmlns="http://www.w3.org/2000/svg" viewBox="0 0 600 600"><defs><style>.cls-1{stroke:#fff;stroke-miterlimit:10;stroke-width:3px;}</style></defs><title>Artboard 1 copy</title><path class="cls-1" d="M300.79,78.65c65.72.34,119.28,57.15,115,122.56-.52,8,1.33,10.57,9.08,12.83,56.05,16.3,91.87,69.19,85,124.43-7.15,57.59-52.43,100.55-111.1,103.41-36,1.75-66.8-11.61-90.84-38.69-6.17-6.94-8.9-8.13-15.79-.36-33.1,37.32-83.47,49.11-127.33,30.86-45.89-19.09-77.39-65.5-75.4-111.08,2.24-51.3,34.65-93.63,83.91-107.91,9.29-2.7,11.26-6.35,11-15.47C182.26,131.48,233.94,78.3,300.79,78.65ZM396,198c0-.81.13-3.76,0-6.7C393.26,137.26,348.65,96.7,294.49,99c-52.3,2.25-92.07,46.54-90.19,100.43.8,22.89-2.89,28.29-23,33.71-40.9,11-68.24,44.54-71.52,87.74-2.86,37.71,23.66,77.82,62.16,94,36.16,15.21,77.78,5.11,105.65-25.64,17.45-19.26,27.54-19.17,45,.38a95.65,95.65,0,0,0,108.33,24.84A96.72,96.72,0,0,0,490,319c-2.76-40.47-31.23-75-70.78-85.73C398.35,227.63,394.1,221.61,396,198Z"/><path class="cls-1" d="M300.37,521.2c-23.13,0-46.26,0-69.39-.05-3.9,0-9.63,1.49-9.39-5,.22-6.14-4.51-15.22,3.79-17.92,28.3-9.19,46.79-30.77,66.21-50.95,8.16-8.46,12.59-7.41,19.74.53,9.53,10.61,20.15,20.27,30.68,29.94,8.39,7.71,17.55,15.42,28.68,17.72,14.08,2.91,10.84,12.61,10.34,21.19-.37,6.24-6.17,4.44-10,4.46C347.48,521.27,323.93,521.2,300.37,521.2Zm-27.86-20.86h63.57c-11.08-10.57-21-19.86-30.68-29.38-3-2.93-5.44-3.53-8.27-.13Z"/></svg>