<svg id="Layer_1" data-name="Layer 1" xmlns="http://www.w3.org/2000/svg" viewBox="0 0 600 600"><title>Artboard 1 copy 14</title><path d="M282.1,498.13H209.86c-30.28,0-52.46-22.09-52.48-52.3,0-45.28-.27-90.55.1-135.82.2-25.26-.4-50.51-.15-75.77.24-23.14,11.89-40.78,33.31-49.4,2.06-.83,2.59-1.89,2.57-4-.08-9.41,0-18.83,0-28.25,0-5.48,1.8-7.22,7.31-7.26,3.1,0,6.2,0,9.3,0,4.69,0,4.69,0,4.7-4.53q0-15.56,0-31.11c0-6.13,1.77-7.85,7.91-7.86h54.71c6.38,0,8,1.64,8,8.07,0,11,0,21.93-.2,32.89,0,2.35.93,2.84,3,2.79,3.8-.09,7.61,0,11.42,0,5.37,0,7.33,2.07,7.29,7.37-.07,8.21.1,16.43-.2,24.63-.14,3.7,1.19,4.38,4.64,4.55,17.36.81,34.78,1.05,51.69,6,25.25,7.44,46.69,20.35,61.53,42.64,11.93,17.92,17.27,37.92,18.3,59.32,2,41.72-13.47,78-34.61,112.52a85.25,85.25,0,0,1-6.75,10.09c-2.43,2.91-2.36,5.46-.9,8.72,3.51,7.85,6.38,15.9,6.51,24.69a50.94,50.94,0,0,1-50.69,51.95h-74ZM168.57,340q0,52.92,0,105.85c0,24,17,41,40.94,41.09q31.29.06,62.59,0c27.89,0,55.78.1,83.68,0a39.49,39.49,0,0,0,37.34-53.3c-1.57-4.37-3.18-8.75-5.16-12.94-1.8-3.82-1.26-6.8,1.22-10.2a241.45,241.45,0,0,0,31.46-57.54c7.72-20.58,12.7-41.68,10.92-63.9-1.5-18.56-5.92-36.24-16.52-51.86-17.11-25.2-42.25-37.11-71.36-41.48-17.21-2.58-34.68-2.73-52.09-2.76-27.17-.06-54.35,0-81.53,0-24.41,0-41.48,16.9-41.49,41.25Q168.56,287,168.57,340Zm81.55-158.27h0c13.94,0,27.88,0,41.82.05,2.52,0,3.79-.54,3.63-3.33a142.75,142.75,0,0,1,.06-19.62c.16-2-.85-2.63-2.82-2.61q-26.55.21-53.09.26c-10.72,0-21.45.08-32.17,0-2.49,0-3.31.73-3.25,3.25.15,6.31.17,12.63,0,18.94-.07,2.6.88,3.15,3.3,3.14C221.77,181.63,235.94,181.69,250.12,181.69Zm24.06-52.36h-.26c0-4.41-.1-8.81,0-13.21.07-2.28-.6-3.1-3-3.08q-21.06.17-42.12,0c-2.59,0-3.18.9-3.15,3.3.12,8.57.16,17.14,0,25.7-.05,2.74.88,3.38,3.48,3.37,14.25-.08,28.5,0,42.76.1,2.14,0,2.29-1,2.27-2.64C274.15,138.35,274.18,133.84,274.18,129.33Z"/><path d="M392.49,302.13c0,21-7.66,39.4-19.71,56.2-3.22,4.48-8.22,3.43-10.39-2Q347,317.87,331.68,279.38q-7.41-18.58-14.83-37.15c-2.41-6.07,0-9.62,6.59-9.25,18.3,1,35.24,5.78,48.93,18.79,8.59,8.16,13.87,18.26,17.19,29.57A64.25,64.25,0,0,1,392.49,302.13Zm-62.57-57.29c13.15,33,26.09,65.42,39.38,98.72.51-1.05.67-1.38.84-1.7.89-1.68,1.85-3.33,2.68-5.05,9.48-19.59,12.57-39.49,3.31-60.17-5.18-11.55-13.06-20.38-24.56-25.81A65.75,65.75,0,0,0,329.92,244.84Z"/></svg>