<svg id="Layer_1" data-name="Layer 1" xmlns="http://www.w3.org/2000/svg" viewBox="0 0 600 600"><defs><style>.cls-1{stroke:#fff;stroke-miterlimit:10;stroke-width:3px;}</style></defs><title>Artboard 1 copy 22</title><path class="cls-1" d="M105.62,529.13c-4.09-2.9-4.79-6.43-3.13-11.23,14-40.5,27.7-81.13,41.87-121.58,8.34-23.8,21.61-44.4,41.84-60a10.34,10.34,0,0,0,1.08-1.22c-1.49-.87-3-.54-4.36-.55q-11.64,0-23.26,0c-13.41.06-23.09-5.83-28.94-17.94-1.88-3.89-3.88-7.72-5.76-11.61-3.48-7.2-.79-11.57,7.27-11.72,4.77-.09,9.56-.24,14.31.05,3.68.23,4.78-.85,4.7-4.67a152.13,152.13,0,0,1,26.52-89.83C203.84,160,240,136.27,286.24,128.42c3-.52,4.19-1.45,3.8-4.44a16.3,16.3,0,0,1,0-4c.59-5.44-.76-9-5.89-12.65-12.7-8.88-9.8-28.54,4.48-34.73,1.34-.59,2.7-1.14,4.05-1.71h35.81c6,2.17,11.32,5.17,14.36,11.21a20.29,20.29,0,0,1-8.5,27.31c-2.5,1.36-3.42,2.76-3.23,5.49.29,4.14-1.14,9.21.78,12.2s7.39,1.79,11.26,2.76C408.31,146.09,449,187.11,466.23,251.66A122.62,122.62,0,0,1,470,288.91c-.17,3.81,1.29,4.47,4.59,4.38,5.81-.17,11.64-.18,17.44.14,5.37.29,7.57,3.21,5.63,8.05-3.17,7.85-6.62,15.65-11.79,22.46a23,23,0,0,1-9.81,7.59c-2.58,1-2.67,2.19-1.81,4.67a27.33,27.33,0,0,1-9.86,30.59q-59.46,42.56-118.9,85.13c-8.72,6.26-18.22,10.18-29,10.44-11.62.29-23.26.21-34.89.18-3.87,0-6.65-1.84-7.27-5.87a6,6,0,0,1,3.85-6.86,13.05,13.05,0,0,1,4.82-.61c9.25-.06,18.5-.17,27.74,0a44.61,44.61,0,0,0,27.61-8.72q58.5-42,117.08-83.82c.37-.26.73-.52,1.08-.8,5.87-4.64,7.76-11,4.75-16S452,333.41,445,336.65c-31.51,14.51-63,29.15-94.48,43.65-4.23,1.95-7.93,4.08-10.91,8-4.15,5.43-10.34,8.17-17.15,8.43-10.42.39-20.87.3-31.3.33q-24.84.06-49.67,0a23.43,23.43,0,0,1-4.89-.32,5.9,5.9,0,0,1-5-6c-.15-3.38,1.42-5.81,4.76-6.64a22.54,22.54,0,0,1,5.33-.42q36.69,0,73.38,0c2.08,0,4.18,0,6.25-.23,6.42-.62,10-4.28,9.85-9.89-.19-6.06-4.7-10.94-10.68-11-12.68-.14-25.36-.21-38,0-5.09.09-8.51-1.47-11.59-5.78-16.81-23.53-45.15-29-70.49-13.79-17.66,10.62-29,26.75-37.66,44.92-8.92,18.74-14.35,38.8-21.23,58.3-8.81,25-17.33,50.09-25.85,75.18a14.66,14.66,0,0,1-5.53,7.8Zm204.92-208c49.81,0,99.62-.12,149.42.12,8.31,0,14.06-2.93,17.81-10.12.65-1.24,2.45-2.43,1.55-3.84s-2.77-.57-4.2-.57q-72.48,0-144.95,0c-1.49,0-3,.06-4.48,0-4.43-.28-7-2.65-7.09-6.46-.1-4,2.54-6.59,7.17-6.88,2.37-.14,4.77,0,7.15,0,39.67,0,79.34-.05,119,.08,3.67,0,5-.91,4.81-4.66-.25-6.4-.21-12.8-1-19.19-11-92.35-109.1-157.71-200.92-117.77-55.78,24.27-86,68.38-90.12,129.5-.81,12-.33,12,11.87,12q58.6,0,117.21,0c5.82,0,8.72,2.29,8.77,6.64s-2.85,6.69-8.61,6.75c-4.33.05-8.65,0-13,0q-67.55,0-135.1,0c-1.42,0-3.36-.76-4.17.65-.91,1.58.69,3.05,1.48,4.39,3.92,6.64,9.73,9.45,17.49,9.43Q235.6,321,310.54,321.09Zm-41.66,13.75c4.78,4.57,9,8.52,12.39,13.16,1,1.42,2.71,1,4.16,1,11.62,0,23.25-.06,34.88,0,10.72.08,18.81,5.68,22.53,15.81,1.09,3,2.12,3.35,4.94,2,21.42-10.06,42.92-19.95,64.37-29.92,1-.45,2.36-.47,2.65-2.11ZM310.56,98.63c4.61,0,9.22.12,13.83,0,4.24-.14,7.17-3.07,7.28-6.93a7.12,7.12,0,0,0-7.36-7.32q-13.6-.19-27.21,0c-4.53.06-7.46,3.07-7.43,7.18s2.95,7,7.51,7.1S306.1,98.64,310.56,98.63Zm.19,27.81c7,0,7,0,7-5.2,0-9.12,0-9.12-5.75-9.13-8.55,0-8.55,0-8.55,5.89C303.43,126.44,303.43,126.44,310.75,126.44Z"/><path class="cls-1" d="M188.85,529.13c-3.75-2.87-4.44-6.49-3.42-11,3.06-13.66,5.78-27.39,8.74-41.08,3.56-16.49,16.47-27.32,33.25-27.79,7.75-.21,15.51-.12,23.26,0,4.65.05,7.53,2.57,7.68,6.38s-2.89,6.87-7.64,7c-7,.14-14,0-21,.05-12.49.07-20.16,6.25-22.73,18.41-2.77,13.11-5.57,26.22-8.13,39.37-.74,3.77-2.29,6.7-5.5,8.75Z"/></svg>