<svg id="Layer_1" data-name="Layer 1" xmlns="http://www.w3.org/2000/svg" viewBox="0 0 600 600"><defs><style>.cls-1{stroke:#000;stroke-miterlimit:10;stroke-width:5px;}</style></defs><title>Artboard 1</title><path class="cls-1" d="M384.16,322.5h130c3,0,3,0,3-2.89,0-9.2,0-18.4-1.06-27.58a156.13,156.13,0,0,0-50.67-97.74c-1.87-1.69-2.17-3.86-.78-5.44s3.6-1.6,5.59.19a161.87,161.87,0,0,1,45,67.64,158.23,158.23,0,0,1,9,52.22q.06,33.41.05,66.8c0,14.64-8.83,26.58-22.56,30.76a28.64,28.64,0,0,1-8.33,1.25h-129c-2.2,0-3.66-1-4-2.78a3.6,3.6,0,0,1,2.22-4.1,5.7,5.7,0,0,1,2.09-.19H492.23c14.15,0,24.87-10.73,24.86-24.89,0-7.33,0-14.66,0-22,0-1.42-.3-1.85-1.81-1.85q-81.39.06-162.8,0c-4.93,0-9.86,0-14.79,0a3.51,3.51,0,0,1-3.61-4.52,3.54,3.54,0,0,1,3.73-2.59H515.16c2.23,0,1.91.25,1.92-2,0-3.9-.05-7.81,0-11.7,0-1.36-.44-1.59-1.66-1.59q-30.66.06-61.32,0-100.77,0-201.55,0c-1.07,0-1.44.24-1.41,1.38q.1,6.13,0,12.26c0,1.27.29,1.64,1.61,1.64,16.92,0,33.83,0,50.74,0a3.7,3.7,0,0,1,3.73,2,3.52,3.52,0,0,1-2.73,5.08,13.63,13.63,0,0,1-1.69.05c-16.68,0-33.36,0-50,0-1.3,0-1.62.35-1.63,1.63,0,5.35.36,10.72-.19,16.06-1.26,12.07-11.84,22.32-24,22.9-10.6.5-21.23.15-31.84.14a23.73,23.73,0,0,1-10.63-2.43c-9.38-4.7-14.53-12.3-15.29-22.8,0-.66,0-1.32,0-2q0-66.81,0-133.62c0-12.87,8-23.23,20.27-26.32a24.1,24.1,0,0,1,5.86-.71h29.88c12.78,0,24.32,10.26,25.76,22.95a37.06,37.06,0,0,1,.23,4.08q0,44.54,0,89.08c0,1.29.33,1.62,1.62,1.62q65.68,0,131.36,0Zm-140-23.68q0-33.75,0-67.5a19.32,19.32,0,0,0-19.29-19.43q-14.66-.07-29.31,0a19.23,19.23,0,0,0-19.13,19q0,67.92,0,135.85a19.15,19.15,0,0,0,18.9,18.73H225a16.82,16.82,0,0,0,2.66-.17,19.31,19.31,0,0,0,16.44-19.54Z"/><path class="cls-1" d="M237.56,147.32c41.54,0,83.07-.12,124.6,0A160.6,160.6,0,0,1,444,169.84a4.13,4.13,0,0,1,2.27,2.54,3.47,3.47,0,0,1-1.17,3.69,3.53,3.53,0,0,1-4.2.22c-4.67-2.73-9.42-5.27-14.34-7.53a155.19,155.19,0,0,0-55.38-14c-3.52-.22-7-.31-10.56-.31H142.45c-11.79,0-23.58-.05-35.38,0a24.09,24.09,0,0,0-22.52,15.63,23.24,23.24,0,0,0-1.61,8.53q0,40,0,80.06a16.1,16.1,0,0,1,0,2,3.45,3.45,0,0,1-3.61,3.06,3.39,3.39,0,0,1-3.41-3.1,11.1,11.1,0,0,1-.07-1.41q0-39.68,0-79.35a31.63,31.63,0,0,1,4.42-17.09c6.26-10.08,15.39-15.42,27.25-15.44C150.83,147.26,194.2,147.32,237.56,147.32Z"/><path class="cls-1" d="M177.85,407.71H107.37a31.21,31.21,0,0,1-31.47-30.5c-.23-10.33-.08-20.67-.09-31q0-26.56,0-53.14c0-.7,0-1.41.06-2.11a3.55,3.55,0,0,1,7,0,10.91,10.91,0,0,1,0,1.4q0,14.17,0,28.34c0,1.87-.42,1.76,1.82,1.76h70.76c2.55,0,4.09,1.24,4.18,3.37a3.49,3.49,0,0,1-3.12,3.7,11,11,0,0,1-1.41,0q-35.31,0-70.61,0c-1.4,0-1.7.39-1.67,1.72.1,4,.09,7.9,0,11.84,0,1.32.27,1.73,1.67,1.73q35.17-.08,70.34,0c.52,0,1,0,1.55,0a3.54,3.54,0,0,1,.05,7.06c-.65.06-1.31,0-2,0q-35,0-70.05,0c-1.19,0-1.6.2-1.59,1.51.07,7.7,0,15.41,0,23.12a24.39,24.39,0,0,0,24.24,24.09H250.12c2.65,0,4,1,4.32,3a3.46,3.46,0,0,1-3.16,4c-.56,0-1.13,0-1.69,0Z"/><path class="cls-1" d="M425.19,225.56c11.84,0,23.68,0,35.51,0a9.67,9.67,0,0,1,10,8.27,10.46,10.46,0,0,1,.1,1.68q0,24.73,0,49.47a9.64,9.64,0,0,1-9.87,9.91q-36,0-72,0c-5.5,0-9.65-4.38-9.66-10.16,0-11.46,0-22.92,0-34.38q0-7.26,0-14.52c0-6.13,4.1-10.26,10.26-10.27C401.42,225.54,413.31,225.56,425.19,225.56Zm-.12,7.12H391.26c-4.53,0-4.89.36-4.89,4.9v46.49c0,2.77.9,3.74,3.4,3.74h70.44c2.58,0,3.51-.9,3.51-3.45q0-24.17,0-48.33c0-2.48-.9-3.35-3.42-3.35Z"/><path class="cls-1" d="M304,452.72c-22.26,0-40.58-18.35-40.82-40.25A40.84,40.84,0,1,1,304,452.72Zm0-7.13c18.13.27,33.51-14.88,33.76-33.26a33.87,33.87,0,0,0-33-34.19c-18.6-.3-34.11,14.5-34.43,32.84A33.73,33.73,0,0,0,304,445.59Z"/><path class="cls-1" d="M424.94,389.43H399.16c-5.75,0-9.7-3.83-9.73-9.57a69,69,0,0,1,.15-9.43,8.88,8.88,0,0,1,8.83-7.89c3.43-.08,6.86,0,10.29,0h42c6.26,0,10,3.7,10,10v7.6a9.09,9.09,0,0,1-9.24,9.31c-8.83,0-17.66,0-26.49,0Zm.12-7.13h25.79c2,0,2.7-.67,2.71-2.7,0-2.45,0-4.89,0-7.33,0-1.92-.73-2.65-2.64-2.65H399.34c-2.08,0-2.79.7-2.81,2.78,0,2.35,0,4.7,0,7,0,2.15.73,2.84,2.9,2.84Z"/><path class="cls-1" d="M126.08,246.55H109.31c-6.37,0-10.37-4-10.39-10.4q0-10.49,0-21c0-6.36,4-10.39,10.39-10.38H143a9.7,9.7,0,0,1,10.06,10q0,10.78,0,21.56c0,5.86-3.89,10-9.78,10.14-5.72.12-11.46,0-17.19,0Zm-.18-7.14h16.91c2.15,0,3.08-.93,3.09-3.1q0-10.63,0-21.28c0-2.2-1-3.15-3.21-3.15q-16.69,0-33.4,0c-2.33,0-3.22.91-3.22,3.26q0,10.5,0,21c0,2.41.87,3.26,3.33,3.26Z"/><path class="cls-1" d="M323.54,253.14h16.63c6.25,0,10.28,3.84,10.37,10.1q.15,10.85,0,21.69c-.08,6.06-4.17,10-10.22,10H306.5c-5.73,0-10-4-10-9.75-.09-7.52-.08-15,0-22.55,0-5.34,4.32-9.37,9.88-9.46,2.87-.05,5.73,0,8.6,0Zm0,7.14H307c-2.55,0-3.36.81-3.36,3.38q0,10.36,0,20.72c0,2.57.88,3.43,3.5,3.43h33c2.44,0,3.36-.95,3.37-3.43q0-10.44,0-20.86c0-2.35-.88-3.24-3.22-3.24Z"/><path class="cls-1" d="M210.21,423.58H183.29a3.37,3.37,0,0,1-3.38-2,3.44,3.44,0,0,1,.43-3.72,3.86,3.86,0,0,1,3.25-1.34h53.27c2.23,0,3.72,1.16,4,3,.31,2.4-1.25,4.08-3.83,4.08Z"/><path class="cls-1" d="M236.13,302.84a6,6,0,1,1-6.1-6A6,6,0,0,1,236.13,302.84Zm-5,0A1,1,0,0,0,230,302a.86.86,0,0,0-.85.92c0,.65.5.84,1.07.8A.87.87,0,0,0,231.11,302.79Z"/><path class="cls-1" d="M303.28,391.52c11.75-.8,22.17,9.93,21.12,21.74-.95,10.77-9.55,18.94-20,19-2.33,0-3.86-1.36-3.89-3.49s1.4-3.52,3.78-3.61A13.27,13.27,0,1,0,291.15,409a19.06,19.06,0,0,0-.35,2.93,3.53,3.53,0,0,1-3.77,3.51,3.57,3.57,0,0,1-3.35-3.8,20.4,20.4,0,0,1,18.47-20Z"/></svg>