<svg id="Layer_1" data-name="Layer 1" xmlns="http://www.w3.org/2000/svg" viewBox="0 0 600 600"><defs><style>.cls-1{stroke:#fff;stroke-miterlimit:10;stroke-width:6px;}</style></defs><title>Artboard 1 copy 8</title><path class="cls-1" d="M522.31,473.68c-4.21,7-11,10.31-18.37,12.59-20.35,6.31-41.25,10-62.29,13C378,508.57,314,509,250,505.4c-34.15-1.92-68.29-4.73-101.51-13.85a91.66,91.66,0,0,1-11.39-4c-10-4.24-15.46-11.18-14.75-22.74.63-10.18.07-20.43.16-30.64.06-7.57,4-12.18,10.06-12.22s10.18,4.43,10.28,12.05c.12,9.16.4,18.33-.11,27.45-.3,5.36,1.94,7.42,6.57,9,12.35,4.26,25.09,6.48,37.93,8.29,65.36,9.18,131,10.2,196.77,6.13,36.48-2.26,72.82-6.53,108.26-16.3,9.65-2.66,9.66-2.61,9.66-12.59q0-46,0-91.95c0-1.63-.18-3.26-.3-5.46-21,8.7-42.69,12.66-64.56,15.59a850.14,850.14,0,0,1-143.26,6.67c-13-.47-25.94-1.1-38.9-1.68-7.67-.35-12.69-4.82-12.32-10.91.35-5.9,5.37-9.93,12.79-9.46,30.82,1.93,61.65,3,92.51,2,39.57-1.27,79-3.93,117.82-12.35a137.72,137.72,0,0,0,27.91-8.79c2.5-1.14,5.11-2.1,7-4.76-11.31-7.49-24.17-10.41-37-13s-25.54-4.41-38.34-6.46c-7.94-1.26-11.82-5.51-10.77-12.1,1-6,6.1-9.19,13.63-8.1,24.2,3.5,48.42,6.89,71.3,16.16,10.1,4.09,19,9.48,22.83,20.57Z"/><path class="cls-1" d="M77.69,314C86,302,98.45,299.12,111.77,299.18c4.58,0,5.52-1.23,6.11-5.28,1.36-9.44,5.06-18,11.84-24.91,5.62-5.75,10-6.59,17.25-3.39a39.93,39.93,0,0,1,19.82,19.1c2.41,4.77,4.61,5,9.15,3.12a41.32,41.32,0,0,1,28.69-1.24c7.22,2.22,9.2,7.52,9.65,14.08.66,9.73-2.45,18.49-7.56,26.52-2,3.1-2.1,4.68,1.13,7.06,7.89,5.79,13.66,13.37,16.34,23,2.26,8.06.79,12.2-6,17.06a39.72,39.72,0,0,1-25.86,7.4c-4.77-.28-6.9.44-7.52,6.08a39.19,39.19,0,0,1-14.08,26.35c-3.77,3.16-7.68,4-12.4,2.24-10.55-4-17.82-11.45-22.86-21.16-1.82-3.51-3.18-4.28-7-2.65-9.85,4.14-20.1,5.24-30.5,1.71-5.4-1.84-8.24-5.52-8.89-11.23a42.09,42.09,0,0,1,6.78-28.57C98,351,98.5,349,94.63,346.38c-8.74-6-13.54-14.95-16.94-24.74Zm60-8.66c.57,16.39-2.45,18.88-18.16,15.32a36.73,36.73,0,0,0-15.8-.47c-3.9.81-4,2.2-1.82,5,4,5.23,9.36,8.49,15.22,11.21,10.2,4.72,11.35,11.87,3.22,19.78a39.72,39.72,0,0,0-9.57,13.35c-.74,1.79-2,3.89-.93,5.43,1.42,2,4,.66,5.9.28,5.52-1.07,10.27-3.85,14.86-7,9.34-6.49,16.05-3.93,18.8,7a41.54,41.54,0,0,0,7.58,16c3.25,4.12,5,3.19,6.41-1.38a39.33,39.33,0,0,0,1.65-17c-1.51-11.36,4.39-16.34,15.49-13.24a43.25,43.25,0,0,0,17,1.48c1.83-.22,4.2-.3,4.89-2.09.6-1.56-1.22-3-2.3-4.27a36.69,36.69,0,0,0-12.2-9c-13.29-6.36-14.32-12-4.09-22.28a38.3,38.3,0,0,0,8.2-12c.78-1.83,2.28-4.16.76-5.79-1.22-1.32-3.6-.47-5.49,0A42.1,42.1,0,0,0,173,312.2c-10.64,7.35-16.57,5.2-19.83-7.24a40.63,40.63,0,0,0-7.41-15.35c-3.07-3.87-4.87-2.87-6.31,1.26A36.29,36.29,0,0,0,137.71,305.31Z"/><path class="cls-1" d="M434.05,453.15c-11.6-.44-25.17-5.94-38.56-12-11.81-5.33-23.25-11.43-35.48-15.82-12.62-4.53-25-3.83-37.4.72-15.2,5.56-29.19,13.82-44.27,19.6s-30.6,10.34-47.16,5.44c-12.14-3.59-21.53-10.85-29.24-20.56-4.14-5.23-3.83-11,.53-14.85,4.16-3.66,10.41-3.24,14.73,1.74,6.6,7.59,13.85,14.06,24.22,15.21,10.21,1.14,19.83-2,29.06-5.87,14.28-6,28.37-12.5,42.55-18.75,21-9.25,41.68-7.61,62.37,1.36,15.58,6.75,30.48,15,46.64,20.48,18.31,6.2,30.36,3.21,43.5-11.24,5.41-6,11.31-6.95,16-2.69,4.88,4.4,4.57,9.87-.91,16.26C468.31,446.55,454.22,453.41,434.05,453.15Z"/><path class="cls-1" d="M249.43,329.64c4-23.62,10.25-46.59,29.89-63.32,14.95-12.73,32.75-13.71,51.14-13.07,33.89,1.17,53,27.56,60.23,54.44,1.72,6.35,3,12.82,4.36,19.25,1.47,6.77-1.32,12.12-7,13.64-5.52,1.46-11-2.14-12.58-8.77-2.93-12.4-5.16-25-11.69-36.22-8.09-13.94-19.51-22.11-36.12-22-7.23,0-14.52-.52-21.58,1.36-14,3.71-21.8,14.09-27.71,26.31-3.92,8.09-5.9,16.8-7.67,25.55a46.31,46.31,0,0,1-1.9,7.39c-1.94,5-5.85,7.52-11.08,6.44S249.35,335.78,249.43,329.64Z"/><path class="cls-1" d="M360.05,189.71c-.14,22.27-13.21,40.84-32.31,47.83a14.26,14.26,0,0,1-10.48,0,49.29,49.29,0,0,1,.26-92.7c9-3.2,15.81,2,22.18,6.6A47.91,47.91,0,0,1,360.05,189.71Zm-20.37,1.06c-.27-10-4.81-18.37-13.84-24.34-2.12-1.41-4-1.77-6.39-.24-8.91,5.7-13.92,13.86-14.14,24.29-.22,10.66,4.42,19.24,13.46,25.31,2.69,1.81,4.94,1.74,7.55-.06C334.81,209.88,339.22,201.85,339.68,190.77Z"/><path class="cls-1" d="M180.1,242.84c-4.79-.17-7.63-2.25-9.38-6.16-1.92-4.29-1.26-8.58,2.28-10.94,12.47-8.31,11.39-19.44,6.9-31.06C174.62,181,168.65,167.63,163,154.09c-4.53-10.91-7.56-22.11-6.2-34.11,1.33-11.7,7.71-20,17.58-25.88,5-3,10.67-1.66,13.63,2.63,3.11,4.5,2.81,10.12-2.13,13.54-10.14,7-10.35,16.23-7.28,26.55,3.64,12.26,9.49,23.62,14.48,35.34s9.82,23.53,10.25,36.57c.44,13.74-5.33,24.17-16.66,31.75A12.22,12.22,0,0,1,180.1,242.84Z"/><path class="cls-1" d="M231.83,107.67c4.86.25,7.93,2.09,9.65,6,1.83,4.22,1.36,8.58-2.26,11-12.54,8.3-11,19.42-6.91,31.1,5.85,16.64,14.58,32.1,20,48.91,2.78,8.57,4.3,17.31,3.07,26.36C253.8,243,247,251.32,236.74,256.88c-4.63,2.51-9.29,1.37-12.42-3s-2.89-8.78.83-12.79a24.7,24.7,0,0,1,3.38-2.91c5.76-4.19,7.67-9.89,6.73-16.76-1.87-13.74-8.6-25.72-13.87-38.21-4.54-10.77-9.28-21.41-11.66-33-3.44-16.67,2.33-31.61,15.65-40.09A15.6,15.6,0,0,1,231.83,107.67Z"/></svg>