<svg id="Layer_1" data-name="Layer 1" xmlns="http://www.w3.org/2000/svg" viewBox="0 0 600 600"><defs><style>.cls-1{stroke:#000;stroke-miterlimit:10;stroke-width:0.9px;}</style></defs><title>Artboard 1 copy 20</title><path class="cls-1" d="M440.86,499.29c-1.74-9.85.27-18.81-1.58-28-2.93-14.45-9.48-26.59-21-35.62a174,174,0,0,1-42.55-47.63c-7.71-12.78-17.18-24.43-30.32-32.27-15-8.93-25.5-8.18-38.42,3.33-4.62,4.11-7.12,4.43-11.89,0C247.18,314.57,200.84,268.58,160.48,217c-18.54-23.71-35.45-48.52-47.24-76.43a97.22,97.22,0,0,1-7.63-27.85c-1.15-11,2.27-14,12.92-10.67,9.81,3.09,18.46,8.6,26.89,14.33C181,140.5,213,169,244.86,197.63c85.47,77,165.24,159.86,246.84,240.83,3.93,3.9,3.83,6.07-.05,9.88C474.55,465.15,457.76,482.28,440.86,499.29ZM118.38,114.14c-1.74,3.41,0,6.34.89,9.2,6,20,16.06,37.95,27.62,55.11,42.31,62.87,95.9,115.62,150.61,167.35,3.15,3,5.27,1.73,8.12-.09,8.34-5.33,17.59-9.51,27.35-6.93,8,2.14,12.8-.37,17.32-6.11a27.57,27.57,0,0,1,5-5c4.66-3.5,3.49-6.11-.24-9.79-42.81-42.15-86.25-83.63-131.21-123.48-29.11-25.82-58.23-51.66-90.87-73.1C128.45,118.37,124,115.08,118.38,114.14ZM451.11,473.46c9.13-9.45,16.22-17.47,24.08-24.67,4.78-4.38,3.94-6.8-.24-10.94q-48.12-47.64-95.83-95.7c-11.88-11.9-11.77-11.87-23,.79-2.39,2.69-3,4,.34,6.56,13.59,10.16,23.7,23.4,32.37,37.81,7.35,12.2,16.28,23.19,27.53,31.79C433.9,432.51,447.54,448.21,451.11,473.46Z"/></svg>