<svg id="Layer_1" data-name="Layer 1" xmlns="http://www.w3.org/2000/svg" viewBox="0 0 600 600"><defs><style>.cls-1{stroke:#fff;stroke-miterlimit:10;stroke-width:1.92px;}</style></defs><title>Artboard 1 copy 13</title><path class="cls-1" d="M268.66,78h63.25c10.83,3.92,15,11.84,14.34,23-.37,5.76-.1,11.56-.06,17.34s.3,11.85-6.75,14.38c-.91.33-1,1.09-1.25,1.9-3.06,11,.59,20.64,10.18,26.81.52.34,1.06.64,1.59,1,25.71,15.69,40.5,37.25,36.56,68.66-.9,7.19-.67,14.62-7.15,20.3-4,3.49-2.39,13,2,16,2.77,1.95,3.6,4.32,3.6,7.34q0,55.75,0,111.5a8.54,8.54,0,0,1-3,7.08c-5.71,4.93-6.29,15.76-.72,20.91,3.13,2.9,3.88,6,3.87,9.85-.07,20.85-.22,41.71,0,62.56.17,14.18-5.21,25.22-18.14,31.12-12.57,5.73-24.92,4.73-35.55-5.26-1-.95-1.94-2.55-3.53-.9-6.36,6.62-15,8-23.28,10.35h-7.44c-7.72-2-16-2.9-22.05-8.81-2.48-2.41-3.95-2.09-6.49.11-10.33,8.94-22.26,9.85-34.17,4.37s-18-15.32-18-28.66c0-21.7,0-43.39,0-65.08,0-3.66.72-6.51,3.54-9.35,6.07-6.14,5.12-15.61-1.63-21.58a8.19,8.19,0,0,1-2.71-6.62V274.83a8.53,8.53,0,0,1,3.45-7.46c4.61-3.54,5.78-12.8,1.56-16.54-4-3.55-5-7.79-5.72-12.51l-2-14v-6.2a42.43,42.43,0,0,0,1-4.79,55.55,55.55,0,0,1,14.42-32.75,82.6,82.6,0,0,1,22-17.77c9.48-5.12,13.89-12,12.23-22.84-.56-3.63.15-7-4.39-8.89-3.51-1.49-4-5.47-4-9.11,0-7,.25-14-.07-21C253.56,89.78,257.79,81.84,268.66,78Zm31.51,301.64c-21.9,0-43.8,0-65.7.05-1.89,0-4.42-1.12-5.54,1.35-.94,2.08.31,3.8,1.64,5.56,7.07,9.35,7.86,20.24,2.53,29.75-4.21,7.51-4.44,14.68-4.47,22.41q0,18,0,35.95c0,5.78-.22,11.59.28,17.34.81,9.29,9.07,16.22,18.76,16.28s15.21-5,16.42-15.44c.45-3.86,1.6-6.95,6.09-7.16,4.72-.23,6.41,2.7,7.08,6.88,1.43,8.92,5.8,13.54,14.41,15.57a32.46,32.46,0,0,0,16.55-.09c8.3-2.36,14.62-6.67,15.13-16.4.21-4.08,2.73-6.73,6.72-6.69,3.78,0,5.79,2.77,6.1,6.57.05.61,0,1.24.05,1.85,1.1,10,7.51,15.5,17.57,15.06s17.92-8.41,18-19.08c.13-20,0-40.08.09-60.12a15.26,15.26,0,0,0-2.7-9.17,29.41,29.41,0,0,1,.86-33.62c1.35-1.82,2.36-3.55,1.45-5.6-1-2.21-3.29-1.2-5-1.21C344.38,379.61,322.28,379.64,300.17,379.64Zm-.08-98.31c22.09,0,44.19,0,66.29-.06,1.82,0,4.4,1.29,5.36-1.45.77-2.19-.81-3.76-2.08-5.47a26.36,26.36,0,0,1,.94-32.59,11.76,11.76,0,0,0,2.43-5.51c5.11-26-2.85-45.58-27.4-60.9-14.37-9-23.39-19.18-20.11-37,.86-4.65-1.64-5.46-5.67-5.37-10.12.21-20.24.07-30.36.07-14.26,0-14.72,0-14.12,14.13.41,9.58-3.26,16.27-10.91,21.35-4.3,2.85-8.54,5.79-12.8,8.7-20.85,14.23-28.57,33.82-24,58.51a12.63,12.63,0,0,0,2.69,6,27,27,0,0,1,.5,32.71c-1.3,1.72-2.84,3.34-1.89,5.49,1.11,2.51,3.65,1.24,5.49,1.25C256.31,281.37,278.2,281.33,300.09,281.33ZM299.67,367c22.11,0,44.23-.1,66.34.09,4.33,0,6.13-.69,6.06-5.64q-.44-31,0-62c.06-4.89-1.67-5.7-6.06-5.69q-65.73.22-131.45,0c-4.39,0-6.12.8-6.05,5.69q.42,31,0,62c-.07,4.95,1.73,5.68,6.06,5.64C256.26,366.94,278,367,299.67,367Zm.57-246.88c9.68,0,19.37-.07,29.05,0,2.8,0,4.1-.65,4-3.75-.19-6.38-.12-12.78,0-19.16.06-4.41-2.22-6.55-6.39-6.57q-26.58-.11-53.16,0c-4.16,0-6.49,2-6.42,6.49.09,6.18.2,12.37-.06,18.54-.15,3.58,1.14,4.55,4.58,4.48C281.28,120,290.76,120.17,300.24,120.16Z"/></svg>