<svg id="Layer_1" data-name="Layer 1" xmlns="http://www.w3.org/2000/svg" viewBox="0 0 600 600"><defs><style>.cls-1{stroke:#fff;stroke-miterlimit:10;stroke-width:3px;}</style></defs><title>Artboard 1 copy 15</title><path class="cls-1" d="M434.61,538.5H165.37c-22.16-5.81-36.76-18.66-39.32-42.55-.42-4-3-4.14-6-4.1a128.81,128.81,0,0,1-13.76-.14c-16-1.53-25.53-13.18-23.47-29Q88,422.84,93.7,383.05c2.12-14.68,9.24-22.39,24-23.92,7.65-.8,8.08-4.14,8.07-10.05-.06-26.83-.19-53.68.36-80.51,1.42-69.17,33.05-120.4,93.32-153.75,9.11-5,16.59-9.94,21.89-19.51,11.41-20.59,31.07-29.63,53.37-33.81h12.72c22.89,5.06,42.43,15.35,53.43,37.09,3.66,7.24,9,10.78,15.71,14.26,56.86,29.3,89.68,75.69,96.6,139.45,3.51,32.32.79,64.86,1.37,97.3.1,5.39.18,8.72,7.46,9.42,15.46,1.48,22.73,10,24.74,25.41,3.22,24.79,6.52,49.57,10.15,74.31,3.12,21.29-6.71,32.94-28.53,33.11-2.82,0-5.65.09-8.47,0-3.17-.11-5.35.64-5.76,4.4C471.46,520.12,456.78,532.82,434.61,538.5ZM301.08,522.65v.06H422.93c24.15,0,35.54-11.31,35.61-35.71.12-41.32.06-82.65.11-124,0-17.11.06-17.5-17.27-17.2-9.65.17-13.24-3.55-13.11-13.1.29-21.9.15-43.8-.25-65.7-.87-47.19-22-83.48-61.75-108-42-25.91-86.09-25.84-128.76-2.2-42.52,23.56-64.12,61.31-65.52,110-.66,22.94-.29,45.92-.12,68.87.06,8.31-3.06,12.76-11.83,12.19-2.46-.16-5,.28-7.41-.08-8.69-1.29-11.43,2-11.33,11,.47,42.73.2,85.47.27,128.21,0,24.49,11.27,35.67,35.53,35.66ZM141.47,287.43c0,12.36.19,24.73-.09,37.08-.13,5.66,1.31,8.09,7.62,8.15,6.81.06,7.28-3.37,7.29-8.55,0-21.18-.24-42.38.48-63.55,3-88.06,89.65-153.3,175.55-132.43,65.56,15.93,109.26,69.81,111,137.19.5,19.41.53,38.84.51,58.26,0,5.87,2.84,6.84,7.92,6.86s7-1.82,6.88-6.74c-.57-26.11,2.44-52.47-1.73-78.29C446,177.71,399.25,129.12,332.09,112.62c-60.51-14.87-128.27,14.58-164.54,68.84C146,213.66,139.49,249.48,141.47,287.43ZM474.58,424q0,18.56,0,37.1c0,16.42,0,16.38,16.38,15,8.14-.69,12.16-4.17,10.75-13.09-2.31-14.63-3.95-29.36-6-44-1.63-11.89-3.28-23.77-5.17-35.61-1.1-6.89-6.27-9.45-12.39-8.92s-3.41,6-3.48,9.3C474.37,397.19,474.55,410.62,474.58,424Zm-348.8,1.15c0-14.12.08-28.24-.07-42.36,0-2.89,1.66-7-2.59-8.14a10.15,10.15,0,0,0-11.3,3.95,21.09,21.09,0,0,0-3,8.88c-3.19,23.4-6.31,46.81-9.19,70.25-2.05,16.77.53,19,17.91,18.59,6.48-.16,8.52-2.42,8.34-8.8C125.49,453.45,125.77,439.32,125.78,425.19Zm132.68-326c27.63-7.18,54.33-7.58,81.72-1C323.83,71.28,277.85,71.68,258.46,99.14Z"/><path class="cls-1" d="M300.15,488.38c-26.13,0-52.27.15-78.41,0-23.54-.17-35.22-12-35.24-35.22,0-23-.1-45.92.07-68.88.21-28.29,18.88-47.1,47.23-47.22q65.7-.28,131.4,0c30.42.15,48.21,18.56,48.23,49.27,0,23,.17,45.92,0,68.88-.13,21.11-11.49,32.74-32.76,33-26.84.33-53.69.08-80.54.08Zm-.4-15.58c26.46,0,52.92.07,79.38,0,13.39,0,18.61-5,19-18.35.34-10.57-.34-21.18.19-31.74.37-7.29-.83-10.84-9.5-10.71-8.15.12-11.94,2-10.52,10.6a15.92,15.92,0,0,1-.17,5.24c-.65,3.81-2.54,6.48-6.8,6.82-4.78.38-7.39-2.4-8.39-6.42a28.81,28.81,0,0,1-.36-9.46c.47-5.25-1.86-6.58-6.76-6.57q-73.56.24-147.12.05c-6,0-7.07,2.47-7,7.63.23,11.29-.18,22.58,0,33.87.2,13.33,6,19,19.67,19C247.53,472.86,273.64,472.78,299.75,472.8Zm.25-76.1v0c30,0,60.06-.18,90.08.14,6.65.07,8.3-2,8.17-8.48-.5-24.81-10.63-35.6-35.55-35.74q-63.58-.37-127.17,0c-22,.1-33.55,12.43-33.93,34.5-.12,7.2,1.73,9.87,9.39,9.76C240.65,396.46,270.33,396.7,300,396.7Z"/></svg>