<svg id="Layer_1" data-name="Layer 1" xmlns="http://www.w3.org/2000/svg" viewBox="0 0 600 600"><defs><style>.cls-1{stroke:#fff;stroke-miterlimit:10;stroke-width:16px;}</style></defs><title>Artboard 1 copy 6</title><path class="cls-1" d="M395.73,339.68c27.75,5.52,53.82,12,78.66,22.62,15.44,6.62,30.12,14.51,43.06,25.41,31.34,26.39,31.48,58.92-.07,85.09-22,18.22-47.76,29.23-75,36.52-104.64,28-208.62,27.48-311.36-9.2-20-7.13-38.54-17.28-53.87-32.4-24.84-24.5-24.18-53.5,2-77,22.45-20.18,49.72-31.2,78.15-39.6,15-4.43,30.23-7.8,46.48-11.94-5.14-9.09-10.36-18-15.26-27.06-13.85-25.63-27.85-51.46-31.73-80.76-9.29-70,38.28-138.82,106.91-156,91.72-22.91,179.5,44.43,181.18,139.39.42,23.79-8.22,45.62-17.92,66.92C418.05,301.21,407.43,319.84,395.73,339.68Zm-96.66,76.63c1.38-.83,2.12-1.05,2.51-1.55,36.27-47.54,70.83-96.18,95.79-150.87,6.64-14.55,12.81-29.46,13.11-45.84,1.09-58.9-42.11-107.2-102.65-112.44C224.63,98.4,171,184.13,195.5,246.34,220.26,309.15,260,362.46,299.07,416.31Zm1,55.21c-4.18-5-8.22-9.67-12.06-14.5-17-21.39-35.21-42.16-48.69-65.83-10.2-17.9-22-20.92-40.38-16-32,8.55-64.42,15.92-91.82,35.84-18.89,13.72-18.52,25.92.39,39.44C124.61,462.68,144,470,163.93,475.86c76,22.13,153,23.56,230.4,10.05,33-5.76,65.54-14.28,94.17-32.78,24.59-15.9,24.48-29,.05-44.88C457.41,388,422,379.87,386.17,372.8c-8.75-1.73-12.76.91-17.42,7.78A1123.64,1123.64,0,0,1,300.08,471.52Z"/><path class="cls-1" d="M299.59,156.14a60.54,60.54,0,1,1,.22,121.08c-33.45,0-59.91-26.64-60-60.45C239.67,183.14,266.19,156.25,299.59,156.14Zm-25.65,60.08c-.26,14.44,11.62,27.13,25.62,27.35s26.3-12,26.6-26.44-11.57-27-25.69-27.31S274.19,201.66,273.94,216.22Z"/></svg>