<svg id="Layer_1" data-name="Layer 1" xmlns="http://www.w3.org/2000/svg" viewBox="0 0 600 600"><defs><style>.cls-1{stroke:#000;stroke-miterlimit:10;stroke-width:3px;}</style></defs><title>Artboard 1 copy 7</title><path class="cls-1" d="M123.8,396.8c25.44-44.86,95.94-59,136.79-.37.05-35.84.1-70.23.15-104.62,0-19,0-38,.12-56.94,0-3.4-1.62-8,4.29-8.39,6.25-.4,4.71,4.42,4.71,7.74-.05,69.74.31,139.47-.51,209.2-.43,36.49-32.18,66.13-73.27,70.72-33.75,3.77-70.64-22.59-79.89-57.2a78,78,0,0,1-2.72-20.7q.41-137.4.51-274.8c.07-40,29.3-71.78,72.68-76.22a75.22,75.22,0,0,1,80.41,57.12c3.3,13,7.64,16.71,21.29,16.54,68.49-.84,137,0,205.48-.34,9.19,0,11.66,2.22,11.62,11.56q-.76,166.48-.47,333c0,10-3,12.14-12.45,12.08-79.64-.49-159.27-.46-238.91-.58-2.47,0-4.95-.08-7.42-.09-3.26,0-4-1.93-4.09-4.8-.05-3.12,1.38-4.47,4.36-4.49,3.3,0,6.6-.07,9.9-.07,68.08.1,136.16,0,204.24.49,8.87.06,11.94-1.67,11.91-11.38q-.34-157.2.46-314.41c0-9.56-2.74-11.46-11.73-11.41q-90.36.47-180.72-.28c-9-.07-11.49,2.77-10.66,11.17.64,6.53.19,13.19,0,19.79-.06,2.64.92,6.09-3.71,6.29s-5.48-2.27-5.44-6.17c.13-12,.35-23.94,0-35.9-1-36.94-26.72-65.24-62.58-69.24-31.88-3.55-62.88,18.37-72.73,51-2.09,6.92-2,13.85-2,20.78q-.37,112.64-.43,225.28C123,392.27,123.31,393.4,123.8,396.8Zm-.81,39c.09,38.2,31,69.25,68.79,69.2s68.83-31.44,68.6-69.48c-.24-38.37-31-69.23-68.86-69.18S122.91,397.68,123,435.82Zm372.33-97.37q.12-79.14.15-158.28c0-5,2.93-12-7.33-11.69-9.42.31-6.54,6.79-6.55,11.36q-.43,157-.52,314.08c0,5.19-2.53,11.95,7.53,11.7,9.68-.23,6.33-7,6.35-11.37C495.23,442.32,495.23,390.38,495.32,338.45Z"/><path class="cls-1" d="M103.86,284.27c0,11.9,0,23.79-.09,35.68,0,3.05.92,6.81-4.44,6.74-5-.05-4.79-3.36-4.79-6.71q0-36.28.1-72.57c0-3.78-.2-7.72,5.45-7.39,5.46.32,3.71,4.55,3.75,7.35C104,259.67,103.88,272,103.86,284.27Z"/><path class="cls-1" d="M355.44,140.69c14,0,28-.06,42,.13,2.9,0,7.17-1.38,7.53,3.77.46,6.44-4.68,4.53-7.8,4.55-28.39.11-56.77,0-85.16-.09-3,0-7.15,1-7-4.32s4.34-4,7.27-4C326.64,140.56,341,140.66,355.44,140.69Z"/><path class="cls-1" d="M191.34,381.2c30.32,0,55.23,24.5,55.4,54.47.16,29.66-25.17,54.58-55.4,54.49S136.27,465,136.77,435.05A54.74,54.74,0,0,1,191.34,381.2Zm.63,9.49c-25.61-.1-45.87,19.52-46.15,44.68-.27,25,20,45.14,45.54,45.31s45.82-19.56,46-44.71S217.41,390.79,192,390.69Z"/><path class="cls-1" d="M191.49,465.57c-16.8-.07-30.91-14.08-30.61-30.36.3-15.85,14.18-29.35,30.31-29.45,17-.11,31.12,13.39,31.23,29.8S208.33,465.65,191.49,465.57Zm.89-50.76a20.93,20.93,0,1,0,20.23,21.62A20.9,20.9,0,0,0,192.38,414.81Z"/></svg>