<svg id="Layer_1" data-name="Layer 1" xmlns="http://www.w3.org/2000/svg" viewBox="0 0 600 600"><title>Artboard 1 copy 39</title><path d="M181.45,328.47c15.94-26.44,38.75-37.26,67.84-35.9,2.8.13,5.61,0,8.42,0,20.93,0,22.89,2.53,18,23.3-6.82,28.92-33.46,50.08-63.52,50.48-23.4.31-23.4.31-23.4,23.45,0,14.38.24,28.78-.11,43.16-.14,5.82,1.82,7.9,7.63,8.27,24.53,1.54,45,12,62.42,29.09a29.47,29.47,0,0,0,2.36,2.1c8.72,6.82,21,16,28.82,10.61s1.9-20.66,2.46-31.57c.22-4.26-3.68-3.35-6.26-3.41-9.81-.22-19.61.33-29.37-1.55-27.92-5.39-51-31.43-52.76-59.48-.55-8.66,1.76-13.3,11.54-12.71,12.58.76,25.41-.6,37.79,1.23,19,2.82,30.36,11.89,46.91,33.78,10.42-17.42,25-29.38,44.87-33.53,14.54-3,29.37-1.24,44.07-1.12,7.69.06,6.91,6.6,6.7,11.81-1.3,32.66-30.3,60.13-64.66,61.54-7.61.32-17.6-3.34-22.21,1.67-4.93,5.37-1.44,15.39-1.58,23.36-.24,13.27.05,13.24,12.62,9.5,8.62-2.57,15.78-7.3,22.36-13.28,41.85-38,94.26-38.3,136.41-.69A35,35,0,0,0,500.47,478c17.9,1.22,28.15,12.11,28.54,29.79.47,21.29.47,21.29-20.65,21.29H86.22c-15.33,0-15.33,0-15.34-15,0-25.24,6.81-33,31.71-36.33a31.74,31.74,0,0,0,18.51-9.15,91.38,91.38,0,0,1,46.5-25.11c5.63-1.15,7-3.84,7-9.3-.33-19.65-.38-39.31,0-58.95.13-6.69-1.55-9.33-8.7-9-10.47.51-21,.69-31.38-2C107.32,357,86,330.55,85.61,303.78c-.1-8.07,2.79-11.62,11-11.27,11.2.47,22.55-.61,33.63.75C152.51,296,169.21,308,181.45,328.47Zm117.36,186.7H501.89c2.46,0,4.92-.13,7.37,0,4.74.26,6.25-2.31,5.84-6.52-.81-8.44-4.06-15.42-13.54-15.91-14.47-.76-25.61-7.18-36.28-16.66-31.78-28.22-79.5-29.17-108.8.91-28.53,29.27-84.8,29.11-112.94.09s-74-29.49-105.51-3.69c-12.52,10.23-24.59,19-41.63,19.77-8.56.4-11.79,8.37-11.48,16.35.38,9.75,8.43,5.43,12.91,5.45C164.82,515.26,231.81,515.17,298.81,515.17ZM116.2,307.33c-3.92,1.31-11.77-3-14.24,1.68-2.84,5.35,2.36,11.75,5.21,17.31.32.62.77,1.17,1.15,1.76,13.57,20.84,34,24.78,56.88,23.92,8.21-.31,8.44-3,6.32-9.42C164.17,320.48,144.34,307.37,116.2,307.33Zm87.16,44.23c24.11,1.48,41-7,52.57-25.62,3.3-5.31,7.7-11.93,5-17.31-1.83-3.69-9.67-1-14.81-1.26-21.75-1.16-38.82,7.13-50.26,25.85-3.22,5.28-7.93,11.84-5.16,17.25C192.61,354.14,200.47,351.19,203.36,351.56Zm72.46,82c18.4.05,19.31-1.52,10.35-17.83-11.46-20.84-40.67-33.16-63.43-27.08-5.45,1.45-2.89,4.47-2.19,7.18C226.63,419.11,247.76,433.5,275.82,433.58Zm47.17-.13c3.15,0,6.32.2,9.45,0,22.17-1.64,41.6-17.21,46.84-37.55.68-2.64,3.42-5.71-2.1-7.2-23.14-6.25-52.59,6.49-63.94,28C304.9,432.42,305.58,433.6,323,433.45Z"/><path d="M480.89,180.3c-20.59,18.51-40.46,36.19-60.08,54.15A27.38,27.38,0,0,1,406,241.61c-27,4.24-53.92,8.63-80.9,12.87-8.93,1.41-17.71,1.13-24.46-6-3.32-3.49-5.58-2.74-8.67.13-7.7,7.17-15.64,14.08-23.48,21.1-12.25,10.95-24.66,11-36.07-.69-3.38-3.48-5.16-3.85-9.44-1.79-11.62,5.56-23,2.47-29.73-7.21-6.55-9.4-5.72-20.64,3.08-29.65,28.43-29.11,56.83-58.25,85.76-86.85,14.86-14.69,33.75-21,54.46-21.26,23.85-.3,47.71-.26,71.56,0,16.17.18,27.72-10.7,41.34-16.57,4.22-1.81,1-5.71,0-8.24-2.47-6.2-.49-10,5.23-12.71,8.21-3.91,16.33-8,24.46-12.09,6.7-3.35,11.05-1.88,13.83,5.49q16.91,44.69,34.33,89.17c2.8,7.14,1.85,11.94-5.62,15.2-7,3.08-13.76,6.9-20.66,10.3-10.57,5.21-12.74,4.38-17.29-6.39C483.1,184.83,482.3,183.28,480.89,180.3Zm-106.1-43.51c-11.57,0-23.16.17-34.73,0-21.21-.38-38.81,7.28-53.53,22.51-22.92,23.71-46.15,47.12-69.25,70.66-3.68,3.75-7.41,7.46-11,11.31-3.32,3.59-3.61,7.61-.42,11.34s7.44,3.67,11.39,1.26c2.37-1.43,4.32-3.55,6.4-5.44,22.61-20.5,45.28-40.93,67.74-61.6,3.88-3.57,7.83-5.32,13.11-5.27,21.75.18,43.5.07,65.26.08,4.64,0,9.68-.12,11,5.65,1.53,6.56-3.85,8.35-8.36,10.17-18.5,7.46-37.06,14.75-55.61,22.1-6,2.38-10.92,5.95-9.13,13.24s7.32,8.36,14,7.25c21.77-3.61,43.49-7.68,65.38-10.16,14.23-1.62,25.65-6.47,35.89-16.72C437.12,199,452.23,185.82,467.57,173c6.87-5.74,7.94-10.75,4.07-18.59A182.6,182.6,0,0,1,461.4,128c-2.42-7.81-5.64-10.29-13.08-5.29-18.13,12.18-38.17,16.59-59.85,14.15C384,136.36,379.35,136.79,374.79,136.79ZM511.91,168c-.7-1.89-1.18-3.2-1.68-4.51-8.75-22.82-17.44-45.67-26.33-68.43-1.2-3.07-1.9-8.92-7.42-4.7-4.06,3.1-13.79,1.61-9.46,12.24,9.33,23,17.8,46.27,26.84,69.36.89,2.26.58,7.7,5.66,4.91C504,174.47,510.63,174.51,511.91,168ZM331.56,197.87l-.59-2c-7,0-14,.26-21-.08-4.94-.25-8.6,1.39-12.19,4.72-17,15.71-34.17,31.19-51.26,46.78-3.51,3.21-8.65,6.15-3.46,11.79,5,5.41,10.17,5.1,15.54.15q15.06-13.89,30.45-27.46a15.39,15.39,0,0,0,4.71-7.93c2.41-8.89,8.47-14.21,16.76-17.48C317.56,203.61,324.55,200.71,331.56,197.87Z"/><path d="M322.06,358.6a22.18,22.18,0,1,1-43.95-3.86c2.08-11.75,9.83-20.61,16.69-29.77,2.29-3.05,5.85-3.33,9.36-1C310.36,328.22,322.05,350.59,322.06,358.6Zm-21.85-15.48c-5.06,6.83-11.07,12.73-5.33,21.07a5.93,5.93,0,0,0,9.34.71C311.53,357,304.9,350.93,300.21,343.12Z"/><path d="M440.61,395.9c-14.94,0-25-13.54-21.16-29.12,2.56-10.41,9.65-18.43,15.88-26.74,3-4,8-4,10.82,0,6.54,9.33,14.54,18,16.38,29.93C464.65,383.82,454.42,395.89,440.61,395.9Zm.31-37.54c-5.34,6.33-10.93,12.23-5.43,20.51,2.5,3.76,7.32,3.68,10,.29C452.1,371,445.26,365.15,440.92,358.36Z"/><path d="M455.11,284.92c-.28,12.87-10.37,22.87-22.64,22.39a22.33,22.33,0,0,1-21.16-24.85c1.32-12.86,9.83-22,17-31.77a5.69,5.69,0,0,1,9.23-.31C445.72,260.68,454.93,270.57,455.11,284.92ZM440.57,284c-.68-5.74-3.25-13.2-7.25-12.92-5,.35-7.25,7.76-7.54,13.36-.26,4.77,2.71,8.09,7.79,7.91C438.81,292.19,440.58,288.52,440.57,284Z"/><path d="M410.68,331.25c-.08,19-10.14,28.44-23.65,27.45A22,22,0,0,1,366.91,333c1.92-11.92,9.73-20.75,16.58-30,2.64-3.55,7.62-3.87,10.15-.51C401.34,312.77,410.45,322.5,410.68,331.25Zm-22.45-10.19c-3.64,7.26-11.11,12.76-4.34,21.1,2.85,3.52,7.48,3.46,10-.19C399.53,333.74,394,327.84,388.23,321.06Z"/><path d="M315.22,306.32c.26-14,9.52-23.6,17.34-33.7,2.24-2.89,7.06-2.62,9.37.49,7.23,9.72,15.93,18.82,16.77,31.92.86,13.55-7.67,23.49-20.54,24C324.55,329.62,315.19,320.33,315.22,306.32Zm21.43-13.85c-4.47,4.3-7.25,9.19-7,14.93.2,4.61,3.28,8.13,8.34,7.15s7.6-4.87,6.16-10.2C342.91,299.74,341.2,295.26,336.65,292.47Z"/></svg>