<svg id="Layer_1" data-name="Layer 1" xmlns="http://www.w3.org/2000/svg" viewBox="0 0 600 600"><title>Artboard 1 copy 18</title><path d="M261,62.5c18.19,3.5,36.47,6.61,54.54,10.67,9.18,2.06,18.06,5.64,26.95,8.87C353.63,86.1,359.11,94.2,359,106.22c-.12,20.74,0,41.49,0,62.24v12.91h12.17c24.27,0,48.53-.15,72.79,0,19.86.16,33.9,13.18,34.15,31.17.24,18.26-14.18,31.61-34.54,31.68-27.71.1-55.43,0-84.57,0v13.21q0,115.51,0,231c0,19.61-3,25.69-21.58,31.06-22.82,6.6-46.3,10.87-69.5,16.16-2.33.53-4.65,1.16-7,1.74H220.85c-2.69-.6-5.39-1.17-8.07-1.79-23.16-5.35-46.61-9.72-69.39-16.37-18.2-5.31-21.51-11.91-21.51-31.17q0-181.85,0-363.68c0-36.69,1.51-39.54,37.38-49.32,20.19-5.49,41-8.53,61.6-12.67Zm82.1,181.8c-13.2,0-25.78.3-38.33-.13-6.15-.21-10,1.46-14,6.66-15.07,20-35.79,28-60.31,24.41-27.41-4-49.26-27-52.21-53.43-3.41-30.51,11.71-56.68,39.08-67.63C243.72,143.63,273.09,152,291,174.9c2,2.56,5,6,7.66,6.1,14.62.6,29.28.28,44.94.28,0-24.33-.43-47.47.22-70.57.25-9.11-3.37-13.16-11.44-16.06-61.25-22.08-122.36-21.86-183.61,0-8.11,2.9-11.5,7.36-11.48,16.23q.33,189.38,0,378.76c0,8.33,3.14,12.66,10.95,15.48,60.82,21.92,121.56,22.34,182.61.79,9.39-3.31,13-7.82,13-18.17-.45-77.36-.24-154.73-.27-232.1C343.56,252.21,343.26,248.79,343.06,244.3Zm-.9-15.27h94.89c2.1,0,4.21,0,6.32,0,11.83-.26,19.15-6.69,18.89-16.54C462,203,455.21,197.05,443.5,197q-99.63-.17-199.26,0c-12.66,0-19.28,5.73-19.3,15.87,0,10,7,16.08,19.18,16.12C276.8,229.09,309.48,229,342.16,229Zm-66-47.66c-23.52-21.59-54-20.27-71.73.69a47.5,47.5,0,0,0,6.3,67.79c19.68,16,49.08,13.93,63.64-5.55-10.85,0-20.88.07-30.91,0-20.24-.18-33.84-12.52-34.07-30.79-.25-19,13.26-31.84,34-32.1C253.41,181.27,263.45,181.37,276.16,181.37Z"/><path d="M272.13,371.82c-.49,2.75-.09,6.88-1.89,9.49-7.43,10.74-5.62,22.76-5.94,34.57-.42,15.95-10.2,26.73-23.86,26.56-13.87-.18-23.32-10.91-23.67-26.95-.25-11.44.76-22.58-5.35-33.64-5.85-10.58-1.27-25.84,7.83-33.74,10.18-8.84,21.85-10.94,34.33-5.38C265.71,348.14,271.45,358,272.13,371.82ZM224,369c1.19,4.82,1,7.49,2.3,8.75,8.3,8.3,6.16,18.73,6.39,28.71.1,4.55-.55,9.34.72,13.55.8,2.64,4.79,6.36,6.87,6.08,2.91-.39,5.91-3.7,7.82-6.48,1.16-1.71.36-4.77.43-7.22.39-12.35-2-24.83,6.54-36.27,2.18-2.92-.25-12.53-3.67-15.52-3.88-3.4-12-5-16.88-3.34S226.79,365.67,224,369Z"/><path d="M191,116.77c-.34-.31-4.65-2.4-5-5.06s2.56-8.25,4.85-8.73c16.34-3.46,32.85-6.27,49.42-8.39,2.34-.29,7,4,7.46,6.72.4,2.26-3.37,7.25-5.92,7.73C226.06,112,210.14,114,191,116.77Z"/><path d="M171.94,118.51c-4.91,3.33-8.25,7.22-10.35,6.64-3.11-.86-5.34-4.89-7.94-7.57,2.89-2.32,5.58-6,8.76-6.49C164.59,110.75,167.46,114.83,171.94,118.51Z"/></svg>