<svg id="Layer_1" data-name="Layer 1" xmlns="http://www.w3.org/2000/svg" viewBox="0 0 600 600"><title>Artboard 1 copy 23</title><path d="M128.6,521.5c-9.87-5.2-11.85-10.05-8.45-20.75l18-56.8c3-9.53,6.77-12.32,16.63-12.32h41.1c.72,0,1.44,0,2.16,0,4.57.19,7.54,2.86,7.43,6.7-.11,3.68-2.95,6.22-7.35,6.24-13.85.07-27.69.18-41.53-.06-3.8-.07-5.44.95-6.58,4.74-5.54,18.32-11.46,36.53-17.23,54.78-.43,1.34-.77,2.71-1.22,4.32H468.15c-.38-1.47-.66-2.79-1.06-4.07-5.84-18.53-11.77-37-17.48-55.61-1-3.15-2.37-4.15-5.7-4.15q-105.35.17-210.68.08c-1.15,0-2.31,0-3.46,0-5.12-.09-7.9-2.43-7.83-6.57s2.91-6.39,8.06-6.39q108.38,0,216.74,0c7.46,0,11.93,3.21,14.2,10.26q9.84,30.63,19.49,61.32c2.6,8.31-.13,13.5-9.2,18.28Z"/><path d="M343.3,350.25c1.48,16.05,2.88,31.32,4.31,46.82,9.77,0,18.41-.2,27,.13a10.51,10.51,0,0,1,6.75,2.85c3.19,3.48.72,9.07-4,9.85a27,27,0,0,1-4.32.14H226.84c-6.65,0-9.79-2.07-9.79-6.42s3.29-6.55,9.79-6.55c7.21,0,14.42.09,21.63-.1,1.17,0,3.23-1.24,3.33-2.09,1.77-14.67,3.3-29.36,4.94-44.63H131c-17.74,0-28.36-10.5-28.36-28.11q0-107.71,0-215.44c0-17.56,10.7-28.2,28.33-28.2H468.81c17.86,0,28.41,10.6,28.41,28.55,0,71.53-.22,143.06.18,214.58.09,16.51-11.95,29.05-28.9,28.81-39.65-.58-79.31-.19-119-.19ZM145.66,287.59H454.17v-5.36q0-43.47,0-86.94a19.47,19.47,0,0,1,.47-5.13c.89-3.19,3.23-4.7,6.52-4.48A5.8,5.8,0,0,1,467,191a32.52,32.52,0,0,1,.15,4.74q0,43.26,0,86.52v5.31h17.1v-4.82q0-87.81,0-175.62c0-11-4.78-15.69-15.85-15.69h-337c-11,0-15.82,4.73-15.82,15.72q0,87.81,0,175.62v4.78h17.09V272.32c0-49.17-.07-98.34.15-147.5a23.48,23.48,0,0,1,3.41-11.63c2.86-4.63,8.06-5.39,13.39-5.38q150.32.09,300.63,0a38.72,38.72,0,0,1,3.89.09c6.46.63,12.5,5.82,12.69,12.19.41,14.26.27,28.54.14,42.81,0,3.48-2.41,5.48-5.91,5.67s-5.78-1.6-6.58-5a19.21,19.21,0,0,1-.31-4.3q0-16.44,0-32.87c0-5.62,0-5.63-5.7-5.63H151.29c-5.61,0-5.62,0-5.62,5.7q0,78.08,0,156.15Zm338.55,13.52H116a5.44,5.44,0,0,0-.33,1.06q0,9.51-.06,19c0,11.58,4.55,16.07,16.27,16.07h336c1.3,0,2.6,0,3.89,0,6.74-.34,12.16-5.39,12.37-12.08C484.41,317.27,484.21,309.35,484.21,301.11ZM269.46,350.42c-1.36,15.75-2.68,31-4,46.3h68.89c-1.34-15.59-2.66-30.87-4-46.3Z"/><path d="M230,494.64a38.42,38.42,0,0,1-5.15-.05c-3.62-.5-5.74-2.77-5.75-6.38a5.94,5.94,0,0,1,5.73-6.38,58.2,58.2,0,0,1,9.88,0,6.21,6.21,0,0,1,6,6.6c-.29,3.61-2.34,5.8-6,6.21A41.42,41.42,0,0,1,230,494.64Z"/><path d="M265.12,471.35c-1.58,0-3.16.1-4.73,0-3.71-.26-5.87-2.47-6.12-6a5.87,5.87,0,0,1,5.39-6.66,41.48,41.48,0,0,1,11.13.09c3.52.53,5.38,3.2,5,6.9-.36,3.47-2.48,5.38-5.93,5.68C268.29,471.47,266.7,471.35,265.12,471.35Z"/><path d="M194.48,471.37c-1.43,0-2.87.07-4.3,0-3.81-.24-6.25-2.67-6.33-6.21a6.22,6.22,0,0,1,6-6.61,58.58,58.58,0,0,1,9.46,0A6.48,6.48,0,0,1,205.5,465c0,3.54-2.75,6.18-6.71,6.38C197.36,471.44,195.92,471.37,194.48,471.37Z"/><path d="M300.08,471.36c-1.44,0-2.88.08-4.31,0-3.67-.25-5.82-2.26-6.22-5.9a6.14,6.14,0,0,1,5.66-6.87,53.7,53.7,0,0,1,10.3,0,6.15,6.15,0,0,1,5.61,6.93c-.47,3.6-2.62,5.64-6.31,5.83C303.24,471.43,301.66,471.36,300.08,471.36Z"/><path d="M335.38,471.37c-1.43,0-2.87.08-4.3,0-3.8-.26-6.21-2.71-6.27-6.27a6.24,6.24,0,0,1,6-6.56,60.84,60.84,0,0,1,9.45,0,6.52,6.52,0,0,1,6.19,6.53c-.06,3.55-2.8,6.13-6.78,6.33C338.26,471.43,336.82,471.38,335.38,471.37Z"/><path d="M405.17,471.35c-1.58,0-3.17.12-4.73,0-3.7-.31-5.84-2.53-6-6.1a5.91,5.91,0,0,1,5.48-6.59,48.57,48.57,0,0,1,10.3-.08,6.18,6.18,0,0,1,5.79,6.76c-.17,3.53-2.61,5.83-6.51,6-1.43.08-2.87,0-4.3,0Z"/><path d="M265.43,481.77a29.84,29.84,0,0,1,4.73,0c3.54.59,5.69,2.71,5.66,6.43s-2.17,5.95-5.75,6.32a62.21,62.21,0,0,1-9.46.07,6.46,6.46,0,0,1-6.42-6.26c-.11-3.52,2.6-6.33,6.51-6.63,1.57-.11,3.15,0,4.73,0Z"/><path d="M370.7,494.65a43.84,43.84,0,0,1-4.73,0c-3.65-.41-5.69-2.61-6-6.19a6.24,6.24,0,0,1,6-6.62,67.73,67.73,0,0,1,9.45,0,6.43,6.43,0,0,1,0,12.85C373.86,494.76,372.27,494.65,370.7,494.65Z"/><path d="M194.71,494.66c-1.58,0-3.16.1-4.73,0a6.44,6.44,0,0,1,0-12.86,75.57,75.57,0,0,1,9,0,6.5,6.5,0,0,1,6.45,6.67c-.14,3.4-2.75,5.94-6.49,6.21C197.59,494.75,196.15,494.66,194.71,494.66Z"/><path d="M405.05,494.66c-1.44,0-2.88.09-4.3,0-3.72-.29-6.32-2.88-6.42-6.28s2.6-6.38,6.52-6.6a77.1,77.1,0,0,1,8.6,0c4,.2,6.57,2.82,6.55,6.5s-2.6,6.18-6.65,6.4C407.92,494.74,406.48,494.67,405.05,494.66Z"/><path d="M370.91,471.36c-1.58,0-3.16.08-4.73,0-3.72-.22-5.89-2.39-6.16-5.95s1.77-6.23,5.31-6.72a42.73,42.73,0,0,1,10.72,0c3.54.41,5.55,2.84,5.53,6.54,0,3.53-2.54,5.94-6.37,6.18C373.78,471.45,372.34,471.37,370.91,471.36Z"/><path d="M335.59,494.67c-1.43,0-2.87.07-4.3,0-4-.26-6.54-2.85-6.49-6.55a6.26,6.26,0,0,1,6.26-6.34,75.57,75.57,0,0,1,9,0,6.5,6.5,0,0,1,6.38,6.31c.07,3.53-2.67,6.3-6.58,6.57C338.47,494.75,337,494.67,335.59,494.67Z"/><path d="M229.86,471.35c-1.58,0-3.16.11-4.73,0-3.7-.28-5.84-2.43-6-6s1.86-6.19,5.4-6.64a43.13,43.13,0,0,1,10.71,0c3.56.44,5.63,3,5.43,6.62s-2.32,5.78-6,6.06C233,471.46,231.44,471.35,229.86,471.35Z"/><path d="M300.05,494.63a32.43,32.43,0,0,1-4.73,0c-3.57-.53-5.74-2.66-5.77-6.35s2.12-6,5.68-6.39a55.36,55.36,0,0,1,9.89-.06,6.31,6.31,0,0,1,6,6.58c-.09,3.43-2.64,6-6.38,6.27-1.57.12-3.15,0-4.73,0Z"/><path d="M273.32,164.17c-1.37,2.54-2,4.48-3.27,5.94q-32.76,38.5-65.65,76.9c-3.08,3.6-6.86,4.18-9.83,1.77s-3.17-6.48.05-10.25q32.81-38.47,65.66-76.91c2.12-2.48,4.69-4.37,7.85-2.68C270.14,160,271.51,162.28,273.32,164.17Z"/><path d="M224,181.06c-1.05,2.23-1.44,3.86-2.41,5-5.91,6.84-11.89,13.65-18,20.31a6.4,6.4,0,0,1-9.25.61c-2.65-2.42-2.9-6.18-.25-9.25,5.81-6.75,11.59-13.55,17.83-19.89A8.81,8.81,0,0,1,219.1,176C221,176.43,222.37,179.28,224,181.06Z"/><path d="M300.12,312.62c4,0,8.07-.1,12.1,0,4.44.14,7.23,2.65,7.3,6.32s-2.74,6.49-7.06,6.56q-12.54.21-25.07,0c-4.33-.06-7.14-2.86-7.08-6.54s2.85-6.2,7.28-6.33C291.76,312.52,295.94,312.62,300.12,312.62Z"/></svg>