<svg id="Layer_1" data-name="Layer 1" xmlns="http://www.w3.org/2000/svg" viewBox="0 0 600 600"><defs><style>.cls-1{stroke:#fff;stroke-miterlimit:10;stroke-width:3px;}</style></defs><title>Artboard 1 copy 3</title><path class="cls-1" d="M287.58,160.67a169.15,169.15,0,0,0-28.1-34.4c-1.44-1.39-3-2.7-4.4-4.08-2.77-2.63-4.05-5.7-2.43-9.44s4.57-5,8.44-5c18.16.2,35.8,3,52.53,10.42.9.4,1.85.71,2.91,1.12,1.48-6.07,2.63-12.11,4.43-17.94,5.12-16.55,13.7-30.6,29.23-39.58,4.09-2.36,7.65-2.28,11.67.06,14.31,8.34,22.65,21.19,28.08,36.35,2.42,6.76,3.72,13.8,5.18,21.31,9.33-4,18.63-7.32,28.43-9.1a165.91,165.91,0,0,1,26.31-2.64c4.18-.09,7.64.86,9.39,5s-.16,7.35-3.23,10.11a175.16,175.16,0,0,0-28.55,32.65c-.89,1.34-1.67,2.76-3.17,5.27,10.74-4.91,20.63-8.5,31.08-10.4a168.79,168.79,0,0,1,26.81-2.67c4.25-.08,7.59,1.16,9.19,5.34s-.33,7-3.24,9.7c-14.09,12.91-26.55,27.14-35.41,44.24-4.43,8.54-4.33,8.54,2,15.37q36.39,39.27,37.17,92.81c.2,14.83.14,29.66,0,44.49,0,3.32,1,4.19,4.2,4.13,11.33-.18,22.66-.1,34-.05,7.1,0,10,3,9.83,10.1-.78,30.12-11,57.15-28.6,81.16C474.69,505,425.49,533.28,363.7,539c-34.44,3.19-67.29-3.34-98.66-17.59-3-1.36-4.7-1.34-7.33.94-19.72,17.11-42.1,22.27-66.85,13-7.47-2.78-13.86-3-21.45-.13-31.3,11.62-63.67-.41-81.27-29.82C75.2,483.82,68.23,460.16,65,435.3c-1.39-10.56-3.54-21.05-4.42-31.65C58,372.53,66.38,345.46,93.3,327.39c23.89-16,48.85-15.13,73.42-.45.42.26.82.56,1.25.82,5.74,3.56,6.17,3.28,6.92-3.35,1.81-15.9,4.25-31.68,10.88-46.46a41.66,41.66,0,0,1,3.3-6.14c2.74-4.09,7-5.17,10.82-3,4,2.26,5.25,6.79,2.76,11.24-7.92,14.18-9.8,29.9-11.79,45.59a15.48,15.48,0,0,0,.23,2.48c8.44-5.76,17.47-8.95,26.91-11,2.81-.61,1.89-2.75,1.95-4.37q1.77-52.08,37.18-90.29c6.35-6.84,6.41-6.85,2-15.37-8.58-16.66-20.67-30.56-34.27-43.24-1.83-1.71-3.8-3.28-4.58-5.81-1.67-5.41,2.39-10.27,8.83-10.21,19.18.16,37.77,3.21,55.21,11.67C284.93,159.81,285.58,160,287.58,160.67ZM188,362.52c4.52-.45,7.78-2.66,11.07-4.94,4-2.79,8.38-2.17,11.12,1.32s2.23,7.83-1.3,11.17c-13.6,12.85-44.53,12.83-57.94,0-3.48-3.34-4-7.74-1.25-11.2s7.12-4.07,11.13-1.26a37.43,37.43,0,0,0,8.28,4.53c2.13.79,3,.48,3-2,.06-3.32.24-6.66.63-10,.32-2.7-.7-3.83-3.32-4.41-4.09-.91-7.71-3-11.22-5.28-20.59-13.37-46.84-10.8-64.12,6.6C78.77,362.53,74.4,381.7,76.49,402.71c.83,8.27,2.44,16.46,3.48,24.71,2.92,23.12,8.31,45.46,19.71,66.05,3.76,6.77,8.18,13,14.18,17.89,14.77,12.13,31.41,16.29,49.41,9.06,11.4-4.58,22-5.4,33.12.05a35,35,0,0,0,15,3.27c20.54.27,35.65-9.32,46.37-26.24A132.19,132.19,0,0,0,272,465.68c6.8-21.91,9.32-44.63,11.66-67.26a63.65,63.65,0,0,0-13-46c-11.13-14.73-34.16-25.59-56.21-18-8.6,3-15.42,9.28-24.24,11.52-1.23.32-1.25,1.42-1.31,2.42C188.55,353,188.28,357.65,188,362.52ZM395,379.8q-45.72,0-91.44.05c-1.9,0-5.17-1.39-4.46,3,1.75,10.67.48,21.24-1.18,31.79-3,19.38-4.75,39-11.35,57.68-1.42,4-.76,5.66,3.15,7.27,49.35,20.21,96.48,15.76,140.75-13.65,29.22-19.41,50-45.64,58.77-80.31,1.46-5.76,1.41-5.78-4.3-5.79ZM350.62,523.85c42.18-.63,81.94-15.14,116.19-44,28.7-24.17,49.16-53.63,55.81-91.39,1.52-8.66,1.51-8.67-7-8.67a37.34,37.34,0,0,1-4.49,0c-3.2-.38-4.75.6-5.22,4.12a91.73,91.73,0,0,1-5.51,20.18c-27.48,73.33-119,128.08-210.6,92.72-3.53-1.37-7.24-4.79-10.51-3.64s-3.53,6.44-5.85,9.42c-2.77,3.55-1.1,4.73,2.25,6.15C298.78,518.56,322.88,523.57,350.62,523.85ZM379.7,126.92c-1.61-14.24-4.29-28.25-13.38-39.67-10.26-12.9-10.47-12.91-20.8,0-9,11.27-11.63,25.13-13.34,39.12a4.21,4.21,0,0,0,2,4.19A91.28,91.28,0,0,1,354,151.47c1.53,2.23,2.4,2,3.84-.06a92.38,92.38,0,0,1,19.85-20.88C378.92,129.59,380.11,128.66,379.7,126.92Zm21.7,185.41a23.23,23.23,0,0,0,2-1.56c9.93-9.61,19.78-19.29,29.8-28.8,2.19-2.08,1.26-3.14-.38-4.72q-14.58-14-29-28.19c-1.74-1.71-2.78-2.05-4.7-.15q-14.37,14.23-29,28.17c-2,1.9-2.25,3-.1,5.08,9.78,9.28,19.39,18.73,29.08,28.12C399.77,311,400.55,311.58,401.4,312.33Zm-45.18-21.21a21.92,21.92,0,0,0-2,1.52c-10,9.73-20,19.5-30.14,29.18-1.76,1.69-1.09,2.69.31,4,9.83,9.47,19.66,18.93,29.38,28.52,1.91,1.88,3.07,1.66,4.86-.1q14.4-14.2,29-28.17c1.92-1.84,1.88-2.91,0-4.73-9.75-9.31-19.38-18.75-29.05-28.14C357.87,292.54,357.11,291.91,356.22,291.12Zm-12.05-11.47a21.31,21.31,0,0,0-1.4-1.69q-15.22-14.81-30.43-29.61c-1.55-1.52-2.48-.78-3.67.38-9.89,9.66-19.77,19.32-29.75,28.87-1.79,1.71-1.65,2.71.06,4.35q14.82,14.15,29.43,28.49c1.69,1.67,2.79,1.7,4.47.05,9.74-9.57,19.57-19.05,29.35-28.57C342.92,281.25,343.49,280.46,344.17,279.65Zm45.42-44c-.71-.81-1.29-1.58-2-2.24-9.77-9.5-19.63-18.92-29.29-28.54-2.12-2.11-3.21-1.18-4.79.37-9.5,9.3-19,18.62-28.65,27.77-2.3,2.18-2.09,3.39.1,5.46Q339.3,252,353.27,265.87c2.18,2.18,3.41,2.15,5.57,0,9.42-9.38,19-18.58,28.56-27.86C388.1,237.33,388.72,236.57,389.59,235.61ZM475.78,324c1-3.29-.61-5.69-3.11-8Q461.19,305.14,450.1,294c-2.32-2.33-3.77-2.81-6.35-.22q-13.74,13.8-27.94,27.13c-2.59,2.43-2.06,3.71.18,5.84,9.29,8.83,18.54,17.7,27.54,26.83,2.75,2.8,4.24,2.3,6.71-.2,7.38-7.44,15-14.7,22.59-21.89C475,329.41,476.62,327.35,475.78,324ZM281.53,125.65c1.43,1.78,2.23,2.8,3.05,3.79,13.48,16.1,25.1,33.22,29.36,54.3.63,3.08,2.41,1.92,4.12,1.42a128.28,128.28,0,0,1,28.47-5c4-.22,4.78-.9,3-4.74-7.41-15.81-18.13-28.64-33.17-37.66A91.11,91.11,0,0,0,281.53,125.65Zm149-.17a99.82,99.82,0,0,0-17.76,4.27c-20.24,6.87-35.8,19.47-46.45,38-2.29,4,.91,12.47,4.88,12.91a122.64,122.64,0,0,1,22.95,4.68c2.64.82,3.39.07,3.93-2.54,2.52-12.21,7.83-23.26,14.51-33.73C417.71,141.11,423.65,133.75,430.55,125.48ZM241.42,316.92c20.77,6.64,20.8,6.6,38.57,21.91,1.91,1.65,2.77.83,4-.41,4.29-4.19,8.56-8.39,12.94-12.48,1.67-1.55,2-2.58.13-4.35-10-9.52-19.87-19.18-29.8-28.79-.92-.89-1.84-2.17-3.24-.64ZM299,235.59c-.83-.89-1.47-1.64-2.17-2.32-3.57-3.49-7.29-6.84-10.69-10.49-2.09-2.24-3.48-2-5.74-.14A127.79,127.79,0,0,0,254,252.44c-1.46,2.28-1.87,3.88.56,5.86a87.52,87.52,0,0,1,8.25,8c1.69,1.81,2.85,2.13,4.8.2,9.69-9.61,19.54-19.07,29.31-28.59C297.64,237.21,298.24,236.44,299,235.59ZM459.51,255.5c-.28-.56-.48-1-.74-1.44a122.58,122.58,0,0,0-28.18-32.16c-1.82-1.47-2.82-.79-4.15.54-3.3,3.3-6.55,6.68-10.1,9.69-2.88,2.43-3.27,4-.17,6.82,7,6.36,13.68,13.17,20.49,19.8,11,10.69,11,10.69,21.32-.91a9.58,9.58,0,0,0,1-1.09A6.39,6.39,0,0,0,459.51,255.5ZM428.05,363.62c-7.79-8.48-16.27-17.63-24.62-26.89-1.92-2.13-3-.87-4.35.47-8,7.78-16,15.51-24,23.31-.85.83-2.4,1.35-2,3.11ZM249.23,165.44c10.72,12.5,19.73,24.42,26,38.15,1,2.16,2.13,1.32,3.46.39a139.12,139.12,0,0,1,17.18-10.15c3.84-1.92,4.22-3.78,1.1-6.65C283.82,175.08,268.06,168.6,249.23,165.44Zm212.36.2c-17.83,2.93-33.7,9.5-46.93,21.75-2.74,2.54-2.46,4.71,1.18,6.41a98.78,98.78,0,0,1,16.76,9.84c2.32,1.7,3.32,1.54,4.63-1.25,5.47-11.67,12.9-22.1,21.17-31.95C459.54,169.08,461.16,168,461.59,165.64ZM337.33,363.79c-7.84-8.57-16.25-17.76-24.64-27-1.36-1.49-2.42-1.73-4-.11-5.25,5.32-10.62,10.53-16,15.68-1.41,1.34-2.1,2.61-.78,4.24,1.85,2.28.75,7,5,7.1C311,363.92,325,363.79,337.33,363.79Zm-1.55-166.22a114.42,114.42,0,0,0-38.32,13.55c4,4,7.75,7.73,11.38,11.58,1.65,1.76,2.8,1.08,4.08-.31Zm38.42-.17a11.66,11.66,0,0,0,.82,1.39c5.24,5.13,10.42,10.31,15.75,15.34,3.5,3.29,6.59,9.3,10.58,9.19,4.29-.11,7.26-6.2,11-9.48.37-.33.69-.73,1.06-1.06,1.3-1.15.77-1.92-.5-2.59C400.93,203.92,388.42,199.27,374.2,197.4ZM238.09,294.05l1.34,1.16c2.7-3.12,5.23-6.39,8.12-9.31,6.64-6.69,6.71-6.62-.53-12.68a3.89,3.89,0,0,1-.36-.34c-1.54-1.66-2.32-1.12-3,.81A100.26,100.26,0,0,0,238.09,294.05ZM472,295l2-1.51c-1.24-4.6-2.41-9.23-3.74-13.8-.77-2.65-1.15-7-3.13-7.31-2.91-.39-4.56,3.72-7,5.62-1.59,1.24-1.23,2.25,0,3.63C464.24,286,468.1,290.57,472,295Zm-8.68,68.77h9.95c1.4,0,2.66,0,2.63-2,0-3.34,0-6.68,0-11.52Z"/><path class="cls-1" d="M452,395.84a8,8,0,1,1-8,7.88A8,8,0,0,1,452,395.84Z"/><path class="cls-1" d="M324.11,427.76a8,8,0,1,1,7.79-8.14A8,8,0,0,1,324.11,427.76Z"/><path class="cls-1" d="M372,411.84a8,8,0,1,1-8,7.94A8,8,0,0,1,372,411.84Z"/><path class="cls-1" d="M419.9,444a8,8,0,1,1-7.73-8.19A8.07,8.07,0,0,1,419.9,444Z"/><path class="cls-1" d="M355.9,467.78a8,8,0,1,1-8-7.94A8.05,8.05,0,0,1,355.9,467.78Z"/></svg>