<svg id="Layer_1" data-name="Layer 1" xmlns="http://www.w3.org/2000/svg" viewBox="0 0 600 600"><title>Artboard 1 copy 20</title><path d="M562.5,326.59c-25.3,15.72-50.5,31.6-75.91,47.13-58.28,35.63-116.74,71-174.89,106.79-8.43,5.19-15,5.17-23.4,0Q168.24,406.85,47.81,333.77c-3.57-2.18-6.88-4.78-10.31-7.18v-9.33c20-12.55,39.79-25.32,59.92-37.58,31.13-18.95,62.47-37.54,95.05-57.09-5.65-3.73-10.4-6.78-15.06-10-11-7.51-11.36-15.34-.35-22.41,38.19-24.52,76.41-49,115-72.82,3.9-2.41,11.87-2.39,15.79,0,38.62,23.81,76.85,48.27,115,72.78,11,7.05,10.66,15-.33,22.43-4.46,3-9,5.91-14.91,9.76,8.66,5.33,16.31,10.15,24.05,14.8Q491.1,272.8,550.48,308.4c4.25,2.55,8,5.88,12,8.86Zm-31.83-4.92c-32.17-19.28-62.86-36.75-92.47-55.89-11.77-7.62-19.9-7.82-31.59.28-27.61,19.13-56.44,36.5-86.33,55.57,34,21.7,66.55,42.54,99.24,63.13a8.27,8.27,0,0,0,7.17,0C460.87,364.19,494.9,343.43,530.67,321.67Zm-461.3,0L177,387.13l102.75-65.51c-33.66-21.46-65.6-41.95-97.77-62.07-2.21-1.38-6.81-1.13-9.17.26C138.78,279.89,105,300.3,69.37,321.65Zm128.22,78c33.7,20.55,65.41,40,97.32,59.13,2.38,1.43,6.93,1.87,9.14.55,32.49-19.41,64.75-39.21,98.35-59.69-33.56-21.38-65.83-42-98.28-62.39a9.4,9.4,0,0,0-8.23,0C263.44,357.62,231.17,378.27,197.59,399.67Zm202.5-198.32c-32.89-21-64.14-41.14-95.73-60.73-2.48-1.54-8-.43-11,1.39-29,18-57.72,36.44-86.48,54.81-2,1.29-3.7,3.13-6,5.15,31.94,20.34,62.93,40.23,94.18,59.69,2.48,1.54,7.63,1.42,10.15-.15C336.45,242,367.43,222.15,400.09,201.35Zm.3,43.55c-12.47-10.1-12.48-10.12-24.2-2.68-20.65,13.13-41.66,25.73-61.76,39.65-10.68,7.4-19,6.78-29.39-.34-20.17-13.84-41.53-25.93-61.61-39.88-9.68-6.73-16.15-5.09-23.61,3.4,28,17.85,56,34.61,82.71,53.18,12.6,8.76,21.57,9.47,34.57.31C344,279.59,372.34,262.77,400.39,244.9Z"/></svg>