<svg id="Layer_1" data-name="Layer 1" xmlns="http://www.w3.org/2000/svg" viewBox="0 0 600 600"><defs><style>.cls-1{stroke:#fff;stroke-miterlimit:10;stroke-width:8px;}</style></defs><title>Artboard 1 copy 46</title><path class="cls-1" d="M135.36,293.68c-14.72,0-29.45.42-44.15-.13-17.34-.66-27.29-10.64-28.47-27.33-6.85-96.57,53-183,145.72-210.46C298.72,29,397.07,68.34,441.53,153c15.84,30.15,31.75,57.22,57.84,80.57,31.16,27.88,40.78,67.86,38,109.76-1.12,16.46-11.58,23.65-27.2,23.9-17.66.29-35.35.56-53-.08-11-.4-13.32,3.48-10,13.45,6.08,18.39,11.41,37,17.34,55.48,13.12,40.74,4.16,75.75-25.43,98.61-29.16,22.53-65.43,23.64-100.12.95-9.46-6.19-13.89-.5-20,2.69-37.5,19.56-75,19.16-110.92-2.62-36.09-21.88-53.42-55.47-52.65-97.6.36-19.56,7.24-38,13.78-56.28,8.3-23.24,16.39-46.53,21.09-70.87,2.33-12,.93-19-14.23-17.53C162.55,294.76,148.91,293.71,135.36,293.68Zm290.1-107.55C398.9,110.39,311.93,62.81,232.12,78.89c-83.76,16.87-145.34,93.48-141,174.48.54,9.93,4.45,11.45,12.86,11.41q69.81-.4,139.62,0c7.17,0,11.77-1.81,15.78-8.29C297.78,194.55,354,173.72,425.46,186.13ZM388.25,338.71h88.2c36.46,0,37.71-1.62,28.62-37.21-15.17-59.35-70.88-96.73-133.75-89.74-54.2,6-100.71,56.36-103.62,110.63-.73,13.72,3.41,16.94,16.47,16.61C318.84,338.14,353.55,338.71,388.25,338.71ZM270.74,522.84c8-.14,20.82-3.59,33.07-9.94,7-3.62,9-7.94,6-15.52-9-22.69-5-45,2.76-67.13,4.46-12.74,9.21-25.39,13.12-38.29,7.57-25,7.36-25-17.59-25-4.7,0-9.42-.19-14.11,0-55.06,2.48-59.49-5.09-53.54-61.34.52-4.87,6.22-12.3-5-12.39-7.31-.06-16-2.53-16.23,9.87-.14,6.4-1.85,12.76-2.88,19.13C210.57,357.82,193.18,390,185.57,425,174.61,475.4,213.22,522.94,270.74,522.84ZM391,367.36c-9.84,0-16.91.11-24,0-4.74-.1-8.29,1.64-8.91,6.48-3.82,30-18.62,56.92-24.84,86.19-6.3,29.68,16.79,60.07,47,63.19,39.51,4.08,69.39-30.48,58.77-69-5.92-21.47-16.45-42-19.87-63.72C415.9,369.77,407.56,363.07,391,367.36Z"/></svg>