<svg id="Layer_1" data-name="Layer 1" xmlns="http://www.w3.org/2000/svg" viewBox="0 0 600 600"><title>Artboard 1 copy 56</title><path d="M499.41,156c-14.48-2.88-15.18,3.32-15.1,12.25q.62,68.42,0,136.84c-.06,8.17,2,14.15,8.16,19.78,12.64,11.61,24.54,24,39.22,38.56-15.42-2-15.28,5.46-15.24,14,.25,45.61.16,91.23.07,136.85,0,6-.41,11.75,8.51,10.29,5.85-1,7.67,1.68,7.82,7.61.19,7.15-3.3,7.81-9,7.79-38.83-.14-77.66-.06-116.49-.06H86.21c-3.77,0-7.55-.19-11.31-.09-4.62.13-8.08-.39-7.75-6.56.26-4.94.15-9.46,6.93-8.6,9,1.14,9.31-4.23,9.27-11-.2-34.68.22-69.37-.3-104-.13-9,1.41-16.24,8.84-21.66,6-4.38,7.55-10.22,7.49-17.64-.33-41.47,0-82.94-.27-124.41,0-7,1.93-11.92,6.94-16.81q33.57-32.81,66.4-66.34c4.92-5,9.93-7.16,16.87-6.81,10.16.52,20.36,0,30.53.27,5.5.17,9-1.11,8-7.39-1.2-7.25,2.58-11.84,7.42-16.53q33.66-32.71,66.84-65.9C306.41,62.08,310.78,60,317,60c26.38.3,52.77.13,79.16.16,3.72,0,7.48-.5,10.58,2.62C436.69,93,466.69,123.11,499.41,156ZM403.88,438.12c0-25.23-.16-50.47.12-75.7.06-5.7-1.39-9.82-5.57-13.88-17.54-17.06-34.94-34.3-51.93-51.91-4.89-5.06-7.58-5-12.43,0q-25.53,26.4-52,51.9a19.94,19.94,0,0,0-6.6,15.81c.25,46.32.13,92.65.13,139,0,21.31,0,20.87,21.39,21.41,8.9.23,11.57-2.25,11.4-11.3-.55-30.11.05-60.25-.36-90.38-.1-7.82.95-11.63,10.17-11.11a437.3,437.3,0,0,0,44.05,0c8.33-.37,9.9,2.83,9.78,10.41-.42,26.73-.18,53.48-.13,80.22,0,22.16.09,21.72,21.7,22.17,8.77.18,10.61-2.74,10.43-11C403.53,488.6,403.87,463.36,403.88,438.12Zm-289-76.71,3.41,1.78c12.76-13.26,25.76-26.3,38.17-39.88,5.07-5.55,10.51-7.37,17.83-7.22,20,.43,39.94-.24,59.88.34,8.17.24,10.14-2.53,9.94-10.24-.5-18.44-.25-36.91,0-55.36a16.35,16.35,0,0,0-5.27-13c-18-17.65-36-35.39-53.57-53.5-4.71-4.86-7.29-4.1-11.48.35-9.28,9.88-18.12,20.57-28.89,28.57-25,18.55-33.78,42-30.53,72.88C116.94,311,114.86,336.31,114.86,361.41Zm386,83.18h0c0-23.75-.27-47.5.17-71.24.13-7.28-1.76-10-9.33-9.8q-30.53.61-61.07-.06c-7.65-.16-10.52,2-10.46,10.08.31,47.49.23,95,0,142.49,0,6.21,1.63,8.69,8.22,8.59,21.11-.31,42.23-.37,63.33.09,7.84.18,9.31-3.09,9.21-10C500.65,491.34,500.86,468,500.86,444.59ZM99,462.18c0,13.95-.06,27.9,0,41.85.1,20.74.16,20.21,20.86,20.8,9.84.29,11.93-3.32,11.74-12.32-.52-24.88.1-49.77-.29-74.65-.12-7.47,2.19-9.74,9.63-9.48,15.43.55,30.92.54,46.36,0,7.13-.25,8.9,2.11,8.77,8.95-.41,21.48-.06,43-.16,64.47-.11,23.9-.19,23.59,23.33,22.93,7.12-.2,8.84-2.61,8.78-9.32-.27-35.06-.15-70.13,0-105.19,0-4.73-1-8.47-4.6-12Q195.88,371.32,169,343.86c-4.17-4.26-6.73-4.19-10.82,0q-26.94,27.44-54.4,54.37a15,15,0,0,0-4.83,12C99.17,427.5,99,444.84,99,462.18ZM466,297.53c1.06-1.61,1.75-2.18,1.77-2.77,1.83-44,.46-88,.43-132.06,0-6-3.31-6.57-8-6.56-21.45.08-42.9.28-64.34-.09-6.94-.12-8,3-7.9,8.83.19,16.18.15,32.37-.25,48.54-.14,5.51,2.12,9.11,5.83,12.68,8.24,7.9,16.19,16.11,25.23,25.16-7.73,1.39-15.29-1.56-14.65,9.49.67,11.61,8.87,7.79,13.77,7.23,13.32-1.53,23,3.08,31.27,13.22C454.08,287.16,460.28,292,466,297.53ZM381.7,236.3c-21.76-21.73-41.28-41.05-60.56-60.61-4-4-8.57-4.11-13.47-4.11H198.87c19,22.63,39,42.4,58.92,62.2a8.11,8.11,0,0,0,6,2.54ZM369,202.62l3-2c0-16.49,0-33,.05-49.48a9.12,9.12,0,0,0-2.79-7Q340.84,116,312.46,87.64c-2.74-2.73-5-4.09-8.39-.67q-28.69,28.8-57.66,57.31a8.5,8.5,0,0,0-2.25,9.3c1.32,3.74,5.06,2.47,7.88,2.48,21.08.09,42.15.29,63.22-.06,6.21-.1,10.6,1.91,14.76,6.32C342.86,175.9,356,189.2,369,202.62Zm-44.19,49.53v-.07c-18.8,0-37.6,0-56.4,0-4,0-8.75-1-8.74,5.59,0,18.42-.48,36.86.19,55.26.29,8.22,8.05,12.75,13.94,16.62,5.12,3.37,7.66-4.16,10.91-7.09,9.78-8.79,20.18-17.27,28.23-27.53,17-21.61,37.68-31.89,65.2-26.68.73.13,1.52-.09,2.26,0,7.08.91,7.57-3.22,7.75-8.87.2-6.36-2.54-7.45-8.07-7.37C361.68,252.31,343.25,252.15,324.83,252.15Zm34.88,31.76L358,286.47c12.78,12.55,26.89,24,38,37.91,15.55,19.34,33.83,27.7,58.54,24.28,11.93-1.64,24.27-.28,39.4-.28-22.23-22.23-41.93-41.89-61.56-61.62-2.7-2.7-5.92-2.88-9.38-2.87Q391.35,284,359.71,283.91ZM462,140c-18.89-18.84-35.88-34.78-51.61-51.88-8.59-9.33-17.51-13.53-30.31-12.74-17.69,1.08-35.5.27-55.86.27,21.86,21.87,41.49,41.51,61.1,61.17a9.34,9.34,0,0,0,6.89,3.21C414.3,140,436.39,140,462,140ZM179.37,331.77c22.27,22.24,42.16,42.19,62.16,62,4.35,4.31,10.17,2.93,15,1.86,5.59-1.24,3.13-6.87,3.32-10.57.59-12,.09-24.13,1.16-36.1.81-9.14-3.82-16.93-13-17.09C226.27,331.51,204.52,331.77,179.37,331.77ZM356.19,477c0-8.3,0-16.59,0-24.88.08-24,.09-23.73-23.44-23.78-6.79,0-9.19,1.56-9.05,8.74.42,21.48-.09,43,.07,64.45.19,24.72.32,24.5,25,23.23,6.1-.31,7.61-2.57,7.48-8.18C356,503.35,356.19,490.15,356.19,477ZM179.75,484.1h.19c0-10.93-.24-21.86.1-32.78.17-5.59-2.23-7.83-7.29-6.82-8.56,1.7-18.46-4.71-25.77,4.22-.38.46-.14,1.46-.14,2.22q0,33.33,0,66.67c0,3.07-.17,6.52,4.18,6.53,8.29,0,16.57-.17,24.85-.51,4.46-.19,3.87-3.82,3.88-6.75C179.78,506,179.75,495,179.75,484.1Zm80.19-15.26h-.52c0-16.2-.27-32.4.13-48.59.17-6.58-2.5-8.16-8.51-8.43-6.4-.29-7.46,2.47-7.42,8,.19,32,.33,64-.06,96-.09,7.35,2.73,8.69,9.2,8.84,7.71.18,7.25-4.38,7.22-9.53C259.88,499.72,259.94,484.28,259.94,468.84Z"/><path d="M339.39,379.83c-7.88,0-15.78-.26-23.64.08-6.12.27-7.53-2.63-7.72-8.12-.21-6.11,2.28-7.63,7.94-7.53q24.21.44,48.42,0c5.91-.1,7.75,2,7.71,7.85s-2.19,8-7.94,7.8C355.91,379.62,347.65,379.83,339.39,379.83Z"/><path d="M179.37,268c-7.88,0-15.77-.18-23.64.07-5.24.17-8.41-.65-8.3-7.17.1-6,1.24-8.91,8-8.75,16.5.39,33,.42,49.52,0,6.91-.18,6.83,3.51,6.93,8.43s-.77,7.79-6.66,7.54C196.64,267.74,188,268,179.37,268Z"/><path d="M164.37,396.39c7.52,0,15,.13,22.57,0,5.25-.12,9.17-.28,9.26,7.32.1,7.86-3.6,8.36-9.64,8.26-15-.24-30.09-.16-45.14,0-5.71,0-10.22,0-10.16-8,.07-8.37,5.26-7.53,10.54-7.53h22.57Z"/><path d="M309,139.9c-7.52-1.51-20.42,3.59-16.24-10.85,3.29-11.36,14.89-2.43,22.41-4.79,3.5-1.1,7.95-1.46,8.78,5.2C325.77,144.34,314.45,137.66,309,139.9Z"/></svg>