<svg id="Layer_1" data-name="Layer 1" xmlns="http://www.w3.org/2000/svg" viewBox="0 0 600 600"><title>Artboard 1 copy 47</title><path d="M339.86,260.47C330.2,266.68,322,271.81,314,277.19c-5.71,3.81-11.8,6.4-18.72,5.7-5.47-.55-6.65,2-6.16,6.65.19,1.78-.1,3.6.06,5.38.55,6-2.2,8.59-8.13,8a8.8,8.8,0,0,0-1.54,0c-6.8.59-15.56-3-19.91,1.54-4,4.11-1.11,12.7-1.15,19.31-.12,23.07.13,46.15-.18,69.22-.08,5.68,1.4,7.31,7.24,7.28,47.17-.25,94.35-.13,141.52-.12a54.61,54.61,0,0,1,6.14.16,3.92,3.92,0,0,1,3.79,4.07c.09,2.53-1.61,3.75-3.78,4.07a47.9,47.9,0,0,1-6.89.27c-46.66,0-93.32.17-140-.11-6.43,0-8.15,1.68-8.06,8.08.38,24.86.16,49.72.13,74.58,0,2.75.63,5.74-2.2,7.73a3.27,3.27,0,0,1-3.59.3c-2.82-1.4-2.78-4-2.78-6.62q0-28.83,0-57.68c0-2.78,0-5.55,0-8.49-2.93.2-5.2.4-7.47.52-5.09.25-6.63-2.57-6.57-7.23s2.24-7.33,6.53-6.22c8.12,2.1,7.59-2.53,7.57-8-.13-31.79-.18-63.59.06-95.37,0-5.5-1.09-7.92-7.13-7.43a129.38,129.38,0,0,1-20,0c-5.95-.44-7.79,1.37-7.76,7.56.28,45.12.16,90.25.16,135.37q0,23.07,0,46.14c0,3.35.28,7.56-4.27,7.63s-4.38-4.08-4.38-7.46c0-25.38-.17-50.77.13-76.14.07-5.75-1.57-7.33-7.3-7.3-39.48.24-79,.12-118.45.12-1.53,0-3.07,0-4.61,0-3.27-.11-7.52.52-7.65-4.18s4-4.41,7.36-4.4H94.43c34.86,0,69.73-.15,104.59.16,6.15.05,7.66-1.77,7.59-7.7-.29-27.43-.33-54.86,0-82.29.09-6.34-2.06-7.93-7.85-7.49-5.6.43-11.27,0-16.91.15-4.79.15-7.13-1.79-7-6.74.38-25.74-3.48-21.52,20.38-21.83,13.82-.19,27.64,0,42.12,0-2.92-5-5.8-9.11-7.89-13.61-4.71-10.12-.18-18.63,10.81-20.46s22.27-3.52,33.45-5A24.24,24.24,0,0,0,289,227.42c19-20.07,36.79-41.49,61-55.87,3.5-2.08,3.73-4.7,3.18-8.4-2.68-18.25-5-36.55-7.58-54.81-.5-3.53-1.08-7.32,3.49-7.78,4-.41,4.45,3.31,4.88,6.47,2.65,19.81,5.21,39.63,8.13,59.39.65,4.39-.08,7.43-4,9.72-24.92,14.67-43.54,36.35-63,57.07-5.53,5.9-11.77,9.38-19.89,10.32-10.93,1.26-21.77,3.31-32.66,5-6.12.93-7.88,3.95-5.09,9.63,4.79,9.76,12.18,15.83,23.33,16.08,12,.27,24.1.07,36.15.15,4.56,0,8.44-1.66,12.16-4.11,9.85-6.47,19.72-12.92,29.68-19.22,6.78-4.29,9.27-3,9.32,4.91.09,16.66.21,33.33,0,50-.21,16.09,7.67,22.8,20.11,28.85,9.74,4.73,24-4.58,25-15.52,1-11.22,1.65-22.49,2.5-33.73.26-3.36.41-7.42,5.13-6.89,4.12.47,3.73,4.25,3.49,7.35-.87,11.24-1.66,22.49-2.76,33.71-.38,3.87.78,6.28,4.24,8,3.21,1.59,6.22,3.56,9.31,5.37,12.09,7.1,19.39,6,29.35-4,2.1-2.12,2.34-4.37,2.34-6.95,0-9.74-.05-19.48.07-29.22,0-3.43-.87-8.21,4.46-8.07,4.63.13,4,4.49,4,7.77,0,8.2,0,16.41,0,24.61,0,11.91,13.85,20,24.84,14.5,10.68-5.35,15.48-14.31,14.07-26.28-.57-4.84-1.13-9.67-1.63-14.51-.33-3.1.26-5.92,4-6.19,3.33-.24,4.22,2.42,4.54,5.1.78,6.62,1.62,13.24,2.11,19.88.37,5.12,2.48,5.55,6.35,3.06a16.13,16.13,0,0,0,7.28-11.26c2.87-15.88,5.88-31.73,8.61-47.63,1.84-10.75-.51-20.88-5.43-30.48l-25.91-50.62c-1.4-2.75-2.64-5.47-2.63-8.71.1-18.72.05-37.43.11-56.15a14.47,14.47,0,0,1,.76-5.26,3.46,3.46,0,0,1,4.42-2.09c3.06,1,3.27,3.51,3.26,6.21,0,17.43.09,34.86-.05,52.3a25.4,25.4,0,0,0,3,12.47c8.21,15.65,16.06,31.48,24.25,47.14,6.94,13.28,8.6,27.14,5.75,41.76-2.75,14.08-5.21,28.21-7.79,42.32-2.07,11.33-8.62,18.45-20,20.38-4.9.83-7.32,4.48-10.38,7.4-13.89,13.25-21.34,14.6-38.37,5.88-3.47-1.78-5.61-1.74-8.73.72-15.11,11.94-21.72,12.24-38.18,2.5A17.75,17.75,0,0,1,406.9,338c-6.08-5.26-10.91-5.06-17.55.63-14,12-37.15,3.78-46.33-15.47a35.13,35.13,0,0,1-3.19-15.66C339.92,292.43,339.86,277.36,339.86,260.47Zm-108,33.73c14.35,0,28.7-.14,43,.09,4.47.07,5.57-1.57,5.6-5.82,0-4.5-1.62-5.57-5.83-5.55q-43,.21-86.09,0c-4.54,0-5.5,1.61-5.55,5.79-.06,4.45,1.52,5.67,5.78,5.61C203.21,294.07,217.56,294.2,231.91,294.2Z"/><path d="M285.46,376.1c12,7.43,24,5.91,36.36,1.63,2.94-1,6.62.72,9.38,2.69,5.32,3.79,10.38,3.45,15.58-.21,7-4.9,14-6.26,20.9.15,3.07,2.84,5.69,1.09,8.2-.79a22.72,22.72,0,0,1,18.9-4.05c3,.6,6.63,1.4,6,5.5s-4,4-7.23,2.9c-5.19-1.75-9.54.19-13.6,3.17-6.14,4.5-12.14,5.18-18-.47-3.32-3.23-6.57-2.07-9.68.13-8.4,5.94-16.84,6.71-25.67.86-3.8-2.53-7.87-1.94-11.63.26-7.06,4.14-14,4.24-21,0-5.49-3.31-11.22-3.05-17-.86-2.94,1.13-5.82,1.47-7.07-2s1.61-5,4.31-6A52.56,52.56,0,0,1,285.46,376.1Z"/><path d="M88,376.12c12,7.21,24.06,6,36.43,1.62,2.91-1,6.61.71,9.38,2.69,5.33,3.81,10.45,3.41,15.63-.23,7-4.91,14.05-6.12,21,.21,3.11,2.85,5.73,1,8.21-.89,6-4.48,12.64-5.38,19.71-3.82,2.8.62,5.76,1.84,4.94,5.57S199.5,385,196.54,384c-5.48-1.88-10,.16-14.31,3.28-5.88,4.25-11.81,4.93-17.39-.44-3.27-3.16-6.47-2.58-9.67-.28-8.64,6.22-17.32,6.9-26.39.86-3.56-2.38-7.46-1.76-10.94.31-7.33,4.38-14.49,4.3-21.76-.09-5.26-3.17-10.8-2.73-16.3-.73-2.9,1.05-5.89,1.72-7.15-1.75-1.45-4,1.78-5.39,4.8-6.42A58.16,58.16,0,0,1,88,376.12Z"/><path d="M353.59,425.37c.24,4.63-1.66,7-6.67,7-4.61,0-7.13-1.3-7.14-6.47s1.52-7.5,7-7.43C351.73,418.5,353.79,420.58,353.59,425.37Z"/><path d="M236.72,450.13c.37,4.8-1.65,7-6.63,7-4.61,0-7.15-1.28-7.18-6.45s1.58-7.58,7-7.48C234.78,443.32,237,445.34,236.72,450.13Z"/><path d="M307.87,428.39c.41,5.22-2.46,6.66-7,6.64-4.83,0-6.71-2.2-6.75-7,0-5.5,2.68-6.8,7.61-6.81C307.09,421.19,308.18,424.06,307.87,428.39Z"/><path d="M384.54,433.26c.42,4.86-1.77,6.89-6.67,6.91-4.66,0-7.08-1.41-7.12-6.51s1.87-7.42,7.15-7.38C382.85,426.32,384.9,428.5,384.54,433.26Z"/><path d="M124.89,472.53c-5.58.36-6.3-3-6.31-7.35,0-5.18,2.85-6.36,7.35-6.38,5.72,0,6.54,3.29,6.49,8C132.37,472.34,128.9,472.77,124.89,472.53Z"/><path d="M89.59,469.88c5.39-.29,7.07,2.28,7.12,7,.07,5.55-2.84,6.71-7.69,6.72-5.44,0-6.11-3.06-6.16-7.36C82.81,471.11,85.38,469.41,89.59,469.88Z"/><path d="M229.45,483.39c-5,.56-6.47-2-6.53-6.77-.07-5.57,2.7-6.92,7.6-6.83,5.17.09,6.33,2.9,6.29,7.39C236.76,482.27,234.2,483.94,229.45,483.39Z"/><path d="M407.39,483.41c-6.06.25-6-3.61-6-7.66,0-5.44,3.42-6,7.61-6,5.19,0,6.16,3.16,6.17,7.53C415.16,483.2,411.5,483.76,407.39,483.41Z"/><path d="M303.49,478.36c5.28-.55,7.23,1.72,7.25,6.6s-1.77,7-6.68,7.11c-5.17.08-7.35-2-7.22-7.28C297,479.85,298.93,477.66,303.49,478.36Z"/><path d="M387.22,485.06c.33,4.75-1.76,7-6.66,7-4.61,0-7-1.44-7.06-6.55s1.62-7.43,7-7.34C385.41,478.23,387.51,480.28,387.22,485.06Z"/><path d="M169.05,415.82c4.71-.28,6.71,1.85,6.79,6.75.08,5.34-2.11,7.1-7.27,7s-6.66-2.4-6.58-7S164.19,415.51,169.05,415.82Z"/><path d="M130.69,433.73c4.88-.7,6.88,1.56,6.93,6.4,0,5-1.84,7.42-7.15,7.32-5-.1-6.63-2.52-6.59-7.11S125.57,433,130.69,433.73Z"/><path d="M409.59,440.62c.5,4.88-1.94,6.7-6.68,6.81-5.42.13-7.07-2.57-7-7.49s2.68-6.35,7.28-6.36C408.26,433.57,410.08,435.85,409.59,440.62Z"/><path d="M337.41,486.16c-4.57.54-7-1.22-7-6.28-.05-4.89,1.32-7.6,6.86-7.51,4.88.07,6.92,2.11,6.89,6.83C344.1,483.69,342.7,486.67,337.41,486.16Z"/><path d="M110.42,451.12c.4,4.78-2,6.64-6.77,6.68-5.21,0-7.09-2.22-7-7.4s2.67-6.31,7.18-6.34C108.78,444,110.77,446.25,110.42,451.12Z"/><path d="M154.14,444.26c5.1-.54,7.42,1.31,7.44,6.35,0,4.65-1.41,7.15-6.45,7.18s-7.59-1.47-7.44-7C147.82,446,149.47,443.54,154.14,444.26Z"/><path d="M191.76,444.21c4.83-.52,6.92,1.53,6.94,6.49,0,4.69-1.58,7.11-6.53,7.13s-7.5-1.71-7.38-7.12C184.89,445.77,187,443.72,191.76,444.21Z"/><path d="M79.3,455c.4,4.81-1.25,7.49-6.29,7.5-4.35,0-7.27-1-7.32-6.25,0-4.87,1.14-7.67,6.73-7.55C77,448.79,79.79,450.12,79.3,455Z"/><path d="M266.78,456.51c5.13-.58,6.65,2.27,6.65,6.82,0,4.73-2,6.74-6.91,6.77-5.39,0-7-2.33-6.92-7.41S262.19,456,266.78,456.51Z"/><path d="M92.14,432.22c-5.19.53-6.59-2.21-6.69-6.86-.11-5.43,2.39-7,7.44-6.93,5.41,0,6.2,3.14,6.25,7.39C99.21,430.73,96.9,432.83,92.14,432.22Z"/><path d="M332.42,450.76c.53,4.87-1.52,7-6.49,7-4.53,0-7.2-1.23-7.28-6.38s1.73-7.38,7.09-7.31C330.6,444.13,332.93,445.85,332.42,450.76Z"/><path d="M171,488c.55,5.33-2.46,6.46-7,6.51-4.89.06-6.73-2-6.77-6.84-.05-5.49,2.6-6.95,7.55-6.86C169.86,480.87,171.47,483.4,171,488Z"/><path d="M363,451.25c4.83-.56,6.91,1.75,6.94,6.62,0,4.64-1.44,7.13-6.63,7.13-4.84,0-7.08-1.68-7.06-6.67C356.24,453.68,357.74,450.88,363,451.25Z"/></svg>