<svg id="Layer_1" data-name="Layer 1" xmlns="http://www.w3.org/2000/svg" viewBox="0 0 600 600"><title>Artboard 1 copy 29</title><path d="M123.74,188.54c-6.09,0-11.29.08-16.49,0-5.61-.1-8.6-2.61-8.66-7s2.87-7,8.47-7.07c5.34-.09,10.68,0,16.67,0,0-7.48,0-14.33,0-21.18,0-8.36,1.74-10.06,10.12-10.06H397.61c.65-2.63,1.15-4.92,1.78-7.17,6.86-24.33,30.77-40.69,55.24-37.83,25.92,3,45.2,23.34,46.59,49.06.11,2,.18,4,.18,6.06q0,146.76.07,293.53c0,18-5.94,32.93-20.12,44.22-10,8-21.64,11.14-34.35,11.13q-115.69-.06-231.39,0H135.28c-10.09,0-11.51-1.46-11.52-11.76V470.46c-6.1,0-11.76.14-17.41,0-5.09-.16-8-3-7.73-7.37s2.68-6.47,6.81-6.61c4.88-.17,9.78.11,14.64-.23,1.28-.09,3.47-1.72,3.51-2.71.3-7.53.16-15.08.16-23.28-5.65,0-10.81,0-16,0-6-.06-9.11-2.43-9.18-7s2.92-7.06,8.93-7.11c5.18-.05,10.35,0,15.88,0V389.9c-5.44,0-10.76,0-16.08,0-5.61-.06-8.62-2.49-8.73-6.91-.12-4.68,2.88-7.16,8.85-7.21,5.2,0,10.39,0,16,0v-26.2H109c-7.32,0-10.51-2.2-10.43-7.17s3.27-7,10.68-7c4.54,0,9.07,0,14,0V309.26c-5.52,0-10.86.05-16.19,0-5.61-.07-8.54-2.54-8.54-7s3-7,8.56-7.08c5.35-.07,10.7,0,16.29,0V269c-5.65,0-11,.06-16.31,0-5.64-.09-8.56-2.55-8.54-7s3-7,8.59-7.08c5.34-.08,10.68,0,16.29,0V228.71c-5.68,0-11.33,0-17,0-3.7,0-6.64-1.32-7.68-5.2-1.24-4.67,1.73-8.55,7-8.83,4.71-.25,9.45.11,14.14-.22,1.32-.09,3.58-1.65,3.62-2.6C123.87,204.33,123.74,196.78,123.74,188.54ZM397.13,455.32V189.79c-1.52-.13-2.66-.32-3.8-.32q-96.74,0-193.46-.08c-3.08,0-4.29,1.11-5.32,3.93-3.18,8.63-9.15,15-17.8,18.14-3.77,1.38-4.58,3.26-4.57,6.95.14,34.68.08,69.37.08,104s0,69.37-.06,104.06c0,3.41.64,5.33,4.29,6.63a28.12,28.12,0,0,1,17.67,17.56c1.46,4.14,3.63,4.68,7.36,4.67q95-.12,189.92-.06Zm90.13-41.66v-6.49q0-126.57,0-253.12c0-2.19,0-4.38-.17-6.57A37.63,37.63,0,0,0,438,113.94c-16.77,5.36-26.41,19.58-26.41,39.23q0,127.58,0,255.14c0,1.62.15,3.24.25,5.25C436.89,392.9,461.67,392.78,487.26,413.66Zm-74.54,74.09c-3.14-4.47-6.66-8.15-8.55-12.52-2.12-4.93-5.13-5.87-10-5.86q-100.26.22-200.52.09c-8.65,0-9.89-1-11.29-9.22-1.47-8.63-6.86-13.8-15.84-15.17-7-1.06-8.38-2.53-8.38-9.45q0-113.39,0-226.79c0-6.6,1.51-8.15,8.12-9.1,8.78-1.25,14.29-6.27,15.93-14.51,1.9-9.49,2.41-9.91,12.2-9.91H397V157.65H138.21v330.1Zm72.87-30.36,1.13-.12c.16-2.31.43-4.62.46-6.93a38,38,0,0,0-76-1c-.38,20.59,16.3,38.14,36.74,38.67,13.14.34,23.42-8.8,24.07-21.39.65-12.78-8.32-22.79-21.48-24-5.44-.5-8.42-3.29-8.1-7.6s3.77-7,9.11-6.47c15.46,1.44,26.29,9.36,32.27,23.76C484.51,453.94,485,455.69,485.59,457.39Z"/><path d="M284.67,288c8-8,15.48-15.54,23-23,5.84-5.83,8.54-5.86,14.31-.1q25.19,25.16,50.35,50.34c5.57,5.57,5.63,8.57.25,14q-25.34,25.37-50.71,50.7c-5.57,5.56-8.44,5.56-14,0-7.48-7.5-14.89-15.08-22.67-23-1.39,1.2-2.54,2.08-3.55,3.09-6.93,6.88-13.78,13.84-20.74,20.68-4.52,4.43-7.78,4.48-12.16.13q-26.3-26.19-52.49-52.49c-4.32-4.33-4.3-7.76.06-12.14q26-26.12,52.13-52.13c4.55-4.53,8-4.56,12.58,0C268.78,271.72,276.39,279.57,284.67,288ZM254.86,366l19.66-19.54c-5.36-5.34-10.84-10.78-16.3-16.24-6.8-6.8-6.82-9.08-.09-15.8,5.53-5.52,11.1-11,16.4-16.26L255.3,278.87c-14.6,14.57-29.32,29.26-43.79,43.72ZM295,298.26c5.77,5.67,11.69,11.39,17.51,17.21,5.26,5.27,5.22,8.35-.05,13.68-5.8,5.84-11.65,11.63-17.17,17.14l19,19.13,43.77-43.48-43.25-43.21Zm3.46,24.41-13.82-13.93-13.51,13.17L285,335.67Z"/></svg>