<svg id="Layer_1" data-name="Layer 1" xmlns="http://www.w3.org/2000/svg" viewBox="0 0 600 600"><title>Artboard 1 copy 22</title><path d="M441,300.06q0,103.88,0,207.75c0,17.29-8.24,29.28-23.64,34.14a39.37,39.37,0,0,1-11.72,1.48q-105.49.14-211,0c-21.73,0-35.5-13.78-35.5-35.51q-.08-208,0-416c0-21.66,13.84-35.37,35.62-35.39q105.23-.1,210.45,0c22,0,35.76,13.75,35.78,35.78Q441,196.19,441,300.06Zm-10.82-3.71q0-82.79,0-165.57c0-7.16,0-7.17-6.91-7.17H177c-7.15,0-7.16,0-7.16,6.91v330.6c0,7.14,0,7.15,6.91,7.16H423c7.16,0,7.16,0,7.16-7.45Q430.15,378.59,430.13,296.35ZM300.58,479.11H286.51c-37,0-73.92.07-110.88-.08-4.38,0-6,1.05-5.86,5.69.35,8.64-.46,17.36.36,25.93a31.56,31.56,0,0,0,5.09,13.78c4.73,7.21,12.56,8.27,20.62,8.27q104.13-.06,208.25,0a53.54,53.54,0,0,0,5.94-.25c11.74-1.32,19.75-9.88,20-21.66.2-8.47-.23-17,.18-25.42.25-5-1.41-6.34-6.34-6.32C382.8,479.19,341.69,479.11,300.58,479.11Zm-1.16-366.32h11.9c37.69,0,75.37-.07,113.05.09,4.39,0,6.19-1.09,5.85-5.71-.37-4.84.19-9.75-.17-14.59-.32-4.24-.54-8.81-2.26-12.57-4.55-9.89-13.23-12.75-23.63-12.74q-104.12.18-208.25.08a53.81,53.81,0,0,0-6.47.32,21.63,21.63,0,0,0-19.48,21c-.22,6,.23,11.92-.19,17.85-.35,5,1.35,6.36,6.33,6.33C217.21,112.7,258.31,112.78,299.42,112.79Z"/><path d="M310.76,506.11a10.76,10.76,0,1,1-10.22-11A10.75,10.75,0,0,1,310.76,506.11Z"/><path d="M281.91,84.94c9.2,0,18.39,0,27.58,0,3.74,0,7.26.77,7.36,5.24.11,4.85-3.61,5.59-7.54,5.59l-55.14,0c-3.72,0-7.28-.83-7.36-5.28-.08-4.79,3.53-5.64,7.53-5.61C263.53,85,272.72,84.94,281.91,84.94Z"/><path d="M337.44,98.39a8,8,0,1,1,7.85-8.51A8,8,0,0,1,337.44,98.39Z"/></svg>