<svg id="Layer_1" data-name="Layer 1" xmlns="http://www.w3.org/2000/svg" viewBox="0 0 600 600"><defs><style>.cls-1{fill:#fff;}</style></defs><title>Artboard 1 copy 11</title><path d="M215.69,502.35h-123c-1-4.36-1.89-8.72-3-13.89H55v-371c4.82-10.35,12.49-17.28,23.81-19.84H521.19c11.25,2.64,19.25,9.18,23.81,19.84v371H509.29v13.89h-125c-.44-4.49-.88-9-1.31-13.46H216.83C216.41,493.89,216.05,498.12,215.69,502.35Zm-136.07-380V463.86h208V122.37Zm441,341.81V122.55H312.5V464.18Z"/><path class="cls-1" d="M215.69,502.35c.36-4.23.72-8.46,1.14-13.46H383c.43,4.47.87,9,1.31,13.46Z"/><path class="cls-1" d="M55,488.46H89.67c1.13,5.17,2.07,9.53,3,13.89H55Z"/><path class="cls-1" d="M509.29,502.35V488.46H545v13.89Z"/><path class="cls-1" d="M78.81,97.65c-11.32,2.56-19,9.49-23.81,19.84V97.65Z"/><path class="cls-1" d="M545,117.49c-4.56-10.66-12.56-17.2-23.81-19.84H545Z"/><path class="cls-1" d="M79.62,122.37h208V463.86h-208Zm169.9,181.89c0-8.57-.12-17.13,0-25.69.14-8-2.65-13.91-11.33-14.28s-12.17,5.59-12.27,13.42c-.21,17.45-.16,34.91,0,52.36.07,7.75,4.3,13,12,12.87s11.76-5,11.63-13C249.41,321.38,249.51,312.82,249.52,304.26Z"/><path class="cls-1" d="M520.6,464.18H312.5V122.55H520.6Zm-170.1-161c0,8.89.11,17.79,0,26.68-.13,8,4,12.95,11.58,13.07s12-5.09,12.05-12.83c.16-17.79.26-35.58-.07-53.37-.14-7.44-3.91-12.84-12.16-12.48-8.06.34-11.4,5.52-11.38,13.23C350.52,286.07,350.5,294.63,350.5,303.2Z"/><path d="M249.52,304.26c0,8.56-.11,17.12,0,25.68.13,8-4.06,12.92-11.63,13s-11.91-5.12-12-12.87c-.14-17.45-.19-34.91,0-52.36.1-7.83,3.47-13.79,12.27-13.42s11.47,6.29,11.33,14.28C249.4,287.13,249.52,295.69,249.52,304.26Z"/><path d="M350.5,303.2c0-8.57,0-17.13,0-25.7,0-7.71,3.32-12.89,11.38-13.23,8.25-.36,12,5,12.16,12.48.33,17.79.23,35.58.07,53.37-.08,7.74-4.36,12.94-12.05,12.83s-11.71-5.05-11.58-13.07C350.61,321,350.5,312.09,350.5,303.2Z"/></svg>