<svg id="Layer_1" data-name="Layer 1" xmlns="http://www.w3.org/2000/svg" viewBox="0 0 600 600"><title>Artboard 1 copy 37</title><path d="M68.46,213.24C71.54,203,78.94,197.62,88.6,193.79c22.78-9,45.26-18.87,68-28.11,3.6-1.46,4.84-3.32,4.47-7-.26-2.68,0-5.42,0-8.13,0-9.48.62-10.32,9.45-13,4.47-1.34,6.68-5,5.61-9.33-.93-3.76-4.86-6.52-8.64-5.28-2.17.71-3.82,3-5.74,4.5-1.21,1-2.44,2.45-3.76,2.57-3.87.34-7.78.12-11.64.12-.75-9.77,5.82-18.82,15.6-21.88a23.09,23.09,0,0,1,26.64,10,22.75,22.75,0,0,1-8.95,32.2c-5.17,2.68-2.29,6.76-3.07,10.19-.69,3,1.67,3.71,3.81,4.58,6.54,2.66,13,5.4,20,8.32,2.78-11,11.48-15.21,20.78-19,22.42-9.15,44.71-18.63,67.12-27.8,3-1.21,4.29-2.65,4-5.91s-.07-6.63-.06-9.94c0-8.48,1-9.77,9.1-11.81,3.82-1,6.06-3.36,6.14-7.33a7,7,0,0,0-5.86-7.5c-4.11-.93-6.8,1.07-8.84,4.6a5.7,5.7,0,0,1-3.65,2.68c-3.85.36-7.75.13-12,.13-.07-8.43,3.39-14.49,9.61-18.88,7.22-5.08,15.16-5.8,23.13-2,8.49,4.08,13,11.18,13.13,20.53.16,9-3.87,16.26-11.91,20.31-5.37,2.71-2.64,6.94-3.34,10.52-.66,3.42,2.23,3.79,4.35,4.67q33.72,14.1,67.47,28.14c13.35,5.57,13.85,6,20.51,18.35,6.9-2.89,13.89-5.67,20.7-8.79a5.54,5.54,0,0,0,2.55-3.94c.33-4.35.06-8.73.14-13.1.13-6.34,1.81-7.95,7.81-9.74a12.81,12.81,0,0,0,6.66-4.61c2.22-3.35.1-8.11-3.57-9.85a7.48,7.48,0,0,0-9.77,3.12,27.2,27.2,0,0,0-1.38,3.39H408.43A22.33,22.33,0,0,1,428,107.46c12.47-1.31,23.63,6.64,25.7,18.32,1.86,10.49-2.49,20-12.05,25-5.06,2.65-2.23,6.87-2.56,10.34-.12,1.29,1.95,3.46,3.5,4.12,24.52,10.38,49,20.91,73.73,30.7,19.77,7.81,18.74,36.85,5.77,45.44A26.5,26.5,0,0,1,506.82,246c-10.24-.08-20.49,0-30.73,0-39.18,0-78.37-.59-117.53.23-22.09.46-32-16.61-26.35-36,.16-.56.23-1.15.44-2.2H267.74c.47,4.75,1.34,9.36,1.3,14-.14,14.21-9.7,24-23.86,24q-76.4.19-152.78,0c-11.58,0-19-5.69-23-16.8a6.82,6.82,0,0,0-.92-1.41Zm231-21.2q37.51,0,75,0c6.3,0,9.06-2,10.11-6.82,1.5-6.89-.39-11.36-6.13-13.76q-37.87-15.87-75.83-31.55a7.32,7.32,0,0,0-5.07-.15q-38.61,15.87-77.1,32c-3.55,1.48-5.3,4.19-5.5,8.06-.49,9.24,2.29,12.21,11.7,12.21Q263.08,192.06,299.47,192Zm-131,38.48q37.94,0,75.87,0c5.32,0,7.94-2,9-6.36,1.51-6.19,0-11.54-4.49-13.34a53.88,53.88,0,0,0-12.9-3.18c-4.15-.53-8.42,0-12.63-.15-10.29-.34-17.65-5.09-22-14.55a7.73,7.73,0,0,0-3.6-3.52q-13-5.7-26.22-10.91a8.06,8.06,0,0,0-5.46,0Q128.12,194,90.29,209.91c-5.89,2.47-7.81,7-6.19,14.17,1,4.63,3.91,6.44,10.34,6.44Zm262.49,0h17.16c19.42,0,38.84,0,58.26,0,3.54,0,6.6-.71,8.45-4A11.81,11.81,0,0,0,509,209.7q-37.44-15.62-75-31.09a8.67,8.67,0,0,0-5.86-.06q-13,5.05-25.8,10.75a9.51,9.51,0,0,0-4.08,4.19c-4,7.75-9.91,12.85-18.83,13.6-5.08.42-10.24,0-15.32.5a45.05,45.05,0,0,0-11.29,2.31c-6.12,2.23-8,6.83-6.55,13.9,1,4.91,3.85,6.72,10.57,6.72Z"/><path d="M68.46,274.72c2.26-4.11,5.66-5.57,10.4-5.56q105.27.16,210.53.08c8,0,10.53,2.51,10.53,10.52q0,120.4.07,240.81c0,4.82-1.22,8.51-5.49,10.93h-226ZM84,515.74H284.22V346.63H84ZM284.2,330.63V285H84.11v45.61Z"/><path d="M521,517.89l-10,11.73-89.72-76.85L336,529.47l-10.35-11.4,83.75-75.44c-19.19-16.45-38-32.64-57-48.72a7.77,7.77,0,0,0-4.56-1.28c-7.53-.13-15.07,0-22.6-.07-7.18-.07-9.89-2.74-9.93-9.79q-.09-13.33,0-26.66c0-6.95,2.93-9.82,10-9.84,16.12,0,32.24-.12,48.36.07,3.37,0,4.51-1.16,5.51-4.24,4.05-12.43,12.54-20.74,25-24.68,3.15-1,3.9-2.42,3.81-5.39-.2-5.87-.14-11.75,0-17.63.12-7.09,2.84-9.75,10-9.75q44.06,0,88.13,0c6.59,0,8.76,1.8,10.12,8.39,2.27,11,4.47,22.11,6.73,33.17,1.79,8.77-1.11,12.33-10.21,12.48-1.33,0-2.65.13-4.23.21v7.35c4.36,0,8.53,0,12.7,0,7.4.07,10.18,2.79,10.21,10.05q.06,13.32,0,26.66c0,6.82-2.72,9.52-9.65,9.58-10.09.08-20.18-.06-30.28.1a8.7,8.7,0,0,0-5.25,1.78c-17.34,15.41-34.55,31-51.79,46.48-.44.4-.79.89-1.4,1.58ZM515.78,362H331.1v14.83H515.78ZM421,432.21l43.48-39.16H375.3Zm71.52-101.37H476.65c-20,0-40-.06-60,0-11,.05-19.93,6.36-22,15.07h97.88Zm12.53-15.14c-.77-3.75-1.88-7.68-2.3-11.69-.36-3.35-1.77-4.06-4.92-4-23.33.13-46.66.07-70,.08-1.32,0-2.64.13-4.12.21V315.7Z"/><path d="M261,423.51V439c-4,0-7.72.2-11.43-.06-3.2-.22-4.39.86-4.9,4.13-5.3,34.52-38.42,60.4-73.22,57.4-37.59-3.24-65.51-34.26-64.27-71.39,1.25-37.31,30.94-66.45,68.57-67.31,33.4-.76,63.8,24.67,69,57.86.47,3,1.55,4.14,4.58,4C253.06,423.33,256.82,423.51,261,423.51Zm-31.69,0c-2.19-25.72-28.55-47.77-54.43-46.25-31.51,1.85-53.47,26-52.24,57.49,1.09,27.71,26,51,54.31,50.49,29.66-.55,50.62-24.37,52.18-46.25-3.76,0-7.5.16-11.22-.05-2.69-.15-3.93.77-4.77,3.41-8.79,27.56-41.56,36.31-63,16.89-11.59-10.5-15.41-28.61-9.12-43.18,6.45-14.91,22.25-24.59,38-23.11,17.42,1.65,28.75,11,34.41,27.47.42,1.23,1.94,2.86,3.06,3C220.65,423.7,224.86,423.49,229.34,423.49Zm-52.75-15.35a23.1,23.1,0,1,0,23,23.06A23.06,23.06,0,0,0,176.59,408.14Z"/><path d="M160.87,300.39v14.7H99.51v-14.7Z"/><path d="M207.16,300.37v14.81h-15V300.37Z"/><path d="M223.18,300.25H238v14.8H223.18Z"/><path d="M253.91,315.19V300.36h14.92v14.83Z"/></svg>