<svg id="Layer_1" data-name="Layer 1" xmlns="http://www.w3.org/2000/svg" viewBox="0 0 600 600"><title>Artboard 1 copy 16</title><path d="M299.79,539.58H214c-8.32,0-9.93-1.34-10.85-9.69q-7-63.9-14-127.83-6.85-62.65-13.72-125.31c-4.14-38.11-8.81-76.16-12.1-114.34-1.81-21.17,7.15-39.41,20.95-55.09,20.21-23,46.34-35.9,75.75-42.22,45.64-9.8,89.35-4.69,129.71,19.88,20.8,12.66,36.54,29.92,44.24,53.71,4.35,13.44,2.79,26.88,1.29,40.44q-6.54,59.38-12.92,118.81-6.86,62.91-13.76,125.82-5.78,53.14-11.41,106.29c-.81,7.59-2.8,9.52-10.64,9.52Q343.18,539.6,299.79,539.58ZM422.32,170c-10.84,4.41-20.91,8.11-30.65,12.51-42.82,19.33-79.27,46.74-106.18,85.7-31.11,45-43.57,95.1-38.89,149.53,3.18,36.92,14,71.37,33.27,103.1,1.75,2.88,3.55,4.19,7.1,4.17,30.78-.16,61.55-.09,92.33-.1,1.47,0,2.93-.18,4.66-.3C396.72,406.59,409.46,288.87,422.32,170Zm-132.8,67.57c-30.74-31.72-68.52-52.61-111.15-67.09,12.83,118.51,25.57,236.24,38.31,354h48C214.16,423.83,219.67,328.41,289.52,237.55ZM418,157c5.51-1.15,5.66-1.33,4.1-8.5-4.19-19.4-15.57-34-31-45.74-49-37.21-131.76-37.49-181-.65-13,9.75-23.55,21.62-29.29,37.08-1.94,5.24-3,10.82-4.4,16.34,2,.61,2.91.95,3.86,1.17s2.19.4,3.39.61c4.83-14.27,14.63-22,29.27-23.54,3.72-15.11,12.41-24.4,28.4-25.81,1.4-.12,2.88-2,3.9-3.32,9.08-12.1,23.49-16.07,37.2-9.8,2.77,1.27,4.43.74,6.73-.75,10.67-6.89,23-5.94,32.78,2a7,7,0,0,0,5.2,1.36c10.95-2.49,19.38,1.21,26.29,9.67a8,8,0,0,0,5.2,2.68c8.83.42,15.28,4.35,19.88,11.84a7.52,7.52,0,0,0,4.34,3.2c9.14,1.91,14.89,7.21,17.55,16.11a8.68,8.68,0,0,0,2.56,3.9C407.44,148.69,412.1,152.29,418,157Zm-157.24,3.44c-.58-11.12-1.26-21.66-1.62-32.21-.23-6.59,2.49-9.17,9.13-9.14,6.05,0,12.1.23,18.16.4,9.64.27,10.92,1.6,11,11.32a217.48,217.48,0,0,0,14.83,77.78c.62,1.57,1.39,3.08,2.09,4.62l1.42-.47c-.33-1.68-.58-3.39-1-5.05a292.62,292.62,0,0,1-9.24-69.3c-.09-6.73,2.43-9.27,9-9.2q10.34.12,20.67.51c6,.22,8.15,2.45,8.35,8.35.11,3.41,0,6.82,0,10.27,21.65-5.85,28.19,10.36,36.94,23.37l20.71-8.94.51-1.53c-2.24-1.28-4.34-3.15-6.75-3.74-7.44-1.8-8.37-2.64-8.75-10.35-.34-6.95-3.8-9.71-10.48-8.34-5.42,1.11-8.28-.87-9.18-6.37-1.3-7.93-5.22-10.13-12.81-7.21-4.76,1.83-8.36.22-10-4.48-3.63-10.26-9-12.35-18.32-7.17-4.26,2.35-7.7,1.51-10.37-2.56-6.29-9.53-15.05-10.26-22.74-1.87-4.07,4.44-6.69,4.45-11.73.93-2.68-1.87-5.77-3.67-8.91-4.24-7.82-1.42-14.65,2.92-17.78,10.87-1.52,3.87-3.65,6.43-8.13,5.93-12.46-1.38-18.64,4.08-19.08,16.91-.25,7-3.06,9.23-9.93,7.9-9.24-1.8-17.72,4.45-19,14.22,5.65,2.39,11.31,4.92,17.1,7.12a5.43,5.43,0,0,0,4.45-.51C231.71,158.78,245.28,156,260.76,160.44Zm12-27c1.34,12,2.52,23.55,4,35,.21,1.64,1.56,3.27,2.71,4.62,8,9.43,12.9,20.6,10.2,32.5-2.16,9.51,1.43,14.31,8,19,.81.58,1.56,1.23,2.27,1.8,3.57-1.22,3.6-3.3,2.3-6.3a218.83,218.83,0,0,1-15.41-53c-1.75-11-2.65-22.25-4-33.64Zm3.32,71.29c-.07-12.2-3.94-22-14.39-28.05-9.58-5.57-19.36-5.32-29.21.21ZM319.71,144c.61,20.17,3.12,39.42,9.24,58.21.38-19.41,4.54-38.78-.07-58.21Zm48.59,33.24c-3.78-5.16-6.78-10-10.52-14.16-3.88-4.31-6.58-3.74-9.18,1.45-4.14,8.26-4.76,17.18-4.75,27.13Z"/><path d="M346.93,283.76a19,19,0,0,1-19.44-18.9c-.16-11.09,8.13-19.65,19.1-19.73a19.32,19.32,0,0,1,.34,38.63Zm-1.39-12.91,2.11.06c1.4-1.91,4-3.89,3.89-5.72S349,260.46,347.1,260a4.2,4.2,0,0,0-5.27,4.87C342.13,267,344.24,268.86,345.54,270.85Z"/><path d="M337.1,495.79a19.14,19.14,0,0,1-19.45-19.43A19.51,19.51,0,0,1,337,457.14a19.74,19.74,0,0,1,19.5,19.64A19.11,19.11,0,0,1,337.1,495.79Zm-6-20.68c0,.72,0,1.44,0,2.16,2,1.35,4.16,4,5.94,3.71s3.45-3.2,5.15-5c-1.75-1.66-3.39-4.48-5.27-4.65S333,473.75,331.07,475.11Z"/><path d="M381.08,388.27a19.33,19.33,0,0,1-19.24,19.24A19.11,19.11,0,0,1,342.44,388c0-10.64,8.69-19.4,19.09-19.34A19.76,19.76,0,0,1,381.08,388.27Zm-20.71,5.25,2.34.08c1.4-1.87,3.65-3.59,4-5.64a4.3,4.3,0,0,0-5-5.24c-1.92.36-4.48,3-4.75,4.93S359.13,391.55,360.37,393.52Z"/><path d="M317.53,393.33c6.59-.07,10.24,5.08,7.76,9.89-6.06,11.76-12.5,23.33-19.11,34.79-2,3.53-5.7,4.1-9.22,1.92s-4.84-5.29-2.8-9c6.13-11.34,12.33-22.66,18.79-33.82C314.05,395.17,316.57,394.08,317.53,393.33Z"/><path d="M387.91,298.89a36.49,36.49,0,0,1-1.9,4.84c-4,6.64-7.91,13.28-12.05,19.8-2.46,3.87-6.51,4.85-9.95,2.57-3.75-2.48-4.26-6-2.11-9.66,4-6.83,7.8-13.78,12.44-20.13,1.47-2,5.53-3.44,8-3C384.56,293.68,386.23,297.06,387.91,298.89Z"/><path d="M298.8,333.42a40.72,40.72,0,0,1-1.91,5.25c-2.5,4.55-5,9.1-7.74,13.53-2.34,3.82-6,4.83-9.43,2.66-3.61-2.29-4.85-5.57-2.76-9.5,2.51-4.73,5.21-9.38,8-14,1.86-3.12,5-4.53,8.17-3.15C295.39,329.22,297,331.73,298.8,333.42Z"/><path d="M254.16,231.76a19.52,19.52,0,0,1-19.63,19.39,19.19,19.19,0,0,1-19-19.39,19.32,19.32,0,0,1,38.63,0Zm-11.38.29c-3.34-2.49-5.29-5.08-7.13-5s-4.72,2.47-5.25,4.38c-.9,3.19,1.72,5.63,4.83,5.34C237.33,236.57,239.24,234.37,242.78,232.05Z"/><path d="M250.6,275.84a42.74,42.74,0,0,1-1.87,4.88c-2.63,4.69-5.2,9.42-8.1,13.93-2.06,3.2-5.31,4.38-8.75,2.4-3.59-2.06-5.25-5.41-3.19-9.41,2.62-5.06,5.19-10.26,8.65-14.74,1.44-1.86,5.39-3.15,7.7-2.6S248.92,274,250.6,275.84Z"/></svg>