<svg id="Layer_1" data-name="Layer 1" xmlns="http://www.w3.org/2000/svg" viewBox="0 0 600 600"><title>Artboard 1 copy 33</title><path d="M455.61,84.66a82.3,82.3,0,0,1,8.91,3.41c11.25,5.8,17.36,15.07,18.1,27.77.09,1.54.06,3.08.06,4.63q0,191.55,0,383.12c0,1.4.05,2.81-.07,4.2a7.91,7.91,0,0,1-7.25,7.46,34,34,0,0,1-3.78.07H128.41a34,34,0,0,1-3.78-.07,7.9,7.9,0,0,1-7.24-7.45c-.11-1.26-.08-2.53-.08-3.79q0-192.19,0-384.38c0-18.2,8.68-29.57,26.06-34.3a3.94,3.94,0,0,0,1-.67Zm10.92,64.93v-29c0-13.68-6-19.69-19.75-19.69H153.23c-1.12,0-2.24,0-3.36,0-9.61.4-16.28,7.13-16.38,16.71s0,19.34,0,29a23.92,23.92,0,0,0,.37,3H405.74a29.84,29.84,0,0,1,5.44.25,8,8,0,0,1-.52,15.89,40.3,40.3,0,0,1-5,.15H133.68V498.82h332.5V165.88c-7.91,0-15.48.1-23,0-5.81-.11-9.17-3.73-8.69-9,.4-4.34,3.68-7.19,8.76-7.26C450.78,149.51,458.34,149.59,466.53,149.59Z"/><path d="M299.84,467.15c-74-.26-134.32-60.63-134.25-134.47.06-74.07,60.89-134.71,134.77-134.35,74.05.36,134.33,60.92,134.05,134.66C434.13,407,373.54,467.41,299.84,467.15Zm1.65-219.82c-4.89.3-8.41.29-11.88.75-48.17,6.41-80.77,49.52-73.85,97.6,5.39,37.42,34.9,66.53,74.22,71.62,37.63,4.87,71.71-16.08,86.92-47.73,1-2,1-3.34-.45-5.18a30.49,30.49,0,0,1-6.82-19.85c0-8.13,0-16.25,0-24.38a29.84,29.84,0,0,1,6.48-18.69c1.59-2,1.87-3.51.62-5.89C360.56,264.58,334.73,249.05,301.49,247.33ZM392,376.1c-21.83,44.89-70.84,66.76-117.29,55-43.76-11.09-75-50.59-76.24-96.42-1.19-44.78,28.78-85.91,72.1-99.15,45.47-13.9,98.67,6.21,121.61,53.84l16.65-1.43C395,249.83,348,206.19,282,216.06a118.05,118.05,0,0,0,9.3,234.4c30.8,2.21,58.47-6.44,82.64-25.72a115.54,115.54,0,0,0,35.28-47.17Zm-6.17-43.3h0c0,4.2-.16,8.4,0,12.59a15.93,15.93,0,0,0,15,15.25,87.26,87.26,0,0,0,11.32,0,4.08,4.08,0,0,0,3-2.4,112.91,112.91,0,0,0,0-50.71,4.49,4.49,0,0,0-3.13-2.72,72.38,72.38,0,0,0-11.31,0,15.94,15.94,0,0,0-14.93,15.78C385.71,324.68,385.81,328.74,385.81,332.8Z"/><path d="M202.82,117.32c11.62,0,23.24,0,34.85,0,6.12,0,9.75,3,9.84,7.89s-3.76,8.25-10,8.26q-35.07,0-70.12,0c-6.44,0-10.34-4.64-8.85-10.22,1-3.8,3.88-5.87,8.55-5.9C179,117.28,190.93,117.32,202.82,117.32Z"/><path d="M385.66,125.15a16.19,16.19,0,1,1-16.6-16A16.41,16.41,0,0,1,385.66,125.15Z"/><path d="M433.92,125.45a16.09,16.09,0,1,1-16.18-16.28A16.11,16.11,0,0,1,433.92,125.45Z"/><path d="M280,117.36c2.65,0,5.31-.13,7.95,0a8,8,0,0,1,.21,16c-5.57.26-11.17.25-16.74,0a8,8,0,0,1,.2-16c2.79-.14,5.58,0,8.37,0Z"/><path d="M296.29,263.52l1.68-.09c6-.22,9.82,2.67,10.12,7.62s-3.51,8.41-9.67,8.65c-22.07.89-41,14.43-48.25,35a68.84,68.84,0,0,0-3.11,16c-.64,6.55-3.52,10.37-8.68,10.12s-7.91-4.09-7.63-10.87C232.27,294,260,266,296.29,263.52Z"/></svg>