<svg id="Layer_1" data-name="Layer 1" xmlns="http://www.w3.org/2000/svg" viewBox="0 0 600 600"><defs><style>.cls-1{stroke:#fff;stroke-miterlimit:10;}</style></defs><title>Artboard 1 copy 42</title><path class="cls-1" d="M229,44.51c5.35,3.93,7.7,9.11,6.69,15.75a11.39,11.39,0,0,0,0,3c2.91,25.64-2.36,49.34-16.67,70.92-3.48,5.25-4.21,11-4.19,17.28q.33,112.29.15,224.59c0,8.09,1.44,12.17,10.41,13.06,10,1,19.75,3.95,29.64,5.89,8.73,1.72,13.11,5.71,12.89,15.76q-1,48.52-.29,97.1c.23,15.06-6,24.7-19.15,31.32a132.23,132.23,0,0,1-49.13,14c-3.67.3-7.47-.19-10.86,1.79H178.33c-4.42-2.19-9.27-1.22-13.89-1.93-25.69-4-51-8.78-67.14-32.51V409.15c1.12-9.49,6.87-13.37,16-14.59,9.3-1.24,18.36-4.46,27.67-5.44,8.23-.86,10.34-4.34,10.33-12.22-.12-67.77-.43-135.54.66-203.3.33-20.54-2.78-39-13.48-56.65-4.05-6.66-9-13.52-8.89-22.11.09-11.8.18-23.6.11-35.4,0-6.56,2.29-11.66,8.14-14.93ZM119.47,465c0,14.16.39,28.34-.16,42.48-.27,6.79,2.17,10.62,8.09,13.33,37.08,17,74,17.3,111-.26,6.29-3,8.73-7.27,8.64-14.27-.32-23.94-.07-47.88-.11-71.82,0-19.59-.19-19.17-19.61-23.63-8.29-1.9-12.32-2.57-13.44,8.41-1.58,15.49-17.2,28.48-30.9,28.61-13,.12-27.08-11.6-30.79-25.18-1.2-4.38,2-10.45-2.93-13-4.57-2.34-9.73,1.43-14.76,1.77-2.31.16-4.58,1.49-6.87,1.49-7.46,0-8.47,4.27-8.3,10.56C119.73,437.31,119.47,451.15,119.47,465Zm73.85-217.9c0-29-.4-58,.23-87,.21-9.52-4.69-9.09-11.2-9.14-6.35,0-10.38.05-10.32,8.79q.65,87,0,174c-.08,9.65,4.62,8.75,11,9.05,7.38.34,10.7-1.11,10.53-9.72C193,304.39,193.33,275.72,193.32,247.07ZM182.4,65.5v-.37c-8.08,0-16.16.25-24.22-.09-5.26-.23-6.94,1.73-7.1,6.91-.45,13.9.66,27,7.88,39.71,10.54,18.61,13.52,20.93,35.09,17.85,2.06-.29,3.85-.41,4.95-2.6,8.83-17.58,19.74-34.46,15.94-55.8-.79-4.42-2.35-5.68-6.31-5.64C199.89,65.56,191.14,65.5,182.4,65.5ZM172.25,393h.15c0,7.41.27,14.84-.08,22.24C172,423,176,427,182.91,427.1c6.66.14,10.35-4.25,10.37-11.08q.09-23.25,0-46.51c0-2.32.1-4.65-2.68-5.94-9.52-4.42-18.33.93-18.35,11.27Z"/><path class="cls-1" d="M439.65,44.51c9.22,3.24,9.52,10.12,7.22,17.93C441.1,82,432.9,100.36,421,116.89a25.39,25.39,0,0,0-5,15.91q.63,131.63.78,263.24c0,8.36,2.29,10.93,10.74,10.71,18.55-.48,37.14.71,55.67.13,11-.34,18.37,2.2,19.27,14.42,0,41.19-.31,82.38.24,123.57.12,8.59-1.79,11.91-10.38,10.17a20.17,20.17,0,0,0-4,0c-8.26-4.14-7.55-12.1-7.62-19.25-.36-33-.6-66-.3-99.06.07-7.5-1.75-10.2-9.44-9.47-6.32.6-12.06-1.24-11.94,9.23.43,35-.42,70.08-.49,105.12,0,5.91-1.6,10.36-6.68,13.43h-6.07c-5.79-4-7.22-9.44-7.15-16.39.35-34.06-.2-68.12.39-102.16.17-9.32-4.26-9.52-11-9.13-6.11.36-12.41-1.91-12.18,8.95.7,34.38.1,68.79.39,103.18,0,6.62-1.4,11.8-7,15.55h-6.07c-5.91-3-7-7.92-7-14.19,0-34.71-.31-69.41-.7-104.11,0-3.05,1.73-7-2.25-9.05-9-4.63-18.38,1-18.5,10.92-.44,34.69,1.07,69.4-1.15,104.08-.35,5.43-1.94,9.67-6.84,12.35h-6.07c-8.32-4.15-7.4-12.21-7.49-19.28-.44-32.68-.77-65.37-.4-98.05.1-8.42-2.07-10.74-10.51-10.61-8,.12-10.92,1.65-10.85,10.43.26,34.7-.48,69.41-.55,104.11,0,5.91-1.53,10.38-6.67,13.4h-6.07c-4-3.6-7.24-7-7.16-13.36.52-40.45.8-80.9.55-121.34-.07-10.42,4.16-13.59,13.88-13.43,20.55.35,41.12-.19,61.68.15,6.59.11,8.59-1.83,8.58-8.51q-.3-135-.08-270c0-4.64-1.48-8.28-4.06-12.07-10.65-15.61-19.83-32-25.13-50.32-2.24-7.79-3.17-14.93,2.38-21.62ZM406,99.88c3.86-2.21,5.08-5.9,6.61-9.1,3.83-8,13.12-18.53,8.88-24-4.49-5.75-17.48-1.33-26.75-1.5-.34,0-.67,0-1,.05-4,.17-5.66,1.95-3.8,5.82C394.69,81.07,398.93,91.25,406,99.88Z"/></svg>