<svg id="Layer_1" data-name="Layer 1" xmlns="http://www.w3.org/2000/svg" viewBox="0 0 600 600"><title>Artboard 1 copy 6</title><path d="M535.86,345.09c-10.3,8.12-10.16,19.32-9.79,31,.5,15.7.15,31.43.11,47.14,0,5,.29,10.68-6.84,10.55S512.76,428,512.76,423c0-21.61,0-43.23,0-65.61H247.06V493.81h10.48c81,0,162-.14,243,.19,9.34,0,13.58-2,12.35-12.05a72,72,0,0,1,.17-19.84c.5-3.1,4.3-5.67,6.6-8.48,2.14,2.63,5.94,5.15,6.14,7.92a214.84,214.84,0,0,1,0,30.34c-.65,9.18-6.2,14.49-15.7,15-2.78.14-5.58.07-8.38.07q-205.32,0-410.64.23c-11.92,0-20.92-2.83-27-13.22V106.08c6.08-10.39,15.06-13.39,27-13.23,43.64.6,87.29.21,130.94.25,17.13,0,24,6.91,24.27,24,.06,4.54.81,9.3-.31,13.55-.8,3-4.18,5.4-6.41,8.07-2.44-2.79-5.06-5.46-7.23-8.45-.67-.92-.14-2.72-.13-4.12.12-21.59,1.31-19.91-19.72-19.91-41.2,0-82.4.15-123.6-.11-8,0-11.5,2.71-11.47,10.85.15,44.34.07,88.68.11,133a48.06,48.06,0,0,0,.76,5.64H232.27V201c0-10.82-.53-21.69.31-32.45.28-3.52,4.14-6.76,6.36-10.13,2.47,3.48,6.33,6.69,7.1,10.51,1.2,6,.32,12.46.32,20.4H258q77.52,0,155,0c16.44,0,20.56,4.05,20.59,20.23.06,34.17,0,68.35,0,103.41l11.57,1.06c0-15.14.32-29.66-.11-44.16-.27-9.45,3.47-13.49,13-13,8.36.42,16.76-.06,25.14.13,7.66.18,16.6-2.56,19.91,8.59.36,1.21,4.87,1.39,7.49,1.68,10.73,1.17,15.5,7,15.63,19.46.14,13.19-4.58,19.44-15.4,20.82a17.22,17.22,0,0,0-9,3.94c12.36,3.75,27.84-1.6,34.09,14.74ZM231.7,270.27H78.39a30.47,30.47,0,0,0-.76,4.58Q77.56,379,77.48,483.19c0,8.21,3.64,10.8,11.56,10.74,38-.27,76.08-.12,114.12-.12H231.7Zm15.19,43H419.56v-110H246.89Zm274.72,15.06H247V342.3H521.61ZM488.84,271h-30.5v22.76c0,20.72,0,20.45,20.5,20.2,6.63-.08,9.9-2.4,10-8.85C488.92,294.05,488.84,283,488.84,271Zm14,22.48c8.22,2.06,11.46-1.24,9.59-7.79-.74-2.61-5.14-4.17-9.59-7.48Z"/><path d="M106.13,217c-2.39,4.35-5.34,13.86-8,13.78-10.66-.33-6.7-10-6.68-16.07,0-5.75-3.93-15.64,5.93-15.87C108.78,198.52,102,209.4,106.13,217Z"/><path d="M106.55,304.71c-2.8,4.74-5.54,13.47-8.43,13.52-10.49.17-6.06-9.24-6.86-15.07-.46-3.42-.87-7.27.25-10.36.95-2.62,4.15-4.42,6.35-6.59,2.11,2.24,5.18,4.14,6.08,6.78,1.06,3.13.25,6.9.25,10.38Z"/><path d="M317.79,296.87c-12.93,0-25.85.09-38.78,0-11.49-.1-14.55-2.92-14.69-14.07-.2-16.41.09-32.84-.11-49.26-.11-9.46,3.79-14.32,13.65-14.27q39.84.21,79.66,0c9,0,13.77,3.84,13.74,13.11q-.06,25.68,0,51.36c0,9.18-4.53,13.31-13.64,13.19C344.35,296.74,331.07,296.87,317.79,296.87Zm-39.23-14.58h78.36V233.54H278.56Z"/><path d="M406.13,233c-3.89,3.22-6.7,7.13-8.59,6.73-2.78-.59-4.9-4.27-7.29-6.64,2.24-2.14,4.36-5.77,6.78-6S402.06,230.16,406.13,233Z"/><path d="M406.22,261c-3.85,3.19-6.18,6.62-8.51,6.63s-4.89-3.28-7.34-5.12c2.12-2.54,3.86-6.38,6.5-7.17C398.79,254.72,401.92,258.18,406.22,261Z"/></svg>