<svg id="Layer_1" data-name="Layer 1" xmlns="http://www.w3.org/2000/svg" viewBox="0 0 600 600"><defs><style>.cls-1{stroke:#fff;stroke-miterlimit:10;}</style></defs><title>Artboard 1 copy 41</title><path class="cls-1" d="M289.08,333.82v-26.1c-7.89-.9-15.69-1.32-23.3-2.75-43.11-8.14-74.74-41.28-80.64-84.9-1.31-9.66-1.12-19.56-1-29.35.05-6.25,4.36-10.38,10.1-10.1,32.26,1.56,62,10.11,86.59,32.26,2.59,2.32,4.94,4.91,8,8V179.69c-7.59-.87-15.4-1.29-23-2.73-42.93-8.09-74.46-41-80.58-84.42-1.31-9.32-1.27-18.9-1.2-28.35.06-8.1,4.17-11.94,11.83-11.48,35.73,2.16,68,12.52,92.72,40.12a8.64,8.64,0,0,0,1.07,1c2.74-1.75,5-3.94,7.67-4.75,7.15-2.15,13.32,3,13.46,11.14.17,10.33,0,20.67,0,31v26.69c5.6-5.16,10.16-9.92,15.28-14,19.5-15.42,42.17-23,66.54-26.07,4.46-.56,8.95-1,13.43-1.11,6-.2,10.48,3.46,10.86,9.41,2.63,41.63-10.11,76.54-45.64,100.76C355,237.94,336.46,242.5,316.91,243c-1.8,0-3.6,0-5.77,0v90.84H456.36c11.86,0,15.81,5.06,13.36,16.77q-19.32,92.34-38.57,184.69c-2,9.56-5,12-15.14,12q-67.24,0-134.48,0h-96c-12.23,0-14.49-1.71-16.95-13.47q-19.26-92.09-38.43-184.21c-2.23-10.74,2-15.81,13-15.82H289.08ZM162.45,398.08a5,5,0,0,0-.1,1.23q12.81,61.57,25.57,123.17c.66,3.22,2.32,3.37,4.87,3.37q107.23-.06,214.49,0c3,0,4.29-.62,4.93-3.88,3.26-16.66,6.87-33.24,10.34-49.86,5.12-24.58,10.23-49.17,15.41-74.05Zm-4.88-21.62H442.49l4.2-20.67H153.32C154.79,363,156.16,369.62,157.57,376.46Zm131.85-219c-.33-5.46-.17-10.65-1.05-15.67-4.83-27.32-21.21-45.52-45.88-56.86a118.26,118.26,0,0,0-37.19-10C204.81,119,237,159.1,289.42,157.43Zm-.49,128.23a67.24,67.24,0,0,0-10.55-42.46c-12.35-19.73-31.14-30.35-52.93-36.36-6.59-1.82-13.38-2.9-20.26-4.35C205.17,245.62,234.65,286.21,288.93,285.66Zm22.69-64.34c43.91,4.88,90.45-40.72,83.9-82.22C346.65,144,309.76,174.82,311.62,221.32Z"/></svg>