<svg id="Layer_1" data-name="Layer 1" xmlns="http://www.w3.org/2000/svg" viewBox="0 0 600 600"><title>Artboard 1 copy 31</title><path d="M113.07,221.83c-3.1,0-5.7.09-8.29,0-5.24-.21-8.27-3.05-8.35-8.22q-.21-15.17,0-30.34c.07-5.43,3.1-8.21,8.67-8.39,2.42-.08,4.85,0,7.09,0,8.9-33.3,33.72-48.49,63.75-57.52a126.09,126.09,0,0,1,50.35-4.44c3,.33,4.75-.57,6.66-2.77,59.22-68.19,166-57.72,210.82,20.57a11.19,11.19,0,0,0,4.42,4.13c15.89,8.09,27.54,20.15,34.34,36.66,1.17,2.85,2.72,3.41,5.46,3.42,15.28,0,15.69.53,15.68,15.6,0,6.85,0,13.7,0,20.55,0,8.34-2.44,10.75-10.76,10.79H487c-1.25,8-2.53,15.79-3.7,23.62q-10.32,68.66-20.6,137.3-10.77,71.79-21.55,143.58c-1,6.85-3.39,8.79-10.45,8.79H169.39c-7.32,0-9.44-1.79-10.56-9.2Q147.61,451.49,136.45,377q-11.05-73.49-22.14-147C113.93,227.51,113.54,224.94,113.07,221.83ZM129,222c14.91,99.42,29.75,198.31,44.59,297.28H426.45Q448.74,370.66,471,222.06c-1.37-.11-2-.21-2.65-.21q-46.72,0-93.47.06a15.9,15.9,0,0,0-6,1.5c-21.32,9.38-42.58,18.88-63.89,28.28-6.34,2.8-9.63,1.59-12.77-4.48-1.06-2-2-4.09-3-6.12l-11.71-23.27-.92.27v5.21q0,48.69,0,97.38c0,8.35-2.44,10.81-10.74,10.81H177.69c-8.37,0-10.81-2.43-10.82-10.72q0-46.72,0-93.47V222Zm337.67-47.32c-1.19-2.19-2-3.92-3-5.53C451.21,149.4,428.56,140,405.27,145c-5.9,1.25-10.09-.91-11.09-5.74-.95-4.55,1.91-8.47,7.59-9.4,7-1.14,14-1.76,21-2.6-14.27-22.16-48.58-48.54-96.42-46.3-30.33,1.42-56.14,13-78,35.31l6.15,1.74a105.24,105.24,0,0,1,41.9,23.33c2.9,2.6,4.6,5.55,3.16,9.49-2,5.46-7.92,6.31-13.27,2.56-7.84-5.5-15.53-11.52-24.08-15.64-21.38-10.3-44.23-11.59-67.41-8.39-16.52,2.27-32,7.53-45.7,17.34-9.75,7-17.26,15.71-20.3,28Zm-206,16.16H182.92v93.39h77.72Zm20.8-.19,22.28,44.49L402,191.47l-.35-.81ZM182.77,315.5h77.7V300.4h-77.7Zm305-125c-14.64,0-28.78,0-42.93,0a6.18,6.18,0,0,0-2.41.2c-10.94,4.79-21.85,9.65-32.76,14.49l.22.67h77.88Zm-375.46.08v15.24h54.13V190.6Z"/><path d="M307.85,292c0,5.05.09,10.11,0,15.17-.11,5.28-3.39,8.73-8,8.63s-7.59-3.4-7.64-8.44q-.18-14.93,0-29.86c0-5.3,3.34-8.71,7.95-8.62,4.43.09,7.52,3.37,7.65,8.43C307.94,282.19,307.84,287.09,307.85,292Z"/><path d="M323.53,292.33c0-5.06-.11-10.12,0-15.17s3.32-8.29,7.77-8.29,7.74,3.28,7.81,8.27q.18,15.18,0,30.35c-.06,5-3.35,8.29-7.78,8.3s-7.65-3.29-7.79-8.29S323.53,297.39,323.53,292.33Z"/><path d="M370.51,292.1c0,5.06.09,10.12,0,15.17-.13,5.24-3.49,8.68-8.07,8.52-4.41-.16-7.48-3.47-7.53-8.56q-.15-14.93,0-29.85c.05-5.08,3.14-8.37,7.56-8.51,4.59-.14,7.91,3.28,8,8.55C370.6,282.31,370.51,287.2,370.51,292.1Z"/><path d="M401.83,292.82c0,4.89.11,9.79,0,14.68s-3.36,8.29-7.79,8.29-7.73-3.3-7.79-8.29q-.18-15.17,0-30.35c.07-5,3.34-8.28,7.79-8.28s7.65,3.28,7.79,8.29C401.94,282.37,401.83,287.6,401.83,292.82Z"/><path d="M417.51,292.14c0-4.89-.09-9.79,0-14.68.12-5.28,3.39-8.71,8-8.59,4.41.1,7.56,3.41,7.61,8.47q.18,14.93,0,29.85c-.06,5.27-3.41,8.71-8,8.6-4.43-.11-7.49-3.41-7.61-8.48S417.51,297.2,417.51,292.14Z"/><path d="M198.19,371.09c0,4.9.11,9.8,0,14.69s-3.33,8.3-7.76,8.33-7.75-3.25-7.81-8.25q-.21-15.17,0-30.34c0-5,3.31-8.3,7.74-8.33s7.69,3.25,7.84,8.24C198.31,360.65,198.19,365.87,198.19,371.09Z"/><path d="M213.87,370.1c0-4.89-.11-9.79,0-14.68s3.39-8.26,7.84-8.23,7.67,3.31,7.73,8.34q.2,15.18,0,30.35c-.06,5-3.42,8.27-7.84,8.23s-7.61-3.33-7.74-8.35C213.77,380.55,213.87,375.32,213.87,370.1Z"/><path d="M260.86,370.21c0,5.06.07,10.12,0,15.18-.1,5.35-3.26,8.76-7.87,8.72s-7.69-3.46-7.74-8.84q-.12-14.68,0-29.36c.05-5.37,3.24-8.76,7.85-8.72s7.67,3.45,7.77,8.83C260.93,360.75,260.86,365.48,260.86,370.21Z"/><path d="M276.53,370.36c0-4.89-.09-9.79,0-14.68.12-5.07,3.17-8.37,7.59-8.49,4.61-.12,8,3.29,8,8.58q.17,14.93,0,29.85c-.06,5.06-3.19,8.37-7.6,8.49-4.58.13-7.83-3.31-8-8.58-.08-2.61,0-5.22,0-7.83C276.52,375.25,276.52,372.81,276.53,370.36Z"/><path d="M323.51,371c0,4.89.09,9.79,0,14.68-.12,5.05-3.2,8.37-7.61,8.48-4.59.12-7.94-3.32-8-8.58q-.13-14.92,0-29.86c.06-5.06,3.18-8.36,7.6-8.48,4.59-.12,7.88,3.31,8,8.58C323.6,360.83,323.51,365.89,323.51,371Z"/><path d="M339.19,370.21c0-4.89-.11-9.79,0-14.68s3.31-8.31,7.74-8.34,7.77,3.24,7.84,8.23q.19,15.18,0,30.35c-.06,5-3.32,8.31-7.74,8.34s-7.69-3.24-7.83-8.24C339.08,380.66,339.19,375.43,339.19,370.21Z"/><path d="M370.52,370.6c0-5.06-.11-10.12,0-15.17s3.38-8.27,7.83-8.24,7.68,3.31,7.74,8.34q.18,15.17,0,30.34c-.07,5-3.42,8.28-7.84,8.24s-7.61-3.33-7.74-8.34S370.52,375.66,370.52,370.6Z"/><path d="M417.5,370.36c0,5.06.09,10.12,0,15.17-.12,5.27-3.43,8.71-8,8.58-4.41-.12-7.53-3.44-7.58-8.5q-.17-14.92,0-29.85c.05-5.28,3.39-8.7,8-8.57,4.42.13,7.49,3.43,7.61,8.49C417.59,360.57,417.5,365.47,417.5,370.36Z"/><path d="M213.86,449.09c0,4.73.06,9.46,0,14.19-.09,5.7-3.21,9.23-7.94,9.15-4.57-.07-7.64-3.49-7.69-8.89-.07-9.79-.09-19.58,0-29.37.06-5.33,3.3-8.72,7.92-8.65s7.6,3.47,7.69,8.89C213.93,439.3,213.86,444.2,213.86,449.09Z"/><path d="M245.19,449.31c0,4.89.09,9.79,0,14.68s-3.23,8.36-7.64,8.45c-4.6.09-7.91-3.34-8-8.63q-.15-14.93,0-29.85c.06-5,3.21-8.35,7.63-8.44,4.6-.1,7.77,3.32,8,8.62,0,.32,0,.65,0,1Z"/><path d="M276.52,449.28c0,4.9.09,9.79,0,14.69s-3.22,8.36-7.63,8.46c-4.61.11-7.91-3.29-8-8.6q-.15-14.93,0-29.85c.06-5.05,3.2-8.36,7.62-8.47,4.59-.11,7.87,3.31,8,8.6C276.61,439.17,276.52,444.23,276.52,449.28Z"/><path d="M307.85,449.13c0,4.89.09,9.79,0,14.68-.12,5.28-3.39,8.73-8,8.63-4.41-.1-7.58-3.41-7.63-8.45q-.18-14.92,0-29.86c0-5.3,3.35-8.71,7.95-8.61,4.44.09,7.52,3.37,7.65,8.44S307.84,444.07,307.85,449.13Z"/><path d="M323.53,448.42c0-4.89-.11-9.79,0-14.68s3.39-8.26,7.84-8.22,7.68,3.32,7.74,8.33q.18,15.18,0,30.35c-.07,5-3.41,8.27-7.84,8.23s-7.61-3.33-7.73-8.34C323.43,458.87,323.53,453.65,323.53,448.42Z"/><path d="M370.51,449.11c0,4.9.08,9.79,0,14.68-.12,5.31-3.35,8.73-8,8.64-4.41-.08-7.58-3.39-7.64-8.43q-.17-14.92,0-29.85c.05-5.32,3.33-8.72,7.94-8.63s7.58,3.46,7.67,8.91C370.58,439.32,370.51,444.22,370.51,449.11Z"/><path d="M401.84,449.29c0,4.9.09,9.79,0,14.68-.12,5-3.22,8.37-7.63,8.47-4.59.1-7.92-3.34-8-8.61q-.15-14.93,0-29.86c0-5.05,3.19-8.35,7.61-8.45,4.6-.11,7.87,3.31,8,8.6C401.92,439.17,401.84,444.23,401.84,449.29Z"/></svg>