<svg id="Layer_1" data-name="Layer 1" xmlns="http://www.w3.org/2000/svg" viewBox="0 0 600 600"><title>Artboard 1 copy 19</title><path d="M113.94,478c-13.16-15.33-27-27.27-35.24-42.28-7.25-13.21-10.2-29.68-11.56-45-1.87-21.15-.61-42.6-.38-63.91C66.83,320.53,65.9,316,60,312c-8.74-6.08-12.24-15.34-8.61-26s11.13-17.18,22.79-17.37c16.57-.26,33.18.41,49.72-.45,5-.26,9.78-4.22,14.65-6.53,6.85-3.25,13.54-9,20.54-9.38a547.69,547.69,0,0,1,65.08,0c7.3.46,14.24,6.57,21.36,10.08,4.15,2.05,8.29,5.83,12.46,5.85,77.37.36,154.75.27,232.12.24,2.72,0,5.44-.3,9-.5.34-3.28.91-6.25.91-9.22.06-41.84-.2-83.69.2-125.53.11-11-3.46-16-15-15.49-13.4.63-26.9-.52-40.23.56-4.12.33-9.55,4.64-11.38,8.53-2.89,6.12,1.64,9,7.79,11.26,22.83,8.25,34.95,28.45,33.21,52.88-.48,6.83-3.13,10.07-10.12,10q-39.67-.16-79.35,0c-7.88,0-9.94-4.45-10.31-11.31-1.42-25.86,11.8-43.64,41.7-55.07.15-2.42.36-5.11.48-7.81.65-14.73,9.72-24.7,24.31-25.19,16.56-.56,33.16-.52,49.73,0,16.09.48,25.4,10.88,25.46,28,.15,41.45.05,82.9.05,124.35v13.73c4.11.39,7.54.68,11,1,11.08,1.18,18,7.58,21.24,17.85s0,19.33-8.28,25.17c-6.14,4.34-7.44,9-7.31,15.73.36,19.34-.18,38.7.19,58,.75,38.39-15,67.75-52.54,91.05,6.14,3.83,11.78,5.91,15.06,9.92,2.14,2.63.87,8.05,1.13,12.22-3.88-.16-10.06,1.17-11.29-.71-10.83-16.65-26-14.14-43-13.94-95.13,1.15-190.28.56-285.42.55a10.89,10.89,0,0,1-3.53-.13c-16-5.63-28.33-1.21-38.46,12.45-1.74,2.35-8.5,1-13,1.33.59-4.16-.07-9.19,2.06-12.28C107.22,481.81,112.22,479.31,113.94,478Zm402.5-159.69H251.09c-.67,1.5-1.26,2.19-1.26,2.88-.14,22.1-.65,44.2-.12,66.29.25,10.54-3.9,13.92-13.93,13.68-18.93-.46-37.9.24-56.83-.25-14.36-.36-28.69-1.81-43-2.78-.82-14-1.92-28-2.37-42-.4-12.48-.08-25-.08-37.77H83.6c0,28-1.45,55.31.36,82.39,2.46,36.94,34.66,66.95,72,67.19q143.85,1,287.71,0c37.85-.22,70.31-30.72,72.49-68C517.7,373.17,516.44,346.28,516.44,318.28ZM233.62,351c0-25,.43-49-.46-72.91-.14-3.65-6.28-9.95-9.87-10.11-21.21-1-42.5-.89-63.72,0-3.38.14-9.22,6.06-9.33,9.46-.81,24.26-.43,48.57-.43,73.57Zm16.59-50c4.06.27,7.5.69,11,.69q127.74.06,255.47,0c2.37,0,5.31.81,7-.29,3.52-2.33,6.38-5.67,9.52-8.59-3.18-2.89-6-6.33-9.67-8.45-2.07-1.21-5.4-.31-8.16-.31q-126.54,0-253.1,0c-3.83,0-7.66.32-12,.52Zm207-116.75c-.54-19.71-15.46-34-33.55-33.21-17.8.72-31.81,15.57-30.79,33.21Zm-307.09,200h83.45c-.26-6-.49-11.13-.7-15.78H150.16ZM132.77,284.2c-19.48,0-37.86-.42-56.19.38-3.36.14-6.49,5.24-9.73,8.05,3,3,5.93,8.44,9.08,8.58,18.69.82,37.44.4,56.84.4Z"/></svg>