<svg id="Layer_1" data-name="Layer 1" xmlns="http://www.w3.org/2000/svg" viewBox="0 0 600 600"><title>Artboard 1 copy 10</title><path d="M24.81,250a5.58,5.58,0,0,1,3.48-2.62Q60.14,236,91.94,224.61a10.44,10.44,0,0,1,3.63-.6q194.84,0,389.68,0a11.34,11.34,0,0,1,3.88.66q31.32,11.25,62.63,22.46c1.39.5,2.7,1.22,4,1.83v18.59a5.66,5.66,0,0,1-4.33,1.53c-5.93-.08-11.86.07-17.78-.09-2.25-.06-2.78.64-2.77,2.83q.09,63.7,0,127.42c0,4.69-.07,4.77-4.7,4.77H502.63c-4.08,0-4.33-.23-4.33-4.37q0-60.12,0-120.25c0-2.83-.06-5.67,0-8.5,0-1.34-.39-1.89-1.8-1.86q-5.17.11-10.35,0c-1.42,0-1.85.53-1.81,1.87.07,2.57,0,5.13,0,7.7v98c0,4.85-.4,5.23-5.33,5.23h-23.1c-3.62,0-4.28-.67-4.28-4.37,0-35,0-70.09.08-105.13,0-2.77-.79-3.29-3.38-3.29q-157.82.11-315.63.07c-3.82,0-3.42-.57-3.42,3.35q0,52.17,0,104.33c0,4.51-.53,5-5,5H100.94c-3.76,0-4.42-.67-4.42-4.53q0-52.56.06-105.12c0-2.64-.74-3.33-3.23-3.13a72.87,72.87,0,0,1-8.49,0c-1.68-.07-2.34.39-2.28,2.19.13,3.62,0,7.25,0,10.88V399.42c0,4.39-.19,4.58-4.67,4.58H53.79c-3.47,0-4-.47-4-4q0-33.58,0-67.16c0-20.36,0-40.71.05-61.06,0-2.16-.48-2.88-2.74-2.82-5.84.17-11.68,0-17.52.1-2,0-3.62-.41-4.81-2.07Zm21.41-2.78.11.34H534.94a7.55,7.55,0,0,0-1.08-.66q-23-8.24-45.93-16.46a11.51,11.51,0,0,0-3.9-.59q-193.54,0-387.08,0a13.62,13.62,0,0,0-4.65.85C83.16,234,74,237.26,64.84,240.53,58.63,242.75,52.43,245,46.22,247.23Zm244.1,6.4H38.1c-7.77,0-7.77,0-7.33,7.73a1.13,1.13,0,0,1,0,.26c-.09,1.13.41,1.64,1.55,1.58.8-.05,1.59,0,2.39,0H543.92c6.1,0,6.13,0,6.09-6,0-4,.55-3.53-3.5-3.53Z"/></svg>