<svg id="Layer_1" data-name="Layer 1" xmlns="http://www.w3.org/2000/svg" viewBox="0 0 600 600"><title>Artboard 1 copy 25</title><path d="M507.91,386.17c0,4.67.08,8.67,0,12.67-.21,9-4.37,14.93-11.89,17.12-7,2.05-13.81-.68-18.88-7.74-4.26-5.94-8.59-11.84-12.58-18a8.31,8.31,0,0,0-8-4.18c-14.42.2-28.84.08-43.25.08q-134.64,0-269.27-.09c-4.3,0-7.1,1-9.47,4.76-3.88,6.18-8.29,12-12.63,17.91-4.57,6.2-11.32,8.51-18.22,6.5-6.69-1.95-11.18-7.8-11.58-15.5-.22-4.24,0-8.49,0-13.58-5.77,0-11,0-16.19,0-14.86-.14-24.52-9.62-24.54-24.35q-.09-64.27,0-128.54c0-14.43,9.5-24.2,23.9-24.36,17.06-.19,34.12-.07,51.18,0,2.76,0,4.66-.13,5.88-3.56,5.36-15.11,15.31-21.92,31.34-21.92q105.09,0,210.17,0c20.92,0,41.84,0,62.75,0,16.61,0,26,6.36,31.86,22,1.28,3.41,3.34,3.45,6,3.44,16,0,32.09,0,48.13,0,16.86.07,26,9.21,26,26q0,62.45,0,124.89c0,17.5-9,26.4-26.73,26.44ZM299.46,375.85q110.9,0,221.79,0c12.59,0,16.85-4.2,16.86-16.77q0-60.93,0-121.86a46.68,46.68,0,0,0-.29-7.3c-.88-5.64-4.41-9.57-9.87-10.13-5.65-.57-12.28-3.4-16.63,3.29-4.76,7.32-10,14.37-14,22.08-14.94,29-17.37,57.61,3.63,85.27,1.29,1.7.41,5.06.54,7.65-2.62.09-5.65,1.12-7.79.15C440,313.89,383.44,300.9,324.8,297.44c-75.32-4.44-147.57,8.68-216.25,40.34-3.16,1.46-6.51,3.41-9.41-.06s-.1-6.36,1.93-9.13C109.59,317,114.7,304.25,115,289.7c.51-26.49-11.43-48.07-26.83-68.3a6,6,0,0,0-2.29-1.91c-12.41-4.93-24,2.8-24,16q0,61.25,0,122.48c0,14,3.75,17.81,17.59,17.82ZM173.6,302.75c84.43-23.19,169.79-21.44,254.89,1,0-8.89-.76-17.42.15-25.76,2.55-23.54,13.52-43.56,27.83-61.88,2.84-3.65,3-6.73,1.07-10.52-4.49-8.83-11.93-12-21.49-12q-110.22.12-220.44.05H163.24c-8.11,0-14.58,3.07-19,10.07-2.81,4.5-3.2,8.32.62,13.12,11.57,14.56,21.17,30.51,24.87,48.93C172.18,277.74,172.38,290.13,173.6,302.75Zm309.19,18.79c-16.57-38-3.78-70.5,17.91-102.28-11.28,0-21.35-.15-31.41.15-1.61,0-3.73,1.74-4.65,3.25-6.81,11.25-14.22,22.25-19.79,34.1a67.94,67.94,0,0,0-4.55,45.79c.53,2.18,2.35,5,4.25,5.74C456.87,312.88,469.38,317,482.79,321.54ZM100.09,219.23c21.82,32.12,34.64,64.55,17.89,102.55,11.1-4.09,20.93-7.88,30.87-11.32,12.09-4.18,12.48-4.49,13.36-17.29.11-1.62.15-3.25.15-4.87,0-26.21-12-47.54-27.52-67.38a5.21,5.21,0,0,0-3.6-1.62C121.36,219.17,111.47,219.23,100.09,219.23ZM474.6,386.45c4.63,6.48,8.29,12,12.46,17.16a6.87,6.87,0,0,0,5.74,2c1.72-.42,4.05-2.66,4.24-4.33.57-4.86.2-9.82.2-14.79Zm-371.93,0c0,4.91-.36,9.18.17,13.34a7.11,7.11,0,0,0,3.59,4.95c1.62.65,4.88.14,5.91-1.11,4.29-5.19,8-10.85,12.52-17.18Z"/></svg>