<svg id="Layer_1" data-name="Layer 1" xmlns="http://www.w3.org/2000/svg" viewBox="0 0 600 600"><defs><style>.cls-1{stroke:#fff;stroke-miterlimit:10;stroke-width:7px;}</style></defs><title>Artboard 1</title><path class="cls-1" d="M476.06,388.88a168,168,0,0,0-45.65-88.13c-3.59-3.65-8.13-1.42-10.18,4.92s-.8,14.46,2.77,18.09c26.42,26.88,41,60.81,41,95.55,0,1.74-.2,3.61-.28,5.42-10.87,1.26-23.2,2.45-37.3,3.51-4.11.31-7.31,6.48-7.13,13.79.16,7.13,3.47,12.7,7.44,12.7H427c30.91-2.33,68-6.32,89.64-12.8C505.86,471.75,488,492.15,467.83,496a888.35,888.35,0,0,1-335.66,0c-20.21-3.86-38-24.25-48.82-54.08,39.11,11.72,133.83,17.14,216.65,17.14,34,0,66.66-.82,97.12-2.44,4.11-.22,7.34-6.33,7.22-13.65s-3.5-12.57-7.68-12.85c-12.35.66-25.14,1.15-38.17,1.54a68.34,68.34,0,0,0,1.14-12.36c0-21.92-10-39.76-22.36-39.76s-22.36,17.84-22.36,39.76a67.89,67.89,0,0,0,1.28,13.15c-5.38,0-10.74.1-16.19.1-67.28,0-123.81-3.19-163.68-7.79-.08-1.81-.29-3.7-.29-5.46,0-24.09,7.09-48.18,20.5-69.66,3.07-4.91,3.31-13.28.56-18.72s-7.49-5.87-10.53-1A167.41,167.41,0,0,0,124,388.88c-59.22,7.89-62.45,16.77-62.45,30.43a22.37,22.37,0,0,0,.39,4.19c10.11,54,37.08,92.82,68.68,98.86A898.68,898.68,0,0,0,300,538.5a899.51,899.51,0,0,0,169.43-16.14c31.6-6,58.57-44.85,68.68-98.86a22.37,22.37,0,0,0,.39-4.19C538.5,405.63,535.31,396.78,476.06,388.88ZM329.81,419.31c0-7.31,3.34-13.25,7.46-13.25s7.45,5.94,7.45,13.25c0,6.12-2.32,11.36-5.64,12.84l-3.45.06C332.25,430.87,329.81,425.49,329.81,419.31Zm-208.59,3.54q-11.93-1.67-21.11-3.49c5.7-1.15,12.72-2.34,21.13-3.53,0,1.16-.11,2.31-.11,3.48S121.19,421.67,121.22,422.85Zm357.49-7c8.3,1.18,15.32,2.35,21,3.49-5.9,1.18-12.85,2.35-20.91,3.49,0-1.16.09-2.35.09-3.49S478.73,417,478.71,415.82Z"/><path class="cls-1" d="M203.11,339.8c-12.33,0-22.36,17.83-22.36,39.75s10,39.76,22.36,39.76,22.36-17.83,22.36-39.76S215.44,339.8,203.11,339.8Zm0,53c-4.11,0-7.45-5.94-7.45-13.26s3.34-13.25,7.45-13.25,7.45,5.94,7.45,13.25S207.22,392.81,203.11,392.81Z"/><path class="cls-1" d="M300,339.8c0-21.93-10-39.76-22.36-39.76s-22.36,17.83-22.36,39.76,10,39.75,22.36,39.75S300,361.72,300,339.8Zm-29.81,0c0-7.32,3.34-13.26,7.45-13.26s7.45,5.94,7.45,13.26-3.34,13.25-7.45,13.25S270.19,347.11,270.19,339.8Z"/><path class="cls-1" d="M396.89,326.54c-12.33,0-22.36,17.84-22.36,39.76s10,39.76,22.36,39.76,22.36-17.84,22.36-39.76S409.22,326.54,396.89,326.54Zm0,53c-4.11,0-7.45-5.94-7.45-13.25s3.34-13.25,7.45-13.25,7.45,5.94,7.45,13.25S401,379.55,396.89,379.55Z"/><path class="cls-1" d="M346.9,317.18l-7.45,13.25c-2.91,5.17-2.91,13.56,0,18.74,1.45,2.58,3.36,3.88,5.27,3.88s3.81-1.3,5.27-3.88l7.45-13.26c2.91-5.17,2.91-13.56,0-18.73S349.81,312,346.9,317.18Z"/><path class="cls-1" d="M232.92,353.05c1.91,0,3.82-1.3,5.27-3.88,2.91-5.18,2.91-13.57,0-18.74l-7.45-13.25c-2.91-5.18-7.63-5.18-10.54,0s-2.91,13.56,0,18.73l7.45,13.26C229.11,351.75,231,353.05,232.92,353.05Z"/><path class="cls-1" d="M250,383.44c-2.91,5.17-2.91,13.56,0,18.73l7.46,13.26c1.45,2.58,3.36,3.88,5.26,3.88s3.82-1.3,5.27-3.88c2.92-5.18,2.92-13.57,0-18.74l-7.45-13.25C257.64,378.26,252.92,378.26,250,383.44Z"/><path class="cls-1" d="M441.61,406.06c1.91,0,3.81-1.3,5.27-3.89,2.91-5.17,2.91-13.56,0-18.73l-7.45-13.26c-2.92-5.17-7.63-5.17-10.54,0s-2.92,13.57,0,18.74l7.45,13.25C437.8,404.76,439.7,406.06,441.61,406.06Z"/><path class="cls-1" d="M307.45,300v13.25c0,7.33,3.34,13.25,7.46,13.25s7.45-5.92,7.45-13.25V300c0-7.32-3.33-13.25-7.45-13.25S307.45,292.72,307.45,300Z"/><path class="cls-1" d="M153.12,383.44c-2.91,5.17-2.91,13.56,0,18.73l7.45,13.26c1.46,2.58,3.37,3.88,5.27,3.88s3.82-1.3,5.27-3.88c2.91-5.18,2.91-13.57,0-18.74l-7.45-13.25C160.75,378.26,156,378.26,153.12,383.44Z"/><path class="cls-1" d="M151.51,291.86c1.15,5,3.87,8.18,6.88,8.18h22.36c5.75,0,10.94-4,14.91-10.34,4,6.36,9.16,10.34,14.9,10.34h22.36c13.28,0,25.38-8.94,34.6-23.53l3.66-.63c6.9-1.1,12.92-7.27,16.49-16.94C290.42,251.48,295,247,300,247s9.58,4.45,12.33,11.92c3.57,9.66,9.59,15.83,16.49,16.93a177,177,0,0,1,21.44,4.86C359.06,292.79,370,300,382,300c28.77,0,52.18-41.62,52.18-92.76V167.52c0-21.92-10-39.76-22.36-39.76s-22.36,17.84-22.36,39.76v39.76c0,7.31-3.34,13.25-7.46,13.25s-7.45-5.94-7.45-13.25V167.52a59.43,59.43,0,0,0-5.81-26.5c3.57-7.05,5.81-16.29,5.81-26.51V74.75c0-5.35-1.81-10.19-4.6-12.24s-6-.92-8.12,2.88l-9.64,17.13-9.64-17.13c-2.13-3.8-5.32-4.94-8.12-2.88s-4.6,6.89-4.6,12.24v39.76c0,10.22,2.24,19.46,5.82,26.51-3.58,7-5.82,16.28-5.82,26.5v39.76a152.47,152.47,0,0,0,6.07,43.31c-1.9-.37-3.81-.8-5.72-1.11-2.32-.38-4.33-2.28-5.37-5.09C319.27,229.45,310,220.53,300,220.53c-6,0-11.68,3.24-16.49,9a160.4,160.4,0,0,0,1.58-22.25c0-51.15-23.4-92.77-52.17-92.77H210.56c-12.33,0-22.36,17.83-22.36,39.76s10,39.75,22.36,39.75h22.36c4.11,0,7.46,5.94,7.46,13.26s-3.35,13.25-7.46,13.25H210.56c-5.74,0-10.94,4-14.9,10.34-4-6.36-9.16-10.34-14.91-10.34H158.39c-3,0-5.73,3.22-6.88,8.18s-.52,10.65,1.61,14.44l9.64,17.13-9.64,17.14C151,281.21,150.35,286.91,151.51,291.86ZM359.63,167.52v13.25H344.72V167.52c0-7.31,3.34-13.25,7.45-13.25S359.63,160.21,359.63,167.52Zm0,39.76a60.3,60.3,0,0,0,5.16,25.09l-10.43,18.55c0,.06-.05.15-.09.22-5.87-11.71-9.55-27-9.55-43.86Zm6.67,59.88L378,246.32a11.43,11.43,0,0,0,7.93,0l11.72,20.84c-4.78,4-10.06,6.38-15.69,6.38S371.08,271.15,366.3,267.16Zm43.4-16c0-.07-.05-.16-.09-.22l-10.43-18.55a60.3,60.3,0,0,0,5.16-25.09h14.91C419.25,224.16,415.57,239.43,409.7,251.14Zm2.1-96.87c4.11,0,7.45,5.94,7.45,13.25v13.25H404.34V167.52C404.34,160.21,407.68,154.27,411.8,154.27Zm-67.08-47.52,2.18,3.88c2.91,5.18,7.63,5.18,10.54,0l2.19-3.88v7.76c0,7.31-3.35,13.25-7.46,13.25s-7.45-5.94-7.45-13.25Zm-89.84,93.47,11.72-20.84a110.17,110.17,0,0,1,0,55.79l-11.72-20.84a62.42,62.42,0,0,0,0-14.11Zm-51.77-45.95c0-7.31,3.34-13.25,7.45-13.25H218v26.5h-7.46C206.45,167.52,203.11,161.58,203.11,154.27Zm29.81,13.25V141c9.5,0,18.08,6.54,24.67,17,0,.06-.09.08-.12.15L247,176.7C243.17,171.05,238.3,167.52,232.92,167.52ZM247,237.86l10.43,18.54c0,.07.08.09.12.15-6.59,10.44-15.17,17-24.67,17V247C238.3,247,243.17,243.5,247,237.86ZM210.56,247H218v26.51h-7.46c-4.11,0-7.45-5.94-7.45-13.26S206.45,247,210.56,247Zm-32,3.89L176.38,247h4.37c4.11,0,7.45,5.94,7.45,13.25s-3.34,13.26-7.45,13.26h-4.37l2.19-3.89C181.48,264.48,181.48,256.09,178.57,250.92Z"/></svg>