<svg id="Layer_1" data-name="Layer 1" xmlns="http://www.w3.org/2000/svg" viewBox="0 0 600 600"><title>Artboard 1 copy 21</title><path d="M300,131.36q75,0,150,0c25.15,0,45.72,9.43,60.88,29.69,8.6,11.49,13.64,24.57,13.82,39,.37,28.66.2,57.32.21,86,0,36.49.13,73,0,109.47-.15,32.17-18.51,58.47-48.86,69a80,80,0,0,1-25.5,4q-150.46.4-300.93.13c-38.59,0-67.93-25.15-73.73-62.64a71.53,71.53,0,0,1-.66-11q0-95,0-190c.07-35,22.62-64.07,55.54-71.52a96.9,96.9,0,0,1,20.83-2.05C201,131.29,250.5,131.36,300,131.36Zm0,316.25q74.73,0,149.46,0c32.95,0,54.37-21.47,54.39-54.52q0-93,0-185.95c0-33.38-21.35-54.75-54.67-54.75q-149.2,0-298.41,0c-33.32,0-54.64,21.37-54.66,54.77q0,93,0,186a83.21,83.21,0,0,0,.41,9.48c3,26.06,24.68,44.93,52,45C199,447.69,249.52,447.61,300,447.61Z"/><path d="M352.26,319.07c-1.59,1.46-2.94,2.65-4.23,3.9q-19,18.5-37.94,37c-7.59,7.39-12.58,7.42-20.09.1q-18.81-18.3-37.59-36.65c-1.28-1.25-2.63-2.43-4.26-3.93-3,2.72-5.66,5.14-8.29,7.64l-88.07,83.68a62.18,62.18,0,0,1-4.84,4.34c-5.35,4.11-11.4,3.57-15.63-1.29-3.8-4.37-3.47-10.09,1.31-14.71,11.51-11.11,23.17-22.07,34.79-33.07q30.87-29.2,61.75-58.39c1.06-1,2-2.14,4.17-4.51-1.93-1.25-3.86-2.1-5.27-3.48Q181,253.86,134,207.89a53.56,53.56,0,0,1-4.47-4.7,9.59,9.59,0,0,1,.45-12.78c3.82-4.24,9.25-5.39,13.46-2.58a40.89,40.89,0,0,1,5.7,4.84q72.9,71,145.78,142c1.53,1.49,3.1,2.94,5,4.77,1.8-1.64,3.4-3,4.91-4.48L450.94,192.6a50.74,50.74,0,0,1,4.08-3.68c5-3.86,10.47-3.38,14.71,1.21,4.07,4.41,4.16,9.73-.26,14.25-7,7.15-14.19,14.09-21.34,21.08q-37.75,36.84-75.55,73.63a49,49,0,0,1-4.79,3.63c-.31.85-.62,1.71-.92,2.56,1.78.94,3.9,1.53,5.31,2.87q47.47,44.75,94.8,89.66c7.77,7.37,6.34,16.52-3,19.61-4.83,1.61-8.44-.62-11.71-3.69Q439.21,401.4,426.2,389l-69.62-66.09C355.28,321.64,353.89,320.5,352.26,319.07Z"/></svg>