<svg xmlns="http://www.w3.org/2000/svg" version="1.1" xmlns:xlink="http://www.w3.org/1999/xlink" xmlns:svgjs="http://svgjs.com/svgjs" width="512" height="512" x="0" y="0" viewBox="0 0 480 480" style="enable-background:new 0 0 512 512" xml:space="preserve" class=""><g><path d="M308 0H180a8 8 0 0 0-8 8v8h-24a8 8 0 0 0-8 8v48a8 8 0 0 0 8 8h24v6.112l-31.16 62.312A8 8 0 0 0 148 160h32a8.001 8.001 0 0 0 7.16-4.424L216.944 96H252v16h-8a8 8 0 0 0-8 8v44.688l-84.288 84.28A39.746 39.746 0 0 0 140 277.256V440c.026 22.08 17.92 39.974 40 40h144c22.08-.026 39.974-17.92 40-40V120a8 8 0 0 0-8-8h-8V96h40a8 8 0 0 0 8-8c-.053-48.579-39.421-87.947-88-88zM156 64V32h16v32h-16zm19.056 80h-14.112l24-48h14.112l-24 48zM348 440c0 13.255-10.745 24-24 24H180c-13.255 0-24-10.745-24-24V277.256a23.855 23.855 0 0 1 7.024-16.976L199.312 224H348v216zm0-232H215.312l32-32H348v32zm0-48h-96v-32h96v32zm-80-48V96h64v16h-64zm72-32H188V16h120c36.653.044 67.44 27.579 71.56 64H340zM84 40h40v16H84zM88.423 15.158 95.578.848l31.998 15.999-7.155 14.31zM88.422 80.841l31.998-15.999 7.156 14.31-31.999 16z" fill="#000000" data-original="#000000" class=""></path></g></svg>