<svg id="wave" style="transform:rotate(0deg); transition: 0.3s" viewBox="0 0 1440 490" version="1.1" xmlns="http://www.w3.org/2000/svg"><defs><linearGradient id="sw-gradient-0" x1="0" x2="0" y1="1" y2="0"><stop stop-color="rgba(254, 244, 236, 1)" offset="0%"></stop><stop stop-color="rgba(254, 244, 236, 1)" offset="100%"></stop></linearGradient></defs><path style="transform:translate(0, 0px); opacity:1" fill="url(#sw-gradient-0)" d="M0,0L40,40.8C80,82,160,163,240,187.8C320,212,400,180,480,163.3C560,147,640,147,720,155.2C800,163,880,180,960,228.7C1040,278,1120,359,1200,392C1280,425,1360,408,1440,400.2C1520,392,1600,392,1680,383.8C1760,376,1840,359,1920,351.2C2000,343,2080,343,2160,285.8C2240,229,2320,114,2400,122.5C2480,131,2560,261,2640,294C2720,327,2800,261,2880,212.3C2960,163,3040,131,3120,138.8C3200,147,3280,196,3360,228.7C3440,261,3520,278,3600,236.8C3680,196,3760,98,3840,89.8C3920,82,4000,163,4080,187.8C4160,212,4240,180,4320,138.8C4400,98,4480,49,4560,65.3C4640,82,4720,163,4800,187.8C4880,212,4960,180,5040,147C5120,114,5200,82,5280,130.7C5360,180,5440,310,5520,351.2C5600,392,5680,343,5720,318.5L5760,294L5760,490L5720,490C5680,490,5600,490,5520,490C5440,490,5360,490,5280,490C5200,490,5120,490,5040,490C4960,490,4880,490,4800,490C4720,490,4640,490,4560,490C4480,490,4400,490,4320,490C4240,490,4160,490,4080,490C4000,490,3920,490,3840,490C3760,490,3680,490,3600,490C3520,490,3440,490,3360,490C3280,490,3200,490,3120,490C3040,490,2960,490,2880,490C2800,490,2720,490,2640,490C2560,490,2480,490,2400,490C2320,490,2240,490,2160,490C2080,490,2000,490,1920,490C1840,490,1760,490,1680,490C1600,490,1520,490,1440,490C1360,490,1280,490,1200,490C1120,490,1040,490,960,490C880,490,800,490,720,490C640,490,560,490,480,490C400,490,320,490,240,490C160,490,80,490,40,490L0,490Z"></path></svg>